  0
SECTION
  2
HEADER
  9
$ACADVER
  1
AC1015
  9
$ACADMAINTVER
 70
     6
  9
$DWGCODEPAGE
  3
ANSI_936
  9
$INSBASE
 10
0.0
 20
0.0
 30
0.0
  9
$EXTMIN
 10
1.000000000000000E+20
 20
1.000000000000000E+20
 30
1.000000000000000E+20
  9
$EXTMAX
 10
-1.000000000000000E+20
 20
-1.000000000000000E+20
 30
-1.000000000000000E+20
  9
$LIMMIN
 10
0.0
 20
0.0
  9
$LIMMAX
 10
12.0
 20
9.0
  9
$ORTHOMODE
 70
     0
  9
$REGENMODE
 70
     1
  9
$FILLMODE
 70
     1
  9
$QTEXTMODE
 70
     0
  9
$MIRRTEXT
 70
     1
  9
$LTSCALE
 40
1.0
  9
$ATTMODE
 70
     1
  9
$TEXTSIZE
 40
0.2
  9
$TRACEWID
 40
0.05
  9
$TEXTSTYLE
  7
Standard
  9
$CLAYER
  8
0
  9
$CELTYPE
  6
ByLayer
  9
$CECOLOR
 62
   256
  9
$CELTSCALE
 40
1.0
  9
$DISPSILH
 70
     0
  9
$DIMSCALE
 40
1.0
  9
$DIMASZ
 40
0.18
  9
$DIMEXO
 40
0.0625
  9
$DIMDLI
 40
0.38
  9
$DIMRND
 40
0.0
  9
$DIMDLE
 40
0.0
  9
$DIMEXE
 40
0.18
  9
$DIMTP
 40
0.0
  9
$DIMTM
 40
0.0
  9
$DIMTXT
 40
0.18
  9
$DIMCEN
 40
0.09
  9
$DIMTSZ
 40
0.0
  9
$DIMTOL
 70
     0
  9
$DIMLIM
 70
     0
  9
$DIMTIH
 70
     1
  9
$DIMTOH
 70
     1
  9
$DIMSE1
 70
     0
  9
$DIMSE2
 70
     0
  9
$DIMTAD
 70
     0
  9
$DIMZIN
 70
     0
  9
$DIMBLK
  1

  9
$DIMASO
 70
     1
  9
$DIMSHO
 70
     1
  9
$DIMPOST
  1

  9
$DIMAPOST
  1

  9
$DIMALT
 70
     0
  9
$DIMALTD
 70
     2
  9
$DIMALTF
 40
25.4
  9
$DIMLFAC
 40
1.0
  9
$DIMTOFL
 70
     0
  9
$DIMTVP
 40
0.0
  9
$DIMTIX
 70
     0
  9
$DIMSOXD
 70
     0
  9
$DIMSAH
 70
     0
  9
$DIMBLK1
  1

  9
$DIMBLK2
  1

  9
$DIMSTYLE
  2
Standard
  9
$DIMCLRD
 70
     0
  9
$DIMCLRE
 70
     0
  9
$DIMCLRT
 70
     0
  9
$DIMTFAC
 40
1.0
  9
$DIMGAP
 40
0.09
  9
$DIMJUST
 70
     0
  9
$DIMSD1
 70
     0
  9
$DIMSD2
 70
     0
  9
$DIMTOLJ
 70
     1
  9
$DIMTZIN
 70
     0
  9
$DIMALTZ
 70
     0
  9
$DIMALTTZ
 70
     0
  9
$DIMUPT
 70
     0
  9
$DIMDEC
 70
     4
  9
$DIMTDEC
 70
     4
  9
$DIMALTU
 70
     2
  9
$DIMALTTD
 70
     2
  9
$DIMTXSTY
  7
Standard
  9
$DIMAUNIT
 70
     0
  9
$DIMADEC
 70
     0
  9
$DIMALTRND
 40
0.0
  9
$DIMAZIN
 70
     0
  9
$DIMDSEP
 70
    46
  9
$DIMATFIT
 70
     3
  9
$DIMFRAC
 70
     0
  9
$DIMLDRBLK
  1

  9
$DIMLUNIT
 70
     2
  9
$DIMLWD
 70
    -2
  9
$DIMLWE
 70
    -2
  9
$DIMTMOVE
 70
     0
  9
$LUNITS
 70
     2
  9
$LUPREC
 70
     4
  9
$SKETCHINC
 40
0.1
  9
$FILLETRAD
 40
0.5
  9
$AUNITS
 70
     0
  9
$AUPREC
 70
     0
  9
$MENU
  1
.
  9
$ELEVATION
 40
0.0
  9
$PELEVATION
 40
0.0
  9
$THICKNESS
 40
0.0
  9
$LIMCHECK
 70
     0
  9
$CHAMFERA
 40
0.5
  9
$CHAMFERB
 40
0.5
  9
$CHAMFERC
 40
1.0
  9
$CHAMFERD
 40
0.0
  9
$SKPOLY
 70
     0
  9
$TDCREATE
 40
2457096.826785544
  9
$TDUCREATE
 40
2457096.49345221
  9
$TDUPDATE
 40
2457096.826785556
  9
$TDUUPDATE
 40
2457096.493452222
  9
$TDINDWG
 40
0.0000000116
  9
$TDUSRTIMER
 40
0.0000000116
  9
$USRTIMER
 70
     1
  9
$ANGBASE
 50
0.0
  9
$ANGDIR
 70
     0
  9
$PDMODE
 70
     0
  9
$PDSIZE
 40
0.0
  9
$PLINEWID
 40
0.0
  9
$SPLFRAME
 70
     0
  9
$SPLINETYPE
 70
     6
  9
$SPLINESEGS
 70
     8
  9
$HANDSEED
  5
425
  9
$SURFTAB1
 70
     6
  9
$SURFTAB2
 70
     6
  9
$SURFTYPE
 70
     6
  9
$SURFU
 70
     6
  9
$SURFV
 70
     6
  9
$UCSBASE
  2

  9
$UCSNAME
  2

  9
$UCSORG
 10
0.0
 20
0.0
 30
0.0
  9
$UCSXDIR
 10
1.0
 20
0.0
 30
0.0
  9
$UCSYDIR
 10
0.0
 20
1.0
 30
0.0
  9
$UCSORTHOREF
  2

  9
$UCSORTHOVIEW
 70
     0
  9
$UCSORGTOP
 10
0.0
 20
0.0
 30
0.0
  9
$UCSORGBOTTOM
 10
0.0
 20
0.0
 30
0.0
  9
$UCSORGLEFT
 10
0.0
 20
0.0
 30
0.0
  9
$UCSORGRIGHT
 10
0.0
 20
0.0
 30
0.0
  9
$UCSORGFRONT
 10
0.0
 20
0.0
 30
0.0
  9
$UCSORGBACK
 10
0.0
 20
0.0
 30
0.0
  9
$PUCSBASE
  2

  9
$PUCSNAME
  2

  9
$PUCSORG
 10
0.0
 20
0.0
 30
0.0
  9
$PUCSXDIR
 10
1.0
 20
0.0
 30
0.0
  9
$PUCSYDIR
 10
0.0
 20
1.0
 30
0.0
  9
$PUCSORTHOREF
  2

  9
$PUCSORTHOVIEW
 70
     0
  9
$PUCSORGTOP
 10
0.0
 20
0.0
 30
0.0
  9
$PUCSORGBOTTOM
 10
0.0
 20
0.0
 30
0.0
  9
$PUCSORGLEFT
 10
0.0
 20
0.0
 30
0.0
  9
$PUCSORGRIGHT
 10
0.0
 20
0.0
 30
0.0
  9
$PUCSORGFRONT
 10
0.0
 20
0.0
 30
0.0
  9
$PUCSORGBACK
 10
0.0
 20
0.0
 30
0.0
  9
$USERI1
 70
     0
  9
$USERI2
 70
     0
  9
$USERI3
 70
     0
  9
$USERI4
 70
     0
  9
$USERI5
 70
     0
  9
$USERR1
 40
0.0
  9
$USERR2
 40
0.0
  9
$USERR3
 40
0.0
  9
$USERR4
 40
0.0
  9
$USERR5
 40
0.0
  9
$WORLDVIEW
 70
     1
  9
$SHADEDGE
 70
     3
  9
$SHADEDIF
 70
    70
  9
$TILEMODE
 70
     1
  9
$MAXACTVP
 70
    64
  9
$PINSBASE
 10
0.0
 20
0.0
 30
0.0
  9
$PLIMCHECK
 70
     0
  9
$PEXTMIN
 10
1.000000000000000E+20
 20
1.000000000000000E+20
 30
1.000000000000000E+20
  9
$PEXTMAX
 10
-1.000000000000000E+20
 20
-1.000000000000000E+20
 30
-1.000000000000000E+20
  9
$PLIMMIN
 10
0.0
 20
0.0
  9
$PLIMMAX
 10
12.0
 20
9.0
  9
$UNITMODE
 70
     0
  9
$VISRETAIN
 70
     1
  9
$PLINEGEN
 70
     0
  9
$PSLTSCALE
 70
     1
  9
$TREEDEPTH
 70
  3020
  9
$CMLSTYLE
  2
Standard
  9
$CMLJUST
 70
     0
  9
$CMLSCALE
 40
1.0
  9
$PROXYGRAPHICS
 70
     1
  9
$MEASUREMENT
 70
     0
  9
$CELWEIGHT
370
    -1
  9
$ENDCAPS
280
     0
  9
$JOINSTYLE
280
     0
  9
$LWDISPLAY
290
     1
  9
$INSUNITS
 70
     1
  9
$HYPERLINKBASE
  1

  9
$STYLESHEET
  1

  9
$XEDIT
290
     1
  9
$CEPSNTYPE
380
     0
  9
$PSTYLEMODE
290
     1
  9
$FINGERPRINTGUID
  2
{01C7134F-776C-424C-A92D-F2A5DF7DBD3C}
  9
$VERSIONGUID
  2
{FAEB1C32-E019-11D5-929B-00C0DF256EC4}
  9
$EXTNAMES
290
     1
  9
$PSVPSCALE
 40
0.0
  9
$OLESTARTUP
290
     0
  0
ENDSEC
  0
SECTION
  2
CLASSES
  0
CLASS
  1
ACDBDICTIONARYWDFLT
  2
AcDbDictionaryWithDefault
  3
ObjectDBX Classes
 90
        0
280
     0
281
     0
  0
CLASS
  1
VISUALSTYLE
  2
AcDbVisualStyle
  3
ObjectDBX Classes
 90
     4095
280
     0
281
     0
  0
CLASS
  1
ACDBPLACEHOLDER
  2
AcDbPlaceHolder
  3
ObjectDBX Classes
 90
        0
280
     0
281
     0
  0
CLASS
  1
LAYOUT
  2
AcDbLayout
  3
ObjectDBX Classes
 90
        0
280
     0
281
     0
  0
ENDSEC
  0
SECTION
  2
TABLES
  0
TABLE
  2
VPORT
  5
8
330
0
100
AcDbSymbolTable
 70
     1
  0
VPORT
  5
29
330
8
100
AcDbSymbolTableRecord
100
AcDbViewportTableRecord
  2
*Active
 70
     0
 10
0.0
 20
0.0
 11
1.0
 21
1.0
 12
0.0
 22
0.0
 13
0.0
 23
0.0
 14
0.5
 24
0.5
 15
0.5
 25
0.5
 16
0.0
 26
0.0
 36
1.0
 17
305.5
 27
396.5
 37
0.0
 40
140.0
 41
1.0
 42
50.0
 43
0.0
 44
0.0
 50
0.0
 51
0.0
 71
     0
 72
   100
 73
     1
 74
     3
 75
     0
 76
     0
 77
     0
 78
     0
281
     0
 65
     1
110
0.0
120
0.0
130
0.0
111
1.0
121
0.0
131
0.0
112
0.0
122
1.0
132
0.0
 79
     0
146
0.0
  0
ENDTAB
  0
TABLE
  2
LTYPE
  5
5
330
0
100
AcDbSymbolTable
 70
     1
  0
LTYPE
  5
14
330
5
100
AcDbSymbolTableRecord
100
AcDbLinetypeTableRecord
  2
ByBlock
 70
     0
  3

 72
    65
 73
     0
 40
0.0
  0
LTYPE
  5
15
330
5
100
AcDbSymbolTableRecord
100
AcDbLinetypeTableRecord
  2
ByLayer
 70
     0
  3

 72
    65
 73
     0
 40
0.0
  0
LTYPE
  5
16
330
5
100
AcDbSymbolTableRecord
100
AcDbLinetypeTableRecord
  2
Continuous
 70
     0
  3
Solid line
 72
    65
 73
     0
 40
0.0
  0
ENDTAB
  0
TABLE
  2
LAYER
  5
2
330
0
100
AcDbSymbolTable
 70
     2
  0
LAYER
  5
10
330
2
100
AcDbSymbolTableRecord
100
AcDbLayerTableRecord
  2
0
 70
     0
 62
     7
  6
Continuous
370
    -3
390
F
  0
LAYER
  5
3B
330
2
100
AcDbSymbolTableRecord
100
AcDbLayerTableRecord
  2
\U+56FE\U+5C42 1
 70
     0
 62
     7
  6
Continuous
370
    -3
390
F
  0
ENDTAB
  0
TABLE
  2
STYLE
  5
3
330
0
100
AcDbSymbolTable
 70
     1
  0
STYLE
  5
11
330
3
100
AcDbSymbolTableRecord
100
AcDbTextStyleTableRecord
  2
Standard
 70
     0
 40
0.0
 41
1.0
 50
0.0
 71
     0
 42
0.2
  3
txt
  4

  0
ENDTAB
  0
TABLE
  2
VIEW
  5
6
330
0
100
AcDbSymbolTable
 70
     0
  0
ENDTAB
  0
TABLE
  2
UCS
  5
7
330
0
100
AcDbSymbolTable
 70
     0
  0
ENDTAB
  0
TABLE
  2
APPID
  5
9
330
0
100
AcDbSymbolTable
 70
     1
  0
APPID
  5
12
330
9
100
AcDbSymbolTableRecord
100
AcDbRegAppTableRecord
  2
ACAD
 70
     0
  0
ENDTAB
  0
TABLE
  2
DIMSTYLE
  5
A
330
0
100
AcDbSymbolTable
 70
     1
100
AcDbDimStyleTable
  0
DIMSTYLE
105
27
330
A
100
AcDbSymbolTableRecord
100
AcDbDimStyleTableRecord
  2
Standard
 70
     0
340
11
  0
ENDTAB
  0
TABLE
  2
BLOCK_RECORD
  5
1
330
0
100
AcDbSymbolTable
 70
    41
  0
BLOCK_RECORD
  5
1F
330
1
100
AcDbSymbolTableRecord
100
AcDbBlockTableRecord
  2
*Model_Space
340
22
  0
BLOCK_RECORD
  5
1B
330
1
100
AcDbSymbolTableRecord
100
AcDbBlockTableRecord
  2
*Paper_Space
340
1E
  0
BLOCK_RECORD
  5
23
330
1
100
AcDbSymbolTableRecord
100
AcDbBlockTableRecord
  2
*Paper_Space0
340
26
  0
BLOCK_RECORD
  5
3C
330
1
100
AcDbSymbolTableRecord
100
AcDbBlockTableRecord
  2
block 2
340
0
102
{BLKREFS
331
3D
102
}
  0
BLOCK_RECORD
  5
55
330
1
100
AcDbSymbolTableRecord
100
AcDbBlockTableRecord
  2
block 3
340
0
102
{BLKREFS
331
56
102
}
  0
BLOCK_RECORD
  5
6E
330
1
100
AcDbSymbolTableRecord
100
AcDbBlockTableRecord
  2
block 4
340
0
102
{BLKREFS
331
6F
102
}
  0
BLOCK_RECORD
  5
87
330
1
100
AcDbSymbolTableRecord
100
AcDbBlockTableRecord
  2
block 5
340
0
102
{BLKREFS
331
88
102
}
  0
BLOCK_RECORD
  5
A0
330
1
100
AcDbSymbolTableRecord
100
AcDbBlockTableRecord
  2
block 6
340
0
102
{BLKREFS
331
A1
102
}
  0
BLOCK_RECORD
  5
B9
330
1
100
AcDbSymbolTableRecord
100
AcDbBlockTableRecord
  2
block 7
340
0
102
{BLKREFS
331
BA
102
}
  0
BLOCK_RECORD
  5
D2
330
1
100
AcDbSymbolTableRecord
100
AcDbBlockTableRecord
  2
block 8
340
0
102
{BLKREFS
331
D3
102
}
  0
BLOCK_RECORD
  5
EB
330
1
100
AcDbSymbolTableRecord
100
AcDbBlockTableRecord
  2
block 9
340
0
102
{BLKREFS
331
EC
102
}
  0
BLOCK_RECORD
  5
104
330
1
100
AcDbSymbolTableRecord
100
AcDbBlockTableRecord
  2
block 10
340
0
102
{BLKREFS
331
105
102
}
  0
BLOCK_RECORD
  5
11D
330
1
100
AcDbSymbolTableRecord
100
AcDbBlockTableRecord
  2
block 11
340
0
102
{BLKREFS
331
11E
102
}
  0
BLOCK_RECORD
  5
136
330
1
100
AcDbSymbolTableRecord
100
AcDbBlockTableRecord
  2
block 12
340
0
102
{BLKREFS
331
137
102
}
  0
BLOCK_RECORD
  5
14F
330
1
100
AcDbSymbolTableRecord
100
AcDbBlockTableRecord
  2
block 13
340
0
102
{BLKREFS
331
150
102
}
  0
BLOCK_RECORD
  5
168
330
1
100
AcDbSymbolTableRecord
100
AcDbBlockTableRecord
  2
block 14
340
0
102
{BLKREFS
331
169
102
}
  0
BLOCK_RECORD
  5
181
330
1
100
AcDbSymbolTableRecord
100
AcDbBlockTableRecord
  2
block 15
340
0
102
{BLKREFS
331
182
102
}
  0
BLOCK_RECORD
  5
19A
330
1
100
AcDbSymbolTableRecord
100
AcDbBlockTableRecord
  2
block 16
340
0
102
{BLKREFS
331
19B
102
}
  0
BLOCK_RECORD
  5
1B3
330
1
100
AcDbSymbolTableRecord
100
AcDbBlockTableRecord
  2
block 17
340
0
102
{BLKREFS
331
1B4
102
}
  0
BLOCK_RECORD
  5
1CC
330
1
100
AcDbSymbolTableRecord
100
AcDbBlockTableRecord
  2
block 18
340
0
102
{BLKREFS
331
1CD
102
}
  0
BLOCK_RECORD
  5
1E5
330
1
100
AcDbSymbolTableRecord
100
AcDbBlockTableRecord
  2
block 19
340
0
102
{BLKREFS
331
1E6
102
}
  0
BLOCK_RECORD
  5
1FE
330
1
100
AcDbSymbolTableRecord
100
AcDbBlockTableRecord
  2
block 20
340
0
102
{BLKREFS
331
1FF
102
}
  0
BLOCK_RECORD
  5
217
330
1
100
AcDbSymbolTableRecord
100
AcDbBlockTableRecord
  2
block 21
340
0
102
{BLKREFS
331
218
102
}
  0
BLOCK_RECORD
  5
230
330
1
100
AcDbSymbolTableRecord
100
AcDbBlockTableRecord
  2
block 22
340
0
102
{BLKREFS
331
231
102
}
  0
BLOCK_RECORD
  5
249
330
1
100
AcDbSymbolTableRecord
100
AcDbBlockTableRecord
  2
block 23
340
0
102
{BLKREFS
331
24A
102
}
  0
BLOCK_RECORD
  5
262
330
1
100
AcDbSymbolTableRecord
100
AcDbBlockTableRecord
  2
block 24
340
0
102
{BLKREFS
331
263
102
}
  0
BLOCK_RECORD
  5
27B
330
1
100
AcDbSymbolTableRecord
100
AcDbBlockTableRecord
  2
block 25
340
0
102
{BLKREFS
331
27C
102
}
  0
BLOCK_RECORD
  5
294
330
1
100
AcDbSymbolTableRecord
100
AcDbBlockTableRecord
  2
block 26
340
0
102
{BLKREFS
331
295
102
}
  0
BLOCK_RECORD
  5
2AD
330
1
100
AcDbSymbolTableRecord
100
AcDbBlockTableRecord
  2
block 27
340
0
102
{BLKREFS
331
2AE
102
}
  0
BLOCK_RECORD
  5
2C6
330
1
100
AcDbSymbolTableRecord
100
AcDbBlockTableRecord
  2
block 28
340
0
102
{BLKREFS
331
2C7
102
}
  0
BLOCK_RECORD
  5
2DF
330
1
100
AcDbSymbolTableRecord
100
AcDbBlockTableRecord
  2
block 29
340
0
102
{BLKREFS
331
2E0
102
}
  0
BLOCK_RECORD
  5
2F8
330
1
100
AcDbSymbolTableRecord
100
AcDbBlockTableRecord
  2
block 30
340
0
102
{BLKREFS
331
2F9
102
}
  0
BLOCK_RECORD
  5
311
330
1
100
AcDbSymbolTableRecord
100
AcDbBlockTableRecord
  2
block 31
340
0
102
{BLKREFS
331
312
102
}
  0
BLOCK_RECORD
  5
32A
330
1
100
AcDbSymbolTableRecord
100
AcDbBlockTableRecord
  2
block 32
340
0
102
{BLKREFS
331
32B
102
}
  0
BLOCK_RECORD
  5
343
330
1
100
AcDbSymbolTableRecord
100
AcDbBlockTableRecord
  2
block 33
340
0
102
{BLKREFS
331
344
102
}
  0
BLOCK_RECORD
  5
35C
330
1
100
AcDbSymbolTableRecord
100
AcDbBlockTableRecord
  2
block 34
340
0
102
{BLKREFS
331
35D
102
}
  0
BLOCK_RECORD
  5
375
330
1
100
AcDbSymbolTableRecord
100
AcDbBlockTableRecord
  2
block 35
340
0
102
{BLKREFS
331
376
102
}
  0
BLOCK_RECORD
  5
38E
330
1
100
AcDbSymbolTableRecord
100
AcDbBlockTableRecord
  2
block 36
340
0
102
{BLKREFS
331
38F
102
}
  0
BLOCK_RECORD
  5
3A7
330
1
100
AcDbSymbolTableRecord
100
AcDbBlockTableRecord
  2
block 37
340
0
102
{BLKREFS
331
3A8
102
}
  0
BLOCK_RECORD
  5
3C0
330
1
100
AcDbSymbolTableRecord
100
AcDbBlockTableRecord
  2
block 38
340
0
102
{BLKREFS
331
3C1
102
}
  0
BLOCK_RECORD
  5
3D9
330
1
100
AcDbSymbolTableRecord
100
AcDbBlockTableRecord
  2
block 39
340
0
102
{BLKREFS
331
3DA
102
}
  0
BLOCK_RECORD
  5
3F2
330
1
100
AcDbSymbolTableRecord
100
AcDbBlockTableRecord
  2
block 40
340
0
102
{BLKREFS
331
3F3
102
}
  0
BLOCK_RECORD
  5
40B
330
1
100
AcDbSymbolTableRecord
100
AcDbBlockTableRecord
  2
block 41
340
0
102
{BLKREFS
331
40C
102
}
  0
ENDTAB
  0
ENDSEC
  0
SECTION
  2
BLOCKS
  0
BLOCK
  5
20
330
1F
100
AcDbEntity
  8
0
100
AcDbBlockBegin
  2
*Model_Space
 70
     0
 71
     0
 10
0.0
 20
0.0
 30
0.0
  3
*Model_Space
  1

  0
ENDBLK
  5
21
330
1F
100
AcDbEntity
  8
0
100
AcDbBlockEnd
  0
BLOCK
  5
1C
330
1B
100
AcDbEntity
 67
     1
  8
0
100
AcDbBlockBegin
  2
*Paper_Space
 70
     0
 71
     0
 10
0.0
 20
0.0
 30
0.0
  3
*Paper_Space
  1

  0
ENDBLK
  5
1D
330
1B
100
AcDbEntity
 67
     1
  8
0
100
AcDbBlockEnd
  0
BLOCK
  5
24
330
23
100
AcDbEntity
  8
0
100
AcDbBlockBegin
  2
*Paper_Space0
 70
     0
 71
     0
 10
0.0
 20
0.0
 30
0.0
  3
*Paper_Space0
  1

  0
ENDBLK
  5
25
330
23
100
AcDbEntity
  8
0
100
AcDbBlockEnd
  0
BLOCK
  5
3E
330
3C
100
AcDbEntity
  8
0
100
AcDbBlockBegin
  2
block 2
 70
     0
 71
     0
 10
0.0
 20
0.0
 30
0.0
  3
block 2
  1

  0
POLYLINE
  5
40
330
3C
100
AcDbEntity
  8
\U+56FE\U+5C42 1
370
     0
100
AcDb2dPolyline
 66
     1
 10
0.0
 20
0.0
 30
0.0
  0
VERTEX
  5
41
330
40
100
AcDbEntity
  8
\U+56FE\U+5C42 1
370
     0
100
AcDbVertex
100
AcDb2dVertex
 10
375.5
 20
466.5
 30
0.0
  0
VERTEX
  5
42
330
40
100
AcDbEntity
  8
\U+56FE\U+5C42 1
370
     0
100
AcDbVertex
100
AcDb2dVertex
 10
375.5
 20
326.5
 30
0.0
  0
VERTEX
  5
43
330
40
100
AcDbEntity
  8
\U+56FE\U+5C42 1
370
     0
100
AcDbVertex
100
AcDb2dVertex
 10
235.5
 20
326.5
 30
0.0
  0
VERTEX
  5
44
330
40
100
AcDbEntity
  8
\U+56FE\U+5C42 1
370
     0
100
AcDbVertex
100
AcDb2dVertex
 10
235.5
 20
466.5
 30
0.0
  0
VERTEX
  5
45
330
40
100
AcDbEntity
  8
\U+56FE\U+5C42 1
370
     0
100
AcDbVertex
100
AcDb2dVertex
 10
375.5
 20
466.5
 30
0.0
  0
SEQEND
  5
46
330
40
100
AcDbEntity
  8
\U+56FE\U+5C42 1
370
     0
  0
POLYLINE
  5
47
330
3C
100
AcDbEntity
  8
\U+56FE\U+5C42 1
370
     0
100
AcDb2dPolyline
 66
     1
 10
0.0
 20
0.0
 30
0.0
  0
VERTEX
  5
48
330
47
100
AcDbEntity
  8
\U+56FE\U+5C42 1
370
     0
100
AcDbVertex
100
AcDb2dVertex
 10
305.5
 20
416.1298828125
 30
0.0
  0
VERTEX
  5
49
330
47
100
AcDbEntity
  8
\U+56FE\U+5C42 1
370
     0
100
AcDbVertex
100
AcDb2dVertex
 10
305.330078125
 20
416.03173828125
 30
0.0
  0
VERTEX
  5
4A
330
47
100
AcDbEntity
  8
\U+56FE\U+5C42 1
370
     0
100
AcDbVertex
100
AcDb2dVertex
 10
288.5
 20
406.31494140625
 30
0.0
  0
VERTEX
  5
4B
330
47
100
AcDbEntity
  8
\U+56FE\U+5C42 1
370
     0
100
AcDbVertex
100
AcDb2dVertex
 10
288.5
 20
386.685546875
 30
0.0
  0
VERTEX
  5
4C
330
47
100
AcDbEntity
  8
\U+56FE\U+5C42 1
370
     0
100
AcDbVertex
100
AcDb2dVertex
 10
288.669921875
 20
386.5869140625
 30
0.0
  0
VERTEX
  5
4D
330
47
100
AcDbEntity
  8
\U+56FE\U+5C42 1
370
     0
100
AcDbVertex
100
AcDb2dVertex
 10
305.5
 20
376.8701171875
 30
0.0
  0
VERTEX
  5
4E
330
47
100
AcDbEntity
  8
\U+56FE\U+5C42 1
370
     0
100
AcDbVertex
100
AcDb2dVertex
 10
305.669921875
 20
376.96875
 30
0.0
  0
VERTEX
  5
4F
330
47
100
AcDbEntity
  8
\U+56FE\U+5C42 1
370
     0
100
AcDbVertex
100
AcDb2dVertex
 10
322.5
 20
386.685546875
 30
0.0
  0
VERTEX
  5
50
330
47
100
AcDbEntity
  8
\U+56FE\U+5C42 1
370
     0
100
AcDbVertex
100
AcDb2dVertex
 10
322.5
 20
406.31494140625
 30
0.0
  0
VERTEX
  5
51
330
47
100
AcDbEntity
  8
\U+56FE\U+5C42 1
370
     0
100
AcDbVertex
100
AcDb2dVertex
 10
322.330078125
 20
406.4130859375
 30
0.0
  0
VERTEX
  5
52
330
47
100
AcDbEntity
  8
\U+56FE\U+5C42 1
370
     0
100
AcDbVertex
100
AcDb2dVertex
 10
305.5
 20
416.1298828125
 30
0.0
  0
SEQEND
  5
53
330
47
100
AcDbEntity
  8
\U+56FE\U+5C42 1
370
     0
  0
HATCH
  5
54
330
3C
100
AcDbEntity
  8
\U+56FE\U+5C42 1
 62
     7
100
AcDbHatch
 10
0.0
 20
0.0
 30
0.0
210
0.0
220
0.0
230
1.0
  2
SOLID
 70
     1
 71
     0
 91
        1
 92
        1
 93
       10
 72
     1
 10
305.5
 20
416.1298828125
 11
305.330078125
 21
416.03173828125
 72
     1
 10
305.330078125
 20
416.03173828125
 11
288.5
 21
406.31494140625
 72
     1
 10
288.5
 20
406.31494140625
 11
288.5
 21
386.685546875
 72
     1
 10
288.5
 20
386.685546875
 11
288.669921875
 21
386.5869140625
 72
     1
 10
288.669921875
 20
386.5869140625
 11
305.5
 21
376.8701171875
 72
     1
 10
305.5
 20
376.8701171875
 11
305.669921875
 21
376.96875
 72
     1
 10
305.669921875
 20
376.96875
 11
322.5
 21
386.685546875
 72
     1
 10
322.5
 20
386.685546875
 11
322.5
 21
406.31494140625
 72
     1
 10
322.5
 20
406.31494140625
 11
322.330078125
 21
406.4130859375
 72
     1
 10
322.330078125
 20
406.4130859375
 11
305.5
 21
416.1298828125
 97
        0
 75
     2
 76
     1
 98
        0
  0
ENDBLK
  5
3F
330
3C
100
AcDbEntity
  8
0
100
AcDbBlockEnd
  0
BLOCK
  5
57
330
55
100
AcDbEntity
  8
0
100
AcDbBlockBegin
  2
block 3
 70
     0
 71
     0
 10
0.0
 20
0.0
 30
0.0
  3
block 3
  1

  0
POLYLINE
  5
59
330
55
100
AcDbEntity
  8
\U+56FE\U+5C42 1
370
     0
100
AcDb2dPolyline
 66
     1
 10
0.0
 20
0.0
 30
0.0
  0
VERTEX
  5
5A
330
59
100
AcDbEntity
  8
\U+56FE\U+5C42 1
370
     0
100
AcDbVertex
100
AcDb2dVertex
 10
375.5
 20
466.5
 30
0.0
  0
VERTEX
  5
5B
330
59
100
AcDbEntity
  8
\U+56FE\U+5C42 1
370
     0
100
AcDbVertex
100
AcDb2dVertex
 10
375.5
 20
326.5
 30
0.0
  0
VERTEX
  5
5C
330
59
100
AcDbEntity
  8
\U+56FE\U+5C42 1
370
     0
100
AcDbVertex
100
AcDb2dVertex
 10
235.5
 20
326.5
 30
0.0
  0
VERTEX
  5
5D
330
59
100
AcDbEntity
  8
\U+56FE\U+5C42 1
370
     0
100
AcDbVertex
100
AcDb2dVertex
 10
235.5
 20
466.5
 30
0.0
  0
VERTEX
  5
5E
330
59
100
AcDbEntity
  8
\U+56FE\U+5C42 1
370
     0
100
AcDbVertex
100
AcDb2dVertex
 10
375.5
 20
466.5
 30
0.0
  0
SEQEND
  5
5F
330
59
100
AcDbEntity
  8
\U+56FE\U+5C42 1
370
     0
  0
POLYLINE
  5
60
330
55
100
AcDbEntity
  8
\U+56FE\U+5C42 1
370
     0
100
AcDb2dPolyline
 66
     1
 10
0.0
 20
0.0
 30
0.0
  0
VERTEX
  5
61
330
60
100
AcDbEntity
  8
\U+56FE\U+5C42 1
370
     0
100
AcDbVertex
100
AcDb2dVertex
 10
305.5
 20
416.1298828125
 30
0.0
  0
VERTEX
  5
62
330
60
100
AcDbEntity
  8
\U+56FE\U+5C42 1
370
     0
100
AcDbVertex
100
AcDb2dVertex
 10
304.947265625
 20
415.81103515625
 30
0.0
  0
VERTEX
  5
63
330
60
100
AcDbEntity
  8
\U+56FE\U+5C42 1
370
     0
100
AcDbVertex
100
AcDb2dVertex
 10
288.5
 20
406.31494140625
 30
0.0
  0
VERTEX
  5
64
330
60
100
AcDbEntity
  8
\U+56FE\U+5C42 1
370
     0
100
AcDbVertex
100
AcDb2dVertex
 10
288.5
 20
386.685546875
 30
0.0
  0
VERTEX
  5
65
330
60
100
AcDbEntity
  8
\U+56FE\U+5C42 1
370
     0
100
AcDbVertex
100
AcDb2dVertex
 10
289.052734375
 20
386.3662109375
 30
0.0
  0
VERTEX
  5
66
330
60
100
AcDbEntity
  8
\U+56FE\U+5C42 1
370
     0
100
AcDbVertex
100
AcDb2dVertex
 10
305.5
 20
376.8701171875
 30
0.0
  0
VERTEX
  5
67
330
60
100
AcDbEntity
  8
\U+56FE\U+5C42 1
370
     0
100
AcDbVertex
100
AcDb2dVertex
 10
306.052734375
 20
377.189453125
 30
0.0
  0
VERTEX
  5
68
330
60
100
AcDbEntity
  8
\U+56FE\U+5C42 1
370
     0
100
AcDbVertex
100
AcDb2dVertex
 10
322.5
 20
386.685546875
 30
0.0
  0
VERTEX
  5
69
330
60
100
AcDbEntity
  8
\U+56FE\U+5C42 1
370
     0
100
AcDbVertex
100
AcDb2dVertex
 10
322.5
 20
406.31494140625
 30
0.0
  0
VERTEX
  5
6A
330
60
100
AcDbEntity
  8
\U+56FE\U+5C42 1
370
     0
100
AcDbVertex
100
AcDb2dVertex
 10
321.947265625
 20
406.6337890625
 30
0.0
  0
VERTEX
  5
6B
330
60
100
AcDbEntity
  8
\U+56FE\U+5C42 1
370
     0
100
AcDbVertex
100
AcDb2dVertex
 10
305.5
 20
416.1298828125
 30
0.0
  0
SEQEND
  5
6C
330
60
100
AcDbEntity
  8
\U+56FE\U+5C42 1
370
     0
  0
HATCH
  5
6D
330
55
100
AcDbEntity
  8
\U+56FE\U+5C42 1
 62
     7
100
AcDbHatch
 10
0.0
 20
0.0
 30
0.0
210
0.0
220
0.0
230
1.0
  2
SOLID
 70
     1
 71
     0
 91
        1
 92
        1
 93
       10
 72
     1
 10
305.5
 20
416.1298828125
 11
304.947265625
 21
415.81103515625
 72
     1
 10
304.947265625
 20
415.81103515625
 11
288.5
 21
406.31494140625
 72
     1
 10
288.5
 20
406.31494140625
 11
288.5
 21
386.685546875
 72
     1
 10
288.5
 20
386.685546875
 11
289.052734375
 21
386.3662109375
 72
     1
 10
289.052734375
 20
386.3662109375
 11
305.5
 21
376.8701171875
 72
     1
 10
305.5
 20
376.8701171875
 11
306.052734375
 21
377.189453125
 72
     1
 10
306.052734375
 20
377.189453125
 11
322.5
 21
386.685546875
 72
     1
 10
322.5
 20
386.685546875
 11
322.5
 21
406.31494140625
 72
     1
 10
322.5
 20
406.31494140625
 11
321.947265625
 21
406.6337890625
 72
     1
 10
321.947265625
 20
406.6337890625
 11
305.5
 21
416.1298828125
 97
        0
 75
     2
 76
     1
 98
        0
  0
ENDBLK
  5
58
330
55
100
AcDbEntity
  8
0
100
AcDbBlockEnd
  0
BLOCK
  5
70
330
6E
100
AcDbEntity
  8
0
100
AcDbBlockBegin
  2
block 4
 70
     0
 71
     0
 10
0.0
 20
0.0
 30
0.0
  3
block 4
  1

  0
POLYLINE
  5
72
330
6E
100
AcDbEntity
  8
\U+56FE\U+5C42 1
370
     0
100
AcDb2dPolyline
 66
     1
 10
0.0
 20
0.0
 30
0.0
  0
VERTEX
  5
73
330
72
100
AcDbEntity
  8
\U+56FE\U+5C42 1
370
     0
100
AcDbVertex
100
AcDb2dVertex
 10
375.5
 20
466.5
 30
0.0
  0
VERTEX
  5
74
330
72
100
AcDbEntity
  8
\U+56FE\U+5C42 1
370
     0
100
AcDbVertex
100
AcDb2dVertex
 10
375.5
 20
326.5
 30
0.0
  0
VERTEX
  5
75
330
72
100
AcDbEntity
  8
\U+56FE\U+5C42 1
370
     0
100
AcDbVertex
100
AcDb2dVertex
 10
235.5
 20
326.5
 30
0.0
  0
VERTEX
  5
76
330
72
100
AcDbEntity
  8
\U+56FE\U+5C42 1
370
     0
100
AcDbVertex
100
AcDb2dVertex
 10
235.5
 20
466.5
 30
0.0
  0
VERTEX
  5
77
330
72
100
AcDbEntity
  8
\U+56FE\U+5C42 1
370
     0
100
AcDbVertex
100
AcDb2dVertex
 10
375.5
 20
466.5
 30
0.0
  0
SEQEND
  5
78
330
72
100
AcDbEntity
  8
\U+56FE\U+5C42 1
370
     0
  0
POLYLINE
  5
79
330
6E
100
AcDbEntity
  8
\U+56FE\U+5C42 1
370
     0
100
AcDb2dPolyline
 66
     1
 10
0.0
 20
0.0
 30
0.0
  0
VERTEX
  5
7A
330
79
100
AcDbEntity
  8
\U+56FE\U+5C42 1
370
     0
100
AcDbVertex
100
AcDb2dVertex
 10
305.5
 20
416.1298828125
 30
0.0
  0
VERTEX
  5
7B
330
79
100
AcDbEntity
  8
\U+56FE\U+5C42 1
370
     0
100
AcDbVertex
100
AcDb2dVertex
 10
304.5224609375
 20
415.5654296875
 30
0.0
  0
VERTEX
  5
7C
330
79
100
AcDbEntity
  8
\U+56FE\U+5C42 1
370
     0
100
AcDbVertex
100
AcDb2dVertex
 10
288.5
 20
406.31494140625
 30
0.0
  0
VERTEX
  5
7D
330
79
100
AcDbEntity
  8
\U+56FE\U+5C42 1
370
     0
100
AcDbVertex
100
AcDb2dVertex
 10
288.5
 20
386.685546875
 30
0.0
  0
VERTEX
  5
7E
330
79
100
AcDbEntity
  8
\U+56FE\U+5C42 1
370
     0
100
AcDbVertex
100
AcDb2dVertex
 10
289.4775390625
 20
386.12109375
 30
0.0
  0
VERTEX
  5
7F
330
79
100
AcDbEntity
  8
\U+56FE\U+5C42 1
370
     0
100
AcDbVertex
100
AcDb2dVertex
 10
305.5
 20
376.8701171875
 30
0.0
  0
VERTEX
  5
80
330
79
100
AcDbEntity
  8
\U+56FE\U+5C42 1
370
     0
100
AcDbVertex
100
AcDb2dVertex
 10
306.4775390625
 20
377.4345703125
 30
0.0
  0
VERTEX
  5
81
330
79
100
AcDbEntity
  8
\U+56FE\U+5C42 1
370
     0
100
AcDbVertex
100
AcDb2dVertex
 10
322.5
 20
386.685546875
 30
0.0
  0
VERTEX
  5
82
330
79
100
AcDbEntity
  8
\U+56FE\U+5C42 1
370
     0
100
AcDbVertex
100
AcDb2dVertex
 10
322.5
 20
406.31494140625
 30
0.0
  0
VERTEX
  5
83
330
79
100
AcDbEntity
  8
\U+56FE\U+5C42 1
370
     0
100
AcDbVertex
100
AcDb2dVertex
 10
321.5224609375
 20
406.87939453125
 30
0.0
  0
VERTEX
  5
84
330
79
100
AcDbEntity
  8
\U+56FE\U+5C42 1
370
     0
100
AcDbVertex
100
AcDb2dVertex
 10
305.5
 20
416.1298828125
 30
0.0
  0
SEQEND
  5
85
330
79
100
AcDbEntity
  8
\U+56FE\U+5C42 1
370
     0
  0
HATCH
  5
86
330
6E
100
AcDbEntity
  8
\U+56FE\U+5C42 1
 62
     7
100
AcDbHatch
 10
0.0
 20
0.0
 30
0.0
210
0.0
220
0.0
230
1.0
  2
SOLID
 70
     1
 71
     0
 91
        1
 92
        1
 93
       10
 72
     1
 10
305.5
 20
416.1298828125
 11
304.5224609375
 21
415.5654296875
 72
     1
 10
304.5224609375
 20
415.5654296875
 11
288.5
 21
406.31494140625
 72
     1
 10
288.5
 20
406.31494140625
 11
288.5
 21
386.685546875
 72
     1
 10
288.5
 20
386.685546875
 11
289.4775390625
 21
386.12109375
 72
     1
 10
289.4775390625
 20
386.12109375
 11
305.5
 21
376.8701171875
 72
     1
 10
305.5
 20
376.8701171875
 11
306.4775390625
 21
377.4345703125
 72
     1
 10
306.4775390625
 20
377.4345703125
 11
322.5
 21
386.685546875
 72
     1
 10
322.5
 20
386.685546875
 11
322.5
 21
406.31494140625
 72
     1
 10
322.5
 20
406.31494140625
 11
321.5224609375
 21
406.87939453125
 72
     1
 10
321.5224609375
 20
406.87939453125
 11
305.5
 21
416.1298828125
 97
        0
 75
     2
 76
     1
 98
        0
  0
ENDBLK
  5
71
330
6E
100
AcDbEntity
  8
0
100
AcDbBlockEnd
  0
BLOCK
  5
89
330
87
100
AcDbEntity
  8
0
100
AcDbBlockBegin
  2
block 5
 70
     0
 71
     0
 10
0.0
 20
0.0
 30
0.0
  3
block 5
  1

  0
POLYLINE
  5
8B
330
87
100
AcDbEntity
  8
\U+56FE\U+5C42 1
370
     0
100
AcDb2dPolyline
 66
     1
 10
0.0
 20
0.0
 30
0.0
  0
VERTEX
  5
8C
330
8B
100
AcDbEntity
  8
\U+56FE\U+5C42 1
370
     0
100
AcDbVertex
100
AcDb2dVertex
 10
375.5
 20
466.5
 30
0.0
  0
VERTEX
  5
8D
330
8B
100
AcDbEntity
  8
\U+56FE\U+5C42 1
370
     0
100
AcDbVertex
100
AcDb2dVertex
 10
375.5
 20
326.5
 30
0.0
  0
VERTEX
  5
8E
330
8B
100
AcDbEntity
  8
\U+56FE\U+5C42 1
370
     0
100
AcDbVertex
100
AcDb2dVertex
 10
235.5
 20
326.5
 30
0.0
  0
VERTEX
  5
8F
330
8B
100
AcDbEntity
  8
\U+56FE\U+5C42 1
370
     0
100
AcDbVertex
100
AcDb2dVertex
 10
235.5
 20
466.5
 30
0.0
  0
VERTEX
  5
90
330
8B
100
AcDbEntity
  8
\U+56FE\U+5C42 1
370
     0
100
AcDbVertex
100
AcDb2dVertex
 10
375.5
 20
466.5
 30
0.0
  0
SEQEND
  5
91
330
8B
100
AcDbEntity
  8
\U+56FE\U+5C42 1
370
     0
  0
POLYLINE
  5
92
330
87
100
AcDbEntity
  8
\U+56FE\U+5C42 1
370
     0
100
AcDb2dPolyline
 66
     1
 10
0.0
 20
0.0
 30
0.0
  0
VERTEX
  5
93
330
92
100
AcDbEntity
  8
\U+56FE\U+5C42 1
370
     0
100
AcDbVertex
100
AcDb2dVertex
 10
305.5
 20
416.1298828125
 30
0.0
  0
VERTEX
  5
94
330
92
100
AcDbEntity
  8
\U+56FE\U+5C42 1
370
     0
100
AcDbVertex
100
AcDb2dVertex
 10
304.09765625
 20
415.3203125
 30
0.0
  0
VERTEX
  5
95
330
92
100
AcDbEntity
  8
\U+56FE\U+5C42 1
370
     0
100
AcDbVertex
100
AcDb2dVertex
 10
288.5
 20
406.31494140625
 30
0.0
  0
VERTEX
  5
96
330
92
100
AcDbEntity
  8
\U+56FE\U+5C42 1
370
     0
100
AcDbVertex
100
AcDb2dVertex
 10
288.5
 20
386.685546875
 30
0.0
  0
VERTEX
  5
97
330
92
100
AcDbEntity
  8
\U+56FE\U+5C42 1
370
     0
100
AcDbVertex
100
AcDb2dVertex
 10
289.90234375
 20
385.875
 30
0.0
  0
VERTEX
  5
98
330
92
100
AcDbEntity
  8
\U+56FE\U+5C42 1
370
     0
100
AcDbVertex
100
AcDb2dVertex
 10
305.5
 20
376.8701171875
 30
0.0
  0
VERTEX
  5
99
330
92
100
AcDbEntity
  8
\U+56FE\U+5C42 1
370
     0
100
AcDbVertex
100
AcDb2dVertex
 10
306.90234375
 20
377.6796875
 30
0.0
  0
VERTEX
  5
9A
330
92
100
AcDbEntity
  8
\U+56FE\U+5C42 1
370
     0
100
AcDbVertex
100
AcDb2dVertex
 10
322.5
 20
386.685546875
 30
0.0
  0
VERTEX
  5
9B
330
92
100
AcDbEntity
  8
\U+56FE\U+5C42 1
370
     0
100
AcDbVertex
100
AcDb2dVertex
 10
322.5
 20
406.31494140625
 30
0.0
  0
VERTEX
  5
9C
330
92
100
AcDbEntity
  8
\U+56FE\U+5C42 1
370
     0
100
AcDbVertex
100
AcDb2dVertex
 10
321.09765625
 20
407.12451171875
 30
0.0
  0
VERTEX
  5
9D
330
92
100
AcDbEntity
  8
\U+56FE\U+5C42 1
370
     0
100
AcDbVertex
100
AcDb2dVertex
 10
305.5
 20
416.1298828125
 30
0.0
  0
SEQEND
  5
9E
330
92
100
AcDbEntity
  8
\U+56FE\U+5C42 1
370
     0
  0
HATCH
  5
9F
330
87
100
AcDbEntity
  8
\U+56FE\U+5C42 1
 62
     7
100
AcDbHatch
 10
0.0
 20
0.0
 30
0.0
210
0.0
220
0.0
230
1.0
  2
SOLID
 70
     1
 71
     0
 91
        1
 92
        1
 93
       10
 72
     1
 10
305.5
 20
416.1298828125
 11
304.09765625
 21
415.3203125
 72
     1
 10
304.09765625
 20
415.3203125
 11
288.5
 21
406.31494140625
 72
     1
 10
288.5
 20
406.31494140625
 11
288.5
 21
386.685546875
 72
     1
 10
288.5
 20
386.685546875
 11
289.90234375
 21
385.875
 72
     1
 10
289.90234375
 20
385.875
 11
305.5
 21
376.8701171875
 72
     1
 10
305.5
 20
376.8701171875
 11
306.90234375
 21
377.6796875
 72
     1
 10
306.90234375
 20
377.6796875
 11
322.5
 21
386.685546875
 72
     1
 10
322.5
 20
386.685546875
 11
322.5
 21
406.31494140625
 72
     1
 10
322.5
 20
406.31494140625
 11
321.09765625
 21
407.12451171875
 72
     1
 10
321.09765625
 20
407.12451171875
 11
305.5
 21
416.1298828125
 97
        0
 75
     2
 76
     1
 98
        0
  0
ENDBLK
  5
8A
330
87
100
AcDbEntity
  8
0
100
AcDbBlockEnd
  0
BLOCK
  5
A2
330
A0
100
AcDbEntity
  8
0
100
AcDbBlockBegin
  2
block 6
 70
     0
 71
     0
 10
0.0
 20
0.0
 30
0.0
  3
block 6
  1

  0
POLYLINE
  5
A4
330
A0
100
AcDbEntity
  8
\U+56FE\U+5C42 1
370
     0
100
AcDb2dPolyline
 66
     1
 10
0.0
 20
0.0
 30
0.0
  0
VERTEX
  5
A5
330
A4
100
AcDbEntity
  8
\U+56FE\U+5C42 1
370
     0
100
AcDbVertex
100
AcDb2dVertex
 10
375.5
 20
466.5
 30
0.0
  0
VERTEX
  5
A6
330
A4
100
AcDbEntity
  8
\U+56FE\U+5C42 1
370
     0
100
AcDbVertex
100
AcDb2dVertex
 10
375.5
 20
326.5
 30
0.0
  0
VERTEX
  5
A7
330
A4
100
AcDbEntity
  8
\U+56FE\U+5C42 1
370
     0
100
AcDbVertex
100
AcDb2dVertex
 10
235.5
 20
326.5
 30
0.0
  0
VERTEX
  5
A8
330
A4
100
AcDbEntity
  8
\U+56FE\U+5C42 1
370
     0
100
AcDbVertex
100
AcDb2dVertex
 10
235.5
 20
466.5
 30
0.0
  0
VERTEX
  5
A9
330
A4
100
AcDbEntity
  8
\U+56FE\U+5C42 1
370
     0
100
AcDbVertex
100
AcDb2dVertex
 10
375.5
 20
466.5
 30
0.0
  0
SEQEND
  5
AA
330
A4
100
AcDbEntity
  8
\U+56FE\U+5C42 1
370
     0
  0
POLYLINE
  5
AB
330
A0
100
AcDbEntity
  8
\U+56FE\U+5C42 1
370
     0
100
AcDb2dPolyline
 66
     1
 10
0.0
 20
0.0
 30
0.0
  0
VERTEX
  5
AC
330
AB
100
AcDbEntity
  8
\U+56FE\U+5C42 1
370
     0
100
AcDbVertex
100
AcDb2dVertex
 10
305.5
 20
416.1298828125
 30
0.0
  0
VERTEX
  5
AD
330
AB
100
AcDbEntity
  8
\U+56FE\U+5C42 1
370
     0
100
AcDbVertex
100
AcDb2dVertex
 10
303.67236328125
 20
415.07470703125
 30
0.0
  0
VERTEX
  5
AE
330
AB
100
AcDbEntity
  8
\U+56FE\U+5C42 1
370
     0
100
AcDbVertex
100
AcDb2dVertex
 10
288.5
 20
406.31494140625
 30
0.0
  0
VERTEX
  5
AF
330
AB
100
AcDbEntity
  8
\U+56FE\U+5C42 1
370
     0
100
AcDbVertex
100
AcDb2dVertex
 10
288.5
 20
386.685546875
 30
0.0
  0
VERTEX
  5
B0
330
AB
100
AcDbEntity
  8
\U+56FE\U+5C42 1
370
     0
100
AcDbVertex
100
AcDb2dVertex
 10
290.32763671875
 20
385.6298828125
 30
0.0
  0
VERTEX
  5
B1
330
AB
100
AcDbEntity
  8
\U+56FE\U+5C42 1
370
     0
100
AcDbVertex
100
AcDb2dVertex
 10
305.5
 20
376.8701171875
 30
0.0
  0
VERTEX
  5
B2
330
AB
100
AcDbEntity
  8
\U+56FE\U+5C42 1
370
     0
100
AcDbVertex
100
AcDb2dVertex
 10
307.328125
 20
377.92578125
 30
0.0
  0
VERTEX
  5
B3
330
AB
100
AcDbEntity
  8
\U+56FE\U+5C42 1
370
     0
100
AcDbVertex
100
AcDb2dVertex
 10
322.5
 20
386.685546875
 30
0.0
  0
VERTEX
  5
B4
330
AB
100
AcDbEntity
  8
\U+56FE\U+5C42 1
370
     0
100
AcDbVertex
100
AcDb2dVertex
 10
322.5
 20
406.31494140625
 30
0.0
  0
VERTEX
  5
B5
330
AB
100
AcDbEntity
  8
\U+56FE\U+5C42 1
370
     0
100
AcDbVertex
100
AcDb2dVertex
 10
320.671875
 20
407.3701171875
 30
0.0
  0
VERTEX
  5
B6
330
AB
100
AcDbEntity
  8
\U+56FE\U+5C42 1
370
     0
100
AcDbVertex
100
AcDb2dVertex
 10
305.5
 20
416.1298828125
 30
0.0
  0
SEQEND
  5
B7
330
AB
100
AcDbEntity
  8
\U+56FE\U+5C42 1
370
     0
  0
HATCH
  5
B8
330
A0
100
AcDbEntity
  8
\U+56FE\U+5C42 1
 62
     7
100
AcDbHatch
 10
0.0
 20
0.0
 30
0.0
210
0.0
220
0.0
230
1.0
  2
SOLID
 70
     1
 71
     0
 91
        1
 92
        1
 93
       10
 72
     1
 10
305.5
 20
416.1298828125
 11
303.67236328125
 21
415.07470703125
 72
     1
 10
303.67236328125
 20
415.07470703125
 11
288.5
 21
406.31494140625
 72
     1
 10
288.5
 20
406.31494140625
 11
288.5
 21
386.685546875
 72
     1
 10
288.5
 20
386.685546875
 11
290.32763671875
 21
385.6298828125
 72
     1
 10
290.32763671875
 20
385.6298828125
 11
305.5
 21
376.8701171875
 72
     1
 10
305.5
 20
376.8701171875
 11
307.328125
 21
377.92578125
 72
     1
 10
307.328125
 20
377.92578125
 11
322.5
 21
386.685546875
 72
     1
 10
322.5
 20
386.685546875
 11
322.5
 21
406.31494140625
 72
     1
 10
322.5
 20
406.31494140625
 11
320.671875
 21
407.3701171875
 72
     1
 10
320.671875
 20
407.3701171875
 11
305.5
 21
416.1298828125
 97
        0
 75
     2
 76
     1
 98
        0
  0
ENDBLK
  5
A3
330
A0
100
AcDbEntity
  8
0
100
AcDbBlockEnd
  0
BLOCK
  5
BB
330
B9
100
AcDbEntity
  8
0
100
AcDbBlockBegin
  2
block 7
 70
     0
 71
     0
 10
0.0
 20
0.0
 30
0.0
  3
block 7
  1

  0
POLYLINE
  5
BD
330
B9
100
AcDbEntity
  8
\U+56FE\U+5C42 1
370
     0
100
AcDb2dPolyline
 66
     1
 10
0.0
 20
0.0
 30
0.0
  0
VERTEX
  5
BE
330
BD
100
AcDbEntity
  8
\U+56FE\U+5C42 1
370
     0
100
AcDbVertex
100
AcDb2dVertex
 10
375.5
 20
466.5
 30
0.0
  0
VERTEX
  5
BF
330
BD
100
AcDbEntity
  8
\U+56FE\U+5C42 1
370
     0
100
AcDbVertex
100
AcDb2dVertex
 10
375.5
 20
326.5
 30
0.0
  0
VERTEX
  5
C0
330
BD
100
AcDbEntity
  8
\U+56FE\U+5C42 1
370
     0
100
AcDbVertex
100
AcDb2dVertex
 10
235.5
 20
326.5
 30
0.0
  0
VERTEX
  5
C1
330
BD
100
AcDbEntity
  8
\U+56FE\U+5C42 1
370
     0
100
AcDbVertex
100
AcDb2dVertex
 10
235.5
 20
466.5
 30
0.0
  0
VERTEX
  5
C2
330
BD
100
AcDbEntity
  8
\U+56FE\U+5C42 1
370
     0
100
AcDbVertex
100
AcDb2dVertex
 10
375.5
 20
466.5
 30
0.0
  0
SEQEND
  5
C3
330
BD
100
AcDbEntity
  8
\U+56FE\U+5C42 1
370
     0
  0
POLYLINE
  5
C4
330
B9
100
AcDbEntity
  8
\U+56FE\U+5C42 1
370
     0
100
AcDb2dPolyline
 66
     1
 10
0.0
 20
0.0
 30
0.0
  0
VERTEX
  5
C5
330
C4
100
AcDbEntity
  8
\U+56FE\U+5C42 1
370
     0
100
AcDbVertex
100
AcDb2dVertex
 10
305.5
 20
416.1298828125
 30
0.0
  0
VERTEX
  5
C6
330
C4
100
AcDbEntity
  8
\U+56FE\U+5C42 1
370
     0
100
AcDbVertex
100
AcDb2dVertex
 10
303.24755859375
 20
414.82958984375
 30
0.0
  0
VERTEX
  5
C7
330
C4
100
AcDbEntity
  8
\U+56FE\U+5C42 1
370
     0
100
AcDbVertex
100
AcDb2dVertex
 10
288.5
 20
406.31494140625
 30
0.0
  0
VERTEX
  5
C8
330
C4
100
AcDbEntity
  8
\U+56FE\U+5C42 1
370
     0
100
AcDbVertex
100
AcDb2dVertex
 10
288.5
 20
386.685546875
 30
0.0
  0
VERTEX
  5
C9
330
C4
100
AcDbEntity
  8
\U+56FE\U+5C42 1
370
     0
100
AcDbVertex
100
AcDb2dVertex
 10
290.75244140625
 20
385.384765625
 30
0.0
  0
VERTEX
  5
CA
330
C4
100
AcDbEntity
  8
\U+56FE\U+5C42 1
370
     0
100
AcDbVertex
100
AcDb2dVertex
 10
305.5
 20
376.8701171875
 30
0.0
  0
VERTEX
  5
CB
330
C4
100
AcDbEntity
  8
\U+56FE\U+5C42 1
370
     0
100
AcDbVertex
100
AcDb2dVertex
 10
307.751953125
 20
378.169921875
 30
0.0
  0
VERTEX
  5
CC
330
C4
100
AcDbEntity
  8
\U+56FE\U+5C42 1
370
     0
100
AcDbVertex
100
AcDb2dVertex
 10
322.5
 20
386.685546875
 30
0.0
  0
VERTEX
  5
CD
330
C4
100
AcDbEntity
  8
\U+56FE\U+5C42 1
370
     0
100
AcDbVertex
100
AcDb2dVertex
 10
322.5
 20
406.31494140625
 30
0.0
  0
VERTEX
  5
CE
330
C4
100
AcDbEntity
  8
\U+56FE\U+5C42 1
370
     0
100
AcDbVertex
100
AcDb2dVertex
 10
320.248046875
 20
407.615234375
 30
0.0
  0
VERTEX
  5
CF
330
C4
100
AcDbEntity
  8
\U+56FE\U+5C42 1
370
     0
100
AcDbVertex
100
AcDb2dVertex
 10
305.5
 20
416.1298828125
 30
0.0
  0
SEQEND
  5
D0
330
C4
100
AcDbEntity
  8
\U+56FE\U+5C42 1
370
     0
  0
HATCH
  5
D1
330
B9
100
AcDbEntity
  8
\U+56FE\U+5C42 1
 62
     7
100
AcDbHatch
 10
0.0
 20
0.0
 30
0.0
210
0.0
220
0.0
230
1.0
  2
SOLID
 70
     1
 71
     0
 91
        1
 92
        1
 93
       10
 72
     1
 10
305.5
 20
416.1298828125
 11
303.24755859375
 21
414.82958984375
 72
     1
 10
303.24755859375
 20
414.82958984375
 11
288.5
 21
406.31494140625
 72
     1
 10
288.5
 20
406.31494140625
 11
288.5
 21
386.685546875
 72
     1
 10
288.5
 20
386.685546875
 11
290.75244140625
 21
385.384765625
 72
     1
 10
290.75244140625
 20
385.384765625
 11
305.5
 21
376.8701171875
 72
     1
 10
305.5
 20
376.8701171875
 11
307.751953125
 21
378.169921875
 72
     1
 10
307.751953125
 20
378.169921875
 11
322.5
 21
386.685546875
 72
     1
 10
322.5
 20
386.685546875
 11
322.5
 21
406.31494140625
 72
     1
 10
322.5
 20
406.31494140625
 11
320.248046875
 21
407.615234375
 72
     1
 10
320.248046875
 20
407.615234375
 11
305.5
 21
416.1298828125
 97
        0
 75
     2
 76
     1
 98
        0
  0
ENDBLK
  5
BC
330
B9
100
AcDbEntity
  8
0
100
AcDbBlockEnd
  0
BLOCK
  5
D4
330
D2
100
AcDbEntity
  8
0
100
AcDbBlockBegin
  2
block 8
 70
     0
 71
     0
 10
0.0
 20
0.0
 30
0.0
  3
block 8
  1

  0
POLYLINE
  5
D6
330
D2
100
AcDbEntity
  8
\U+56FE\U+5C42 1
370
     0
100
AcDb2dPolyline
 66
     1
 10
0.0
 20
0.0
 30
0.0
  0
VERTEX
  5
D7
330
D6
100
AcDbEntity
  8
\U+56FE\U+5C42 1
370
     0
100
AcDbVertex
100
AcDb2dVertex
 10
375.5
 20
466.5
 30
0.0
  0
VERTEX
  5
D8
330
D6
100
AcDbEntity
  8
\U+56FE\U+5C42 1
370
     0
100
AcDbVertex
100
AcDb2dVertex
 10
375.5
 20
326.5
 30
0.0
  0
VERTEX
  5
D9
330
D6
100
AcDbEntity
  8
\U+56FE\U+5C42 1
370
     0
100
AcDbVertex
100
AcDb2dVertex
 10
235.5
 20
326.5
 30
0.0
  0
VERTEX
  5
DA
330
D6
100
AcDbEntity
  8
\U+56FE\U+5C42 1
370
     0
100
AcDbVertex
100
AcDb2dVertex
 10
235.5
 20
466.5
 30
0.0
  0
VERTEX
  5
DB
330
D6
100
AcDbEntity
  8
\U+56FE\U+5C42 1
370
     0
100
AcDbVertex
100
AcDb2dVertex
 10
375.5
 20
466.5
 30
0.0
  0
SEQEND
  5
DC
330
D6
100
AcDbEntity
  8
\U+56FE\U+5C42 1
370
     0
  0
POLYLINE
  5
DD
330
D2
100
AcDbEntity
  8
\U+56FE\U+5C42 1
370
     0
100
AcDb2dPolyline
 66
     1
 10
0.0
 20
0.0
 30
0.0
  0
VERTEX
  5
DE
330
DD
100
AcDbEntity
  8
\U+56FE\U+5C42 1
370
     0
100
AcDbVertex
100
AcDb2dVertex
 10
305.5
 20
416.1298828125
 30
0.0
  0
VERTEX
  5
DF
330
DD
100
AcDbEntity
  8
\U+56FE\U+5C42 1
370
     0
100
AcDbVertex
100
AcDb2dVertex
 10
302.822265625
 20
414.583984375
 30
0.0
  0
VERTEX
  5
E0
330
DD
100
AcDbEntity
  8
\U+56FE\U+5C42 1
370
     0
100
AcDbVertex
100
AcDb2dVertex
 10
288.5
 20
406.31494140625
 30
0.0
  0
VERTEX
  5
E1
330
DD
100
AcDbEntity
  8
\U+56FE\U+5C42 1
370
     0
100
AcDbVertex
100
AcDb2dVertex
 10
288.5
 20
386.685546875
 30
0.0
  0
VERTEX
  5
E2
330
DD
100
AcDbEntity
  8
\U+56FE\U+5C42 1
370
     0
100
AcDbVertex
100
AcDb2dVertex
 10
291.177734375
 20
385.138671875
 30
0.0
  0
VERTEX
  5
E3
330
DD
100
AcDbEntity
  8
\U+56FE\U+5C42 1
370
     0
100
AcDbVertex
100
AcDb2dVertex
 10
305.5
 20
376.8701171875
 30
0.0
  0
VERTEX
  5
E4
330
DD
100
AcDbEntity
  8
\U+56FE\U+5C42 1
370
     0
100
AcDbVertex
100
AcDb2dVertex
 10
308.177734375
 20
378.416015625
 30
0.0
  0
VERTEX
  5
E5
330
DD
100
AcDbEntity
  8
\U+56FE\U+5C42 1
370
     0
100
AcDbVertex
100
AcDb2dVertex
 10
322.5
 20
386.685546875
 30
0.0
  0
VERTEX
  5
E6
330
DD
100
AcDbEntity
  8
\U+56FE\U+5C42 1
370
     0
100
AcDbVertex
100
AcDb2dVertex
 10
322.5
 20
406.31494140625
 30
0.0
  0
VERTEX
  5
E7
330
DD
100
AcDbEntity
  8
\U+56FE\U+5C42 1
370
     0
100
AcDbVertex
100
AcDb2dVertex
 10
319.822265625
 20
407.86083984375
 30
0.0
  0
VERTEX
  5
E8
330
DD
100
AcDbEntity
  8
\U+56FE\U+5C42 1
370
     0
100
AcDbVertex
100
AcDb2dVertex
 10
305.5
 20
416.1298828125
 30
0.0
  0
SEQEND
  5
E9
330
DD
100
AcDbEntity
  8
\U+56FE\U+5C42 1
370
     0
  0
HATCH
  5
EA
330
D2
100
AcDbEntity
  8
\U+56FE\U+5C42 1
 62
     7
100
AcDbHatch
 10
0.0
 20
0.0
 30
0.0
210
0.0
220
0.0
230
1.0
  2
SOLID
 70
     1
 71
     0
 91
        1
 92
        1
 93
       10
 72
     1
 10
305.5
 20
416.1298828125
 11
302.822265625
 21
414.583984375
 72
     1
 10
302.822265625
 20
414.583984375
 11
288.5
 21
406.31494140625
 72
     1
 10
288.5
 20
406.31494140625
 11
288.5
 21
386.685546875
 72
     1
 10
288.5
 20
386.685546875
 11
291.177734375
 21
385.138671875
 72
     1
 10
291.177734375
 20
385.138671875
 11
305.5
 21
376.8701171875
 72
     1
 10
305.5
 20
376.8701171875
 11
308.177734375
 21
378.416015625
 72
     1
 10
308.177734375
 20
378.416015625
 11
322.5
 21
386.685546875
 72
     1
 10
322.5
 20
386.685546875
 11
322.5
 21
406.31494140625
 72
     1
 10
322.5
 20
406.31494140625
 11
319.822265625
 21
407.86083984375
 72
     1
 10
319.822265625
 20
407.86083984375
 11
305.5
 21
416.1298828125
 97
        0
 75
     2
 76
     1
 98
        0
  0
ENDBLK
  5
D5
330
D2
100
AcDbEntity
  8
0
100
AcDbBlockEnd
  0
BLOCK
  5
ED
330
EB
100
AcDbEntity
  8
0
100
AcDbBlockBegin
  2
block 9
 70
     0
 71
     0
 10
0.0
 20
0.0
 30
0.0
  3
block 9
  1

  0
POLYLINE
  5
EF
330
EB
100
AcDbEntity
  8
\U+56FE\U+5C42 1
370
     0
100
AcDb2dPolyline
 66
     1
 10
0.0
 20
0.0
 30
0.0
  0
VERTEX
  5
F0
330
EF
100
AcDbEntity
  8
\U+56FE\U+5C42 1
370
     0
100
AcDbVertex
100
AcDb2dVertex
 10
375.5
 20
466.5
 30
0.0
  0
VERTEX
  5
F1
330
EF
100
AcDbEntity
  8
\U+56FE\U+5C42 1
370
     0
100
AcDbVertex
100
AcDb2dVertex
 10
375.5
 20
326.5
 30
0.0
  0
VERTEX
  5
F2
330
EF
100
AcDbEntity
  8
\U+56FE\U+5C42 1
370
     0
100
AcDbVertex
100
AcDb2dVertex
 10
235.5
 20
326.5
 30
0.0
  0
VERTEX
  5
F3
330
EF
100
AcDbEntity
  8
\U+56FE\U+5C42 1
370
     0
100
AcDbVertex
100
AcDb2dVertex
 10
235.5
 20
466.5
 30
0.0
  0
VERTEX
  5
F4
330
EF
100
AcDbEntity
  8
\U+56FE\U+5C42 1
370
     0
100
AcDbVertex
100
AcDb2dVertex
 10
375.5
 20
466.5
 30
0.0
  0
SEQEND
  5
F5
330
EF
100
AcDbEntity
  8
\U+56FE\U+5C42 1
370
     0
  0
POLYLINE
  5
F6
330
EB
100
AcDbEntity
  8
\U+56FE\U+5C42 1
370
     0
100
AcDb2dPolyline
 66
     1
 10
0.0
 20
0.0
 30
0.0
  0
VERTEX
  5
F7
330
F6
100
AcDbEntity
  8
\U+56FE\U+5C42 1
370
     0
100
AcDbVertex
100
AcDb2dVertex
 10
305.5
 20
416.1298828125
 30
0.0
  0
VERTEX
  5
F8
330
F6
100
AcDbEntity
  8
\U+56FE\U+5C42 1
370
     0
100
AcDbVertex
100
AcDb2dVertex
 10
302.3974609375
 20
414.3388671875
 30
0.0
  0
VERTEX
  5
F9
330
F6
100
AcDbEntity
  8
\U+56FE\U+5C42 1
370
     0
100
AcDbVertex
100
AcDb2dVertex
 10
288.5
 20
406.31494140625
 30
0.0
  0
VERTEX
  5
FA
330
F6
100
AcDbEntity
  8
\U+56FE\U+5C42 1
370
     0
100
AcDbVertex
100
AcDb2dVertex
 10
288.5
 20
386.685546875
 30
0.0
  0
VERTEX
  5
FB
330
F6
100
AcDbEntity
  8
\U+56FE\U+5C42 1
370
     0
100
AcDbVertex
100
AcDb2dVertex
 10
291.6025390625
 20
384.8935546875
 30
0.0
  0
VERTEX
  5
FC
330
F6
100
AcDbEntity
  8
\U+56FE\U+5C42 1
370
     0
100
AcDbVertex
100
AcDb2dVertex
 10
305.5
 20
376.8701171875
 30
0.0
  0
VERTEX
  5
FD
330
F6
100
AcDbEntity
  8
\U+56FE\U+5C42 1
370
     0
100
AcDbVertex
100
AcDb2dVertex
 10
308.6025390625
 20
378.6611328125
 30
0.0
  0
VERTEX
  5
FE
330
F6
100
AcDbEntity
  8
\U+56FE\U+5C42 1
370
     0
100
AcDbVertex
100
AcDb2dVertex
 10
322.5
 20
386.685546875
 30
0.0
  0
VERTEX
  5
FF
330
F6
100
AcDbEntity
  8
\U+56FE\U+5C42 1
370
     0
100
AcDbVertex
100
AcDb2dVertex
 10
322.5
 20
406.31494140625
 30
0.0
  0
VERTEX
  5
100
330
F6
100
AcDbEntity
  8
\U+56FE\U+5C42 1
370
     0
100
AcDbVertex
100
AcDb2dVertex
 10
319.3974609375
 20
408.1064453125
 30
0.0
  0
VERTEX
  5
101
330
F6
100
AcDbEntity
  8
\U+56FE\U+5C42 1
370
     0
100
AcDbVertex
100
AcDb2dVertex
 10
305.5
 20
416.1298828125
 30
0.0
  0
SEQEND
  5
102
330
F6
100
AcDbEntity
  8
\U+56FE\U+5C42 1
370
     0
  0
HATCH
  5
103
330
EB
100
AcDbEntity
  8
\U+56FE\U+5C42 1
 62
     7
100
AcDbHatch
 10
0.0
 20
0.0
 30
0.0
210
0.0
220
0.0
230
1.0
  2
SOLID
 70
     1
 71
     0
 91
        1
 92
        1
 93
       10
 72
     1
 10
305.5
 20
416.1298828125
 11
302.3974609375
 21
414.3388671875
 72
     1
 10
302.3974609375
 20
414.3388671875
 11
288.5
 21
406.31494140625
 72
     1
 10
288.5
 20
406.31494140625
 11
288.5
 21
386.685546875
 72
     1
 10
288.5
 20
386.685546875
 11
291.6025390625
 21
384.8935546875
 72
     1
 10
291.6025390625
 20
384.8935546875
 11
305.5
 21
376.8701171875
 72
     1
 10
305.5
 20
376.8701171875
 11
308.6025390625
 21
378.6611328125
 72
     1
 10
308.6025390625
 20
378.6611328125
 11
322.5
 21
386.685546875
 72
     1
 10
322.5
 20
386.685546875
 11
322.5
 21
406.31494140625
 72
     1
 10
322.5
 20
406.31494140625
 11
319.3974609375
 21
408.1064453125
 72
     1
 10
319.3974609375
 20
408.1064453125
 11
305.5
 21
416.1298828125
 97
        0
 75
     2
 76
     1
 98
        0
  0
ENDBLK
  5
EE
330
EB
100
AcDbEntity
  8
0
100
AcDbBlockEnd
  0
BLOCK
  5
106
330
104
100
AcDbEntity
  8
0
100
AcDbBlockBegin
  2
block 10
 70
     0
 71
     0
 10
0.0
 20
0.0
 30
0.0
  3
block 10
  1

  0
POLYLINE
  5
108
330
104
100
AcDbEntity
  8
\U+56FE\U+5C42 1
370
     0
100
AcDb2dPolyline
 66
     1
 10
0.0
 20
0.0
 30
0.0
  0
VERTEX
  5
109
330
108
100
AcDbEntity
  8
\U+56FE\U+5C42 1
370
     0
100
AcDbVertex
100
AcDb2dVertex
 10
375.5
 20
466.5
 30
0.0
  0
VERTEX
  5
10A
330
108
100
AcDbEntity
  8
\U+56FE\U+5C42 1
370
     0
100
AcDbVertex
100
AcDb2dVertex
 10
375.5
 20
326.5
 30
0.0
  0
VERTEX
  5
10B
330
108
100
AcDbEntity
  8
\U+56FE\U+5C42 1
370
     0
100
AcDbVertex
100
AcDb2dVertex
 10
235.5
 20
326.5
 30
0.0
  0
VERTEX
  5
10C
330
108
100
AcDbEntity
  8
\U+56FE\U+5C42 1
370
     0
100
AcDbVertex
100
AcDb2dVertex
 10
235.5
 20
466.5
 30
0.0
  0
VERTEX
  5
10D
330
108
100
AcDbEntity
  8
\U+56FE\U+5C42 1
370
     0
100
AcDbVertex
100
AcDb2dVertex
 10
375.5
 20
466.5
 30
0.0
  0
SEQEND
  5
10E
330
108
100
AcDbEntity
  8
\U+56FE\U+5C42 1
370
     0
  0
POLYLINE
  5
10F
330
104
100
AcDbEntity
  8
\U+56FE\U+5C42 1
370
     0
100
AcDb2dPolyline
 66
     1
 10
0.0
 20
0.0
 30
0.0
  0
VERTEX
  5
110
330
10F
100
AcDbEntity
  8
\U+56FE\U+5C42 1
370
     0
100
AcDbVertex
100
AcDb2dVertex
 10
305.5
 20
416.1298828125
 30
0.0
  0
VERTEX
  5
111
330
10F
100
AcDbEntity
  8
\U+56FE\U+5C42 1
370
     0
100
AcDbVertex
100
AcDb2dVertex
 10
301.97265625
 20
414.09326171875
 30
0.0
  0
VERTEX
  5
112
330
10F
100
AcDbEntity
  8
\U+56FE\U+5C42 1
370
     0
100
AcDbVertex
100
AcDb2dVertex
 10
288.5
 20
406.31494140625
 30
0.0
  0
VERTEX
  5
113
330
10F
100
AcDbEntity
  8
\U+56FE\U+5C42 1
370
     0
100
AcDbVertex
100
AcDb2dVertex
 10
288.5
 20
386.685546875
 30
0.0
  0
VERTEX
  5
114
330
10F
100
AcDbEntity
  8
\U+56FE\U+5C42 1
370
     0
100
AcDbVertex
100
AcDb2dVertex
 10
292.02734375
 20
384.6484375
 30
0.0
  0
VERTEX
  5
115
330
10F
100
AcDbEntity
  8
\U+56FE\U+5C42 1
370
     0
100
AcDbVertex
100
AcDb2dVertex
 10
305.5
 20
376.8701171875
 30
0.0
  0
VERTEX
  5
116
330
10F
100
AcDbEntity
  8
\U+56FE\U+5C42 1
370
     0
100
AcDbVertex
100
AcDb2dVertex
 10
309.02734375
 20
378.90625
 30
0.0
  0
VERTEX
  5
117
330
10F
100
AcDbEntity
  8
\U+56FE\U+5C42 1
370
     0
100
AcDbVertex
100
AcDb2dVertex
 10
322.5
 20
386.685546875
 30
0.0
  0
VERTEX
  5
118
330
10F
100
AcDbEntity
  8
\U+56FE\U+5C42 1
370
     0
100
AcDbVertex
100
AcDb2dVertex
 10
322.5
 20
406.31494140625
 30
0.0
  0
VERTEX
  5
119
330
10F
100
AcDbEntity
  8
\U+56FE\U+5C42 1
370
     0
100
AcDbVertex
100
AcDb2dVertex
 10
318.97265625
 20
408.3515625
 30
0.0
  0
VERTEX
  5
11A
330
10F
100
AcDbEntity
  8
\U+56FE\U+5C42 1
370
     0
100
AcDbVertex
100
AcDb2dVertex
 10
305.5
 20
416.1298828125
 30
0.0
  0
SEQEND
  5
11B
330
10F
100
AcDbEntity
  8
\U+56FE\U+5C42 1
370
     0
  0
HATCH
  5
11C
330
104
100
AcDbEntity
  8
\U+56FE\U+5C42 1
 62
     7
100
AcDbHatch
 10
0.0
 20
0.0
 30
0.0
210
0.0
220
0.0
230
1.0
  2
SOLID
 70
     1
 71
     0
 91
        1
 92
        1
 93
       10
 72
     1
 10
305.5
 20
416.1298828125
 11
301.97265625
 21
414.09326171875
 72
     1
 10
301.97265625
 20
414.09326171875
 11
288.5
 21
406.31494140625
 72
     1
 10
288.5
 20
406.31494140625
 11
288.5
 21
386.685546875
 72
     1
 10
288.5
 20
386.685546875
 11
292.02734375
 21
384.6484375
 72
     1
 10
292.02734375
 20
384.6484375
 11
305.5
 21
376.8701171875
 72
     1
 10
305.5
 20
376.8701171875
 11
309.02734375
 21
378.90625
 72
     1
 10
309.02734375
 20
378.90625
 11
322.5
 21
386.685546875
 72
     1
 10
322.5
 20
386.685546875
 11
322.5
 21
406.31494140625
 72
     1
 10
322.5
 20
406.31494140625
 11
318.97265625
 21
408.3515625
 72
     1
 10
318.97265625
 20
408.3515625
 11
305.5
 21
416.1298828125
 97
        0
 75
     2
 76
     1
 98
        0
  0
ENDBLK
  5
107
330
104
100
AcDbEntity
  8
0
100
AcDbBlockEnd
  0
BLOCK
  5
11F
330
11D
100
AcDbEntity
  8
0
100
AcDbBlockBegin
  2
block 11
 70
     0
 71
     0
 10
0.0
 20
0.0
 30
0.0
  3
block 11
  1

  0
POLYLINE
  5
121
330
11D
100
AcDbEntity
  8
\U+56FE\U+5C42 1
370
     0
100
AcDb2dPolyline
 66
     1
 10
0.0
 20
0.0
 30
0.0
  0
VERTEX
  5
122
330
121
100
AcDbEntity
  8
\U+56FE\U+5C42 1
370
     0
100
AcDbVertex
100
AcDb2dVertex
 10
375.5
 20
466.5
 30
0.0
  0
VERTEX
  5
123
330
121
100
AcDbEntity
  8
\U+56FE\U+5C42 1
370
     0
100
AcDbVertex
100
AcDb2dVertex
 10
375.5
 20
326.5
 30
0.0
  0
VERTEX
  5
124
330
121
100
AcDbEntity
  8
\U+56FE\U+5C42 1
370
     0
100
AcDbVertex
100
AcDb2dVertex
 10
235.5
 20
326.5
 30
0.0
  0
VERTEX
  5
125
330
121
100
AcDbEntity
  8
\U+56FE\U+5C42 1
370
     0
100
AcDbVertex
100
AcDb2dVertex
 10
235.5
 20
466.5
 30
0.0
  0
VERTEX
  5
126
330
121
100
AcDbEntity
  8
\U+56FE\U+5C42 1
370
     0
100
AcDbVertex
100
AcDb2dVertex
 10
375.5
 20
466.5
 30
0.0
  0
SEQEND
  5
127
330
121
100
AcDbEntity
  8
\U+56FE\U+5C42 1
370
     0
  0
POLYLINE
  5
128
330
11D
100
AcDbEntity
  8
\U+56FE\U+5C42 1
370
     0
100
AcDb2dPolyline
 66
     1
 10
0.0
 20
0.0
 30
0.0
  0
VERTEX
  5
129
330
128
100
AcDbEntity
  8
\U+56FE\U+5C42 1
370
     0
100
AcDbVertex
100
AcDb2dVertex
 10
305.5
 20
416.1298828125
 30
0.0
  0
VERTEX
  5
12A
330
128
100
AcDbEntity
  8
\U+56FE\U+5C42 1
370
     0
100
AcDbVertex
100
AcDb2dVertex
 10
301.54736328125
 20
413.84814453125
 30
0.0
  0
VERTEX
  5
12B
330
128
100
AcDbEntity
  8
\U+56FE\U+5C42 1
370
     0
100
AcDbVertex
100
AcDb2dVertex
 10
288.5
 20
406.31494140625
 30
0.0
  0
VERTEX
  5
12C
330
128
100
AcDbEntity
  8
\U+56FE\U+5C42 1
370
     0
100
AcDbVertex
100
AcDb2dVertex
 10
288.5
 20
386.685546875
 30
0.0
  0
VERTEX
  5
12D
330
128
100
AcDbEntity
  8
\U+56FE\U+5C42 1
370
     0
100
AcDbVertex
100
AcDb2dVertex
 10
292.45263671875
 20
384.4033203125
 30
0.0
  0
VERTEX
  5
12E
330
128
100
AcDbEntity
  8
\U+56FE\U+5C42 1
370
     0
100
AcDbVertex
100
AcDb2dVertex
 10
305.5
 20
376.8701171875
 30
0.0
  0
VERTEX
  5
12F
330
128
100
AcDbEntity
  8
\U+56FE\U+5C42 1
370
     0
100
AcDbVertex
100
AcDb2dVertex
 10
309.453125
 20
379.15234375
 30
0.0
  0
VERTEX
  5
130
330
128
100
AcDbEntity
  8
\U+56FE\U+5C42 1
370
     0
100
AcDbVertex
100
AcDb2dVertex
 10
322.5
 20
386.685546875
 30
0.0
  0
VERTEX
  5
131
330
128
100
AcDbEntity
  8
\U+56FE\U+5C42 1
370
     0
100
AcDbVertex
100
AcDb2dVertex
 10
322.5
 20
406.31494140625
 30
0.0
  0
VERTEX
  5
132
330
128
100
AcDbEntity
  8
\U+56FE\U+5C42 1
370
     0
100
AcDbVertex
100
AcDb2dVertex
 10
318.546875
 20
408.5966796875
 30
0.0
  0
VERTEX
  5
133
330
128
100
AcDbEntity
  8
\U+56FE\U+5C42 1
370
     0
100
AcDbVertex
100
AcDb2dVertex
 10
305.5
 20
416.1298828125
 30
0.0
  0
SEQEND
  5
134
330
128
100
AcDbEntity
  8
\U+56FE\U+5C42 1
370
     0
  0
HATCH
  5
135
330
11D
100
AcDbEntity
  8
\U+56FE\U+5C42 1
 62
     7
100
AcDbHatch
 10
0.0
 20
0.0
 30
0.0
210
0.0
220
0.0
230
1.0
  2
SOLID
 70
     1
 71
     0
 91
        1
 92
        1
 93
       10
 72
     1
 10
305.5
 20
416.1298828125
 11
301.54736328125
 21
413.84814453125
 72
     1
 10
301.54736328125
 20
413.84814453125
 11
288.5
 21
406.31494140625
 72
     1
 10
288.5
 20
406.31494140625
 11
288.5
 21
386.685546875
 72
     1
 10
288.5
 20
386.685546875
 11
292.45263671875
 21
384.4033203125
 72
     1
 10
292.45263671875
 20
384.4033203125
 11
305.5
 21
376.8701171875
 72
     1
 10
305.5
 20
376.8701171875
 11
309.453125
 21
379.15234375
 72
     1
 10
309.453125
 20
379.15234375
 11
322.5
 21
386.685546875
 72
     1
 10
322.5
 20
386.685546875
 11
322.5
 21
406.31494140625
 72
     1
 10
322.5
 20
406.31494140625
 11
318.546875
 21
408.5966796875
 72
     1
 10
318.546875
 20
408.5966796875
 11
305.5
 21
416.1298828125
 97
        0
 75
     2
 76
     1
 98
        0
  0
ENDBLK
  5
120
330
11D
100
AcDbEntity
  8
0
100
AcDbBlockEnd
  0
BLOCK
  5
138
330
136
100
AcDbEntity
  8
0
100
AcDbBlockBegin
  2
block 12
 70
     0
 71
     0
 10
0.0
 20
0.0
 30
0.0
  3
block 12
  1

  0
POLYLINE
  5
13A
330
136
100
AcDbEntity
  8
\U+56FE\U+5C42 1
370
     0
100
AcDb2dPolyline
 66
     1
 10
0.0
 20
0.0
 30
0.0
  0
VERTEX
  5
13B
330
13A
100
AcDbEntity
  8
\U+56FE\U+5C42 1
370
     0
100
AcDbVertex
100
AcDb2dVertex
 10
375.5
 20
466.5
 30
0.0
  0
VERTEX
  5
13C
330
13A
100
AcDbEntity
  8
\U+56FE\U+5C42 1
370
     0
100
AcDbVertex
100
AcDb2dVertex
 10
375.5
 20
326.5
 30
0.0
  0
VERTEX
  5
13D
330
13A
100
AcDbEntity
  8
\U+56FE\U+5C42 1
370
     0
100
AcDbVertex
100
AcDb2dVertex
 10
235.5
 20
326.5
 30
0.0
  0
VERTEX
  5
13E
330
13A
100
AcDbEntity
  8
\U+56FE\U+5C42 1
370
     0
100
AcDbVertex
100
AcDb2dVertex
 10
235.5
 20
466.5
 30
0.0
  0
VERTEX
  5
13F
330
13A
100
AcDbEntity
  8
\U+56FE\U+5C42 1
370
     0
100
AcDbVertex
100
AcDb2dVertex
 10
375.5
 20
466.5
 30
0.0
  0
SEQEND
  5
140
330
13A
100
AcDbEntity
  8
\U+56FE\U+5C42 1
370
     0
  0
POLYLINE
  5
141
330
136
100
AcDbEntity
  8
\U+56FE\U+5C42 1
370
     0
100
AcDb2dPolyline
 66
     1
 10
0.0
 20
0.0
 30
0.0
  0
VERTEX
  5
142
330
141
100
AcDbEntity
  8
\U+56FE\U+5C42 1
370
     0
100
AcDbVertex
100
AcDb2dVertex
 10
305.5
 20
416.1298828125
 30
0.0
  0
VERTEX
  5
143
330
141
100
AcDbEntity
  8
\U+56FE\U+5C42 1
370
     0
100
AcDbVertex
100
AcDb2dVertex
 10
301.12255859375
 20
413.6025390625
 30
0.0
  0
VERTEX
  5
144
330
141
100
AcDbEntity
  8
\U+56FE\U+5C42 1
370
     0
100
AcDbVertex
100
AcDb2dVertex
 10
288.5
 20
406.31494140625
 30
0.0
  0
VERTEX
  5
145
330
141
100
AcDbEntity
  8
\U+56FE\U+5C42 1
370
     0
100
AcDbVertex
100
AcDb2dVertex
 10
288.5
 20
386.685546875
 30
0.0
  0
VERTEX
  5
146
330
141
100
AcDbEntity
  8
\U+56FE\U+5C42 1
370
     0
100
AcDbVertex
100
AcDb2dVertex
 10
292.87744140625
 20
384.158203125
 30
0.0
  0
VERTEX
  5
147
330
141
100
AcDbEntity
  8
\U+56FE\U+5C42 1
370
     0
100
AcDbVertex
100
AcDb2dVertex
 10
305.5
 20
376.8701171875
 30
0.0
  0
VERTEX
  5
148
330
141
100
AcDbEntity
  8
\U+56FE\U+5C42 1
370
     0
100
AcDbVertex
100
AcDb2dVertex
 10
309.876953125
 20
379.3974609375
 30
0.0
  0
VERTEX
  5
149
330
141
100
AcDbEntity
  8
\U+56FE\U+5C42 1
370
     0
100
AcDbVertex
100
AcDb2dVertex
 10
322.5
 20
386.685546875
 30
0.0
  0
VERTEX
  5
14A
330
141
100
AcDbEntity
  8
\U+56FE\U+5C42 1
370
     0
100
AcDbVertex
100
AcDb2dVertex
 10
322.5
 20
406.31494140625
 30
0.0
  0
VERTEX
  5
14B
330
141
100
AcDbEntity
  8
\U+56FE\U+5C42 1
370
     0
100
AcDbVertex
100
AcDb2dVertex
 10
318.123046875
 20
408.84228515625
 30
0.0
  0
VERTEX
  5
14C
330
141
100
AcDbEntity
  8
\U+56FE\U+5C42 1
370
     0
100
AcDbVertex
100
AcDb2dVertex
 10
305.5
 20
416.1298828125
 30
0.0
  0
SEQEND
  5
14D
330
141
100
AcDbEntity
  8
\U+56FE\U+5C42 1
370
     0
  0
HATCH
  5
14E
330
136
100
AcDbEntity
  8
\U+56FE\U+5C42 1
 62
     7
100
AcDbHatch
 10
0.0
 20
0.0
 30
0.0
210
0.0
220
0.0
230
1.0
  2
SOLID
 70
     1
 71
     0
 91
        1
 92
        1
 93
       10
 72
     1
 10
305.5
 20
416.1298828125
 11
301.12255859375
 21
413.6025390625
 72
     1
 10
301.12255859375
 20
413.6025390625
 11
288.5
 21
406.31494140625
 72
     1
 10
288.5
 20
406.31494140625
 11
288.5
 21
386.685546875
 72
     1
 10
288.5
 20
386.685546875
 11
292.87744140625
 21
384.158203125
 72
     1
 10
292.87744140625
 20
384.158203125
 11
305.5
 21
376.8701171875
 72
     1
 10
305.5
 20
376.8701171875
 11
309.876953125
 21
379.3974609375
 72
     1
 10
309.876953125
 20
379.3974609375
 11
322.5
 21
386.685546875
 72
     1
 10
322.5
 20
386.685546875
 11
322.5
 21
406.31494140625
 72
     1
 10
322.5
 20
406.31494140625
 11
318.123046875
 21
408.84228515625
 72
     1
 10
318.123046875
 20
408.84228515625
 11
305.5
 21
416.1298828125
 97
        0
 75
     2
 76
     1
 98
        0
  0
ENDBLK
  5
139
330
136
100
AcDbEntity
  8
0
100
AcDbBlockEnd
  0
BLOCK
  5
151
330
14F
100
AcDbEntity
  8
0
100
AcDbBlockBegin
  2
block 13
 70
     0
 71
     0
 10
0.0
 20
0.0
 30
0.0
  3
block 13
  1

  0
POLYLINE
  5
153
330
14F
100
AcDbEntity
  8
\U+56FE\U+5C42 1
370
     0
100
AcDb2dPolyline
 66
     1
 10
0.0
 20
0.0
 30
0.0
  0
VERTEX
  5
154
330
153
100
AcDbEntity
  8
\U+56FE\U+5C42 1
370
     0
100
AcDbVertex
100
AcDb2dVertex
 10
375.5
 20
466.5
 30
0.0
  0
VERTEX
  5
155
330
153
100
AcDbEntity
  8
\U+56FE\U+5C42 1
370
     0
100
AcDbVertex
100
AcDb2dVertex
 10
375.5
 20
326.5
 30
0.0
  0
VERTEX
  5
156
330
153
100
AcDbEntity
  8
\U+56FE\U+5C42 1
370
     0
100
AcDbVertex
100
AcDb2dVertex
 10
235.5
 20
326.5
 30
0.0
  0
VERTEX
  5
157
330
153
100
AcDbEntity
  8
\U+56FE\U+5C42 1
370
     0
100
AcDbVertex
100
AcDb2dVertex
 10
235.5
 20
466.5
 30
0.0
  0
VERTEX
  5
158
330
153
100
AcDbEntity
  8
\U+56FE\U+5C42 1
370
     0
100
AcDbVertex
100
AcDb2dVertex
 10
375.5
 20
466.5
 30
0.0
  0
SEQEND
  5
159
330
153
100
AcDbEntity
  8
\U+56FE\U+5C42 1
370
     0
  0
POLYLINE
  5
15A
330
14F
100
AcDbEntity
  8
\U+56FE\U+5C42 1
370
     0
100
AcDb2dPolyline
 66
     1
 10
0.0
 20
0.0
 30
0.0
  0
VERTEX
  5
15B
330
15A
100
AcDbEntity
  8
\U+56FE\U+5C42 1
370
     0
100
AcDbVertex
100
AcDb2dVertex
 10
305.5
 20
416.1298828125
 30
0.0
  0
VERTEX
  5
15C
330
15A
100
AcDbEntity
  8
\U+56FE\U+5C42 1
370
     0
100
AcDbVertex
100
AcDb2dVertex
 10
300.697265625
 20
413.357421875
 30
0.0
  0
VERTEX
  5
15D
330
15A
100
AcDbEntity
  8
\U+56FE\U+5C42 1
370
     0
100
AcDbVertex
100
AcDb2dVertex
 10
288.5
 20
406.31494140625
 30
0.0
  0
VERTEX
  5
15E
330
15A
100
AcDbEntity
  8
\U+56FE\U+5C42 1
370
     0
100
AcDbVertex
100
AcDb2dVertex
 10
288.5
 20
386.685546875
 30
0.0
  0
VERTEX
  5
15F
330
15A
100
AcDbEntity
  8
\U+56FE\U+5C42 1
370
     0
100
AcDbVertex
100
AcDb2dVertex
 10
293.302734375
 20
383.912109375
 30
0.0
  0
VERTEX
  5
160
330
15A
100
AcDbEntity
  8
\U+56FE\U+5C42 1
370
     0
100
AcDbVertex
100
AcDb2dVertex
 10
305.5
 20
376.8701171875
 30
0.0
  0
VERTEX
  5
161
330
15A
100
AcDbEntity
  8
\U+56FE\U+5C42 1
370
     0
100
AcDbVertex
100
AcDb2dVertex
 10
310.302734375
 20
379.642578125
 30
0.0
  0
VERTEX
  5
162
330
15A
100
AcDbEntity
  8
\U+56FE\U+5C42 1
370
     0
100
AcDbVertex
100
AcDb2dVertex
 10
322.5
 20
386.685546875
 30
0.0
  0
VERTEX
  5
163
330
15A
100
AcDbEntity
  8
\U+56FE\U+5C42 1
370
     0
100
AcDbVertex
100
AcDb2dVertex
 10
322.5
 20
406.31494140625
 30
0.0
  0
VERTEX
  5
164
330
15A
100
AcDbEntity
  8
\U+56FE\U+5C42 1
370
     0
100
AcDbVertex
100
AcDb2dVertex
 10
317.697265625
 20
409.087890625
 30
0.0
  0
VERTEX
  5
165
330
15A
100
AcDbEntity
  8
\U+56FE\U+5C42 1
370
     0
100
AcDbVertex
100
AcDb2dVertex
 10
305.5
 20
416.1298828125
 30
0.0
  0
SEQEND
  5
166
330
15A
100
AcDbEntity
  8
\U+56FE\U+5C42 1
370
     0
  0
HATCH
  5
167
330
14F
100
AcDbEntity
  8
\U+56FE\U+5C42 1
 62
     7
100
AcDbHatch
 10
0.0
 20
0.0
 30
0.0
210
0.0
220
0.0
230
1.0
  2
SOLID
 70
     1
 71
     0
 91
        1
 92
        1
 93
       10
 72
     1
 10
305.5
 20
416.1298828125
 11
300.697265625
 21
413.357421875
 72
     1
 10
300.697265625
 20
413.357421875
 11
288.5
 21
406.31494140625
 72
     1
 10
288.5
 20
406.31494140625
 11
288.5
 21
386.685546875
 72
     1
 10
288.5
 20
386.685546875
 11
293.302734375
 21
383.912109375
 72
     1
 10
293.302734375
 20
383.912109375
 11
305.5
 21
376.8701171875
 72
     1
 10
305.5
 20
376.8701171875
 11
310.302734375
 21
379.642578125
 72
     1
 10
310.302734375
 20
379.642578125
 11
322.5
 21
386.685546875
 72
     1
 10
322.5
 20
386.685546875
 11
322.5
 21
406.31494140625
 72
     1
 10
322.5
 20
406.31494140625
 11
317.697265625
 21
409.087890625
 72
     1
 10
317.697265625
 20
409.087890625
 11
305.5
 21
416.1298828125
 97
        0
 75
     2
 76
     1
 98
        0
  0
ENDBLK
  5
152
330
14F
100
AcDbEntity
  8
0
100
AcDbBlockEnd
  0
BLOCK
  5
16A
330
168
100
AcDbEntity
  8
0
100
AcDbBlockBegin
  2
block 14
 70
     0
 71
     0
 10
0.0
 20
0.0
 30
0.0
  3
block 14
  1

  0
POLYLINE
  5
16C
330
168
100
AcDbEntity
  8
\U+56FE\U+5C42 1
370
     0
100
AcDb2dPolyline
 66
     1
 10
0.0
 20
0.0
 30
0.0
  0
VERTEX
  5
16D
330
16C
100
AcDbEntity
  8
\U+56FE\U+5C42 1
370
     0
100
AcDbVertex
100
AcDb2dVertex
 10
375.5
 20
466.5
 30
0.0
  0
VERTEX
  5
16E
330
16C
100
AcDbEntity
  8
\U+56FE\U+5C42 1
370
     0
100
AcDbVertex
100
AcDb2dVertex
 10
375.5
 20
326.5
 30
0.0
  0
VERTEX
  5
16F
330
16C
100
AcDbEntity
  8
\U+56FE\U+5C42 1
370
     0
100
AcDbVertex
100
AcDb2dVertex
 10
235.5
 20
326.5
 30
0.0
  0
VERTEX
  5
170
330
16C
100
AcDbEntity
  8
\U+56FE\U+5C42 1
370
     0
100
AcDbVertex
100
AcDb2dVertex
 10
235.5
 20
466.5
 30
0.0
  0
VERTEX
  5
171
330
16C
100
AcDbEntity
  8
\U+56FE\U+5C42 1
370
     0
100
AcDbVertex
100
AcDb2dVertex
 10
375.5
 20
466.5
 30
0.0
  0
SEQEND
  5
172
330
16C
100
AcDbEntity
  8
\U+56FE\U+5C42 1
370
     0
  0
POLYLINE
  5
173
330
168
100
AcDbEntity
  8
\U+56FE\U+5C42 1
370
     0
100
AcDb2dPolyline
 66
     1
 10
0.0
 20
0.0
 30
0.0
  0
VERTEX
  5
174
330
173
100
AcDbEntity
  8
\U+56FE\U+5C42 1
370
     0
100
AcDbVertex
100
AcDb2dVertex
 10
305.5
 20
416.1298828125
 30
0.0
  0
VERTEX
  5
175
330
173
100
AcDbEntity
  8
\U+56FE\U+5C42 1
370
     0
100
AcDbVertex
100
AcDb2dVertex
 10
300.2724609375
 20
413.11181640625
 30
0.0
  0
VERTEX
  5
176
330
173
100
AcDbEntity
  8
\U+56FE\U+5C42 1
370
     0
100
AcDbVertex
100
AcDb2dVertex
 10
288.5
 20
406.31494140625
 30
0.0
  0
VERTEX
  5
177
330
173
100
AcDbEntity
  8
\U+56FE\U+5C42 1
370
     0
100
AcDbVertex
100
AcDb2dVertex
 10
288.5
 20
386.685546875
 30
0.0
  0
VERTEX
  5
178
330
173
100
AcDbEntity
  8
\U+56FE\U+5C42 1
370
     0
100
AcDbVertex
100
AcDb2dVertex
 10
293.7275390625
 20
383.6669921875
 30
0.0
  0
VERTEX
  5
179
330
173
100
AcDbEntity
  8
\U+56FE\U+5C42 1
370
     0
100
AcDbVertex
100
AcDb2dVertex
 10
305.5
 20
376.8701171875
 30
0.0
  0
VERTEX
  5
17A
330
173
100
AcDbEntity
  8
\U+56FE\U+5C42 1
370
     0
100
AcDbVertex
100
AcDb2dVertex
 10
310.7275390625
 20
379.888671875
 30
0.0
  0
VERTEX
  5
17B
330
173
100
AcDbEntity
  8
\U+56FE\U+5C42 1
370
     0
100
AcDbVertex
100
AcDb2dVertex
 10
322.5
 20
386.685546875
 30
0.0
  0
VERTEX
  5
17C
330
173
100
AcDbEntity
  8
\U+56FE\U+5C42 1
370
     0
100
AcDbVertex
100
AcDb2dVertex
 10
322.5
 20
406.31494140625
 30
0.0
  0
VERTEX
  5
17D
330
173
100
AcDbEntity
  8
\U+56FE\U+5C42 1
370
     0
100
AcDbVertex
100
AcDb2dVertex
 10
317.2724609375
 20
409.3330078125
 30
0.0
  0
VERTEX
  5
17E
330
173
100
AcDbEntity
  8
\U+56FE\U+5C42 1
370
     0
100
AcDbVertex
100
AcDb2dVertex
 10
305.5
 20
416.1298828125
 30
0.0
  0
SEQEND
  5
17F
330
173
100
AcDbEntity
  8
\U+56FE\U+5C42 1
370
     0
  0
HATCH
  5
180
330
168
100
AcDbEntity
  8
\U+56FE\U+5C42 1
 62
     7
100
AcDbHatch
 10
0.0
 20
0.0
 30
0.0
210
0.0
220
0.0
230
1.0
  2
SOLID
 70
     1
 71
     0
 91
        1
 92
        1
 93
       10
 72
     1
 10
305.5
 20
416.1298828125
 11
300.2724609375
 21
413.11181640625
 72
     1
 10
300.2724609375
 20
413.11181640625
 11
288.5
 21
406.31494140625
 72
     1
 10
288.5
 20
406.31494140625
 11
288.5
 21
386.685546875
 72
     1
 10
288.5
 20
386.685546875
 11
293.7275390625
 21
383.6669921875
 72
     1
 10
293.7275390625
 20
383.6669921875
 11
305.5
 21
376.8701171875
 72
     1
 10
305.5
 20
376.8701171875
 11
310.7275390625
 21
379.888671875
 72
     1
 10
310.7275390625
 20
379.888671875
 11
322.5
 21
386.685546875
 72
     1
 10
322.5
 20
386.685546875
 11
322.5
 21
406.31494140625
 72
     1
 10
322.5
 20
406.31494140625
 11
317.2724609375
 21
409.3330078125
 72
     1
 10
317.2724609375
 20
409.3330078125
 11
305.5
 21
416.1298828125
 97
        0
 75
     2
 76
     1
 98
        0
  0
ENDBLK
  5
16B
330
168
100
AcDbEntity
  8
0
100
AcDbBlockEnd
  0
BLOCK
  5
183
330
181
100
AcDbEntity
  8
0
100
AcDbBlockBegin
  2
block 15
 70
     0
 71
     0
 10
0.0
 20
0.0
 30
0.0
  3
block 15
  1

  0
POLYLINE
  5
185
330
181
100
AcDbEntity
  8
\U+56FE\U+5C42 1
370
     0
100
AcDb2dPolyline
 66
     1
 10
0.0
 20
0.0
 30
0.0
  0
VERTEX
  5
186
330
185
100
AcDbEntity
  8
\U+56FE\U+5C42 1
370
     0
100
AcDbVertex
100
AcDb2dVertex
 10
375.5
 20
466.5
 30
0.0
  0
VERTEX
  5
187
330
185
100
AcDbEntity
  8
\U+56FE\U+5C42 1
370
     0
100
AcDbVertex
100
AcDb2dVertex
 10
375.5
 20
326.5
 30
0.0
  0
VERTEX
  5
188
330
185
100
AcDbEntity
  8
\U+56FE\U+5C42 1
370
     0
100
AcDbVertex
100
AcDb2dVertex
 10
235.5
 20
326.5
 30
0.0
  0
VERTEX
  5
189
330
185
100
AcDbEntity
  8
\U+56FE\U+5C42 1
370
     0
100
AcDbVertex
100
AcDb2dVertex
 10
235.5
 20
466.5
 30
0.0
  0
VERTEX
  5
18A
330
185
100
AcDbEntity
  8
\U+56FE\U+5C42 1
370
     0
100
AcDbVertex
100
AcDb2dVertex
 10
375.5
 20
466.5
 30
0.0
  0
SEQEND
  5
18B
330
185
100
AcDbEntity
  8
\U+56FE\U+5C42 1
370
     0
  0
POLYLINE
  5
18C
330
181
100
AcDbEntity
  8
\U+56FE\U+5C42 1
370
     0
100
AcDb2dPolyline
 66
     1
 10
0.0
 20
0.0
 30
0.0
  0
VERTEX
  5
18D
330
18C
100
AcDbEntity
  8
\U+56FE\U+5C42 1
370
     0
100
AcDbVertex
100
AcDb2dVertex
 10
305.5
 20
416.1298828125
 30
0.0
  0
VERTEX
  5
18E
330
18C
100
AcDbEntity
  8
\U+56FE\U+5C42 1
370
     0
100
AcDbVertex
100
AcDb2dVertex
 10
299.84765625
 20
412.8662109375
 30
0.0
  0
VERTEX
  5
18F
330
18C
100
AcDbEntity
  8
\U+56FE\U+5C42 1
370
     0
100
AcDbVertex
100
AcDb2dVertex
 10
288.5
 20
406.31494140625
 30
0.0
  0
VERTEX
  5
190
330
18C
100
AcDbEntity
  8
\U+56FE\U+5C42 1
370
     0
100
AcDbVertex
100
AcDb2dVertex
 10
288.5
 20
386.685546875
 30
0.0
  0
VERTEX
  5
191
330
18C
100
AcDbEntity
  8
\U+56FE\U+5C42 1
370
     0
100
AcDbVertex
100
AcDb2dVertex
 10
294.15234375
 20
383.421875
 30
0.0
  0
VERTEX
  5
192
330
18C
100
AcDbEntity
  8
\U+56FE\U+5C42 1
370
     0
100
AcDbVertex
100
AcDb2dVertex
 10
305.5
 20
376.8701171875
 30
0.0
  0
VERTEX
  5
193
330
18C
100
AcDbEntity
  8
\U+56FE\U+5C42 1
370
     0
100
AcDbVertex
100
AcDb2dVertex
 10
311.15234375
 20
380.1337890625
 30
0.0
  0
VERTEX
  5
194
330
18C
100
AcDbEntity
  8
\U+56FE\U+5C42 1
370
     0
100
AcDbVertex
100
AcDb2dVertex
 10
322.5
 20
386.685546875
 30
0.0
  0
VERTEX
  5
195
330
18C
100
AcDbEntity
  8
\U+56FE\U+5C42 1
370
     0
100
AcDbVertex
100
AcDb2dVertex
 10
322.5
 20
406.31494140625
 30
0.0
  0
VERTEX
  5
196
330
18C
100
AcDbEntity
  8
\U+56FE\U+5C42 1
370
     0
100
AcDbVertex
100
AcDb2dVertex
 10
316.84765625
 20
409.57861328125
 30
0.0
  0
VERTEX
  5
197
330
18C
100
AcDbEntity
  8
\U+56FE\U+5C42 1
370
     0
100
AcDbVertex
100
AcDb2dVertex
 10
305.5
 20
416.1298828125
 30
0.0
  0
SEQEND
  5
198
330
18C
100
AcDbEntity
  8
\U+56FE\U+5C42 1
370
     0
  0
HATCH
  5
199
330
181
100
AcDbEntity
  8
\U+56FE\U+5C42 1
 62
     7
100
AcDbHatch
 10
0.0
 20
0.0
 30
0.0
210
0.0
220
0.0
230
1.0
  2
SOLID
 70
     1
 71
     0
 91
        1
 92
        1
 93
       10
 72
     1
 10
305.5
 20
416.1298828125
 11
299.84765625
 21
412.8662109375
 72
     1
 10
299.84765625
 20
412.8662109375
 11
288.5
 21
406.31494140625
 72
     1
 10
288.5
 20
406.31494140625
 11
288.5
 21
386.685546875
 72
     1
 10
288.5
 20
386.685546875
 11
294.15234375
 21
383.421875
 72
     1
 10
294.15234375
 20
383.421875
 11
305.5
 21
376.8701171875
 72
     1
 10
305.5
 20
376.8701171875
 11
311.15234375
 21
380.1337890625
 72
     1
 10
311.15234375
 20
380.1337890625
 11
322.5
 21
386.685546875
 72
     1
 10
322.5
 20
386.685546875
 11
322.5
 21
406.31494140625
 72
     1
 10
322.5
 20
406.31494140625
 11
316.84765625
 21
409.57861328125
 72
     1
 10
316.84765625
 20
409.57861328125
 11
305.5
 21
416.1298828125
 97
        0
 75
     2
 76
     1
 98
        0
  0
ENDBLK
  5
184
330
181
100
AcDbEntity
  8
0
100
AcDbBlockEnd
  0
BLOCK
  5
19C
330
19A
100
AcDbEntity
  8
0
100
AcDbBlockBegin
  2
block 16
 70
     0
 71
     0
 10
0.0
 20
0.0
 30
0.0
  3
block 16
  1

  0
POLYLINE
  5
19E
330
19A
100
AcDbEntity
  8
\U+56FE\U+5C42 1
370
     0
100
AcDb2dPolyline
 66
     1
 10
0.0
 20
0.0
 30
0.0
  0
VERTEX
  5
19F
330
19E
100
AcDbEntity
  8
\U+56FE\U+5C42 1
370
     0
100
AcDbVertex
100
AcDb2dVertex
 10
375.5
 20
466.5
 30
0.0
  0
VERTEX
  5
1A0
330
19E
100
AcDbEntity
  8
\U+56FE\U+5C42 1
370
     0
100
AcDbVertex
100
AcDb2dVertex
 10
375.5
 20
326.5
 30
0.0
  0
VERTEX
  5
1A1
330
19E
100
AcDbEntity
  8
\U+56FE\U+5C42 1
370
     0
100
AcDbVertex
100
AcDb2dVertex
 10
235.5
 20
326.5
 30
0.0
  0
VERTEX
  5
1A2
330
19E
100
AcDbEntity
  8
\U+56FE\U+5C42 1
370
     0
100
AcDbVertex
100
AcDb2dVertex
 10
235.5
 20
466.5
 30
0.0
  0
VERTEX
  5
1A3
330
19E
100
AcDbEntity
  8
\U+56FE\U+5C42 1
370
     0
100
AcDbVertex
100
AcDb2dVertex
 10
375.5
 20
466.5
 30
0.0
  0
SEQEND
  5
1A4
330
19E
100
AcDbEntity
  8
\U+56FE\U+5C42 1
370
     0
  0
POLYLINE
  5
1A5
330
19A
100
AcDbEntity
  8
\U+56FE\U+5C42 1
370
     0
100
AcDb2dPolyline
 66
     1
 10
0.0
 20
0.0
 30
0.0
  0
VERTEX
  5
1A6
330
1A5
100
AcDbEntity
  8
\U+56FE\U+5C42 1
370
     0
100
AcDbVertex
100
AcDb2dVertex
 10
305.5
 20
416.1298828125
 30
0.0
  0
VERTEX
  5
1A7
330
1A5
100
AcDbEntity
  8
\U+56FE\U+5C42 1
370
     0
100
AcDbVertex
100
AcDb2dVertex
 10
299.42236328125
 20
412.62109375
 30
0.0
  0
VERTEX
  5
1A8
330
1A5
100
AcDbEntity
  8
\U+56FE\U+5C42 1
370
     0
100
AcDbVertex
100
AcDb2dVertex
 10
288.5
 20
406.31494140625
 30
0.0
  0
VERTEX
  5
1A9
330
1A5
100
AcDbEntity
  8
\U+56FE\U+5C42 1
370
     0
100
AcDbVertex
100
AcDb2dVertex
 10
288.5
 20
386.685546875
 30
0.0
  0
VERTEX
  5
1AA
330
1A5
100
AcDbEntity
  8
\U+56FE\U+5C42 1
370
     0
100
AcDbVertex
100
AcDb2dVertex
 10
294.57763671875
 20
383.17578125
 30
0.0
  0
VERTEX
  5
1AB
330
1A5
100
AcDbEntity
  8
\U+56FE\U+5C42 1
370
     0
100
AcDbVertex
100
AcDb2dVertex
 10
305.5
 20
376.8701171875
 30
0.0
  0
VERTEX
  5
1AC
330
1A5
100
AcDbEntity
  8
\U+56FE\U+5C42 1
370
     0
100
AcDbVertex
100
AcDb2dVertex
 10
311.578125
 20
380.37890625
 30
0.0
  0
VERTEX
  5
1AD
330
1A5
100
AcDbEntity
  8
\U+56FE\U+5C42 1
370
     0
100
AcDbVertex
100
AcDb2dVertex
 10
322.5
 20
386.685546875
 30
0.0
  0
VERTEX
  5
1AE
330
1A5
100
AcDbEntity
  8
\U+56FE\U+5C42 1
370
     0
100
AcDbVertex
100
AcDb2dVertex
 10
322.5
 20
406.31494140625
 30
0.0
  0
VERTEX
  5
1AF
330
1A5
100
AcDbEntity
  8
\U+56FE\U+5C42 1
370
     0
100
AcDbVertex
100
AcDb2dVertex
 10
316.421875
 20
409.82373046875
 30
0.0
  0
VERTEX
  5
1B0
330
1A5
100
AcDbEntity
  8
\U+56FE\U+5C42 1
370
     0
100
AcDbVertex
100
AcDb2dVertex
 10
305.5
 20
416.1298828125
 30
0.0
  0
SEQEND
  5
1B1
330
1A5
100
AcDbEntity
  8
\U+56FE\U+5C42 1
370
     0
  0
HATCH
  5
1B2
330
19A
100
AcDbEntity
  8
\U+56FE\U+5C42 1
 62
     7
100
AcDbHatch
 10
0.0
 20
0.0
 30
0.0
210
0.0
220
0.0
230
1.0
  2
SOLID
 70
     1
 71
     0
 91
        1
 92
        1
 93
       10
 72
     1
 10
305.5
 20
416.1298828125
 11
299.42236328125
 21
412.62109375
 72
     1
 10
299.42236328125
 20
412.62109375
 11
288.5
 21
406.31494140625
 72
     1
 10
288.5
 20
406.31494140625
 11
288.5
 21
386.685546875
 72
     1
 10
288.5
 20
386.685546875
 11
294.57763671875
 21
383.17578125
 72
     1
 10
294.57763671875
 20
383.17578125
 11
305.5
 21
376.8701171875
 72
     1
 10
305.5
 20
376.8701171875
 11
311.578125
 21
380.37890625
 72
     1
 10
311.578125
 20
380.37890625
 11
322.5
 21
386.685546875
 72
     1
 10
322.5
 20
386.685546875
 11
322.5
 21
406.31494140625
 72
     1
 10
322.5
 20
406.31494140625
 11
316.421875
 21
409.82373046875
 72
     1
 10
316.421875
 20
409.82373046875
 11
305.5
 21
416.1298828125
 97
        0
 75
     2
 76
     1
 98
        0
  0
ENDBLK
  5
19D
330
19A
100
AcDbEntity
  8
0
100
AcDbBlockEnd
  0
BLOCK
  5
1B5
330
1B3
100
AcDbEntity
  8
0
100
AcDbBlockBegin
  2
block 17
 70
     0
 71
     0
 10
0.0
 20
0.0
 30
0.0
  3
block 17
  1

  0
POLYLINE
  5
1B7
330
1B3
100
AcDbEntity
  8
\U+56FE\U+5C42 1
370
     0
100
AcDb2dPolyline
 66
     1
 10
0.0
 20
0.0
 30
0.0
  0
VERTEX
  5
1B8
330
1B7
100
AcDbEntity
  8
\U+56FE\U+5C42 1
370
     0
100
AcDbVertex
100
AcDb2dVertex
 10
375.5
 20
466.5
 30
0.0
  0
VERTEX
  5
1B9
330
1B7
100
AcDbEntity
  8
\U+56FE\U+5C42 1
370
     0
100
AcDbVertex
100
AcDb2dVertex
 10
375.5
 20
326.5
 30
0.0
  0
VERTEX
  5
1BA
330
1B7
100
AcDbEntity
  8
\U+56FE\U+5C42 1
370
     0
100
AcDbVertex
100
AcDb2dVertex
 10
235.5
 20
326.5
 30
0.0
  0
VERTEX
  5
1BB
330
1B7
100
AcDbEntity
  8
\U+56FE\U+5C42 1
370
     0
100
AcDbVertex
100
AcDb2dVertex
 10
235.5
 20
466.5
 30
0.0
  0
VERTEX
  5
1BC
330
1B7
100
AcDbEntity
  8
\U+56FE\U+5C42 1
370
     0
100
AcDbVertex
100
AcDb2dVertex
 10
375.5
 20
466.5
 30
0.0
  0
SEQEND
  5
1BD
330
1B7
100
AcDbEntity
  8
\U+56FE\U+5C42 1
370
     0
  0
POLYLINE
  5
1BE
330
1B3
100
AcDbEntity
  8
\U+56FE\U+5C42 1
370
     0
100
AcDb2dPolyline
 66
     1
 10
0.0
 20
0.0
 30
0.0
  0
VERTEX
  5
1BF
330
1BE
100
AcDbEntity
  8
\U+56FE\U+5C42 1
370
     0
100
AcDbVertex
100
AcDb2dVertex
 10
305.5
 20
416.1298828125
 30
0.0
  0
VERTEX
  5
1C0
330
1BE
100
AcDbEntity
  8
\U+56FE\U+5C42 1
370
     0
100
AcDbVertex
100
AcDb2dVertex
 10
298.99755859375
 20
412.37548828125
 30
0.0
  0
VERTEX
  5
1C1
330
1BE
100
AcDbEntity
  8
\U+56FE\U+5C42 1
370
     0
100
AcDbVertex
100
AcDb2dVertex
 10
288.5
 20
406.31494140625
 30
0.0
  0
VERTEX
  5
1C2
330
1BE
100
AcDbEntity
  8
\U+56FE\U+5C42 1
370
     0
100
AcDbVertex
100
AcDb2dVertex
 10
288.5
 20
386.685546875
 30
0.0
  0
VERTEX
  5
1C3
330
1BE
100
AcDbEntity
  8
\U+56FE\U+5C42 1
370
     0
100
AcDbVertex
100
AcDb2dVertex
 10
295.00244140625
 20
382.9306640625
 30
0.0
  0
VERTEX
  5
1C4
330
1BE
100
AcDbEntity
  8
\U+56FE\U+5C42 1
370
     0
100
AcDbVertex
100
AcDb2dVertex
 10
305.5
 20
376.8701171875
 30
0.0
  0
VERTEX
  5
1C5
330
1BE
100
AcDbEntity
  8
\U+56FE\U+5C42 1
370
     0
100
AcDbVertex
100
AcDb2dVertex
 10
312.001953125
 20
380.625
 30
0.0
  0
VERTEX
  5
1C6
330
1BE
100
AcDbEntity
  8
\U+56FE\U+5C42 1
370
     0
100
AcDbVertex
100
AcDb2dVertex
 10
322.5
 20
386.685546875
 30
0.0
  0
VERTEX
  5
1C7
330
1BE
100
AcDbEntity
  8
\U+56FE\U+5C42 1
370
     0
100
AcDbVertex
100
AcDb2dVertex
 10
322.5
 20
406.31494140625
 30
0.0
  0
VERTEX
  5
1C8
330
1BE
100
AcDbEntity
  8
\U+56FE\U+5C42 1
370
     0
100
AcDbVertex
100
AcDb2dVertex
 10
315.998046875
 20
410.0693359375
 30
0.0
  0
VERTEX
  5
1C9
330
1BE
100
AcDbEntity
  8
\U+56FE\U+5C42 1
370
     0
100
AcDbVertex
100
AcDb2dVertex
 10
305.5
 20
416.1298828125
 30
0.0
  0
SEQEND
  5
1CA
330
1BE
100
AcDbEntity
  8
\U+56FE\U+5C42 1
370
     0
  0
HATCH
  5
1CB
330
1B3
100
AcDbEntity
  8
\U+56FE\U+5C42 1
 62
     7
100
AcDbHatch
 10
0.0
 20
0.0
 30
0.0
210
0.0
220
0.0
230
1.0
  2
SOLID
 70
     1
 71
     0
 91
        1
 92
        1
 93
       10
 72
     1
 10
305.5
 20
416.1298828125
 11
298.99755859375
 21
412.37548828125
 72
     1
 10
298.99755859375
 20
412.37548828125
 11
288.5
 21
406.31494140625
 72
     1
 10
288.5
 20
406.31494140625
 11
288.5
 21
386.685546875
 72
     1
 10
288.5
 20
386.685546875
 11
295.00244140625
 21
382.9306640625
 72
     1
 10
295.00244140625
 20
382.9306640625
 11
305.5
 21
376.8701171875
 72
     1
 10
305.5
 20
376.8701171875
 11
312.001953125
 21
380.625
 72
     1
 10
312.001953125
 20
380.625
 11
322.5
 21
386.685546875
 72
     1
 10
322.5
 20
386.685546875
 11
322.5
 21
406.31494140625
 72
     1
 10
322.5
 20
406.31494140625
 11
315.998046875
 21
410.0693359375
 72
     1
 10
315.998046875
 20
410.0693359375
 11
305.5
 21
416.1298828125
 97
        0
 75
     2
 76
     1
 98
        0
  0
ENDBLK
  5
1B6
330
1B3
100
AcDbEntity
  8
0
100
AcDbBlockEnd
  0
BLOCK
  5
1CE
330
1CC
100
AcDbEntity
  8
0
100
AcDbBlockBegin
  2
block 18
 70
     0
 71
     0
 10
0.0
 20
0.0
 30
0.0
  3
block 18
  1

  0
POLYLINE
  5
1D0
330
1CC
100
AcDbEntity
  8
\U+56FE\U+5C42 1
370
     0
100
AcDb2dPolyline
 66
     1
 10
0.0
 20
0.0
 30
0.0
  0
VERTEX
  5
1D1
330
1D0
100
AcDbEntity
  8
\U+56FE\U+5C42 1
370
     0
100
AcDbVertex
100
AcDb2dVertex
 10
375.5
 20
466.5
 30
0.0
  0
VERTEX
  5
1D2
330
1D0
100
AcDbEntity
  8
\U+56FE\U+5C42 1
370
     0
100
AcDbVertex
100
AcDb2dVertex
 10
375.5
 20
326.5
 30
0.0
  0
VERTEX
  5
1D3
330
1D0
100
AcDbEntity
  8
\U+56FE\U+5C42 1
370
     0
100
AcDbVertex
100
AcDb2dVertex
 10
235.5
 20
326.5
 30
0.0
  0
VERTEX
  5
1D4
330
1D0
100
AcDbEntity
  8
\U+56FE\U+5C42 1
370
     0
100
AcDbVertex
100
AcDb2dVertex
 10
235.5
 20
466.5
 30
0.0
  0
VERTEX
  5
1D5
330
1D0
100
AcDbEntity
  8
\U+56FE\U+5C42 1
370
     0
100
AcDbVertex
100
AcDb2dVertex
 10
375.5
 20
466.5
 30
0.0
  0
SEQEND
  5
1D6
330
1D0
100
AcDbEntity
  8
\U+56FE\U+5C42 1
370
     0
  0
POLYLINE
  5
1D7
330
1CC
100
AcDbEntity
  8
\U+56FE\U+5C42 1
370
     0
100
AcDb2dPolyline
 66
     1
 10
0.0
 20
0.0
 30
0.0
  0
VERTEX
  5
1D8
330
1D7
100
AcDbEntity
  8
\U+56FE\U+5C42 1
370
     0
100
AcDbVertex
100
AcDb2dVertex
 10
305.5
 20
416.1298828125
 30
0.0
  0
VERTEX
  5
1D9
330
1D7
100
AcDbEntity
  8
\U+56FE\U+5C42 1
370
     0
100
AcDbVertex
100
AcDb2dVertex
 10
298.572265625
 20
412.13037109375
 30
0.0
  0
VERTEX
  5
1DA
330
1D7
100
AcDbEntity
  8
\U+56FE\U+5C42 1
370
     0
100
AcDbVertex
100
AcDb2dVertex
 10
288.5
 20
406.31494140625
 30
0.0
  0
VERTEX
  5
1DB
330
1D7
100
AcDbEntity
  8
\U+56FE\U+5C42 1
370
     0
100
AcDbVertex
100
AcDb2dVertex
 10
288.5
 20
386.685546875
 30
0.0
  0
VERTEX
  5
1DC
330
1D7
100
AcDbEntity
  8
\U+56FE\U+5C42 1
370
     0
100
AcDbVertex
100
AcDb2dVertex
 10
295.427734375
 20
382.685546875
 30
0.0
  0
VERTEX
  5
1DD
330
1D7
100
AcDbEntity
  8
\U+56FE\U+5C42 1
370
     0
100
AcDbVertex
100
AcDb2dVertex
 10
305.5
 20
376.8701171875
 30
0.0
  0
VERTEX
  5
1DE
330
1D7
100
AcDbEntity
  8
\U+56FE\U+5C42 1
370
     0
100
AcDbVertex
100
AcDb2dVertex
 10
312.427734375
 20
380.869140625
 30
0.0
  0
VERTEX
  5
1DF
330
1D7
100
AcDbEntity
  8
\U+56FE\U+5C42 1
370
     0
100
AcDbVertex
100
AcDb2dVertex
 10
322.5
 20
386.685546875
 30
0.0
  0
VERTEX
  5
1E0
330
1D7
100
AcDbEntity
  8
\U+56FE\U+5C42 1
370
     0
100
AcDbVertex
100
AcDb2dVertex
 10
322.5
 20
406.31494140625
 30
0.0
  0
VERTEX
  5
1E1
330
1D7
100
AcDbEntity
  8
\U+56FE\U+5C42 1
370
     0
100
AcDbVertex
100
AcDb2dVertex
 10
315.572265625
 20
410.314453125
 30
0.0
  0
VERTEX
  5
1E2
330
1D7
100
AcDbEntity
  8
\U+56FE\U+5C42 1
370
     0
100
AcDbVertex
100
AcDb2dVertex
 10
305.5
 20
416.1298828125
 30
0.0
  0
SEQEND
  5
1E3
330
1D7
100
AcDbEntity
  8
\U+56FE\U+5C42 1
370
     0
  0
HATCH
  5
1E4
330
1CC
100
AcDbEntity
  8
\U+56FE\U+5C42 1
 62
     7
100
AcDbHatch
 10
0.0
 20
0.0
 30
0.0
210
0.0
220
0.0
230
1.0
  2
SOLID
 70
     1
 71
     0
 91
        1
 92
        1
 93
       10
 72
     1
 10
305.5
 20
416.1298828125
 11
298.572265625
 21
412.13037109375
 72
     1
 10
298.572265625
 20
412.13037109375
 11
288.5
 21
406.31494140625
 72
     1
 10
288.5
 20
406.31494140625
 11
288.5
 21
386.685546875
 72
     1
 10
288.5
 20
386.685546875
 11
295.427734375
 21
382.685546875
 72
     1
 10
295.427734375
 20
382.685546875
 11
305.5
 21
376.8701171875
 72
     1
 10
305.5
 20
376.8701171875
 11
312.427734375
 21
380.869140625
 72
     1
 10
312.427734375
 20
380.869140625
 11
322.5
 21
386.685546875
 72
     1
 10
322.5
 20
386.685546875
 11
322.5
 21
406.31494140625
 72
     1
 10
322.5
 20
406.31494140625
 11
315.572265625
 21
410.314453125
 72
     1
 10
315.572265625
 20
410.314453125
 11
305.5
 21
416.1298828125
 97
        0
 75
     2
 76
     1
 98
        0
  0
ENDBLK
  5
1CF
330
1CC
100
AcDbEntity
  8
0
100
AcDbBlockEnd
  0
BLOCK
  5
1E7
330
1E5
100
AcDbEntity
  8
0
100
AcDbBlockBegin
  2
block 19
 70
     0
 71
     0
 10
0.0
 20
0.0
 30
0.0
  3
block 19
  1

  0
POLYLINE
  5
1E9
330
1E5
100
AcDbEntity
  8
\U+56FE\U+5C42 1
370
     0
100
AcDb2dPolyline
 66
     1
 10
0.0
 20
0.0
 30
0.0
  0
VERTEX
  5
1EA
330
1E9
100
AcDbEntity
  8
\U+56FE\U+5C42 1
370
     0
100
AcDbVertex
100
AcDb2dVertex
 10
375.5
 20
466.5
 30
0.0
  0
VERTEX
  5
1EB
330
1E9
100
AcDbEntity
  8
\U+56FE\U+5C42 1
370
     0
100
AcDbVertex
100
AcDb2dVertex
 10
375.5
 20
326.5
 30
0.0
  0
VERTEX
  5
1EC
330
1E9
100
AcDbEntity
  8
\U+56FE\U+5C42 1
370
     0
100
AcDbVertex
100
AcDb2dVertex
 10
235.5
 20
326.5
 30
0.0
  0
VERTEX
  5
1ED
330
1E9
100
AcDbEntity
  8
\U+56FE\U+5C42 1
370
     0
100
AcDbVertex
100
AcDb2dVertex
 10
235.5
 20
466.5
 30
0.0
  0
VERTEX
  5
1EE
330
1E9
100
AcDbEntity
  8
\U+56FE\U+5C42 1
370
     0
100
AcDbVertex
100
AcDb2dVertex
 10
375.5
 20
466.5
 30
0.0
  0
SEQEND
  5
1EF
330
1E9
100
AcDbEntity
  8
\U+56FE\U+5C42 1
370
     0
  0
POLYLINE
  5
1F0
330
1E5
100
AcDbEntity
  8
\U+56FE\U+5C42 1
370
     0
100
AcDb2dPolyline
 66
     1
 10
0.0
 20
0.0
 30
0.0
  0
VERTEX
  5
1F1
330
1F0
100
AcDbEntity
  8
\U+56FE\U+5C42 1
370
     0
100
AcDbVertex
100
AcDb2dVertex
 10
305.5
 20
416.1298828125
 30
0.0
  0
VERTEX
  5
1F2
330
1F0
100
AcDbEntity
  8
\U+56FE\U+5C42 1
370
     0
100
AcDbVertex
100
AcDb2dVertex
 10
298.1474609375
 20
411.884765625
 30
0.0
  0
VERTEX
  5
1F3
330
1F0
100
AcDbEntity
  8
\U+56FE\U+5C42 1
370
     0
100
AcDbVertex
100
AcDb2dVertex
 10
288.5
 20
406.31494140625
 30
0.0
  0
VERTEX
  5
1F4
330
1F0
100
AcDbEntity
  8
\U+56FE\U+5C42 1
370
     0
100
AcDbVertex
100
AcDb2dVertex
 10
288.5
 20
386.685546875
 30
0.0
  0
VERTEX
  5
1F5
330
1F0
100
AcDbEntity
  8
\U+56FE\U+5C42 1
370
     0
100
AcDbVertex
100
AcDb2dVertex
 10
295.8525390625
 20
382.439453125
 30
0.0
  0
VERTEX
  5
1F6
330
1F0
100
AcDbEntity
  8
\U+56FE\U+5C42 1
370
     0
100
AcDbVertex
100
AcDb2dVertex
 10
305.5
 20
376.8701171875
 30
0.0
  0
VERTEX
  5
1F7
330
1F0
100
AcDbEntity
  8
\U+56FE\U+5C42 1
370
     0
100
AcDbVertex
100
AcDb2dVertex
 10
312.8525390625
 20
381.115234375
 30
0.0
  0
VERTEX
  5
1F8
330
1F0
100
AcDbEntity
  8
\U+56FE\U+5C42 1
370
     0
100
AcDbVertex
100
AcDb2dVertex
 10
322.5
 20
386.685546875
 30
0.0
  0
VERTEX
  5
1F9
330
1F0
100
AcDbEntity
  8
\U+56FE\U+5C42 1
370
     0
100
AcDbVertex
100
AcDb2dVertex
 10
322.5
 20
406.31494140625
 30
0.0
  0
VERTEX
  5
1FA
330
1F0
100
AcDbEntity
  8
\U+56FE\U+5C42 1
370
     0
100
AcDbVertex
100
AcDb2dVertex
 10
315.1474609375
 20
410.56005859375
 30
0.0
  0
VERTEX
  5
1FB
330
1F0
100
AcDbEntity
  8
\U+56FE\U+5C42 1
370
     0
100
AcDbVertex
100
AcDb2dVertex
 10
305.5
 20
416.1298828125
 30
0.0
  0
SEQEND
  5
1FC
330
1F0
100
AcDbEntity
  8
\U+56FE\U+5C42 1
370
     0
  0
HATCH
  5
1FD
330
1E5
100
AcDbEntity
  8
\U+56FE\U+5C42 1
 62
     7
100
AcDbHatch
 10
0.0
 20
0.0
 30
0.0
210
0.0
220
0.0
230
1.0
  2
SOLID
 70
     1
 71
     0
 91
        1
 92
        1
 93
       10
 72
     1
 10
305.5
 20
416.1298828125
 11
298.1474609375
 21
411.884765625
 72
     1
 10
298.1474609375
 20
411.884765625
 11
288.5
 21
406.31494140625
 72
     1
 10
288.5
 20
406.31494140625
 11
288.5
 21
386.685546875
 72
     1
 10
288.5
 20
386.685546875
 11
295.8525390625
 21
382.439453125
 72
     1
 10
295.8525390625
 20
382.439453125
 11
305.5
 21
376.8701171875
 72
     1
 10
305.5
 20
376.8701171875
 11
312.8525390625
 21
381.115234375
 72
     1
 10
312.8525390625
 20
381.115234375
 11
322.5
 21
386.685546875
 72
     1
 10
322.5
 20
386.685546875
 11
322.5
 21
406.31494140625
 72
     1
 10
322.5
 20
406.31494140625
 11
315.1474609375
 21
410.56005859375
 72
     1
 10
315.1474609375
 20
410.56005859375
 11
305.5
 21
416.1298828125
 97
        0
 75
     2
 76
     1
 98
        0
  0
ENDBLK
  5
1E8
330
1E5
100
AcDbEntity
  8
0
100
AcDbBlockEnd
  0
BLOCK
  5
200
330
1FE
100
AcDbEntity
  8
0
100
AcDbBlockBegin
  2
block 20
 70
     0
 71
     0
 10
0.0
 20
0.0
 30
0.0
  3
block 20
  1

  0
POLYLINE
  5
202
330
1FE
100
AcDbEntity
  8
\U+56FE\U+5C42 1
370
     0
100
AcDb2dPolyline
 66
     1
 10
0.0
 20
0.0
 30
0.0
  0
VERTEX
  5
203
330
202
100
AcDbEntity
  8
\U+56FE\U+5C42 1
370
     0
100
AcDbVertex
100
AcDb2dVertex
 10
375.5
 20
466.5
 30
0.0
  0
VERTEX
  5
204
330
202
100
AcDbEntity
  8
\U+56FE\U+5C42 1
370
     0
100
AcDbVertex
100
AcDb2dVertex
 10
375.5
 20
326.5
 30
0.0
  0
VERTEX
  5
205
330
202
100
AcDbEntity
  8
\U+56FE\U+5C42 1
370
     0
100
AcDbVertex
100
AcDb2dVertex
 10
235.5
 20
326.5
 30
0.0
  0
VERTEX
  5
206
330
202
100
AcDbEntity
  8
\U+56FE\U+5C42 1
370
     0
100
AcDbVertex
100
AcDb2dVertex
 10
235.5
 20
466.5
 30
0.0
  0
VERTEX
  5
207
330
202
100
AcDbEntity
  8
\U+56FE\U+5C42 1
370
     0
100
AcDbVertex
100
AcDb2dVertex
 10
375.5
 20
466.5
 30
0.0
  0
SEQEND
  5
208
330
202
100
AcDbEntity
  8
\U+56FE\U+5C42 1
370
     0
  0
POLYLINE
  5
209
330
1FE
100
AcDbEntity
  8
\U+56FE\U+5C42 1
370
     0
100
AcDb2dPolyline
 66
     1
 10
0.0
 20
0.0
 30
0.0
  0
VERTEX
  5
20A
330
209
100
AcDbEntity
  8
\U+56FE\U+5C42 1
370
     0
100
AcDbVertex
100
AcDb2dVertex
 10
305.5
 20
416.1298828125
 30
0.0
  0
VERTEX
  5
20B
330
209
100
AcDbEntity
  8
\U+56FE\U+5C42 1
370
     0
100
AcDbVertex
100
AcDb2dVertex
 10
297.72265625
 20
411.6396484375
 30
0.0
  0
VERTEX
  5
20C
330
209
100
AcDbEntity
  8
\U+56FE\U+5C42 1
370
     0
100
AcDbVertex
100
AcDb2dVertex
 10
288.5
 20
406.31494140625
 30
0.0
  0
VERTEX
  5
20D
330
209
100
AcDbEntity
  8
\U+56FE\U+5C42 1
370
     0
100
AcDbVertex
100
AcDb2dVertex
 10
288.5
 20
386.685546875
 30
0.0
  0
VERTEX
  5
20E
330
209
100
AcDbEntity
  8
\U+56FE\U+5C42 1
370
     0
100
AcDbVertex
100
AcDb2dVertex
 10
296.27734375
 20
382.1953125
 30
0.0
  0
VERTEX
  5
20F
330
209
100
AcDbEntity
  8
\U+56FE\U+5C42 1
370
     0
100
AcDbVertex
100
AcDb2dVertex
 10
305.5
 20
376.8701171875
 30
0.0
  0
VERTEX
  5
210
330
209
100
AcDbEntity
  8
\U+56FE\U+5C42 1
370
     0
100
AcDbVertex
100
AcDb2dVertex
 10
313.27734375
 20
381.3603515625
 30
0.0
  0
VERTEX
  5
211
330
209
100
AcDbEntity
  8
\U+56FE\U+5C42 1
370
     0
100
AcDbVertex
100
AcDb2dVertex
 10
322.5
 20
386.685546875
 30
0.0
  0
VERTEX
  5
212
330
209
100
AcDbEntity
  8
\U+56FE\U+5C42 1
370
     0
100
AcDbVertex
100
AcDb2dVertex
 10
322.5
 20
406.31494140625
 30
0.0
  0
VERTEX
  5
213
330
209
100
AcDbEntity
  8
\U+56FE\U+5C42 1
370
     0
100
AcDbVertex
100
AcDb2dVertex
 10
314.72265625
 20
410.80517578125
 30
0.0
  0
VERTEX
  5
214
330
209
100
AcDbEntity
  8
\U+56FE\U+5C42 1
370
     0
100
AcDbVertex
100
AcDb2dVertex
 10
305.5
 20
416.1298828125
 30
0.0
  0
SEQEND
  5
215
330
209
100
AcDbEntity
  8
\U+56FE\U+5C42 1
370
     0
  0
HATCH
  5
216
330
1FE
100
AcDbEntity
  8
\U+56FE\U+5C42 1
 62
     7
100
AcDbHatch
 10
0.0
 20
0.0
 30
0.0
210
0.0
220
0.0
230
1.0
  2
SOLID
 70
     1
 71
     0
 91
        1
 92
        1
 93
       10
 72
     1
 10
305.5
 20
416.1298828125
 11
297.72265625
 21
411.6396484375
 72
     1
 10
297.72265625
 20
411.6396484375
 11
288.5
 21
406.31494140625
 72
     1
 10
288.5
 20
406.31494140625
 11
288.5
 21
386.685546875
 72
     1
 10
288.5
 20
386.685546875
 11
296.27734375
 21
382.1953125
 72
     1
 10
296.27734375
 20
382.1953125
 11
305.5
 21
376.8701171875
 72
     1
 10
305.5
 20
376.8701171875
 11
313.27734375
 21
381.3603515625
 72
     1
 10
313.27734375
 20
381.3603515625
 11
322.5
 21
386.685546875
 72
     1
 10
322.5
 20
386.685546875
 11
322.5
 21
406.31494140625
 72
     1
 10
322.5
 20
406.31494140625
 11
314.72265625
 21
410.80517578125
 72
     1
 10
314.72265625
 20
410.80517578125
 11
305.5
 21
416.1298828125
 97
        0
 75
     2
 76
     1
 98
        0
  0
ENDBLK
  5
201
330
1FE
100
AcDbEntity
  8
0
100
AcDbBlockEnd
  0
BLOCK
  5
219
330
217
100
AcDbEntity
  8
0
100
AcDbBlockBegin
  2
block 21
 70
     0
 71
     0
 10
0.0
 20
0.0
 30
0.0
  3
block 21
  1

  0
POLYLINE
  5
21B
330
217
100
AcDbEntity
  8
\U+56FE\U+5C42 1
370
     0
100
AcDb2dPolyline
 66
     1
 10
0.0
 20
0.0
 30
0.0
  0
VERTEX
  5
21C
330
21B
100
AcDbEntity
  8
\U+56FE\U+5C42 1
370
     0
100
AcDbVertex
100
AcDb2dVertex
 10
375.5
 20
466.5
 30
0.0
  0
VERTEX
  5
21D
330
21B
100
AcDbEntity
  8
\U+56FE\U+5C42 1
370
     0
100
AcDbVertex
100
AcDb2dVertex
 10
375.5
 20
326.5
 30
0.0
  0
VERTEX
  5
21E
330
21B
100
AcDbEntity
  8
\U+56FE\U+5C42 1
370
     0
100
AcDbVertex
100
AcDb2dVertex
 10
235.5
 20
326.5
 30
0.0
  0
VERTEX
  5
21F
330
21B
100
AcDbEntity
  8
\U+56FE\U+5C42 1
370
     0
100
AcDbVertex
100
AcDb2dVertex
 10
235.5
 20
466.5
 30
0.0
  0
VERTEX
  5
220
330
21B
100
AcDbEntity
  8
\U+56FE\U+5C42 1
370
     0
100
AcDbVertex
100
AcDb2dVertex
 10
375.5
 20
466.5
 30
0.0
  0
SEQEND
  5
221
330
21B
100
AcDbEntity
  8
\U+56FE\U+5C42 1
370
     0
  0
POLYLINE
  5
222
330
217
100
AcDbEntity
  8
\U+56FE\U+5C42 1
370
     0
100
AcDb2dPolyline
 66
     1
 10
0.0
 20
0.0
 30
0.0
  0
VERTEX
  5
223
330
222
100
AcDbEntity
  8
\U+56FE\U+5C42 1
370
     0
100
AcDbVertex
100
AcDb2dVertex
 10
305.5
 20
416.1298828125
 30
0.0
  0
VERTEX
  5
224
330
222
100
AcDbEntity
  8
\U+56FE\U+5C42 1
370
     0
100
AcDbVertex
100
AcDb2dVertex
 10
297.29736328125
 20
411.39404296875
 30
0.0
  0
VERTEX
  5
225
330
222
100
AcDbEntity
  8
\U+56FE\U+5C42 1
370
     0
100
AcDbVertex
100
AcDb2dVertex
 10
288.5
 20
406.31494140625
 30
0.0
  0
VERTEX
  5
226
330
222
100
AcDbEntity
  8
\U+56FE\U+5C42 1
370
     0
100
AcDbVertex
100
AcDb2dVertex
 10
288.5
 20
386.685546875
 30
0.0
  0
VERTEX
  5
227
330
222
100
AcDbEntity
  8
\U+56FE\U+5C42 1
370
     0
100
AcDbVertex
100
AcDb2dVertex
 10
296.70263671875
 20
381.94921875
 30
0.0
  0
VERTEX
  5
228
330
222
100
AcDbEntity
  8
\U+56FE\U+5C42 1
370
     0
100
AcDbVertex
100
AcDb2dVertex
 10
305.5
 20
376.8701171875
 30
0.0
  0
VERTEX
  5
229
330
222
100
AcDbEntity
  8
\U+56FE\U+5C42 1
370
     0
100
AcDbVertex
100
AcDb2dVertex
 10
313.703125
 20
381.60546875
 30
0.0
  0
VERTEX
  5
22A
330
222
100
AcDbEntity
  8
\U+56FE\U+5C42 1
370
     0
100
AcDbVertex
100
AcDb2dVertex
 10
322.5
 20
386.685546875
 30
0.0
  0
VERTEX
  5
22B
330
222
100
AcDbEntity
  8
\U+56FE\U+5C42 1
370
     0
100
AcDbVertex
100
AcDb2dVertex
 10
322.5
 20
406.31494140625
 30
0.0
  0
VERTEX
  5
22C
330
222
100
AcDbEntity
  8
\U+56FE\U+5C42 1
370
     0
100
AcDbVertex
100
AcDb2dVertex
 10
314.296875
 20
411.05078125
 30
0.0
  0
VERTEX
  5
22D
330
222
100
AcDbEntity
  8
\U+56FE\U+5C42 1
370
     0
100
AcDbVertex
100
AcDb2dVertex
 10
305.5
 20
416.1298828125
 30
0.0
  0
SEQEND
  5
22E
330
222
100
AcDbEntity
  8
\U+56FE\U+5C42 1
370
     0
  0
HATCH
  5
22F
330
217
100
AcDbEntity
  8
\U+56FE\U+5C42 1
 62
     7
100
AcDbHatch
 10
0.0
 20
0.0
 30
0.0
210
0.0
220
0.0
230
1.0
  2
SOLID
 70
     1
 71
     0
 91
        1
 92
        1
 93
       10
 72
     1
 10
305.5
 20
416.1298828125
 11
297.29736328125
 21
411.39404296875
 72
     1
 10
297.29736328125
 20
411.39404296875
 11
288.5
 21
406.31494140625
 72
     1
 10
288.5
 20
406.31494140625
 11
288.5
 21
386.685546875
 72
     1
 10
288.5
 20
386.685546875
 11
296.70263671875
 21
381.94921875
 72
     1
 10
296.70263671875
 20
381.94921875
 11
305.5
 21
376.8701171875
 72
     1
 10
305.5
 20
376.8701171875
 11
313.703125
 21
381.60546875
 72
     1
 10
313.703125
 20
381.60546875
 11
322.5
 21
386.685546875
 72
     1
 10
322.5
 20
386.685546875
 11
322.5
 21
406.31494140625
 72
     1
 10
322.5
 20
406.31494140625
 11
314.296875
 21
411.05078125
 72
     1
 10
314.296875
 20
411.05078125
 11
305.5
 21
416.1298828125
 97
        0
 75
     2
 76
     1
 98
        0
  0
ENDBLK
  5
21A
330
217
100
AcDbEntity
  8
0
100
AcDbBlockEnd
  0
BLOCK
  5
232
330
230
100
AcDbEntity
  8
0
100
AcDbBlockBegin
  2
block 22
 70
     0
 71
     0
 10
0.0
 20
0.0
 30
0.0
  3
block 22
  1

  0
POLYLINE
  5
234
330
230
100
AcDbEntity
  8
\U+56FE\U+5C42 1
370
     0
100
AcDb2dPolyline
 66
     1
 10
0.0
 20
0.0
 30
0.0
  0
VERTEX
  5
235
330
234
100
AcDbEntity
  8
\U+56FE\U+5C42 1
370
     0
100
AcDbVertex
100
AcDb2dVertex
 10
375.5
 20
466.5
 30
0.0
  0
VERTEX
  5
236
330
234
100
AcDbEntity
  8
\U+56FE\U+5C42 1
370
     0
100
AcDbVertex
100
AcDb2dVertex
 10
375.5
 20
326.5
 30
0.0
  0
VERTEX
  5
237
330
234
100
AcDbEntity
  8
\U+56FE\U+5C42 1
370
     0
100
AcDbVertex
100
AcDb2dVertex
 10
235.5
 20
326.5
 30
0.0
  0
VERTEX
  5
238
330
234
100
AcDbEntity
  8
\U+56FE\U+5C42 1
370
     0
100
AcDbVertex
100
AcDb2dVertex
 10
235.5
 20
466.5
 30
0.0
  0
VERTEX
  5
239
330
234
100
AcDbEntity
  8
\U+56FE\U+5C42 1
370
     0
100
AcDbVertex
100
AcDb2dVertex
 10
375.5
 20
466.5
 30
0.0
  0
SEQEND
  5
23A
330
234
100
AcDbEntity
  8
\U+56FE\U+5C42 1
370
     0
  0
POLYLINE
  5
23B
330
230
100
AcDbEntity
  8
\U+56FE\U+5C42 1
370
     0
100
AcDb2dPolyline
 66
     1
 10
0.0
 20
0.0
 30
0.0
  0
VERTEX
  5
23C
330
23B
100
AcDbEntity
  8
\U+56FE\U+5C42 1
370
     0
100
AcDbVertex
100
AcDb2dVertex
 10
305.5
 20
416.1298828125
 30
0.0
  0
VERTEX
  5
23D
330
23B
100
AcDbEntity
  8
\U+56FE\U+5C42 1
370
     0
100
AcDbVertex
100
AcDb2dVertex
 10
296.87255859375
 20
411.14892578125
 30
0.0
  0
VERTEX
  5
23E
330
23B
100
AcDbEntity
  8
\U+56FE\U+5C42 1
370
     0
100
AcDbVertex
100
AcDb2dVertex
 10
288.5
 20
406.31494140625
 30
0.0
  0
VERTEX
  5
23F
330
23B
100
AcDbEntity
  8
\U+56FE\U+5C42 1
370
     0
100
AcDbVertex
100
AcDb2dVertex
 10
288.5
 20
386.685546875
 30
0.0
  0
VERTEX
  5
240
330
23B
100
AcDbEntity
  8
\U+56FE\U+5C42 1
370
     0
100
AcDbVertex
100
AcDb2dVertex
 10
297.12744140625
 20
381.7041015625
 30
0.0
  0
VERTEX
  5
241
330
23B
100
AcDbEntity
  8
\U+56FE\U+5C42 1
370
     0
100
AcDbVertex
100
AcDb2dVertex
 10
305.5
 20
376.8701171875
 30
0.0
  0
VERTEX
  5
242
330
23B
100
AcDbEntity
  8
\U+56FE\U+5C42 1
370
     0
100
AcDbVertex
100
AcDb2dVertex
 10
314.126953125
 20
381.8515625
 30
0.0
  0
VERTEX
  5
243
330
23B
100
AcDbEntity
  8
\U+56FE\U+5C42 1
370
     0
100
AcDbVertex
100
AcDb2dVertex
 10
322.5
 20
386.685546875
 30
0.0
  0
VERTEX
  5
244
330
23B
100
AcDbEntity
  8
\U+56FE\U+5C42 1
370
     0
100
AcDbVertex
100
AcDb2dVertex
 10
322.5
 20
406.31494140625
 30
0.0
  0
VERTEX
  5
245
330
23B
100
AcDbEntity
  8
\U+56FE\U+5C42 1
370
     0
100
AcDbVertex
100
AcDb2dVertex
 10
313.873046875
 20
411.2958984375
 30
0.0
  0
VERTEX
  5
246
330
23B
100
AcDbEntity
  8
\U+56FE\U+5C42 1
370
     0
100
AcDbVertex
100
AcDb2dVertex
 10
305.5
 20
416.1298828125
 30
0.0
  0
SEQEND
  5
247
330
23B
100
AcDbEntity
  8
\U+56FE\U+5C42 1
370
     0
  0
HATCH
  5
248
330
230
100
AcDbEntity
  8
\U+56FE\U+5C42 1
 62
     7
100
AcDbHatch
 10
0.0
 20
0.0
 30
0.0
210
0.0
220
0.0
230
1.0
  2
SOLID
 70
     1
 71
     0
 91
        1
 92
        1
 93
       10
 72
     1
 10
305.5
 20
416.1298828125
 11
296.87255859375
 21
411.14892578125
 72
     1
 10
296.87255859375
 20
411.14892578125
 11
288.5
 21
406.31494140625
 72
     1
 10
288.5
 20
406.31494140625
 11
288.5
 21
386.685546875
 72
     1
 10
288.5
 20
386.685546875
 11
297.12744140625
 21
381.7041015625
 72
     1
 10
297.12744140625
 20
381.7041015625
 11
305.5
 21
376.8701171875
 72
     1
 10
305.5
 20
376.8701171875
 11
314.126953125
 21
381.8515625
 72
     1
 10
314.126953125
 20
381.8515625
 11
322.5
 21
386.685546875
 72
     1
 10
322.5
 20
386.685546875
 11
322.5
 21
406.31494140625
 72
     1
 10
322.5
 20
406.31494140625
 11
313.873046875
 21
411.2958984375
 72
     1
 10
313.873046875
 20
411.2958984375
 11
305.5
 21
416.1298828125
 97
        0
 75
     2
 76
     1
 98
        0
  0
ENDBLK
  5
233
330
230
100
AcDbEntity
  8
0
100
AcDbBlockEnd
  0
BLOCK
  5
24B
330
249
100
AcDbEntity
  8
0
100
AcDbBlockBegin
  2
block 23
 70
     0
 71
     0
 10
0.0
 20
0.0
 30
0.0
  3
block 23
  1

  0
POLYLINE
  5
24D
330
249
100
AcDbEntity
  8
\U+56FE\U+5C42 1
370
     0
100
AcDb2dPolyline
 66
     1
 10
0.0
 20
0.0
 30
0.0
  0
VERTEX
  5
24E
330
24D
100
AcDbEntity
  8
\U+56FE\U+5C42 1
370
     0
100
AcDbVertex
100
AcDb2dVertex
 10
375.5
 20
466.5
 30
0.0
  0
VERTEX
  5
24F
330
24D
100
AcDbEntity
  8
\U+56FE\U+5C42 1
370
     0
100
AcDbVertex
100
AcDb2dVertex
 10
375.5
 20
326.5
 30
0.0
  0
VERTEX
  5
250
330
24D
100
AcDbEntity
  8
\U+56FE\U+5C42 1
370
     0
100
AcDbVertex
100
AcDb2dVertex
 10
235.5
 20
326.5
 30
0.0
  0
VERTEX
  5
251
330
24D
100
AcDbEntity
  8
\U+56FE\U+5C42 1
370
     0
100
AcDbVertex
100
AcDb2dVertex
 10
235.5
 20
466.5
 30
0.0
  0
VERTEX
  5
252
330
24D
100
AcDbEntity
  8
\U+56FE\U+5C42 1
370
     0
100
AcDbVertex
100
AcDb2dVertex
 10
375.5
 20
466.5
 30
0.0
  0
SEQEND
  5
253
330
24D
100
AcDbEntity
  8
\U+56FE\U+5C42 1
370
     0
  0
POLYLINE
  5
254
330
249
100
AcDbEntity
  8
\U+56FE\U+5C42 1
370
     0
100
AcDb2dPolyline
 66
     1
 10
0.0
 20
0.0
 30
0.0
  0
VERTEX
  5
255
330
254
100
AcDbEntity
  8
\U+56FE\U+5C42 1
370
     0
100
AcDbVertex
100
AcDb2dVertex
 10
305.5
 20
416.1298828125
 30
0.0
  0
VERTEX
  5
256
330
254
100
AcDbEntity
  8
\U+56FE\U+5C42 1
370
     0
100
AcDbVertex
100
AcDb2dVertex
 10
296.447265625
 20
410.9033203125
 30
0.0
  0
VERTEX
  5
257
330
254
100
AcDbEntity
  8
\U+56FE\U+5C42 1
370
     0
100
AcDbVertex
100
AcDb2dVertex
 10
288.5
 20
406.31494140625
 30
0.0
  0
VERTEX
  5
258
330
254
100
AcDbEntity
  8
\U+56FE\U+5C42 1
370
     0
100
AcDbVertex
100
AcDb2dVertex
 10
288.5
 20
386.685546875
 30
0.0
  0
VERTEX
  5
259
330
254
100
AcDbEntity
  8
\U+56FE\U+5C42 1
370
     0
100
AcDbVertex
100
AcDb2dVertex
 10
297.552734375
 20
381.458984375
 30
0.0
  0
VERTEX
  5
25A
330
254
100
AcDbEntity
  8
\U+56FE\U+5C42 1
370
     0
100
AcDbVertex
100
AcDb2dVertex
 10
305.5
 20
376.8701171875
 30
0.0
  0
VERTEX
  5
25B
330
254
100
AcDbEntity
  8
\U+56FE\U+5C42 1
370
     0
100
AcDbVertex
100
AcDb2dVertex
 10
314.552734375
 20
382.0966796875
 30
0.0
  0
VERTEX
  5
25C
330
254
100
AcDbEntity
  8
\U+56FE\U+5C42 1
370
     0
100
AcDbVertex
100
AcDb2dVertex
 10
322.5
 20
386.685546875
 30
0.0
  0
VERTEX
  5
25D
330
254
100
AcDbEntity
  8
\U+56FE\U+5C42 1
370
     0
100
AcDbVertex
100
AcDb2dVertex
 10
322.5
 20
406.31494140625
 30
0.0
  0
VERTEX
  5
25E
330
254
100
AcDbEntity
  8
\U+56FE\U+5C42 1
370
     0
100
AcDbVertex
100
AcDb2dVertex
 10
313.447265625
 20
411.54150390625
 30
0.0
  0
VERTEX
  5
25F
330
254
100
AcDbEntity
  8
\U+56FE\U+5C42 1
370
     0
100
AcDbVertex
100
AcDb2dVertex
 10
305.5
 20
416.1298828125
 30
0.0
  0
SEQEND
  5
260
330
254
100
AcDbEntity
  8
\U+56FE\U+5C42 1
370
     0
  0
HATCH
  5
261
330
249
100
AcDbEntity
  8
\U+56FE\U+5C42 1
 62
     7
100
AcDbHatch
 10
0.0
 20
0.0
 30
0.0
210
0.0
220
0.0
230
1.0
  2
SOLID
 70
     1
 71
     0
 91
        1
 92
        1
 93
       10
 72
     1
 10
305.5
 20
416.1298828125
 11
296.447265625
 21
410.9033203125
 72
     1
 10
296.447265625
 20
410.9033203125
 11
288.5
 21
406.31494140625
 72
     1
 10
288.5
 20
406.31494140625
 11
288.5
 21
386.685546875
 72
     1
 10
288.5
 20
386.685546875
 11
297.552734375
 21
381.458984375
 72
     1
 10
297.552734375
 20
381.458984375
 11
305.5
 21
376.8701171875
 72
     1
 10
305.5
 20
376.8701171875
 11
314.552734375
 21
382.0966796875
 72
     1
 10
314.552734375
 20
382.0966796875
 11
322.5
 21
386.685546875
 72
     1
 10
322.5
 20
386.685546875
 11
322.5
 21
406.31494140625
 72
     1
 10
322.5
 20
406.31494140625
 11
313.447265625
 21
411.54150390625
 72
     1
 10
313.447265625
 20
411.54150390625
 11
305.5
 21
416.1298828125
 97
        0
 75
     2
 76
     1
 98
        0
  0
ENDBLK
  5
24C
330
249
100
AcDbEntity
  8
0
100
AcDbBlockEnd
  0
BLOCK
  5
264
330
262
100
AcDbEntity
  8
0
100
AcDbBlockBegin
  2
block 24
 70
     0
 71
     0
 10
0.0
 20
0.0
 30
0.0
  3
block 24
  1

  0
POLYLINE
  5
266
330
262
100
AcDbEntity
  8
\U+56FE\U+5C42 1
370
     0
100
AcDb2dPolyline
 66
     1
 10
0.0
 20
0.0
 30
0.0
  0
VERTEX
  5
267
330
266
100
AcDbEntity
  8
\U+56FE\U+5C42 1
370
     0
100
AcDbVertex
100
AcDb2dVertex
 10
375.5
 20
466.5
 30
0.0
  0
VERTEX
  5
268
330
266
100
AcDbEntity
  8
\U+56FE\U+5C42 1
370
     0
100
AcDbVertex
100
AcDb2dVertex
 10
375.5
 20
326.5
 30
0.0
  0
VERTEX
  5
269
330
266
100
AcDbEntity
  8
\U+56FE\U+5C42 1
370
     0
100
AcDbVertex
100
AcDb2dVertex
 10
235.5
 20
326.5
 30
0.0
  0
VERTEX
  5
26A
330
266
100
AcDbEntity
  8
\U+56FE\U+5C42 1
370
     0
100
AcDbVertex
100
AcDb2dVertex
 10
235.5
 20
466.5
 30
0.0
  0
VERTEX
  5
26B
330
266
100
AcDbEntity
  8
\U+56FE\U+5C42 1
370
     0
100
AcDbVertex
100
AcDb2dVertex
 10
375.5
 20
466.5
 30
0.0
  0
SEQEND
  5
26C
330
266
100
AcDbEntity
  8
\U+56FE\U+5C42 1
370
     0
  0
POLYLINE
  5
26D
330
262
100
AcDbEntity
  8
\U+56FE\U+5C42 1
370
     0
100
AcDb2dPolyline
 66
     1
 10
0.0
 20
0.0
 30
0.0
  0
VERTEX
  5
26E
330
26D
100
AcDbEntity
  8
\U+56FE\U+5C42 1
370
     0
100
AcDbVertex
100
AcDb2dVertex
 10
305.5
 20
416.1298828125
 30
0.0
  0
VERTEX
  5
26F
330
26D
100
AcDbEntity
  8
\U+56FE\U+5C42 1
370
     0
100
AcDbVertex
100
AcDb2dVertex
 10
296.0224609375
 20
410.658203125
 30
0.0
  0
VERTEX
  5
270
330
26D
100
AcDbEntity
  8
\U+56FE\U+5C42 1
370
     0
100
AcDbVertex
100
AcDb2dVertex
 10
288.5
 20
406.31494140625
 30
0.0
  0
VERTEX
  5
271
330
26D
100
AcDbEntity
  8
\U+56FE\U+5C42 1
370
     0
100
AcDbVertex
100
AcDb2dVertex
 10
288.5
 20
386.685546875
 30
0.0
  0
VERTEX
  5
272
330
26D
100
AcDbEntity
  8
\U+56FE\U+5C42 1
370
     0
100
AcDbVertex
100
AcDb2dVertex
 10
297.9775390625
 20
381.212890625
 30
0.0
  0
VERTEX
  5
273
330
26D
100
AcDbEntity
  8
\U+56FE\U+5C42 1
370
     0
100
AcDbVertex
100
AcDb2dVertex
 10
305.5
 20
376.8701171875
 30
0.0
  0
VERTEX
  5
274
330
26D
100
AcDbEntity
  8
\U+56FE\U+5C42 1
370
     0
100
AcDbVertex
100
AcDb2dVertex
 10
314.9775390625
 20
382.341796875
 30
0.0
  0
VERTEX
  5
275
330
26D
100
AcDbEntity
  8
\U+56FE\U+5C42 1
370
     0
100
AcDbVertex
100
AcDb2dVertex
 10
322.5
 20
386.685546875
 30
0.0
  0
VERTEX
  5
276
330
26D
100
AcDbEntity
  8
\U+56FE\U+5C42 1
370
     0
100
AcDbVertex
100
AcDb2dVertex
 10
322.5
 20
406.31494140625
 30
0.0
  0
VERTEX
  5
277
330
26D
100
AcDbEntity
  8
\U+56FE\U+5C42 1
370
     0
100
AcDbVertex
100
AcDb2dVertex
 10
313.0224609375
 20
411.78662109375
 30
0.0
  0
VERTEX
  5
278
330
26D
100
AcDbEntity
  8
\U+56FE\U+5C42 1
370
     0
100
AcDbVertex
100
AcDb2dVertex
 10
305.5
 20
416.1298828125
 30
0.0
  0
SEQEND
  5
279
330
26D
100
AcDbEntity
  8
\U+56FE\U+5C42 1
370
     0
  0
HATCH
  5
27A
330
262
100
AcDbEntity
  8
\U+56FE\U+5C42 1
 62
     7
100
AcDbHatch
 10
0.0
 20
0.0
 30
0.0
210
0.0
220
0.0
230
1.0
  2
SOLID
 70
     1
 71
     0
 91
        1
 92
        1
 93
       10
 72
     1
 10
305.5
 20
416.1298828125
 11
296.0224609375
 21
410.658203125
 72
     1
 10
296.0224609375
 20
410.658203125
 11
288.5
 21
406.31494140625
 72
     1
 10
288.5
 20
406.31494140625
 11
288.5
 21
386.685546875
 72
     1
 10
288.5
 20
386.685546875
 11
297.9775390625
 21
381.212890625
 72
     1
 10
297.9775390625
 20
381.212890625
 11
305.5
 21
376.8701171875
 72
     1
 10
305.5
 20
376.8701171875
 11
314.9775390625
 21
382.341796875
 72
     1
 10
314.9775390625
 20
382.341796875
 11
322.5
 21
386.685546875
 72
     1
 10
322.5
 20
386.685546875
 11
322.5
 21
406.31494140625
 72
     1
 10
322.5
 20
406.31494140625
 11
313.0224609375
 21
411.78662109375
 72
     1
 10
313.0224609375
 20
411.78662109375
 11
305.5
 21
416.1298828125
 97
        0
 75
     2
 76
     1
 98
        0
  0
ENDBLK
  5
265
330
262
100
AcDbEntity
  8
0
100
AcDbBlockEnd
  0
BLOCK
  5
27D
330
27B
100
AcDbEntity
  8
0
100
AcDbBlockBegin
  2
block 25
 70
     0
 71
     0
 10
0.0
 20
0.0
 30
0.0
  3
block 25
  1

  0
POLYLINE
  5
27F
330
27B
100
AcDbEntity
  8
\U+56FE\U+5C42 1
370
     0
100
AcDb2dPolyline
 66
     1
 10
0.0
 20
0.0
 30
0.0
  0
VERTEX
  5
280
330
27F
100
AcDbEntity
  8
\U+56FE\U+5C42 1
370
     0
100
AcDbVertex
100
AcDb2dVertex
 10
375.5
 20
466.5
 30
0.0
  0
VERTEX
  5
281
330
27F
100
AcDbEntity
  8
\U+56FE\U+5C42 1
370
     0
100
AcDbVertex
100
AcDb2dVertex
 10
375.5
 20
326.5
 30
0.0
  0
VERTEX
  5
282
330
27F
100
AcDbEntity
  8
\U+56FE\U+5C42 1
370
     0
100
AcDbVertex
100
AcDb2dVertex
 10
235.5
 20
326.5
 30
0.0
  0
VERTEX
  5
283
330
27F
100
AcDbEntity
  8
\U+56FE\U+5C42 1
370
     0
100
AcDbVertex
100
AcDb2dVertex
 10
235.5
 20
466.5
 30
0.0
  0
VERTEX
  5
284
330
27F
100
AcDbEntity
  8
\U+56FE\U+5C42 1
370
     0
100
AcDbVertex
100
AcDb2dVertex
 10
375.5
 20
466.5
 30
0.0
  0
SEQEND
  5
285
330
27F
100
AcDbEntity
  8
\U+56FE\U+5C42 1
370
     0
  0
POLYLINE
  5
286
330
27B
100
AcDbEntity
  8
\U+56FE\U+5C42 1
370
     0
100
AcDb2dPolyline
 66
     1
 10
0.0
 20
0.0
 30
0.0
  0
VERTEX
  5
287
330
286
100
AcDbEntity
  8
\U+56FE\U+5C42 1
370
     0
100
AcDbVertex
100
AcDb2dVertex
 10
305.5
 20
416.1298828125
 30
0.0
  0
VERTEX
  5
288
330
286
100
AcDbEntity
  8
\U+56FE\U+5C42 1
370
     0
100
AcDbVertex
100
AcDb2dVertex
 10
295.59765625
 20
410.41259765625
 30
0.0
  0
VERTEX
  5
289
330
286
100
AcDbEntity
  8
\U+56FE\U+5C42 1
370
     0
100
AcDbVertex
100
AcDb2dVertex
 10
288.5
 20
406.31494140625
 30
0.0
  0
VERTEX
  5
28A
330
286
100
AcDbEntity
  8
\U+56FE\U+5C42 1
370
     0
100
AcDbVertex
100
AcDb2dVertex
 10
288.5
 20
386.685546875
 30
0.0
  0
VERTEX
  5
28B
330
286
100
AcDbEntity
  8
\U+56FE\U+5C42 1
370
     0
100
AcDbVertex
100
AcDb2dVertex
 10
298.40234375
 20
380.9677734375
 30
0.0
  0
VERTEX
  5
28C
330
286
100
AcDbEntity
  8
\U+56FE\U+5C42 1
370
     0
100
AcDbVertex
100
AcDb2dVertex
 10
305.5
 20
376.8701171875
 30
0.0
  0
VERTEX
  5
28D
330
286
100
AcDbEntity
  8
\U+56FE\U+5C42 1
370
     0
100
AcDbVertex
100
AcDb2dVertex
 10
315.40234375
 20
382.587890625
 30
0.0
  0
VERTEX
  5
28E
330
286
100
AcDbEntity
  8
\U+56FE\U+5C42 1
370
     0
100
AcDbVertex
100
AcDb2dVertex
 10
322.5
 20
386.685546875
 30
0.0
  0
VERTEX
  5
28F
330
286
100
AcDbEntity
  8
\U+56FE\U+5C42 1
370
     0
100
AcDbVertex
100
AcDb2dVertex
 10
322.5
 20
406.31494140625
 30
0.0
  0
VERTEX
  5
290
330
286
100
AcDbEntity
  8
\U+56FE\U+5C42 1
370
     0
100
AcDbVertex
100
AcDb2dVertex
 10
312.59765625
 20
412.0322265625
 30
0.0
  0
VERTEX
  5
291
330
286
100
AcDbEntity
  8
\U+56FE\U+5C42 1
370
     0
100
AcDbVertex
100
AcDb2dVertex
 10
305.5
 20
416.1298828125
 30
0.0
  0
SEQEND
  5
292
330
286
100
AcDbEntity
  8
\U+56FE\U+5C42 1
370
     0
  0
HATCH
  5
293
330
27B
100
AcDbEntity
  8
\U+56FE\U+5C42 1
 62
     7
100
AcDbHatch
 10
0.0
 20
0.0
 30
0.0
210
0.0
220
0.0
230
1.0
  2
SOLID
 70
     1
 71
     0
 91
        1
 92
        1
 93
       10
 72
     1
 10
305.5
 20
416.1298828125
 11
295.59765625
 21
410.41259765625
 72
     1
 10
295.59765625
 20
410.41259765625
 11
288.5
 21
406.31494140625
 72
     1
 10
288.5
 20
406.31494140625
 11
288.5
 21
386.685546875
 72
     1
 10
288.5
 20
386.685546875
 11
298.40234375
 21
380.9677734375
 72
     1
 10
298.40234375
 20
380.9677734375
 11
305.5
 21
376.8701171875
 72
     1
 10
305.5
 20
376.8701171875
 11
315.40234375
 21
382.587890625
 72
     1
 10
315.40234375
 20
382.587890625
 11
322.5
 21
386.685546875
 72
     1
 10
322.5
 20
386.685546875
 11
322.5
 21
406.31494140625
 72
     1
 10
322.5
 20
406.31494140625
 11
312.59765625
 21
412.0322265625
 72
     1
 10
312.59765625
 20
412.0322265625
 11
305.5
 21
416.1298828125
 97
        0
 75
     2
 76
     1
 98
        0
  0
ENDBLK
  5
27E
330
27B
100
AcDbEntity
  8
0
100
AcDbBlockEnd
  0
BLOCK
  5
296
330
294
100
AcDbEntity
  8
0
100
AcDbBlockBegin
  2
block 26
 70
     0
 71
     0
 10
0.0
 20
0.0
 30
0.0
  3
block 26
  1

  0
POLYLINE
  5
298
330
294
100
AcDbEntity
  8
\U+56FE\U+5C42 1
370
     0
100
AcDb2dPolyline
 66
     1
 10
0.0
 20
0.0
 30
0.0
  0
VERTEX
  5
299
330
298
100
AcDbEntity
  8
\U+56FE\U+5C42 1
370
     0
100
AcDbVertex
100
AcDb2dVertex
 10
375.5
 20
466.5
 30
0.0
  0
VERTEX
  5
29A
330
298
100
AcDbEntity
  8
\U+56FE\U+5C42 1
370
     0
100
AcDbVertex
100
AcDb2dVertex
 10
375.5
 20
326.5
 30
0.0
  0
VERTEX
  5
29B
330
298
100
AcDbEntity
  8
\U+56FE\U+5C42 1
370
     0
100
AcDbVertex
100
AcDb2dVertex
 10
235.5
 20
326.5
 30
0.0
  0
VERTEX
  5
29C
330
298
100
AcDbEntity
  8
\U+56FE\U+5C42 1
370
     0
100
AcDbVertex
100
AcDb2dVertex
 10
235.5
 20
466.5
 30
0.0
  0
VERTEX
  5
29D
330
298
100
AcDbEntity
  8
\U+56FE\U+5C42 1
370
     0
100
AcDbVertex
100
AcDb2dVertex
 10
375.5
 20
466.5
 30
0.0
  0
SEQEND
  5
29E
330
298
100
AcDbEntity
  8
\U+56FE\U+5C42 1
370
     0
  0
POLYLINE
  5
29F
330
294
100
AcDbEntity
  8
\U+56FE\U+5C42 1
370
     0
100
AcDb2dPolyline
 66
     1
 10
0.0
 20
0.0
 30
0.0
  0
VERTEX
  5
2A0
330
29F
100
AcDbEntity
  8
\U+56FE\U+5C42 1
370
     0
100
AcDbVertex
100
AcDb2dVertex
 10
305.5
 20
416.1298828125
 30
0.0
  0
VERTEX
  5
2A1
330
29F
100
AcDbEntity
  8
\U+56FE\U+5C42 1
370
     0
100
AcDbVertex
100
AcDb2dVertex
 10
295.17236328125
 20
410.16748046875
 30
0.0
  0
VERTEX
  5
2A2
330
29F
100
AcDbEntity
  8
\U+56FE\U+5C42 1
370
     0
100
AcDbVertex
100
AcDb2dVertex
 10
288.5
 20
406.31494140625
 30
0.0
  0
VERTEX
  5
2A3
330
29F
100
AcDbEntity
  8
\U+56FE\U+5C42 1
370
     0
100
AcDbVertex
100
AcDb2dVertex
 10
288.5
 20
386.685546875
 30
0.0
  0
VERTEX
  5
2A4
330
29F
100
AcDbEntity
  8
\U+56FE\U+5C42 1
370
     0
100
AcDbVertex
100
AcDb2dVertex
 10
298.82763671875
 20
380.72265625
 30
0.0
  0
VERTEX
  5
2A5
330
29F
100
AcDbEntity
  8
\U+56FE\U+5C42 1
370
     0
100
AcDbVertex
100
AcDb2dVertex
 10
305.5
 20
376.8701171875
 30
0.0
  0
VERTEX
  5
2A6
330
29F
100
AcDbEntity
  8
\U+56FE\U+5C42 1
370
     0
100
AcDbVertex
100
AcDb2dVertex
 10
315.828125
 20
382.83203125
 30
0.0
  0
VERTEX
  5
2A7
330
29F
100
AcDbEntity
  8
\U+56FE\U+5C42 1
370
     0
100
AcDbVertex
100
AcDb2dVertex
 10
322.5
 20
386.685546875
 30
0.0
  0
VERTEX
  5
2A8
330
29F
100
AcDbEntity
  8
\U+56FE\U+5C42 1
370
     0
100
AcDbVertex
100
AcDb2dVertex
 10
322.5
 20
406.31494140625
 30
0.0
  0
VERTEX
  5
2A9
330
29F
100
AcDbEntity
  8
\U+56FE\U+5C42 1
370
     0
100
AcDbVertex
100
AcDb2dVertex
 10
312.171875
 20
412.27734375
 30
0.0
  0
VERTEX
  5
2AA
330
29F
100
AcDbEntity
  8
\U+56FE\U+5C42 1
370
     0
100
AcDbVertex
100
AcDb2dVertex
 10
305.5
 20
416.1298828125
 30
0.0
  0
SEQEND
  5
2AB
330
29F
100
AcDbEntity
  8
\U+56FE\U+5C42 1
370
     0
  0
HATCH
  5
2AC
330
294
100
AcDbEntity
  8
\U+56FE\U+5C42 1
 62
     7
100
AcDbHatch
 10
0.0
 20
0.0
 30
0.0
210
0.0
220
0.0
230
1.0
  2
SOLID
 70
     1
 71
     0
 91
        1
 92
        1
 93
       10
 72
     1
 10
305.5
 20
416.1298828125
 11
295.17236328125
 21
410.16748046875
 72
     1
 10
295.17236328125
 20
410.16748046875
 11
288.5
 21
406.31494140625
 72
     1
 10
288.5
 20
406.31494140625
 11
288.5
 21
386.685546875
 72
     1
 10
288.5
 20
386.685546875
 11
298.82763671875
 21
380.72265625
 72
     1
 10
298.82763671875
 20
380.72265625
 11
305.5
 21
376.8701171875
 72
     1
 10
305.5
 20
376.8701171875
 11
315.828125
 21
382.83203125
 72
     1
 10
315.828125
 20
382.83203125
 11
322.5
 21
386.685546875
 72
     1
 10
322.5
 20
386.685546875
 11
322.5
 21
406.31494140625
 72
     1
 10
322.5
 20
406.31494140625
 11
312.171875
 21
412.27734375
 72
     1
 10
312.171875
 20
412.27734375
 11
305.5
 21
416.1298828125
 97
        0
 75
     2
 76
     1
 98
        0
  0
ENDBLK
  5
297
330
294
100
AcDbEntity
  8
0
100
AcDbBlockEnd
  0
BLOCK
  5
2AF
330
2AD
100
AcDbEntity
  8
0
100
AcDbBlockBegin
  2
block 27
 70
     0
 71
     0
 10
0.0
 20
0.0
 30
0.0
  3
block 27
  1

  0
POLYLINE
  5
2B1
330
2AD
100
AcDbEntity
  8
\U+56FE\U+5C42 1
370
     0
100
AcDb2dPolyline
 66
     1
 10
0.0
 20
0.0
 30
0.0
  0
VERTEX
  5
2B2
330
2B1
100
AcDbEntity
  8
\U+56FE\U+5C42 1
370
     0
100
AcDbVertex
100
AcDb2dVertex
 10
375.5
 20
466.5
 30
0.0
  0
VERTEX
  5
2B3
330
2B1
100
AcDbEntity
  8
\U+56FE\U+5C42 1
370
     0
100
AcDbVertex
100
AcDb2dVertex
 10
375.5
 20
326.5
 30
0.0
  0
VERTEX
  5
2B4
330
2B1
100
AcDbEntity
  8
\U+56FE\U+5C42 1
370
     0
100
AcDbVertex
100
AcDb2dVertex
 10
235.5
 20
326.5
 30
0.0
  0
VERTEX
  5
2B5
330
2B1
100
AcDbEntity
  8
\U+56FE\U+5C42 1
370
     0
100
AcDbVertex
100
AcDb2dVertex
 10
235.5
 20
466.5
 30
0.0
  0
VERTEX
  5
2B6
330
2B1
100
AcDbEntity
  8
\U+56FE\U+5C42 1
370
     0
100
AcDbVertex
100
AcDb2dVertex
 10
375.5
 20
466.5
 30
0.0
  0
SEQEND
  5
2B7
330
2B1
100
AcDbEntity
  8
\U+56FE\U+5C42 1
370
     0
  0
POLYLINE
  5
2B8
330
2AD
100
AcDbEntity
  8
\U+56FE\U+5C42 1
370
     0
100
AcDb2dPolyline
 66
     1
 10
0.0
 20
0.0
 30
0.0
  0
VERTEX
  5
2B9
330
2B8
100
AcDbEntity
  8
\U+56FE\U+5C42 1
370
     0
100
AcDbVertex
100
AcDb2dVertex
 10
305.5
 20
416.1298828125
 30
0.0
  0
VERTEX
  5
2BA
330
2B8
100
AcDbEntity
  8
\U+56FE\U+5C42 1
370
     0
100
AcDbVertex
100
AcDb2dVertex
 10
294.74755859375
 20
409.921875
 30
0.0
  0
VERTEX
  5
2BB
330
2B8
100
AcDbEntity
  8
\U+56FE\U+5C42 1
370
     0
100
AcDbVertex
100
AcDb2dVertex
 10
288.5
 20
406.31494140625
 30
0.0
  0
VERTEX
  5
2BC
330
2B8
100
AcDbEntity
  8
\U+56FE\U+5C42 1
370
     0
100
AcDbVertex
100
AcDb2dVertex
 10
288.5
 20
386.685546875
 30
0.0
  0
VERTEX
  5
2BD
330
2B8
100
AcDbEntity
  8
\U+56FE\U+5C42 1
370
     0
100
AcDbVertex
100
AcDb2dVertex
 10
299.25244140625
 20
380.4765625
 30
0.0
  0
VERTEX
  5
2BE
330
2B8
100
AcDbEntity
  8
\U+56FE\U+5C42 1
370
     0
100
AcDbVertex
100
AcDb2dVertex
 10
305.5
 20
376.8701171875
 30
0.0
  0
VERTEX
  5
2BF
330
2B8
100
AcDbEntity
  8
\U+56FE\U+5C42 1
370
     0
100
AcDbVertex
100
AcDb2dVertex
 10
316.251953125
 20
383.078125
 30
0.0
  0
VERTEX
  5
2C0
330
2B8
100
AcDbEntity
  8
\U+56FE\U+5C42 1
370
     0
100
AcDbVertex
100
AcDb2dVertex
 10
322.5
 20
386.685546875
 30
0.0
  0
VERTEX
  5
2C1
330
2B8
100
AcDbEntity
  8
\U+56FE\U+5C42 1
370
     0
100
AcDbVertex
100
AcDb2dVertex
 10
322.5
 20
406.31494140625
 30
0.0
  0
VERTEX
  5
2C2
330
2B8
100
AcDbEntity
  8
\U+56FE\U+5C42 1
370
     0
100
AcDbVertex
100
AcDb2dVertex
 10
311.748046875
 20
412.52294921875
 30
0.0
  0
VERTEX
  5
2C3
330
2B8
100
AcDbEntity
  8
\U+56FE\U+5C42 1
370
     0
100
AcDbVertex
100
AcDb2dVertex
 10
305.5
 20
416.1298828125
 30
0.0
  0
SEQEND
  5
2C4
330
2B8
100
AcDbEntity
  8
\U+56FE\U+5C42 1
370
     0
  0
HATCH
  5
2C5
330
2AD
100
AcDbEntity
  8
\U+56FE\U+5C42 1
 62
     7
100
AcDbHatch
 10
0.0
 20
0.0
 30
0.0
210
0.0
220
0.0
230
1.0
  2
SOLID
 70
     1
 71
     0
 91
        1
 92
        1
 93
       10
 72
     1
 10
305.5
 20
416.1298828125
 11
294.74755859375
 21
409.921875
 72
     1
 10
294.74755859375
 20
409.921875
 11
288.5
 21
406.31494140625
 72
     1
 10
288.5
 20
406.31494140625
 11
288.5
 21
386.685546875
 72
     1
 10
288.5
 20
386.685546875
 11
299.25244140625
 21
380.4765625
 72
     1
 10
299.25244140625
 20
380.4765625
 11
305.5
 21
376.8701171875
 72
     1
 10
305.5
 20
376.8701171875
 11
316.251953125
 21
383.078125
 72
     1
 10
316.251953125
 20
383.078125
 11
322.5
 21
386.685546875
 72
     1
 10
322.5
 20
386.685546875
 11
322.5
 21
406.31494140625
 72
     1
 10
322.5
 20
406.31494140625
 11
311.748046875
 21
412.52294921875
 72
     1
 10
311.748046875
 20
412.52294921875
 11
305.5
 21
416.1298828125
 97
        0
 75
     2
 76
     1
 98
        0
  0
ENDBLK
  5
2B0
330
2AD
100
AcDbEntity
  8
0
100
AcDbBlockEnd
  0
BLOCK
  5
2C8
330
2C6
100
AcDbEntity
  8
0
100
AcDbBlockBegin
  2
block 28
 70
     0
 71
     0
 10
0.0
 20
0.0
 30
0.0
  3
block 28
  1

  0
POLYLINE
  5
2CA
330
2C6
100
AcDbEntity
  8
\U+56FE\U+5C42 1
370
     0
100
AcDb2dPolyline
 66
     1
 10
0.0
 20
0.0
 30
0.0
  0
VERTEX
  5
2CB
330
2CA
100
AcDbEntity
  8
\U+56FE\U+5C42 1
370
     0
100
AcDbVertex
100
AcDb2dVertex
 10
375.5
 20
466.5
 30
0.0
  0
VERTEX
  5
2CC
330
2CA
100
AcDbEntity
  8
\U+56FE\U+5C42 1
370
     0
100
AcDbVertex
100
AcDb2dVertex
 10
375.5
 20
326.5
 30
0.0
  0
VERTEX
  5
2CD
330
2CA
100
AcDbEntity
  8
\U+56FE\U+5C42 1
370
     0
100
AcDbVertex
100
AcDb2dVertex
 10
235.5
 20
326.5
 30
0.0
  0
VERTEX
  5
2CE
330
2CA
100
AcDbEntity
  8
\U+56FE\U+5C42 1
370
     0
100
AcDbVertex
100
AcDb2dVertex
 10
235.5
 20
466.5
 30
0.0
  0
VERTEX
  5
2CF
330
2CA
100
AcDbEntity
  8
\U+56FE\U+5C42 1
370
     0
100
AcDbVertex
100
AcDb2dVertex
 10
375.5
 20
466.5
 30
0.0
  0
SEQEND
  5
2D0
330
2CA
100
AcDbEntity
  8
\U+56FE\U+5C42 1
370
     0
  0
POLYLINE
  5
2D1
330
2C6
100
AcDbEntity
  8
\U+56FE\U+5C42 1
370
     0
100
AcDb2dPolyline
 66
     1
 10
0.0
 20
0.0
 30
0.0
  0
VERTEX
  5
2D2
330
2D1
100
AcDbEntity
  8
\U+56FE\U+5C42 1
370
     0
100
AcDbVertex
100
AcDb2dVertex
 10
305.5
 20
416.1298828125
 30
0.0
  0
VERTEX
  5
2D3
330
2D1
100
AcDbEntity
  8
\U+56FE\U+5C42 1
370
     0
100
AcDbVertex
100
AcDb2dVertex
 10
294.322265625
 20
409.6767578125
 30
0.0
  0
VERTEX
  5
2D4
330
2D1
100
AcDbEntity
  8
\U+56FE\U+5C42 1
370
     0
100
AcDbVertex
100
AcDb2dVertex
 10
288.5
 20
406.31494140625
 30
0.0
  0
VERTEX
  5
2D5
330
2D1
100
AcDbEntity
  8
\U+56FE\U+5C42 1
370
     0
100
AcDbVertex
100
AcDb2dVertex
 10
288.5
 20
386.685546875
 30
0.0
  0
VERTEX
  5
2D6
330
2D1
100
AcDbEntity
  8
\U+56FE\U+5C42 1
370
     0
100
AcDbVertex
100
AcDb2dVertex
 10
299.677734375
 20
380.2314453125
 30
0.0
  0
VERTEX
  5
2D7
330
2D1
100
AcDbEntity
  8
\U+56FE\U+5C42 1
370
     0
100
AcDbVertex
100
AcDb2dVertex
 10
305.5
 20
376.8701171875
 30
0.0
  0
VERTEX
  5
2D8
330
2D1
100
AcDbEntity
  8
\U+56FE\U+5C42 1
370
     0
100
AcDbVertex
100
AcDb2dVertex
 10
316.677734375
 20
383.3232421875
 30
0.0
  0
VERTEX
  5
2D9
330
2D1
100
AcDbEntity
  8
\U+56FE\U+5C42 1
370
     0
100
AcDbVertex
100
AcDb2dVertex
 10
322.5
 20
386.685546875
 30
0.0
  0
VERTEX
  5
2DA
330
2D1
100
AcDbEntity
  8
\U+56FE\U+5C42 1
370
     0
100
AcDbVertex
100
AcDb2dVertex
 10
322.5
 20
406.31494140625
 30
0.0
  0
VERTEX
  5
2DB
330
2D1
100
AcDbEntity
  8
\U+56FE\U+5C42 1
370
     0
100
AcDbVertex
100
AcDb2dVertex
 10
311.322265625
 20
412.7685546875
 30
0.0
  0
VERTEX
  5
2DC
330
2D1
100
AcDbEntity
  8
\U+56FE\U+5C42 1
370
     0
100
AcDbVertex
100
AcDb2dVertex
 10
305.5
 20
416.1298828125
 30
0.0
  0
SEQEND
  5
2DD
330
2D1
100
AcDbEntity
  8
\U+56FE\U+5C42 1
370
     0
  0
HATCH
  5
2DE
330
2C6
100
AcDbEntity
  8
\U+56FE\U+5C42 1
 62
     7
100
AcDbHatch
 10
0.0
 20
0.0
 30
0.0
210
0.0
220
0.0
230
1.0
  2
SOLID
 70
     1
 71
     0
 91
        1
 92
        1
 93
       10
 72
     1
 10
305.5
 20
416.1298828125
 11
294.322265625
 21
409.6767578125
 72
     1
 10
294.322265625
 20
409.6767578125
 11
288.5
 21
406.31494140625
 72
     1
 10
288.5
 20
406.31494140625
 11
288.5
 21
386.685546875
 72
     1
 10
288.5
 20
386.685546875
 11
299.677734375
 21
380.2314453125
 72
     1
 10
299.677734375
 20
380.2314453125
 11
305.5
 21
376.8701171875
 72
     1
 10
305.5
 20
376.8701171875
 11
316.677734375
 21
383.3232421875
 72
     1
 10
316.677734375
 20
383.3232421875
 11
322.5
 21
386.685546875
 72
     1
 10
322.5
 20
386.685546875
 11
322.5
 21
406.31494140625
 72
     1
 10
322.5
 20
406.31494140625
 11
311.322265625
 21
412.7685546875
 72
     1
 10
311.322265625
 20
412.7685546875
 11
305.5
 21
416.1298828125
 97
        0
 75
     2
 76
     1
 98
        0
  0
ENDBLK
  5
2C9
330
2C6
100
AcDbEntity
  8
0
100
AcDbBlockEnd
  0
BLOCK
  5
2E1
330
2DF
100
AcDbEntity
  8
0
100
AcDbBlockBegin
  2
block 29
 70
     0
 71
     0
 10
0.0
 20
0.0
 30
0.0
  3
block 29
  1

  0
POLYLINE
  5
2E3
330
2DF
100
AcDbEntity
  8
\U+56FE\U+5C42 1
370
     0
100
AcDb2dPolyline
 66
     1
 10
0.0
 20
0.0
 30
0.0
  0
VERTEX
  5
2E4
330
2E3
100
AcDbEntity
  8
\U+56FE\U+5C42 1
370
     0
100
AcDbVertex
100
AcDb2dVertex
 10
375.5
 20
466.5
 30
0.0
  0
VERTEX
  5
2E5
330
2E3
100
AcDbEntity
  8
\U+56FE\U+5C42 1
370
     0
100
AcDbVertex
100
AcDb2dVertex
 10
375.5
 20
326.5
 30
0.0
  0
VERTEX
  5
2E6
330
2E3
100
AcDbEntity
  8
\U+56FE\U+5C42 1
370
     0
100
AcDbVertex
100
AcDb2dVertex
 10
235.5
 20
326.5
 30
0.0
  0
VERTEX
  5
2E7
330
2E3
100
AcDbEntity
  8
\U+56FE\U+5C42 1
370
     0
100
AcDbVertex
100
AcDb2dVertex
 10
235.5
 20
466.5
 30
0.0
  0
VERTEX
  5
2E8
330
2E3
100
AcDbEntity
  8
\U+56FE\U+5C42 1
370
     0
100
AcDbVertex
100
AcDb2dVertex
 10
375.5
 20
466.5
 30
0.0
  0
SEQEND
  5
2E9
330
2E3
100
AcDbEntity
  8
\U+56FE\U+5C42 1
370
     0
  0
POLYLINE
  5
2EA
330
2DF
100
AcDbEntity
  8
\U+56FE\U+5C42 1
370
     0
100
AcDb2dPolyline
 66
     1
 10
0.0
 20
0.0
 30
0.0
  0
VERTEX
  5
2EB
330
2EA
100
AcDbEntity
  8
\U+56FE\U+5C42 1
370
     0
100
AcDbVertex
100
AcDb2dVertex
 10
305.5
 20
416.1298828125
 30
0.0
  0
VERTEX
  5
2EC
330
2EA
100
AcDbEntity
  8
\U+56FE\U+5C42 1
370
     0
100
AcDbVertex
100
AcDb2dVertex
 10
293.8974609375
 20
409.43115234375
 30
0.0
  0
VERTEX
  5
2ED
330
2EA
100
AcDbEntity
  8
\U+56FE\U+5C42 1
370
     0
100
AcDbVertex
100
AcDb2dVertex
 10
288.5
 20
406.31494140625
 30
0.0
  0
VERTEX
  5
2EE
330
2EA
100
AcDbEntity
  8
\U+56FE\U+5C42 1
370
     0
100
AcDbVertex
100
AcDb2dVertex
 10
288.5
 20
386.685546875
 30
0.0
  0
VERTEX
  5
2EF
330
2EA
100
AcDbEntity
  8
\U+56FE\U+5C42 1
370
     0
100
AcDbVertex
100
AcDb2dVertex
 10
300.1025390625
 20
379.986328125
 30
0.0
  0
VERTEX
  5
2F0
330
2EA
100
AcDbEntity
  8
\U+56FE\U+5C42 1
370
     0
100
AcDbVertex
100
AcDb2dVertex
 10
305.5
 20
376.8701171875
 30
0.0
  0
VERTEX
  5
2F1
330
2EA
100
AcDbEntity
  8
\U+56FE\U+5C42 1
370
     0
100
AcDbVertex
100
AcDb2dVertex
 10
317.1025390625
 20
383.568359375
 30
0.0
  0
VERTEX
  5
2F2
330
2EA
100
AcDbEntity
  8
\U+56FE\U+5C42 1
370
     0
100
AcDbVertex
100
AcDb2dVertex
 10
322.5
 20
386.685546875
 30
0.0
  0
VERTEX
  5
2F3
330
2EA
100
AcDbEntity
  8
\U+56FE\U+5C42 1
370
     0
100
AcDbVertex
100
AcDb2dVertex
 10
322.5
 20
406.31494140625
 30
0.0
  0
VERTEX
  5
2F4
330
2EA
100
AcDbEntity
  8
\U+56FE\U+5C42 1
370
     0
100
AcDbVertex
100
AcDb2dVertex
 10
310.8974609375
 20
413.013671875
 30
0.0
  0
VERTEX
  5
2F5
330
2EA
100
AcDbEntity
  8
\U+56FE\U+5C42 1
370
     0
100
AcDbVertex
100
AcDb2dVertex
 10
305.5
 20
416.1298828125
 30
0.0
  0
SEQEND
  5
2F6
330
2EA
100
AcDbEntity
  8
\U+56FE\U+5C42 1
370
     0
  0
HATCH
  5
2F7
330
2DF
100
AcDbEntity
  8
\U+56FE\U+5C42 1
 62
     7
100
AcDbHatch
 10
0.0
 20
0.0
 30
0.0
210
0.0
220
0.0
230
1.0
  2
SOLID
 70
     1
 71
     0
 91
        1
 92
        1
 93
       10
 72
     1
 10
305.5
 20
416.1298828125
 11
293.8974609375
 21
409.43115234375
 72
     1
 10
293.8974609375
 20
409.43115234375
 11
288.5
 21
406.31494140625
 72
     1
 10
288.5
 20
406.31494140625
 11
288.5
 21
386.685546875
 72
     1
 10
288.5
 20
386.685546875
 11
300.1025390625
 21
379.986328125
 72
     1
 10
300.1025390625
 20
379.986328125
 11
305.5
 21
376.8701171875
 72
     1
 10
305.5
 20
376.8701171875
 11
317.1025390625
 21
383.568359375
 72
     1
 10
317.1025390625
 20
383.568359375
 11
322.5
 21
386.685546875
 72
     1
 10
322.5
 20
386.685546875
 11
322.5
 21
406.31494140625
 72
     1
 10
322.5
 20
406.31494140625
 11
310.8974609375
 21
413.013671875
 72
     1
 10
310.8974609375
 20
413.013671875
 11
305.5
 21
416.1298828125
 97
        0
 75
     2
 76
     1
 98
        0
  0
ENDBLK
  5
2E2
330
2DF
100
AcDbEntity
  8
0
100
AcDbBlockEnd
  0
BLOCK
  5
2FA
330
2F8
100
AcDbEntity
  8
0
100
AcDbBlockBegin
  2
block 30
 70
     0
 71
     0
 10
0.0
 20
0.0
 30
0.0
  3
block 30
  1

  0
POLYLINE
  5
2FC
330
2F8
100
AcDbEntity
  8
\U+56FE\U+5C42 1
370
     0
100
AcDb2dPolyline
 66
     1
 10
0.0
 20
0.0
 30
0.0
  0
VERTEX
  5
2FD
330
2FC
100
AcDbEntity
  8
\U+56FE\U+5C42 1
370
     0
100
AcDbVertex
100
AcDb2dVertex
 10
375.5
 20
466.5
 30
0.0
  0
VERTEX
  5
2FE
330
2FC
100
AcDbEntity
  8
\U+56FE\U+5C42 1
370
     0
100
AcDbVertex
100
AcDb2dVertex
 10
375.5
 20
326.5
 30
0.0
  0
VERTEX
  5
2FF
330
2FC
100
AcDbEntity
  8
\U+56FE\U+5C42 1
370
     0
100
AcDbVertex
100
AcDb2dVertex
 10
235.5
 20
326.5
 30
0.0
  0
VERTEX
  5
300
330
2FC
100
AcDbEntity
  8
\U+56FE\U+5C42 1
370
     0
100
AcDbVertex
100
AcDb2dVertex
 10
235.5
 20
466.5
 30
0.0
  0
VERTEX
  5
301
330
2FC
100
AcDbEntity
  8
\U+56FE\U+5C42 1
370
     0
100
AcDbVertex
100
AcDb2dVertex
 10
375.5
 20
466.5
 30
0.0
  0
SEQEND
  5
302
330
2FC
100
AcDbEntity
  8
\U+56FE\U+5C42 1
370
     0
  0
POLYLINE
  5
303
330
2F8
100
AcDbEntity
  8
\U+56FE\U+5C42 1
370
     0
100
AcDb2dPolyline
 66
     1
 10
0.0
 20
0.0
 30
0.0
  0
VERTEX
  5
304
330
303
100
AcDbEntity
  8
\U+56FE\U+5C42 1
370
     0
100
AcDbVertex
100
AcDb2dVertex
 10
305.5
 20
416.1298828125
 30
0.0
  0
VERTEX
  5
305
330
303
100
AcDbEntity
  8
\U+56FE\U+5C42 1
370
     0
100
AcDbVertex
100
AcDb2dVertex
 10
293.47265625
 20
409.18603515625
 30
0.0
  0
VERTEX
  5
306
330
303
100
AcDbEntity
  8
\U+56FE\U+5C42 1
370
     0
100
AcDbVertex
100
AcDb2dVertex
 10
288.5
 20
406.31494140625
 30
0.0
  0
VERTEX
  5
307
330
303
100
AcDbEntity
  8
\U+56FE\U+5C42 1
370
     0
100
AcDbVertex
100
AcDb2dVertex
 10
288.5
 20
386.685546875
 30
0.0
  0
VERTEX
  5
308
330
303
100
AcDbEntity
  8
\U+56FE\U+5C42 1
370
     0
100
AcDbVertex
100
AcDb2dVertex
 10
300.52734375
 20
379.7412109375
 30
0.0
  0
VERTEX
  5
309
330
303
100
AcDbEntity
  8
\U+56FE\U+5C42 1
370
     0
100
AcDbVertex
100
AcDb2dVertex
 10
305.5
 20
376.8701171875
 30
0.0
  0
VERTEX
  5
30A
330
303
100
AcDbEntity
  8
\U+56FE\U+5C42 1
370
     0
100
AcDbVertex
100
AcDb2dVertex
 10
317.52734375
 20
383.814453125
 30
0.0
  0
VERTEX
  5
30B
330
303
100
AcDbEntity
  8
\U+56FE\U+5C42 1
370
     0
100
AcDbVertex
100
AcDb2dVertex
 10
322.5
 20
386.685546875
 30
0.0
  0
VERTEX
  5
30C
330
303
100
AcDbEntity
  8
\U+56FE\U+5C42 1
370
     0
100
AcDbVertex
100
AcDb2dVertex
 10
322.5
 20
406.31494140625
 30
0.0
  0
VERTEX
  5
30D
330
303
100
AcDbEntity
  8
\U+56FE\U+5C42 1
370
     0
100
AcDbVertex
100
AcDb2dVertex
 10
310.47265625
 20
413.2587890625
 30
0.0
  0
VERTEX
  5
30E
330
303
100
AcDbEntity
  8
\U+56FE\U+5C42 1
370
     0
100
AcDbVertex
100
AcDb2dVertex
 10
305.5
 20
416.1298828125
 30
0.0
  0
SEQEND
  5
30F
330
303
100
AcDbEntity
  8
\U+56FE\U+5C42 1
370
     0
  0
HATCH
  5
310
330
2F8
100
AcDbEntity
  8
\U+56FE\U+5C42 1
 62
     7
100
AcDbHatch
 10
0.0
 20
0.0
 30
0.0
210
0.0
220
0.0
230
1.0
  2
SOLID
 70
     1
 71
     0
 91
        1
 92
        1
 93
       10
 72
     1
 10
305.5
 20
416.1298828125
 11
293.47265625
 21
409.18603515625
 72
     1
 10
293.47265625
 20
409.18603515625
 11
288.5
 21
406.31494140625
 72
     1
 10
288.5
 20
406.31494140625
 11
288.5
 21
386.685546875
 72
     1
 10
288.5
 20
386.685546875
 11
300.52734375
 21
379.7412109375
 72
     1
 10
300.52734375
 20
379.7412109375
 11
305.5
 21
376.8701171875
 72
     1
 10
305.5
 20
376.8701171875
 11
317.52734375
 21
383.814453125
 72
     1
 10
317.52734375
 20
383.814453125
 11
322.5
 21
386.685546875
 72
     1
 10
322.5
 20
386.685546875
 11
322.5
 21
406.31494140625
 72
     1
 10
322.5
 20
406.31494140625
 11
310.47265625
 21
413.2587890625
 72
     1
 10
310.47265625
 20
413.2587890625
 11
305.5
 21
416.1298828125
 97
        0
 75
     2
 76
     1
 98
        0
  0
ENDBLK
  5
2FB
330
2F8
100
AcDbEntity
  8
0
100
AcDbBlockEnd
  0
BLOCK
  5
313
330
311
100
AcDbEntity
  8
0
100
AcDbBlockBegin
  2
block 31
 70
     0
 71
     0
 10
0.0
 20
0.0
 30
0.0
  3
block 31
  1

  0
POLYLINE
  5
315
330
311
100
AcDbEntity
  8
\U+56FE\U+5C42 1
370
     0
100
AcDb2dPolyline
 66
     1
 10
0.0
 20
0.0
 30
0.0
  0
VERTEX
  5
316
330
315
100
AcDbEntity
  8
\U+56FE\U+5C42 1
370
     0
100
AcDbVertex
100
AcDb2dVertex
 10
375.5
 20
466.5
 30
0.0
  0
VERTEX
  5
317
330
315
100
AcDbEntity
  8
\U+56FE\U+5C42 1
370
     0
100
AcDbVertex
100
AcDb2dVertex
 10
375.5
 20
326.5
 30
0.0
  0
VERTEX
  5
318
330
315
100
AcDbEntity
  8
\U+56FE\U+5C42 1
370
     0
100
AcDbVertex
100
AcDb2dVertex
 10
235.5
 20
326.5
 30
0.0
  0
VERTEX
  5
319
330
315
100
AcDbEntity
  8
\U+56FE\U+5C42 1
370
     0
100
AcDbVertex
100
AcDb2dVertex
 10
235.5
 20
466.5
 30
0.0
  0
VERTEX
  5
31A
330
315
100
AcDbEntity
  8
\U+56FE\U+5C42 1
370
     0
100
AcDbVertex
100
AcDb2dVertex
 10
375.5
 20
466.5
 30
0.0
  0
SEQEND
  5
31B
330
315
100
AcDbEntity
  8
\U+56FE\U+5C42 1
370
     0
  0
POLYLINE
  5
31C
330
311
100
AcDbEntity
  8
\U+56FE\U+5C42 1
370
     0
100
AcDb2dPolyline
 66
     1
 10
0.0
 20
0.0
 30
0.0
  0
VERTEX
  5
31D
330
31C
100
AcDbEntity
  8
\U+56FE\U+5C42 1
370
     0
100
AcDbVertex
100
AcDb2dVertex
 10
305.5
 20
416.1298828125
 30
0.0
  0
VERTEX
  5
31E
330
31C
100
AcDbEntity
  8
\U+56FE\U+5C42 1
370
     0
100
AcDbVertex
100
AcDb2dVertex
 10
293.04736328125
 20
408.9404296875
 30
0.0
  0
VERTEX
  5
31F
330
31C
100
AcDbEntity
  8
\U+56FE\U+5C42 1
370
     0
100
AcDbVertex
100
AcDb2dVertex
 10
288.5
 20
406.31494140625
 30
0.0
  0
VERTEX
  5
320
330
31C
100
AcDbEntity
  8
\U+56FE\U+5C42 1
370
     0
100
AcDbVertex
100
AcDb2dVertex
 10
288.5
 20
386.685546875
 30
0.0
  0
VERTEX
  5
321
330
31C
100
AcDbEntity
  8
\U+56FE\U+5C42 1
370
     0
100
AcDbVertex
100
AcDb2dVertex
 10
300.95263671875
 20
379.49609375
 30
0.0
  0
VERTEX
  5
322
330
31C
100
AcDbEntity
  8
\U+56FE\U+5C42 1
370
     0
100
AcDbVertex
100
AcDb2dVertex
 10
305.5
 20
376.8701171875
 30
0.0
  0
VERTEX
  5
323
330
31C
100
AcDbEntity
  8
\U+56FE\U+5C42 1
370
     0
100
AcDbVertex
100
AcDb2dVertex
 10
317.953125
 20
384.0595703125
 30
0.0
  0
VERTEX
  5
324
330
31C
100
AcDbEntity
  8
\U+56FE\U+5C42 1
370
     0
100
AcDbVertex
100
AcDb2dVertex
 10
322.5
 20
386.685546875
 30
0.0
  0
VERTEX
  5
325
330
31C
100
AcDbEntity
  8
\U+56FE\U+5C42 1
370
     0
100
AcDbVertex
100
AcDb2dVertex
 10
322.5
 20
406.31494140625
 30
0.0
  0
VERTEX
  5
326
330
31C
100
AcDbEntity
  8
\U+56FE\U+5C42 1
370
     0
100
AcDbVertex
100
AcDb2dVertex
 10
310.046875
 20
413.50439453125
 30
0.0
  0
VERTEX
  5
327
330
31C
100
AcDbEntity
  8
\U+56FE\U+5C42 1
370
     0
100
AcDbVertex
100
AcDb2dVertex
 10
305.5
 20
416.1298828125
 30
0.0
  0
SEQEND
  5
328
330
31C
100
AcDbEntity
  8
\U+56FE\U+5C42 1
370
     0
  0
HATCH
  5
329
330
311
100
AcDbEntity
  8
\U+56FE\U+5C42 1
 62
     7
100
AcDbHatch
 10
0.0
 20
0.0
 30
0.0
210
0.0
220
0.0
230
1.0
  2
SOLID
 70
     1
 71
     0
 91
        1
 92
        1
 93
       10
 72
     1
 10
305.5
 20
416.1298828125
 11
293.04736328125
 21
408.9404296875
 72
     1
 10
293.04736328125
 20
408.9404296875
 11
288.5
 21
406.31494140625
 72
     1
 10
288.5
 20
406.31494140625
 11
288.5
 21
386.685546875
 72
     1
 10
288.5
 20
386.685546875
 11
300.95263671875
 21
379.49609375
 72
     1
 10
300.95263671875
 20
379.49609375
 11
305.5
 21
376.8701171875
 72
     1
 10
305.5
 20
376.8701171875
 11
317.953125
 21
384.0595703125
 72
     1
 10
317.953125
 20
384.0595703125
 11
322.5
 21
386.685546875
 72
     1
 10
322.5
 20
386.685546875
 11
322.5
 21
406.31494140625
 72
     1
 10
322.5
 20
406.31494140625
 11
310.046875
 21
413.50439453125
 72
     1
 10
310.046875
 20
413.50439453125
 11
305.5
 21
416.1298828125
 97
        0
 75
     2
 76
     1
 98
        0
  0
ENDBLK
  5
314
330
311
100
AcDbEntity
  8
0
100
AcDbBlockEnd
  0
BLOCK
  5
32C
330
32A
100
AcDbEntity
  8
0
100
AcDbBlockBegin
  2
block 32
 70
     0
 71
     0
 10
0.0
 20
0.0
 30
0.0
  3
block 32
  1

  0
POLYLINE
  5
32E
330
32A
100
AcDbEntity
  8
\U+56FE\U+5C42 1
370
     0
100
AcDb2dPolyline
 66
     1
 10
0.0
 20
0.0
 30
0.0
  0
VERTEX
  5
32F
330
32E
100
AcDbEntity
  8
\U+56FE\U+5C42 1
370
     0
100
AcDbVertex
100
AcDb2dVertex
 10
375.5
 20
466.5
 30
0.0
  0
VERTEX
  5
330
330
32E
100
AcDbEntity
  8
\U+56FE\U+5C42 1
370
     0
100
AcDbVertex
100
AcDb2dVertex
 10
375.5
 20
326.5
 30
0.0
  0
VERTEX
  5
331
330
32E
100
AcDbEntity
  8
\U+56FE\U+5C42 1
370
     0
100
AcDbVertex
100
AcDb2dVertex
 10
235.5
 20
326.5
 30
0.0
  0
VERTEX
  5
332
330
32E
100
AcDbEntity
  8
\U+56FE\U+5C42 1
370
     0
100
AcDbVertex
100
AcDb2dVertex
 10
235.5
 20
466.5
 30
0.0
  0
VERTEX
  5
333
330
32E
100
AcDbEntity
  8
\U+56FE\U+5C42 1
370
     0
100
AcDbVertex
100
AcDb2dVertex
 10
375.5
 20
466.5
 30
0.0
  0
SEQEND
  5
334
330
32E
100
AcDbEntity
  8
\U+56FE\U+5C42 1
370
     0
  0
POLYLINE
  5
335
330
32A
100
AcDbEntity
  8
\U+56FE\U+5C42 1
370
     0
100
AcDb2dPolyline
 66
     1
 10
0.0
 20
0.0
 30
0.0
  0
VERTEX
  5
336
330
335
100
AcDbEntity
  8
\U+56FE\U+5C42 1
370
     0
100
AcDbVertex
100
AcDb2dVertex
 10
305.5
 20
416.1298828125
 30
0.0
  0
VERTEX
  5
337
330
335
100
AcDbEntity
  8
\U+56FE\U+5C42 1
370
     0
100
AcDbVertex
100
AcDb2dVertex
 10
292.62255859375
 20
408.6953125
 30
0.0
  0
VERTEX
  5
338
330
335
100
AcDbEntity
  8
\U+56FE\U+5C42 1
370
     0
100
AcDbVertex
100
AcDb2dVertex
 10
288.5
 20
406.31494140625
 30
0.0
  0
VERTEX
  5
339
330
335
100
AcDbEntity
  8
\U+56FE\U+5C42 1
370
     0
100
AcDbVertex
100
AcDb2dVertex
 10
288.5
 20
386.685546875
 30
0.0
  0
VERTEX
  5
33A
330
335
100
AcDbEntity
  8
\U+56FE\U+5C42 1
370
     0
100
AcDbVertex
100
AcDb2dVertex
 10
301.37744140625
 20
379.25
 30
0.0
  0
VERTEX
  5
33B
330
335
100
AcDbEntity
  8
\U+56FE\U+5C42 1
370
     0
100
AcDbVertex
100
AcDb2dVertex
 10
305.5
 20
376.8701171875
 30
0.0
  0
VERTEX
  5
33C
330
335
100
AcDbEntity
  8
\U+56FE\U+5C42 1
370
     0
100
AcDbVertex
100
AcDb2dVertex
 10
318.376953125
 20
384.3046875
 30
0.0
  0
VERTEX
  5
33D
330
335
100
AcDbEntity
  8
\U+56FE\U+5C42 1
370
     0
100
AcDbVertex
100
AcDb2dVertex
 10
322.5
 20
386.685546875
 30
0.0
  0
VERTEX
  5
33E
330
335
100
AcDbEntity
  8
\U+56FE\U+5C42 1
370
     0
100
AcDbVertex
100
AcDb2dVertex
 10
322.5
 20
406.31494140625
 30
0.0
  0
VERTEX
  5
33F
330
335
100
AcDbEntity
  8
\U+56FE\U+5C42 1
370
     0
100
AcDbVertex
100
AcDb2dVertex
 10
309.623046875
 20
413.75
 30
0.0
  0
VERTEX
  5
340
330
335
100
AcDbEntity
  8
\U+56FE\U+5C42 1
370
     0
100
AcDbVertex
100
AcDb2dVertex
 10
305.5
 20
416.1298828125
 30
0.0
  0
SEQEND
  5
341
330
335
100
AcDbEntity
  8
\U+56FE\U+5C42 1
370
     0
  0
HATCH
  5
342
330
32A
100
AcDbEntity
  8
\U+56FE\U+5C42 1
 62
     7
100
AcDbHatch
 10
0.0
 20
0.0
 30
0.0
210
0.0
220
0.0
230
1.0
  2
SOLID
 70
     1
 71
     0
 91
        1
 92
        1
 93
       10
 72
     1
 10
305.5
 20
416.1298828125
 11
292.62255859375
 21
408.6953125
 72
     1
 10
292.62255859375
 20
408.6953125
 11
288.5
 21
406.31494140625
 72
     1
 10
288.5
 20
406.31494140625
 11
288.5
 21
386.685546875
 72
     1
 10
288.5
 20
386.685546875
 11
301.37744140625
 21
379.25
 72
     1
 10
301.37744140625
 20
379.25
 11
305.5
 21
376.8701171875
 72
     1
 10
305.5
 20
376.8701171875
 11
318.376953125
 21
384.3046875
 72
     1
 10
318.376953125
 20
384.3046875
 11
322.5
 21
386.685546875
 72
     1
 10
322.5
 20
386.685546875
 11
322.5
 21
406.31494140625
 72
     1
 10
322.5
 20
406.31494140625
 11
309.623046875
 21
413.75
 72
     1
 10
309.623046875
 20
413.75
 11
305.5
 21
416.1298828125
 97
        0
 75
     2
 76
     1
 98
        0
  0
ENDBLK
  5
32D
330
32A
100
AcDbEntity
  8
0
100
AcDbBlockEnd
  0
BLOCK
  5
345
330
343
100
AcDbEntity
  8
0
100
AcDbBlockBegin
  2
block 33
 70
     0
 71
     0
 10
0.0
 20
0.0
 30
0.0
  3
block 33
  1

  0
POLYLINE
  5
347
330
343
100
AcDbEntity
  8
\U+56FE\U+5C42 1
370
     0
100
AcDb2dPolyline
 66
     1
 10
0.0
 20
0.0
 30
0.0
  0
VERTEX
  5
348
330
347
100
AcDbEntity
  8
\U+56FE\U+5C42 1
370
     0
100
AcDbVertex
100
AcDb2dVertex
 10
375.5
 20
466.5
 30
0.0
  0
VERTEX
  5
349
330
347
100
AcDbEntity
  8
\U+56FE\U+5C42 1
370
     0
100
AcDbVertex
100
AcDb2dVertex
 10
375.5
 20
326.5
 30
0.0
  0
VERTEX
  5
34A
330
347
100
AcDbEntity
  8
\U+56FE\U+5C42 1
370
     0
100
AcDbVertex
100
AcDb2dVertex
 10
235.5
 20
326.5
 30
0.0
  0
VERTEX
  5
34B
330
347
100
AcDbEntity
  8
\U+56FE\U+5C42 1
370
     0
100
AcDbVertex
100
AcDb2dVertex
 10
235.5
 20
466.5
 30
0.0
  0
VERTEX
  5
34C
330
347
100
AcDbEntity
  8
\U+56FE\U+5C42 1
370
     0
100
AcDbVertex
100
AcDb2dVertex
 10
375.5
 20
466.5
 30
0.0
  0
SEQEND
  5
34D
330
347
100
AcDbEntity
  8
\U+56FE\U+5C42 1
370
     0
  0
POLYLINE
  5
34E
330
343
100
AcDbEntity
  8
\U+56FE\U+5C42 1
370
     0
100
AcDb2dPolyline
 66
     1
 10
0.0
 20
0.0
 30
0.0
  0
VERTEX
  5
34F
330
34E
100
AcDbEntity
  8
\U+56FE\U+5C42 1
370
     0
100
AcDbVertex
100
AcDb2dVertex
 10
305.5
 20
416.1298828125
 30
0.0
  0
VERTEX
  5
350
330
34E
100
AcDbEntity
  8
\U+56FE\U+5C42 1
370
     0
100
AcDbVertex
100
AcDb2dVertex
 10
292.197265625
 20
408.44970703125
 30
0.0
  0
VERTEX
  5
351
330
34E
100
AcDbEntity
  8
\U+56FE\U+5C42 1
370
     0
100
AcDbVertex
100
AcDb2dVertex
 10
288.5
 20
406.31494140625
 30
0.0
  0
VERTEX
  5
352
330
34E
100
AcDbEntity
  8
\U+56FE\U+5C42 1
370
     0
100
AcDbVertex
100
AcDb2dVertex
 10
288.5
 20
386.685546875
 30
0.0
  0
VERTEX
  5
353
330
34E
100
AcDbEntity
  8
\U+56FE\U+5C42 1
370
     0
100
AcDbVertex
100
AcDb2dVertex
 10
301.802734375
 20
379.0048828125
 30
0.0
  0
VERTEX
  5
354
330
34E
100
AcDbEntity
  8
\U+56FE\U+5C42 1
370
     0
100
AcDbVertex
100
AcDb2dVertex
 10
305.5
 20
376.8701171875
 30
0.0
  0
VERTEX
  5
355
330
34E
100
AcDbEntity
  8
\U+56FE\U+5C42 1
370
     0
100
AcDbVertex
100
AcDb2dVertex
 10
318.802734375
 20
384.55078125
 30
0.0
  0
VERTEX
  5
356
330
34E
100
AcDbEntity
  8
\U+56FE\U+5C42 1
370
     0
100
AcDbVertex
100
AcDb2dVertex
 10
322.5
 20
386.685546875
 30
0.0
  0
VERTEX
  5
357
330
34E
100
AcDbEntity
  8
\U+56FE\U+5C42 1
370
     0
100
AcDbVertex
100
AcDb2dVertex
 10
322.5
 20
406.31494140625
 30
0.0
  0
VERTEX
  5
358
330
34E
100
AcDbEntity
  8
\U+56FE\U+5C42 1
370
     0
100
AcDbVertex
100
AcDb2dVertex
 10
309.197265625
 20
413.9951171875
 30
0.0
  0
VERTEX
  5
359
330
34E
100
AcDbEntity
  8
\U+56FE\U+5C42 1
370
     0
100
AcDbVertex
100
AcDb2dVertex
 10
305.5
 20
416.1298828125
 30
0.0
  0
SEQEND
  5
35A
330
34E
100
AcDbEntity
  8
\U+56FE\U+5C42 1
370
     0
  0
HATCH
  5
35B
330
343
100
AcDbEntity
  8
\U+56FE\U+5C42 1
 62
     7
100
AcDbHatch
 10
0.0
 20
0.0
 30
0.0
210
0.0
220
0.0
230
1.0
  2
SOLID
 70
     1
 71
     0
 91
        1
 92
        1
 93
       10
 72
     1
 10
305.5
 20
416.1298828125
 11
292.197265625
 21
408.44970703125
 72
     1
 10
292.197265625
 20
408.44970703125
 11
288.5
 21
406.31494140625
 72
     1
 10
288.5
 20
406.31494140625
 11
288.5
 21
386.685546875
 72
     1
 10
288.5
 20
386.685546875
 11
301.802734375
 21
379.0048828125
 72
     1
 10
301.802734375
 20
379.0048828125
 11
305.5
 21
376.8701171875
 72
     1
 10
305.5
 20
376.8701171875
 11
318.802734375
 21
384.55078125
 72
     1
 10
318.802734375
 20
384.55078125
 11
322.5
 21
386.685546875
 72
     1
 10
322.5
 20
386.685546875
 11
322.5
 21
406.31494140625
 72
     1
 10
322.5
 20
406.31494140625
 11
309.197265625
 21
413.9951171875
 72
     1
 10
309.197265625
 20
413.9951171875
 11
305.5
 21
416.1298828125
 97
        0
 75
     2
 76
     1
 98
        0
  0
ENDBLK
  5
346
330
343
100
AcDbEntity
  8
0
100
AcDbBlockEnd
  0
BLOCK
  5
35E
330
35C
100
AcDbEntity
  8
0
100
AcDbBlockBegin
  2
block 34
 70
     0
 71
     0
 10
0.0
 20
0.0
 30
0.0
  3
block 34
  1

  0
POLYLINE
  5
360
330
35C
100
AcDbEntity
  8
\U+56FE\U+5C42 1
370
     0
100
AcDb2dPolyline
 66
     1
 10
0.0
 20
0.0
 30
0.0
  0
VERTEX
  5
361
330
360
100
AcDbEntity
  8
\U+56FE\U+5C42 1
370
     0
100
AcDbVertex
100
AcDb2dVertex
 10
375.5
 20
466.5
 30
0.0
  0
VERTEX
  5
362
330
360
100
AcDbEntity
  8
\U+56FE\U+5C42 1
370
     0
100
AcDbVertex
100
AcDb2dVertex
 10
375.5
 20
326.5
 30
0.0
  0
VERTEX
  5
363
330
360
100
AcDbEntity
  8
\U+56FE\U+5C42 1
370
     0
100
AcDbVertex
100
AcDb2dVertex
 10
235.5
 20
326.5
 30
0.0
  0
VERTEX
  5
364
330
360
100
AcDbEntity
  8
\U+56FE\U+5C42 1
370
     0
100
AcDbVertex
100
AcDb2dVertex
 10
235.5
 20
466.5
 30
0.0
  0
VERTEX
  5
365
330
360
100
AcDbEntity
  8
\U+56FE\U+5C42 1
370
     0
100
AcDbVertex
100
AcDb2dVertex
 10
375.5
 20
466.5
 30
0.0
  0
SEQEND
  5
366
330
360
100
AcDbEntity
  8
\U+56FE\U+5C42 1
370
     0
  0
POLYLINE
  5
367
330
35C
100
AcDbEntity
  8
\U+56FE\U+5C42 1
370
     0
100
AcDb2dPolyline
 66
     1
 10
0.0
 20
0.0
 30
0.0
  0
VERTEX
  5
368
330
367
100
AcDbEntity
  8
\U+56FE\U+5C42 1
370
     0
100
AcDbVertex
100
AcDb2dVertex
 10
305.5
 20
416.1298828125
 30
0.0
  0
VERTEX
  5
369
330
367
100
AcDbEntity
  8
\U+56FE\U+5C42 1
370
     0
100
AcDbVertex
100
AcDb2dVertex
 10
291.7724609375
 20
408.2041015625
 30
0.0
  0
VERTEX
  5
36A
330
367
100
AcDbEntity
  8
\U+56FE\U+5C42 1
370
     0
100
AcDbVertex
100
AcDb2dVertex
 10
288.5
 20
406.31494140625
 30
0.0
  0
VERTEX
  5
36B
330
367
100
AcDbEntity
  8
\U+56FE\U+5C42 1
370
     0
100
AcDbVertex
100
AcDb2dVertex
 10
288.5
 20
386.685546875
 30
0.0
  0
VERTEX
  5
36C
330
367
100
AcDbEntity
  8
\U+56FE\U+5C42 1
370
     0
100
AcDbVertex
100
AcDb2dVertex
 10
302.2275390625
 20
378.759765625
 30
0.0
  0
VERTEX
  5
36D
330
367
100
AcDbEntity
  8
\U+56FE\U+5C42 1
370
     0
100
AcDbVertex
100
AcDb2dVertex
 10
305.5
 20
376.8701171875
 30
0.0
  0
VERTEX
  5
36E
330
367
100
AcDbEntity
  8
\U+56FE\U+5C42 1
370
     0
100
AcDbVertex
100
AcDb2dVertex
 10
319.2275390625
 20
384.7958984375
 30
0.0
  0
VERTEX
  5
36F
330
367
100
AcDbEntity
  8
\U+56FE\U+5C42 1
370
     0
100
AcDbVertex
100
AcDb2dVertex
 10
322.5
 20
386.685546875
 30
0.0
  0
VERTEX
  5
370
330
367
100
AcDbEntity
  8
\U+56FE\U+5C42 1
370
     0
100
AcDbVertex
100
AcDb2dVertex
 10
322.5
 20
406.31494140625
 30
0.0
  0
VERTEX
  5
371
330
367
100
AcDbEntity
  8
\U+56FE\U+5C42 1
370
     0
100
AcDbVertex
100
AcDb2dVertex
 10
308.7724609375
 20
414.24072265625
 30
0.0
  0
VERTEX
  5
372
330
367
100
AcDbEntity
  8
\U+56FE\U+5C42 1
370
     0
100
AcDbVertex
100
AcDb2dVertex
 10
305.5
 20
416.1298828125
 30
0.0
  0
SEQEND
  5
373
330
367
100
AcDbEntity
  8
\U+56FE\U+5C42 1
370
     0
  0
HATCH
  5
374
330
35C
100
AcDbEntity
  8
\U+56FE\U+5C42 1
 62
     7
100
AcDbHatch
 10
0.0
 20
0.0
 30
0.0
210
0.0
220
0.0
230
1.0
  2
SOLID
 70
     1
 71
     0
 91
        1
 92
        1
 93
       10
 72
     1
 10
305.5
 20
416.1298828125
 11
291.7724609375
 21
408.2041015625
 72
     1
 10
291.7724609375
 20
408.2041015625
 11
288.5
 21
406.31494140625
 72
     1
 10
288.5
 20
406.31494140625
 11
288.5
 21
386.685546875
 72
     1
 10
288.5
 20
386.685546875
 11
302.2275390625
 21
378.759765625
 72
     1
 10
302.2275390625
 20
378.759765625
 11
305.5
 21
376.8701171875
 72
     1
 10
305.5
 20
376.8701171875
 11
319.2275390625
 21
384.7958984375
 72
     1
 10
319.2275390625
 20
384.7958984375
 11
322.5
 21
386.685546875
 72
     1
 10
322.5
 20
386.685546875
 11
322.5
 21
406.31494140625
 72
     1
 10
322.5
 20
406.31494140625
 11
308.7724609375
 21
414.24072265625
 72
     1
 10
308.7724609375
 20
414.24072265625
 11
305.5
 21
416.1298828125
 97
        0
 75
     2
 76
     1
 98
        0
  0
ENDBLK
  5
35F
330
35C
100
AcDbEntity
  8
0
100
AcDbBlockEnd
  0
BLOCK
  5
377
330
375
100
AcDbEntity
  8
0
100
AcDbBlockBegin
  2
block 35
 70
     0
 71
     0
 10
0.0
 20
0.0
 30
0.0
  3
block 35
  1

  0
POLYLINE
  5
379
330
375
100
AcDbEntity
  8
\U+56FE\U+5C42 1
370
     0
100
AcDb2dPolyline
 66
     1
 10
0.0
 20
0.0
 30
0.0
  0
VERTEX
  5
37A
330
379
100
AcDbEntity
  8
\U+56FE\U+5C42 1
370
     0
100
AcDbVertex
100
AcDb2dVertex
 10
375.5
 20
466.5
 30
0.0
  0
VERTEX
  5
37B
330
379
100
AcDbEntity
  8
\U+56FE\U+5C42 1
370
     0
100
AcDbVertex
100
AcDb2dVertex
 10
375.5
 20
326.5
 30
0.0
  0
VERTEX
  5
37C
330
379
100
AcDbEntity
  8
\U+56FE\U+5C42 1
370
     0
100
AcDbVertex
100
AcDb2dVertex
 10
235.5
 20
326.5
 30
0.0
  0
VERTEX
  5
37D
330
379
100
AcDbEntity
  8
\U+56FE\U+5C42 1
370
     0
100
AcDbVertex
100
AcDb2dVertex
 10
235.5
 20
466.5
 30
0.0
  0
VERTEX
  5
37E
330
379
100
AcDbEntity
  8
\U+56FE\U+5C42 1
370
     0
100
AcDbVertex
100
AcDb2dVertex
 10
375.5
 20
466.5
 30
0.0
  0
SEQEND
  5
37F
330
379
100
AcDbEntity
  8
\U+56FE\U+5C42 1
370
     0
  0
POLYLINE
  5
380
330
375
100
AcDbEntity
  8
\U+56FE\U+5C42 1
370
     0
100
AcDb2dPolyline
 66
     1
 10
0.0
 20
0.0
 30
0.0
  0
VERTEX
  5
381
330
380
100
AcDbEntity
  8
\U+56FE\U+5C42 1
370
     0
100
AcDbVertex
100
AcDb2dVertex
 10
305.5
 20
416.1298828125
 30
0.0
  0
VERTEX
  5
382
330
380
100
AcDbEntity
  8
\U+56FE\U+5C42 1
370
     0
100
AcDbVertex
100
AcDb2dVertex
 10
291.34765625
 20
407.958984375
 30
0.0
  0
VERTEX
  5
383
330
380
100
AcDbEntity
  8
\U+56FE\U+5C42 1
370
     0
100
AcDbVertex
100
AcDb2dVertex
 10
288.5
 20
406.31494140625
 30
0.0
  0
VERTEX
  5
384
330
380
100
AcDbEntity
  8
\U+56FE\U+5C42 1
370
     0
100
AcDbVertex
100
AcDb2dVertex
 10
288.5
 20
386.685546875
 30
0.0
  0
VERTEX
  5
385
330
380
100
AcDbEntity
  8
\U+56FE\U+5C42 1
370
     0
100
AcDbVertex
100
AcDb2dVertex
 10
302.65234375
 20
378.513671875
 30
0.0
  0
VERTEX
  5
386
330
380
100
AcDbEntity
  8
\U+56FE\U+5C42 1
370
     0
100
AcDbVertex
100
AcDb2dVertex
 10
305.5
 20
376.8701171875
 30
0.0
  0
VERTEX
  5
387
330
380
100
AcDbEntity
  8
\U+56FE\U+5C42 1
370
     0
100
AcDbVertex
100
AcDb2dVertex
 10
319.65234375
 20
385.041015625
 30
0.0
  0
VERTEX
  5
388
330
380
100
AcDbEntity
  8
\U+56FE\U+5C42 1
370
     0
100
AcDbVertex
100
AcDb2dVertex
 10
322.5
 20
386.685546875
 30
0.0
  0
VERTEX
  5
389
330
380
100
AcDbEntity
  8
\U+56FE\U+5C42 1
370
     0
100
AcDbVertex
100
AcDb2dVertex
 10
322.5
 20
406.31494140625
 30
0.0
  0
VERTEX
  5
38A
330
380
100
AcDbEntity
  8
\U+56FE\U+5C42 1
370
     0
100
AcDbVertex
100
AcDb2dVertex
 10
308.34765625
 20
414.48583984375
 30
0.0
  0
VERTEX
  5
38B
330
380
100
AcDbEntity
  8
\U+56FE\U+5C42 1
370
     0
100
AcDbVertex
100
AcDb2dVertex
 10
305.5
 20
416.1298828125
 30
0.0
  0
SEQEND
  5
38C
330
380
100
AcDbEntity
  8
\U+56FE\U+5C42 1
370
     0
  0
HATCH
  5
38D
330
375
100
AcDbEntity
  8
\U+56FE\U+5C42 1
 62
     7
100
AcDbHatch
 10
0.0
 20
0.0
 30
0.0
210
0.0
220
0.0
230
1.0
  2
SOLID
 70
     1
 71
     0
 91
        1
 92
        1
 93
       10
 72
     1
 10
305.5
 20
416.1298828125
 11
291.34765625
 21
407.958984375
 72
     1
 10
291.34765625
 20
407.958984375
 11
288.5
 21
406.31494140625
 72
     1
 10
288.5
 20
406.31494140625
 11
288.5
 21
386.685546875
 72
     1
 10
288.5
 20
386.685546875
 11
302.65234375
 21
378.513671875
 72
     1
 10
302.65234375
 20
378.513671875
 11
305.5
 21
376.8701171875
 72
     1
 10
305.5
 20
376.8701171875
 11
319.65234375
 21
385.041015625
 72
     1
 10
319.65234375
 20
385.041015625
 11
322.5
 21
386.685546875
 72
     1
 10
322.5
 20
386.685546875
 11
322.5
 21
406.31494140625
 72
     1
 10
322.5
 20
406.31494140625
 11
308.34765625
 21
414.48583984375
 72
     1
 10
308.34765625
 20
414.48583984375
 11
305.5
 21
416.1298828125
 97
        0
 75
     2
 76
     1
 98
        0
  0
ENDBLK
  5
378
330
375
100
AcDbEntity
  8
0
100
AcDbBlockEnd
  0
BLOCK
  5
390
330
38E
100
AcDbEntity
  8
0
100
AcDbBlockBegin
  2
block 36
 70
     0
 71
     0
 10
0.0
 20
0.0
 30
0.0
  3
block 36
  1

  0
POLYLINE
  5
392
330
38E
100
AcDbEntity
  8
\U+56FE\U+5C42 1
370
     0
100
AcDb2dPolyline
 66
     1
 10
0.0
 20
0.0
 30
0.0
  0
VERTEX
  5
393
330
392
100
AcDbEntity
  8
\U+56FE\U+5C42 1
370
     0
100
AcDbVertex
100
AcDb2dVertex
 10
375.5
 20
466.5
 30
0.0
  0
VERTEX
  5
394
330
392
100
AcDbEntity
  8
\U+56FE\U+5C42 1
370
     0
100
AcDbVertex
100
AcDb2dVertex
 10
375.5
 20
326.5
 30
0.0
  0
VERTEX
  5
395
330
392
100
AcDbEntity
  8
\U+56FE\U+5C42 1
370
     0
100
AcDbVertex
100
AcDb2dVertex
 10
235.5
 20
326.5
 30
0.0
  0
VERTEX
  5
396
330
392
100
AcDbEntity
  8
\U+56FE\U+5C42 1
370
     0
100
AcDbVertex
100
AcDb2dVertex
 10
235.5
 20
466.5
 30
0.0
  0
VERTEX
  5
397
330
392
100
AcDbEntity
  8
\U+56FE\U+5C42 1
370
     0
100
AcDbVertex
100
AcDb2dVertex
 10
375.5
 20
466.5
 30
0.0
  0
SEQEND
  5
398
330
392
100
AcDbEntity
  8
\U+56FE\U+5C42 1
370
     0
  0
POLYLINE
  5
399
330
38E
100
AcDbEntity
  8
\U+56FE\U+5C42 1
370
     0
100
AcDb2dPolyline
 66
     1
 10
0.0
 20
0.0
 30
0.0
  0
VERTEX
  5
39A
330
399
100
AcDbEntity
  8
\U+56FE\U+5C42 1
370
     0
100
AcDbVertex
100
AcDb2dVertex
 10
305.5
 20
416.1298828125
 30
0.0
  0
VERTEX
  5
39B
330
399
100
AcDbEntity
  8
\U+56FE\U+5C42 1
370
     0
100
AcDbVertex
100
AcDb2dVertex
 10
290.92236328125
 20
407.71337890625
 30
0.0
  0
VERTEX
  5
39C
330
399
100
AcDbEntity
  8
\U+56FE\U+5C42 1
370
     0
100
AcDbVertex
100
AcDb2dVertex
 10
288.5
 20
406.31494140625
 30
0.0
  0
VERTEX
  5
39D
330
399
100
AcDbEntity
  8
\U+56FE\U+5C42 1
370
     0
100
AcDbVertex
100
AcDb2dVertex
 10
288.5
 20
386.685546875
 30
0.0
  0
VERTEX
  5
39E
330
399
100
AcDbEntity
  8
\U+56FE\U+5C42 1
370
     0
100
AcDbVertex
100
AcDb2dVertex
 10
303.07763671875
 20
378.2685546875
 30
0.0
  0
VERTEX
  5
39F
330
399
100
AcDbEntity
  8
\U+56FE\U+5C42 1
370
     0
100
AcDbVertex
100
AcDb2dVertex
 10
305.5
 20
376.8701171875
 30
0.0
  0
VERTEX
  5
3A0
330
399
100
AcDbEntity
  8
\U+56FE\U+5C42 1
370
     0
100
AcDbVertex
100
AcDb2dVertex
 10
320.078125
 20
385.287109375
 30
0.0
  0
VERTEX
  5
3A1
330
399
100
AcDbEntity
  8
\U+56FE\U+5C42 1
370
     0
100
AcDbVertex
100
AcDb2dVertex
 10
322.5
 20
386.685546875
 30
0.0
  0
VERTEX
  5
3A2
330
399
100
AcDbEntity
  8
\U+56FE\U+5C42 1
370
     0
100
AcDbVertex
100
AcDb2dVertex
 10
322.5
 20
406.31494140625
 30
0.0
  0
VERTEX
  5
3A3
330
399
100
AcDbEntity
  8
\U+56FE\U+5C42 1
370
     0
100
AcDbVertex
100
AcDb2dVertex
 10
307.921875
 20
414.7314453125
 30
0.0
  0
VERTEX
  5
3A4
330
399
100
AcDbEntity
  8
\U+56FE\U+5C42 1
370
     0
100
AcDbVertex
100
AcDb2dVertex
 10
305.5
 20
416.1298828125
 30
0.0
  0
SEQEND
  5
3A5
330
399
100
AcDbEntity
  8
\U+56FE\U+5C42 1
370
     0
  0
HATCH
  5
3A6
330
38E
100
AcDbEntity
  8
\U+56FE\U+5C42 1
 62
     7
100
AcDbHatch
 10
0.0
 20
0.0
 30
0.0
210
0.0
220
0.0
230
1.0
  2
SOLID
 70
     1
 71
     0
 91
        1
 92
        1
 93
       10
 72
     1
 10
305.5
 20
416.1298828125
 11
290.92236328125
 21
407.71337890625
 72
     1
 10
290.92236328125
 20
407.71337890625
 11
288.5
 21
406.31494140625
 72
     1
 10
288.5
 20
406.31494140625
 11
288.5
 21
386.685546875
 72
     1
 10
288.5
 20
386.685546875
 11
303.07763671875
 21
378.2685546875
 72
     1
 10
303.07763671875
 20
378.2685546875
 11
305.5
 21
376.8701171875
 72
     1
 10
305.5
 20
376.8701171875
 11
320.078125
 21
385.287109375
 72
     1
 10
320.078125
 20
385.287109375
 11
322.5
 21
386.685546875
 72
     1
 10
322.5
 20
386.685546875
 11
322.5
 21
406.31494140625
 72
     1
 10
322.5
 20
406.31494140625
 11
307.921875
 21
414.7314453125
 72
     1
 10
307.921875
 20
414.7314453125
 11
305.5
 21
416.1298828125
 97
        0
 75
     2
 76
     1
 98
        0
  0
ENDBLK
  5
391
330
38E
100
AcDbEntity
  8
0
100
AcDbBlockEnd
  0
BLOCK
  5
3A9
330
3A7
100
AcDbEntity
  8
0
100
AcDbBlockBegin
  2
block 37
 70
     0
 71
     0
 10
0.0
 20
0.0
 30
0.0
  3
block 37
  1

  0
POLYLINE
  5
3AB
330
3A7
100
AcDbEntity
  8
\U+56FE\U+5C42 1
370
     0
100
AcDb2dPolyline
 66
     1
 10
0.0
 20
0.0
 30
0.0
  0
VERTEX
  5
3AC
330
3AB
100
AcDbEntity
  8
\U+56FE\U+5C42 1
370
     0
100
AcDbVertex
100
AcDb2dVertex
 10
375.5
 20
466.5
 30
0.0
  0
VERTEX
  5
3AD
330
3AB
100
AcDbEntity
  8
\U+56FE\U+5C42 1
370
     0
100
AcDbVertex
100
AcDb2dVertex
 10
375.5
 20
326.5
 30
0.0
  0
VERTEX
  5
3AE
330
3AB
100
AcDbEntity
  8
\U+56FE\U+5C42 1
370
     0
100
AcDbVertex
100
AcDb2dVertex
 10
235.5
 20
326.5
 30
0.0
  0
VERTEX
  5
3AF
330
3AB
100
AcDbEntity
  8
\U+56FE\U+5C42 1
370
     0
100
AcDbVertex
100
AcDb2dVertex
 10
235.5
 20
466.5
 30
0.0
  0
VERTEX
  5
3B0
330
3AB
100
AcDbEntity
  8
\U+56FE\U+5C42 1
370
     0
100
AcDbVertex
100
AcDb2dVertex
 10
375.5
 20
466.5
 30
0.0
  0
SEQEND
  5
3B1
330
3AB
100
AcDbEntity
  8
\U+56FE\U+5C42 1
370
     0
  0
POLYLINE
  5
3B2
330
3A7
100
AcDbEntity
  8
\U+56FE\U+5C42 1
370
     0
100
AcDb2dPolyline
 66
     1
 10
0.0
 20
0.0
 30
0.0
  0
VERTEX
  5
3B3
330
3B2
100
AcDbEntity
  8
\U+56FE\U+5C42 1
370
     0
100
AcDbVertex
100
AcDb2dVertex
 10
305.5
 20
416.1298828125
 30
0.0
  0
VERTEX
  5
3B4
330
3B2
100
AcDbEntity
  8
\U+56FE\U+5C42 1
370
     0
100
AcDbVertex
100
AcDb2dVertex
 10
290.49755859375
 20
407.46826171875
 30
0.0
  0
VERTEX
  5
3B5
330
3B2
100
AcDbEntity
  8
\U+56FE\U+5C42 1
370
     0
100
AcDbVertex
100
AcDb2dVertex
 10
288.5
 20
406.31494140625
 30
0.0
  0
VERTEX
  5
3B6
330
3B2
100
AcDbEntity
  8
\U+56FE\U+5C42 1
370
     0
100
AcDbVertex
100
AcDb2dVertex
 10
288.5
 20
386.685546875
 30
0.0
  0
VERTEX
  5
3B7
330
3B2
100
AcDbEntity
  8
\U+56FE\U+5C42 1
370
     0
100
AcDbVertex
100
AcDb2dVertex
 10
303.50244140625
 20
378.0234375
 30
0.0
  0
VERTEX
  5
3B8
330
3B2
100
AcDbEntity
  8
\U+56FE\U+5C42 1
370
     0
100
AcDbVertex
100
AcDb2dVertex
 10
305.5
 20
376.8701171875
 30
0.0
  0
VERTEX
  5
3B9
330
3B2
100
AcDbEntity
  8
\U+56FE\U+5C42 1
370
     0
100
AcDbVertex
100
AcDb2dVertex
 10
320.501953125
 20
385.53125
 30
0.0
  0
VERTEX
  5
3BA
330
3B2
100
AcDbEntity
  8
\U+56FE\U+5C42 1
370
     0
100
AcDbVertex
100
AcDb2dVertex
 10
322.5
 20
386.685546875
 30
0.0
  0
VERTEX
  5
3BB
330
3B2
100
AcDbEntity
  8
\U+56FE\U+5C42 1
370
     0
100
AcDbVertex
100
AcDb2dVertex
 10
322.5
 20
406.31494140625
 30
0.0
  0
VERTEX
  5
3BC
330
3B2
100
AcDbEntity
  8
\U+56FE\U+5C42 1
370
     0
100
AcDbVertex
100
AcDb2dVertex
 10
307.498046875
 20
414.9765625
 30
0.0
  0
VERTEX
  5
3BD
330
3B2
100
AcDbEntity
  8
\U+56FE\U+5C42 1
370
     0
100
AcDbVertex
100
AcDb2dVertex
 10
305.5
 20
416.1298828125
 30
0.0
  0
SEQEND
  5
3BE
330
3B2
100
AcDbEntity
  8
\U+56FE\U+5C42 1
370
     0
  0
HATCH
  5
3BF
330
3A7
100
AcDbEntity
  8
\U+56FE\U+5C42 1
 62
     7
100
AcDbHatch
 10
0.0
 20
0.0
 30
0.0
210
0.0
220
0.0
230
1.0
  2
SOLID
 70
     1
 71
     0
 91
        1
 92
        1
 93
       10
 72
     1
 10
305.5
 20
416.1298828125
 11
290.49755859375
 21
407.46826171875
 72
     1
 10
290.49755859375
 20
407.46826171875
 11
288.5
 21
406.31494140625
 72
     1
 10
288.5
 20
406.31494140625
 11
288.5
 21
386.685546875
 72
     1
 10
288.5
 20
386.685546875
 11
303.50244140625
 21
378.0234375
 72
     1
 10
303.50244140625
 20
378.0234375
 11
305.5
 21
376.8701171875
 72
     1
 10
305.5
 20
376.8701171875
 11
320.501953125
 21
385.53125
 72
     1
 10
320.501953125
 20
385.53125
 11
322.5
 21
386.685546875
 72
     1
 10
322.5
 20
386.685546875
 11
322.5
 21
406.31494140625
 72
     1
 10
322.5
 20
406.31494140625
 11
307.498046875
 21
414.9765625
 72
     1
 10
307.498046875
 20
414.9765625
 11
305.5
 21
416.1298828125
 97
        0
 75
     2
 76
     1
 98
        0
  0
ENDBLK
  5
3AA
330
3A7
100
AcDbEntity
  8
0
100
AcDbBlockEnd
  0
BLOCK
  5
3C2
330
3C0
100
AcDbEntity
  8
0
100
AcDbBlockBegin
  2
block 38
 70
     0
 71
     0
 10
0.0
 20
0.0
 30
0.0
  3
block 38
  1

  0
POLYLINE
  5
3C4
330
3C0
100
AcDbEntity
  8
\U+56FE\U+5C42 1
370
     0
100
AcDb2dPolyline
 66
     1
 10
0.0
 20
0.0
 30
0.0
  0
VERTEX
  5
3C5
330
3C4
100
AcDbEntity
  8
\U+56FE\U+5C42 1
370
     0
100
AcDbVertex
100
AcDb2dVertex
 10
375.5
 20
466.5
 30
0.0
  0
VERTEX
  5
3C6
330
3C4
100
AcDbEntity
  8
\U+56FE\U+5C42 1
370
     0
100
AcDbVertex
100
AcDb2dVertex
 10
375.5
 20
326.5
 30
0.0
  0
VERTEX
  5
3C7
330
3C4
100
AcDbEntity
  8
\U+56FE\U+5C42 1
370
     0
100
AcDbVertex
100
AcDb2dVertex
 10
235.5
 20
326.5
 30
0.0
  0
VERTEX
  5
3C8
330
3C4
100
AcDbEntity
  8
\U+56FE\U+5C42 1
370
     0
100
AcDbVertex
100
AcDb2dVertex
 10
235.5
 20
466.5
 30
0.0
  0
VERTEX
  5
3C9
330
3C4
100
AcDbEntity
  8
\U+56FE\U+5C42 1
370
     0
100
AcDbVertex
100
AcDb2dVertex
 10
375.5
 20
466.5
 30
0.0
  0
SEQEND
  5
3CA
330
3C4
100
AcDbEntity
  8
\U+56FE\U+5C42 1
370
     0
  0
POLYLINE
  5
3CB
330
3C0
100
AcDbEntity
  8
\U+56FE\U+5C42 1
370
     0
100
AcDb2dPolyline
 66
     1
 10
0.0
 20
0.0
 30
0.0
  0
VERTEX
  5
3CC
330
3CB
100
AcDbEntity
  8
\U+56FE\U+5C42 1
370
     0
100
AcDbVertex
100
AcDb2dVertex
 10
305.5
 20
416.1298828125
 30
0.0
  0
VERTEX
  5
3CD
330
3CB
100
AcDbEntity
  8
\U+56FE\U+5C42 1
370
     0
100
AcDbVertex
100
AcDb2dVertex
 10
290.072265625
 20
407.22265625
 30
0.0
  0
VERTEX
  5
3CE
330
3CB
100
AcDbEntity
  8
\U+56FE\U+5C42 1
370
     0
100
AcDbVertex
100
AcDb2dVertex
 10
288.5
 20
406.31494140625
 30
0.0
  0
VERTEX
  5
3CF
330
3CB
100
AcDbEntity
  8
\U+56FE\U+5C42 1
370
     0
100
AcDbVertex
100
AcDb2dVertex
 10
288.5
 20
386.685546875
 30
0.0
  0
VERTEX
  5
3D0
330
3CB
100
AcDbEntity
  8
\U+56FE\U+5C42 1
370
     0
100
AcDbVertex
100
AcDb2dVertex
 10
303.927734375
 20
377.77734375
 30
0.0
  0
VERTEX
  5
3D1
330
3CB
100
AcDbEntity
  8
\U+56FE\U+5C42 1
370
     0
100
AcDbVertex
100
AcDb2dVertex
 10
305.5
 20
376.8701171875
 30
0.0
  0
VERTEX
  5
3D2
330
3CB
100
AcDbEntity
  8
\U+56FE\U+5C42 1
370
     0
100
AcDbVertex
100
AcDb2dVertex
 10
320.927734375
 20
385.77734375
 30
0.0
  0
VERTEX
  5
3D3
330
3CB
100
AcDbEntity
  8
\U+56FE\U+5C42 1
370
     0
100
AcDbVertex
100
AcDb2dVertex
 10
322.5
 20
386.685546875
 30
0.0
  0
VERTEX
  5
3D4
330
3CB
100
AcDbEntity
  8
\U+56FE\U+5C42 1
370
     0
100
AcDbVertex
100
AcDb2dVertex
 10
322.5
 20
406.31494140625
 30
0.0
  0
VERTEX
  5
3D5
330
3CB
100
AcDbEntity
  8
\U+56FE\U+5C42 1
370
     0
100
AcDbVertex
100
AcDb2dVertex
 10
307.072265625
 20
415.22216796875
 30
0.0
  0
VERTEX
  5
3D6
330
3CB
100
AcDbEntity
  8
\U+56FE\U+5C42 1
370
     0
100
AcDbVertex
100
AcDb2dVertex
 10
305.5
 20
416.1298828125
 30
0.0
  0
SEQEND
  5
3D7
330
3CB
100
AcDbEntity
  8
\U+56FE\U+5C42 1
370
     0
  0
HATCH
  5
3D8
330
3C0
100
AcDbEntity
  8
\U+56FE\U+5C42 1
 62
     7
100
AcDbHatch
 10
0.0
 20
0.0
 30
0.0
210
0.0
220
0.0
230
1.0
  2
SOLID
 70
     1
 71
     0
 91
        1
 92
        1
 93
       10
 72
     1
 10
305.5
 20
416.1298828125
 11
290.072265625
 21
407.22265625
 72
     1
 10
290.072265625
 20
407.22265625
 11
288.5
 21
406.31494140625
 72
     1
 10
288.5
 20
406.31494140625
 11
288.5
 21
386.685546875
 72
     1
 10
288.5
 20
386.685546875
 11
303.927734375
 21
377.77734375
 72
     1
 10
303.927734375
 20
377.77734375
 11
305.5
 21
376.8701171875
 72
     1
 10
305.5
 20
376.8701171875
 11
320.927734375
 21
385.77734375
 72
     1
 10
320.927734375
 20
385.77734375
 11
322.5
 21
386.685546875
 72
     1
 10
322.5
 20
386.685546875
 11
322.5
 21
406.31494140625
 72
     1
 10
322.5
 20
406.31494140625
 11
307.072265625
 21
415.22216796875
 72
     1
 10
307.072265625
 20
415.22216796875
 11
305.5
 21
416.1298828125
 97
        0
 75
     2
 76
     1
 98
        0
  0
ENDBLK
  5
3C3
330
3C0
100
AcDbEntity
  8
0
100
AcDbBlockEnd
  0
BLOCK
  5
3DB
330
3D9
100
AcDbEntity
  8
0
100
AcDbBlockBegin
  2
block 39
 70
     0
 71
     0
 10
0.0
 20
0.0
 30
0.0
  3
block 39
  1

  0
POLYLINE
  5
3DD
330
3D9
100
AcDbEntity
  8
\U+56FE\U+5C42 1
370
     0
100
AcDb2dPolyline
 66
     1
 10
0.0
 20
0.0
 30
0.0
  0
VERTEX
  5
3DE
330
3DD
100
AcDbEntity
  8
\U+56FE\U+5C42 1
370
     0
100
AcDbVertex
100
AcDb2dVertex
 10
375.5
 20
466.5
 30
0.0
  0
VERTEX
  5
3DF
330
3DD
100
AcDbEntity
  8
\U+56FE\U+5C42 1
370
     0
100
AcDbVertex
100
AcDb2dVertex
 10
375.5
 20
326.5
 30
0.0
  0
VERTEX
  5
3E0
330
3DD
100
AcDbEntity
  8
\U+56FE\U+5C42 1
370
     0
100
AcDbVertex
100
AcDb2dVertex
 10
235.5
 20
326.5
 30
0.0
  0
VERTEX
  5
3E1
330
3DD
100
AcDbEntity
  8
\U+56FE\U+5C42 1
370
     0
100
AcDbVertex
100
AcDb2dVertex
 10
235.5
 20
466.5
 30
0.0
  0
VERTEX
  5
3E2
330
3DD
100
AcDbEntity
  8
\U+56FE\U+5C42 1
370
     0
100
AcDbVertex
100
AcDb2dVertex
 10
375.5
 20
466.5
 30
0.0
  0
SEQEND
  5
3E3
330
3DD
100
AcDbEntity
  8
\U+56FE\U+5C42 1
370
     0
  0
POLYLINE
  5
3E4
330
3D9
100
AcDbEntity
  8
\U+56FE\U+5C42 1
370
     0
100
AcDb2dPolyline
 66
     1
 10
0.0
 20
0.0
 30
0.0
  0
VERTEX
  5
3E5
330
3E4
100
AcDbEntity
  8
\U+56FE\U+5C42 1
370
     0
100
AcDbVertex
100
AcDb2dVertex
 10
305.5
 20
416.1298828125
 30
0.0
  0
VERTEX
  5
3E6
330
3E4
100
AcDbEntity
  8
\U+56FE\U+5C42 1
370
     0
100
AcDbVertex
100
AcDb2dVertex
 10
289.6474609375
 20
406.9775390625
 30
0.0
  0
VERTEX
  5
3E7
330
3E4
100
AcDbEntity
  8
\U+56FE\U+5C42 1
370
     0
100
AcDbVertex
100
AcDb2dVertex
 10
288.5
 20
406.31494140625
 30
0.0
  0
VERTEX
  5
3E8
330
3E4
100
AcDbEntity
  8
\U+56FE\U+5C42 1
370
     0
100
AcDbVertex
100
AcDb2dVertex
 10
288.5
 20
386.685546875
 30
0.0
  0
VERTEX
  5
3E9
330
3E4
100
AcDbEntity
  8
\U+56FE\U+5C42 1
370
     0
100
AcDbVertex
100
AcDb2dVertex
 10
304.3525390625
 20
377.533203125
 30
0.0
  0
VERTEX
  5
3EA
330
3E4
100
AcDbEntity
  8
\U+56FE\U+5C42 1
370
     0
100
AcDbVertex
100
AcDb2dVertex
 10
305.5
 20
376.8701171875
 30
0.0
  0
VERTEX
  5
3EB
330
3E4
100
AcDbEntity
  8
\U+56FE\U+5C42 1
370
     0
100
AcDbVertex
100
AcDb2dVertex
 10
321.3525390625
 20
386.0224609375
 30
0.0
  0
VERTEX
  5
3EC
330
3E4
100
AcDbEntity
  8
\U+56FE\U+5C42 1
370
     0
100
AcDbVertex
100
AcDb2dVertex
 10
322.5
 20
386.685546875
 30
0.0
  0
VERTEX
  5
3ED
330
3E4
100
AcDbEntity
  8
\U+56FE\U+5C42 1
370
     0
100
AcDbVertex
100
AcDb2dVertex
 10
322.5
 20
406.31494140625
 30
0.0
  0
VERTEX
  5
3EE
330
3E4
100
AcDbEntity
  8
\U+56FE\U+5C42 1
370
     0
100
AcDbVertex
100
AcDb2dVertex
 10
306.6474609375
 20
415.46728515625
 30
0.0
  0
VERTEX
  5
3EF
330
3E4
100
AcDbEntity
  8
\U+56FE\U+5C42 1
370
     0
100
AcDbVertex
100
AcDb2dVertex
 10
305.5
 20
416.1298828125
 30
0.0
  0
SEQEND
  5
3F0
330
3E4
100
AcDbEntity
  8
\U+56FE\U+5C42 1
370
     0
  0
HATCH
  5
3F1
330
3D9
100
AcDbEntity
  8
\U+56FE\U+5C42 1
 62
     7
100
AcDbHatch
 10
0.0
 20
0.0
 30
0.0
210
0.0
220
0.0
230
1.0
  2
SOLID
 70
     1
 71
     0
 91
        1
 92
        1
 93
       10
 72
     1
 10
305.5
 20
416.1298828125
 11
289.6474609375
 21
406.9775390625
 72
     1
 10
289.6474609375
 20
406.9775390625
 11
288.5
 21
406.31494140625
 72
     1
 10
288.5
 20
406.31494140625
 11
288.5
 21
386.685546875
 72
     1
 10
288.5
 20
386.685546875
 11
304.3525390625
 21
377.533203125
 72
     1
 10
304.3525390625
 20
377.533203125
 11
305.5
 21
376.8701171875
 72
     1
 10
305.5
 20
376.8701171875
 11
321.3525390625
 21
386.0224609375
 72
     1
 10
321.3525390625
 20
386.0224609375
 11
322.5
 21
386.685546875
 72
     1
 10
322.5
 20
386.685546875
 11
322.5
 21
406.31494140625
 72
     1
 10
322.5
 20
406.31494140625
 11
306.6474609375
 21
415.46728515625
 72
     1
 10
306.6474609375
 20
415.46728515625
 11
305.5
 21
416.1298828125
 97
        0
 75
     2
 76
     1
 98
        0
  0
ENDBLK
  5
3DC
330
3D9
100
AcDbEntity
  8
0
100
AcDbBlockEnd
  0
BLOCK
  5
3F4
330
3F2
100
AcDbEntity
  8
0
100
AcDbBlockBegin
  2
block 40
 70
     0
 71
     0
 10
0.0
 20
0.0
 30
0.0
  3
block 40
  1

  0
POLYLINE
  5
3F6
330
3F2
100
AcDbEntity
  8
\U+56FE\U+5C42 1
370
     0
100
AcDb2dPolyline
 66
     1
 10
0.0
 20
0.0
 30
0.0
  0
VERTEX
  5
3F7
330
3F6
100
AcDbEntity
  8
\U+56FE\U+5C42 1
370
     0
100
AcDbVertex
100
AcDb2dVertex
 10
375.5
 20
466.5
 30
0.0
  0
VERTEX
  5
3F8
330
3F6
100
AcDbEntity
  8
\U+56FE\U+5C42 1
370
     0
100
AcDbVertex
100
AcDb2dVertex
 10
375.5
 20
326.5
 30
0.0
  0
VERTEX
  5
3F9
330
3F6
100
AcDbEntity
  8
\U+56FE\U+5C42 1
370
     0
100
AcDbVertex
100
AcDb2dVertex
 10
235.5
 20
326.5
 30
0.0
  0
VERTEX
  5
3FA
330
3F6
100
AcDbEntity
  8
\U+56FE\U+5C42 1
370
     0
100
AcDbVertex
100
AcDb2dVertex
 10
235.5
 20
466.5
 30
0.0
  0
VERTEX
  5
3FB
330
3F6
100
AcDbEntity
  8
\U+56FE\U+5C42 1
370
     0
100
AcDbVertex
100
AcDb2dVertex
 10
375.5
 20
466.5
 30
0.0
  0
SEQEND
  5
3FC
330
3F6
100
AcDbEntity
  8
\U+56FE\U+5C42 1
370
     0
  0
POLYLINE
  5
3FD
330
3F2
100
AcDbEntity
  8
\U+56FE\U+5C42 1
370
     0
100
AcDb2dPolyline
 66
     1
 10
0.0
 20
0.0
 30
0.0
  0
VERTEX
  5
3FE
330
3FD
100
AcDbEntity
  8
\U+56FE\U+5C42 1
370
     0
100
AcDbVertex
100
AcDb2dVertex
 10
305.5
 20
416.1298828125
 30
0.0
  0
VERTEX
  5
3FF
330
3FD
100
AcDbEntity
  8
\U+56FE\U+5C42 1
370
     0
100
AcDbVertex
100
AcDb2dVertex
 10
289.22265625
 20
406.73193359375
 30
0.0
  0
VERTEX
  5
400
330
3FD
100
AcDbEntity
  8
\U+56FE\U+5C42 1
370
     0
100
AcDbVertex
100
AcDb2dVertex
 10
288.5
 20
406.31494140625
 30
0.0
  0
VERTEX
  5
401
330
3FD
100
AcDbEntity
  8
\U+56FE\U+5C42 1
370
     0
100
AcDbVertex
100
AcDb2dVertex
 10
288.5
 20
386.685546875
 30
0.0
  0
VERTEX
  5
402
330
3FD
100
AcDbEntity
  8
\U+56FE\U+5C42 1
370
     0
100
AcDbVertex
100
AcDb2dVertex
 10
304.77734375
 20
377.287109375
 30
0.0
  0
VERTEX
  5
403
330
3FD
100
AcDbEntity
  8
\U+56FE\U+5C42 1
370
     0
100
AcDbVertex
100
AcDb2dVertex
 10
305.5
 20
376.8701171875
 30
0.0
  0
VERTEX
  5
404
330
3FD
100
AcDbEntity
  8
\U+56FE\U+5C42 1
370
     0
100
AcDbVertex
100
AcDb2dVertex
 10
321.77734375
 20
386.267578125
 30
0.0
  0
VERTEX
  5
405
330
3FD
100
AcDbEntity
  8
\U+56FE\U+5C42 1
370
     0
100
AcDbVertex
100
AcDb2dVertex
 10
322.5
 20
386.685546875
 30
0.0
  0
VERTEX
  5
406
330
3FD
100
AcDbEntity
  8
\U+56FE\U+5C42 1
370
     0
100
AcDbVertex
100
AcDb2dVertex
 10
322.5
 20
406.31494140625
 30
0.0
  0
VERTEX
  5
407
330
3FD
100
AcDbEntity
  8
\U+56FE\U+5C42 1
370
     0
100
AcDbVertex
100
AcDb2dVertex
 10
306.22265625
 20
415.712890625
 30
0.0
  0
VERTEX
  5
408
330
3FD
100
AcDbEntity
  8
\U+56FE\U+5C42 1
370
     0
100
AcDbVertex
100
AcDb2dVertex
 10
305.5
 20
416.1298828125
 30
0.0
  0
SEQEND
  5
409
330
3FD
100
AcDbEntity
  8
\U+56FE\U+5C42 1
370
     0
  0
HATCH
  5
40A
330
3F2
100
AcDbEntity
  8
\U+56FE\U+5C42 1
 62
     7
100
AcDbHatch
 10
0.0
 20
0.0
 30
0.0
210
0.0
220
0.0
230
1.0
  2
SOLID
 70
     1
 71
     0
 91
        1
 92
        1
 93
       10
 72
     1
 10
305.5
 20
416.1298828125
 11
289.22265625
 21
406.73193359375
 72
     1
 10
289.22265625
 20
406.73193359375
 11
288.5
 21
406.31494140625
 72
     1
 10
288.5
 20
406.31494140625
 11
288.5
 21
386.685546875
 72
     1
 10
288.5
 20
386.685546875
 11
304.77734375
 21
377.287109375
 72
     1
 10
304.77734375
 20
377.287109375
 11
305.5
 21
376.8701171875
 72
     1
 10
305.5
 20
376.8701171875
 11
321.77734375
 21
386.267578125
 72
     1
 10
321.77734375
 20
386.267578125
 11
322.5
 21
386.685546875
 72
     1
 10
322.5
 20
386.685546875
 11
322.5
 21
406.31494140625
 72
     1
 10
322.5
 20
406.31494140625
 11
306.22265625
 21
415.712890625
 72
     1
 10
306.22265625
 20
415.712890625
 11
305.5
 21
416.1298828125
 97
        0
 75
     2
 76
     1
 98
        0
  0
ENDBLK
  5
3F5
330
3F2
100
AcDbEntity
  8
0
100
AcDbBlockEnd
  0
BLOCK
  5
40D
330
40B
100
AcDbEntity
  8
0
100
AcDbBlockBegin
  2
block 41
 70
     0
 71
     0
 10
0.0
 20
0.0
 30
0.0
  3
block 41
  1

  0
POLYLINE
  5
40F
330
40B
100
AcDbEntity
  8
\U+56FE\U+5C42 1
370
     0
100
AcDb2dPolyline
 66
     1
 10
0.0
 20
0.0
 30
0.0
  0
VERTEX
  5
410
330
40F
100
AcDbEntity
  8
\U+56FE\U+5C42 1
370
     0
100
AcDbVertex
100
AcDb2dVertex
 10
375.5
 20
466.5
 30
0.0
  0
VERTEX
  5
411
330
40F
100
AcDbEntity
  8
\U+56FE\U+5C42 1
370
     0
100
AcDbVertex
100
AcDb2dVertex
 10
375.5
 20
326.5
 30
0.0
  0
VERTEX
  5
412
330
40F
100
AcDbEntity
  8
\U+56FE\U+5C42 1
370
     0
100
AcDbVertex
100
AcDb2dVertex
 10
235.5
 20
326.5
 30
0.0
  0
VERTEX
  5
413
330
40F
100
AcDbEntity
  8
\U+56FE\U+5C42 1
370
     0
100
AcDbVertex
100
AcDb2dVertex
 10
235.5
 20
466.5
 30
0.0
  0
VERTEX
  5
414
330
40F
100
AcDbEntity
  8
\U+56FE\U+5C42 1
370
     0
100
AcDbVertex
100
AcDb2dVertex
 10
375.5
 20
466.5
 30
0.0
  0
SEQEND
  5
415
330
40F
100
AcDbEntity
  8
\U+56FE\U+5C42 1
370
     0
  0
POLYLINE
  5
416
330
40B
100
AcDbEntity
  8
\U+56FE\U+5C42 1
370
     0
100
AcDb2dPolyline
 66
     1
 10
0.0
 20
0.0
 30
0.0
  0
VERTEX
  5
417
330
416
100
AcDbEntity
  8
\U+56FE\U+5C42 1
370
     0
100
AcDbVertex
100
AcDb2dVertex
 10
305.5
 20
416.1298828125
 30
0.0
  0
VERTEX
  5
418
330
416
100
AcDbEntity
  8
\U+56FE\U+5C42 1
370
     0
100
AcDbVertex
100
AcDb2dVertex
 10
288.79736328125
 20
406.48681640625
 30
0.0
  0
VERTEX
  5
419
330
416
100
AcDbEntity
  8
\U+56FE\U+5C42 1
370
     0
100
AcDbVertex
100
AcDb2dVertex
 10
288.5
 20
406.31494140625
 30
0.0
  0
VERTEX
  5
41A
330
416
100
AcDbEntity
  8
\U+56FE\U+5C42 1
370
     0
100
AcDbVertex
100
AcDb2dVertex
 10
288.5
 20
386.685546875
 30
0.0
  0
VERTEX
  5
41B
330
416
100
AcDbEntity
  8
\U+56FE\U+5C42 1
370
     0
100
AcDbVertex
100
AcDb2dVertex
 10
305.20263671875
 20
377.0419921875
 30
0.0
  0
VERTEX
  5
41C
330
416
100
AcDbEntity
  8
\U+56FE\U+5C42 1
370
     0
100
AcDbVertex
100
AcDb2dVertex
 10
305.5
 20
376.8701171875
 30
0.0
  0
VERTEX
  5
41D
330
416
100
AcDbEntity
  8
\U+56FE\U+5C42 1
370
     0
100
AcDbVertex
100
AcDb2dVertex
 10
322.203125
 20
386.513671875
 30
0.0
  0
VERTEX
  5
41E
330
416
100
AcDbEntity
  8
\U+56FE\U+5C42 1
370
     0
100
AcDbVertex
100
AcDb2dVertex
 10
322.5
 20
386.685546875
 30
0.0
  0
VERTEX
  5
41F
330
416
100
AcDbEntity
  8
\U+56FE\U+5C42 1
370
     0
100
AcDbVertex
100
AcDb2dVertex
 10
322.5
 20
406.31494140625
 30
0.0
  0
VERTEX
  5
420
330
416
100
AcDbEntity
  8
\U+56FE\U+5C42 1
370
     0
100
AcDbVertex
100
AcDb2dVertex
 10
305.79736328125
 20
415.9580078125
 30
0.0
  0
VERTEX
  5
421
330
416
100
AcDbEntity
  8
\U+56FE\U+5C42 1
370
     0
100
AcDbVertex
100
AcDb2dVertex
 10
305.5
 20
416.1298828125
 30
0.0
  0
SEQEND
  5
422
330
416
100
AcDbEntity
  8
\U+56FE\U+5C42 1
370
     0
  0
HATCH
  5
423
330
40B
100
AcDbEntity
  8
\U+56FE\U+5C42 1
 62
     7
100
AcDbHatch
 10
0.0
 20
0.0
 30
0.0
210
0.0
220
0.0
230
1.0
  2
SOLID
 70
     1
 71
     0
 91
        1
 92
        1
 93
       10
 72
     1
 10
305.5
 20
416.1298828125
 11
288.79736328125
 21
406.48681640625
 72
     1
 10
288.79736328125
 20
406.48681640625
 11
288.5
 21
406.31494140625
 72
     1
 10
288.5
 20
406.31494140625
 11
288.5
 21
386.685546875
 72
     1
 10
288.5
 20
386.685546875
 11
305.20263671875
 21
377.0419921875
 72
     1
 10
305.20263671875
 20
377.0419921875
 11
305.5
 21
376.8701171875
 72
     1
 10
305.5
 20
376.8701171875
 11
322.203125
 21
386.513671875
 72
     1
 10
322.203125
 20
386.513671875
 11
322.5
 21
386.685546875
 72
     1
 10
322.5
 20
386.685546875
 11
322.5
 21
406.31494140625
 72
     1
 10
322.5
 20
406.31494140625
 11
305.79736328125
 21
415.9580078125
 72
     1
 10
305.79736328125
 20
415.9580078125
 11
305.5
 21
416.1298828125
 97
        0
 75
     2
 76
     1
 98
        0
  0
ENDBLK
  5
40E
330
40B
100
AcDbEntity
  8
0
100
AcDbBlockEnd
  0
ENDSEC
  0
SECTION
  2
ENTITIES
  0
INSERT
  5
3D
330
1F
100
AcDbEntity
  8
\U+56FE\U+5C42 1
100
AcDbBlockReference
  2
block 2
 10
0.0
 20
0.0
 30
0.0
  0
INSERT
  5
56
330
1F
100
AcDbEntity
  8
\U+56FE\U+5C42 1
100
AcDbBlockReference
  2
block 3
 10
0.0
 20
0.0
 30
0.0
  0
INSERT
  5
6F
330
1F
100
AcDbEntity
  8
\U+56FE\U+5C42 1
100
AcDbBlockReference
  2
block 4
 10
0.0
 20
0.0
 30
0.0
  0
INSERT
  5
88
330
1F
100
AcDbEntity
  8
\U+56FE\U+5C42 1
100
AcDbBlockReference
  2
block 5
 10
0.0
 20
0.0
 30
0.0
  0
INSERT
  5
A1
330
1F
100
AcDbEntity
  8
\U+56FE\U+5C42 1
100
AcDbBlockReference
  2
block 6
 10
0.0
 20
0.0
 30
0.0
  0
INSERT
  5
BA
330
1F
100
AcDbEntity
  8
\U+56FE\U+5C42 1
100
AcDbBlockReference
  2
block 7
 10
0.0
 20
0.0
 30
0.0
  0
INSERT
  5
D3
330
1F
100
AcDbEntity
  8
\U+56FE\U+5C42 1
100
AcDbBlockReference
  2
block 8
 10
0.0
 20
0.0
 30
0.0
  0
INSERT
  5
EC
330
1F
100
AcDbEntity
  8
\U+56FE\U+5C42 1
100
AcDbBlockReference
  2
block 9
 10
0.0
 20
0.0
 30
0.0
  0
INSERT
  5
105
330
1F
100
AcDbEntity
  8
\U+56FE\U+5C42 1
100
AcDbBlockReference
  2
block 10
 10
0.0
 20
0.0
 30
0.0
  0
INSERT
  5
11E
330
1F
100
AcDbEntity
  8
\U+56FE\U+5C42 1
100
AcDbBlockReference
  2
block 11
 10
0.0
 20
0.0
 30
0.0
  0
INSERT
  5
137
330
1F
100
AcDbEntity
  8
\U+56FE\U+5C42 1
100
AcDbBlockReference
  2
block 12
 10
0.0
 20
0.0
 30
0.0
  0
INSERT
  5
150
330
1F
100
AcDbEntity
  8
\U+56FE\U+5C42 1
100
AcDbBlockReference
  2
block 13
 10
0.0
 20
0.0
 30
0.0
  0
INSERT
  5
169
330
1F
100
AcDbEntity
  8
\U+56FE\U+5C42 1
100
AcDbBlockReference
  2
block 14
 10
0.0
 20
0.0
 30
0.0
  0
INSERT
  5
182
330
1F
100
AcDbEntity
  8
\U+56FE\U+5C42 1
100
AcDbBlockReference
  2
block 15
 10
0.0
 20
0.0
 30
0.0
  0
INSERT
  5
19B
330
1F
100
AcDbEntity
  8
\U+56FE\U+5C42 1
100
AcDbBlockReference
  2
block 16
 10
0.0
 20
0.0
 30
0.0
  0
INSERT
  5
1B4
330
1F
100
AcDbEntity
  8
\U+56FE\U+5C42 1
100
AcDbBlockReference
  2
block 17
 10
0.0
 20
0.0
 30
0.0
  0
INSERT
  5
1CD
330
1F
100
AcDbEntity
  8
\U+56FE\U+5C42 1
100
AcDbBlockReference
  2
block 18
 10
0.0
 20
0.0
 30
0.0
  0
INSERT
  5
1E6
330
1F
100
AcDbEntity
  8
\U+56FE\U+5C42 1
100
AcDbBlockReference
  2
block 19
 10
0.0
 20
0.0
 30
0.0
  0
INSERT
  5
1FF
330
1F
100
AcDbEntity
  8
\U+56FE\U+5C42 1
100
AcDbBlockReference
  2
block 20
 10
0.0
 20
0.0
 30
0.0
  0
INSERT
  5
218
330
1F
100
AcDbEntity
  8
\U+56FE\U+5C42 1
100
AcDbBlockReference
  2
block 21
 10
0.0
 20
0.0
 30
0.0
  0
INSERT
  5
231
330
1F
100
AcDbEntity
  8
\U+56FE\U+5C42 1
100
AcDbBlockReference
  2
block 22
 10
0.0
 20
0.0
 30
0.0
  0
INSERT
  5
24A
330
1F
100
AcDbEntity
  8
\U+56FE\U+5C42 1
100
AcDbBlockReference
  2
block 23
 10
0.0
 20
0.0
 30
0.0
  0
INSERT
  5
263
330
1F
100
AcDbEntity
  8
\U+56FE\U+5C42 1
100
AcDbBlockReference
  2
block 24
 10
0.0
 20
0.0
 30
0.0
  0
INSERT
  5
27C
330
1F
100
AcDbEntity
  8
\U+56FE\U+5C42 1
100
AcDbBlockReference
  2
block 25
 10
0.0
 20
0.0
 30
0.0
  0
INSERT
  5
295
330
1F
100
AcDbEntity
  8
\U+56FE\U+5C42 1
100
AcDbBlockReference
  2
block 26
 10
0.0
 20
0.0
 30
0.0
  0
INSERT
  5
2AE
330
1F
100
AcDbEntity
  8
\U+56FE\U+5C42 1
100
AcDbBlockReference
  2
block 27
 10
0.0
 20
0.0
 30
0.0
  0
INSERT
  5
2C7
330
1F
100
AcDbEntity
  8
\U+56FE\U+5C42 1
100
AcDbBlockReference
  2
block 28
 10
0.0
 20
0.0
 30
0.0
  0
INSERT
  5
2E0
330
1F
100
AcDbEntity
  8
\U+56FE\U+5C42 1
100
AcDbBlockReference
  2
block 29
 10
0.0
 20
0.0
 30
0.0
  0
INSERT
  5
2F9
330
1F
100
AcDbEntity
  8
\U+56FE\U+5C42 1
100
AcDbBlockReference
  2
block 30
 10
0.0
 20
0.0
 30
0.0
  0
INSERT
  5
312
330
1F
100
AcDbEntity
  8
\U+56FE\U+5C42 1
100
AcDbBlockReference
  2
block 31
 10
0.0
 20
0.0
 30
0.0
  0
INSERT
  5
32B
330
1F
100
AcDbEntity
  8
\U+56FE\U+5C42 1
100
AcDbBlockReference
  2
block 32
 10
0.0
 20
0.0
 30
0.0
  0
INSERT
  5
344
330
1F
100
AcDbEntity
  8
\U+56FE\U+5C42 1
100
AcDbBlockReference
  2
block 33
 10
0.0
 20
0.0
 30
0.0
  0
INSERT
  5
35D
330
1F
100
AcDbEntity
  8
\U+56FE\U+5C42 1
100
AcDbBlockReference
  2
block 34
 10
0.0
 20
0.0
 30
0.0
  0
INSERT
  5
376
330
1F
100
AcDbEntity
  8
\U+56FE\U+5C42 1
100
AcDbBlockReference
  2
block 35
 10
0.0
 20
0.0
 30
0.0
  0
INSERT
  5
38F
330
1F
100
AcDbEntity
  8
\U+56FE\U+5C42 1
100
AcDbBlockReference
  2
block 36
 10
0.0
 20
0.0
 30
0.0
  0
INSERT
  5
3A8
330
1F
100
AcDbEntity
  8
\U+56FE\U+5C42 1
100
AcDbBlockReference
  2
block 37
 10
0.0
 20
0.0
 30
0.0
  0
INSERT
  5
3C1
330
1F
100
AcDbEntity
  8
\U+56FE\U+5C42 1
100
AcDbBlockReference
  2
block 38
 10
0.0
 20
0.0
 30
0.0
  0
INSERT
  5
3DA
330
1F
100
AcDbEntity
  8
\U+56FE\U+5C42 1
100
AcDbBlockReference
  2
block 39
 10
0.0
 20
0.0
 30
0.0
  0
INSERT
  5
3F3
330
1F
100
AcDbEntity
  8
\U+56FE\U+5C42 1
100
AcDbBlockReference
  2
block 40
 10
0.0
 20
0.0
 30
0.0
  0
INSERT
  5
40C
330
1F
100
AcDbEntity
  8
\U+56FE\U+5C42 1
100
AcDbBlockReference
  2
block 41
 10
0.0
 20
0.0
 30
0.0
  0
ENDSEC
  0
SECTION
  2
OBJECTS
  0
DICTIONARY
  5
C
330
0
100
AcDbDictionary
281
     1
  3
ACAD_GROUP
350
D
  3
ACAD_LAYOUT
350
1A
  3
ACAD_MLINESTYLE
350
17
  3
ACAD_PLOTSETTINGS
350
19
  3
ACAD_PLOTSTYLENAME
350
E
  3
ACAD_TABLESTYLE
350
424
  3
ACAD_VISUALSTYLE
350
2A
  0
DICTIONARY
  5
D
102
{ACAD_REACTORS
330
C
102
}
330
C
100
AcDbDictionary
281
     1
  0
DICTIONARY
  5
1A
102
{ACAD_REACTORS
330
C
102
}
330
C
100
AcDbDictionary
281
     1
  3
Layout1
350
1E
  3
Layout2
350
26
  3
Model
350
22
  0
DICTIONARY
  5
17
102
{ACAD_REACTORS
330
C
102
}
330
C
100
AcDbDictionary
281
     1
  3
Standard
350
18
  0
DICTIONARY
  5
19
102
{ACAD_REACTORS
330
C
102
}
330
C
100
AcDbDictionary
281
     1
  0
ACDBDICTIONARYWDFLT
  5
E
102
{ACAD_REACTORS
330
C
102
}
330
C
100
AcDbDictionary
281
     1
  3
Normal
350
F
100
AcDbDictionaryWithDefault
340
F
  0
DICTIONARY
  5
424
102
{ACAD_REACTORS
330
C
102
}
330
C
100
AcDbDictionary
281
     1
  0
DICTIONARY
  5
2A
102
{ACAD_REACTORS
330
C
102
}
330
C
100
AcDbDictionary
281
     1
  3
2dWireframe
350
2F
  3
3D Hidden
350
31
  3
3dWireframe
350
30
  3
Basic
350
32
  3
Brighten
350
36
  3
ColorChange
350
3A
  3
Conceptual
350
34
  3
Dim
350
35
  3
Facepattern
350
39
  3
Flat
350
2B
  3
FlatWithEdges
350
2C
  3
Gouraud
350
2D
  3
GouraudWithEdges
350
2E
  3
Linepattern
350
38
  3
Realistic
350
33
  3
Thicken
350
37
  0
LAYOUT
  5
1E
102
{ACAD_REACTORS
330
1A
102
}
330
1A
100
AcDbPlotSettings
  1

  2
none_device
  4

  6

 40
0.0
 41
0.0
 42
0.0
 43
0.0
 44
0.0
 45
0.0
 46
0.0
 47
0.0
 48
0.0
 49
0.0
140
0.0
141
0.0
142
1.0
143
1.0
 70
   688
 72
     0
 73
     0
 74
     5
  7

 75
    16
147
1.0
148
0.0
149
0.0
100
AcDbLayout
  1
Layout1
 70
     1
 71
     1
 10
0.0
 20
0.0
 11
12.0
 21
9.0
 12
0.0
 22
0.0
 32
0.0
 14
1.000000000000000E+20
 24
1.000000000000000E+20
 34
1.000000000000000E+20
 15
-1.000000000000000E+20
 25
-1.000000000000000E+20
 35
-1.000000000000000E+20
146
0.0
 13
0.0
 23
0.0
 33
0.0
 16
1.0
 26
0.0
 36
0.0
 17
0.0
 27
1.0
 37
0.0
 76
     0
330
1B
  0
LAYOUT
  5
26
102
{ACAD_REACTORS
330
1A
102
}
330
1A
100
AcDbPlotSettings
  1

  2
none_device
  4

  6

 40
0.0
 41
0.0
 42
0.0
 43
0.0
 44
0.0
 45
0.0
 46
0.0
 47
0.0
 48
0.0
 49
0.0
140
0.0
141
0.0
142
1.0
143
1.0
 70
   688
 72
     0
 73
     0
 74
     5
  7

 75
    16
147
1.0
148
0.0
149
0.0
100
AcDbLayout
  1
Layout2
 70
     1
 71
     2
 10
0.0
 20
0.0
 11
0.0
 21
0.0
 12
0.0
 22
0.0
 32
0.0
 14
0.0
 24
0.0
 34
0.0
 15
0.0
 25
0.0
 35
0.0
146
0.0
 13
0.0
 23
0.0
 33
0.0
 16
1.0
 26
0.0
 36
0.0
 17
0.0
 27
1.0
 37
0.0
 76
     0
330
23
  0
LAYOUT
  5
22
102
{ACAD_REACTORS
330
1A
102
}
330
1A
100
AcDbPlotSettings
  1

  2
none_device
  4

  6

 40
0.0
 41
0.0
 42
0.0
 43
0.0
 44
0.0
 45
0.0
 46
0.0
 47
0.0
 48
0.0
 49
0.0
140
0.0
141
0.0
142
1.0
143
1.0
 70
  1712
 72
     0
 73
     0
 74
     0
  7

 75
     0
147
1.0
148
0.0
149
0.0
100
AcDbLayout
  1
Model
 70
     1
 71
     0
 10
0.0
 20
0.0
 11
12.0
 21
9.0
 12
0.0
 22
0.0
 32
0.0
 14
1.000000000000000E+20
 24
1.000000000000000E+20
 34
1.000000000000000E+20
 15
-1.000000000000000E+20
 25
-1.000000000000000E+20
 35
-1.000000000000000E+20
146
0.0
 13
0.0
 23
0.0
 33
0.0
 16
1.0
 26
0.0
 36
0.0
 17
0.0
 27
1.0
 37
0.0
 76
     0
330
1F
331
29
  0
MLINESTYLE
  5
18
102
{ACAD_REACTORS
330
17
102
}
330
17
100
AcDbMlineStyle
  2
Standard
 70
     0
  3

 62
   256
 51
90.0
 52
90.0
 71
     2
 49
0.5
 62
   256
  6
BYLAYER
 49
-0.5
 62
   256
  6
BYLAYER
  0
ACDBPLACEHOLDER
  5
F
102
{ACAD_REACTORS
330
E
102
}
330
E
  0
VISUALSTYLE
  5
2F
102
{ACAD_REACTORS
330
2A
102
}
330
2A
100
AcDbVisualStyle
  2
2dWireframe
 70
     4
 71
     0
 72
     2
 73
     0
 90
        0
 40
-0.6
 41
-30.0
 62
     5
 63
     7
 74
     1
 91
        4
 64
     7
 65
   257
 75
     1
175
     1
 42
1.0
 92
        0
 66
   257
 43
1.0
 76
     1
 77
     6
 78
     2
 67
     7
 79
     5
170
     0
171
     0
290
     0
174
     0
 93
        1
 44
0.0
173
     0
291
     0
 45
0.0
1001
ACAD
1000
AcDbSavedByObjectVersion
1070
     0
  0
VISUALSTYLE
  5
31
102
{ACAD_REACTORS
330
2A
102
}
330
2A
100
AcDbVisualStyle
  2
3D Hidden
 70
     6
 71
     1
 72
     2
 73
     2
 90
        0
 40
-0.6
 41
-30.0
 62
     5
 63
     7
 74
     2
 91
        2
 64
     7
 65
   257
 75
     2
175
     1
 42
40.0
 92
        0
 66
   257
 43
1.0
 76
     1
 77
     6
 78
     2
 67
     7
 79
     3
170
     0
171
     0
290
     0
174
     0
 93
        1
 44
0.0
173
     0
291
     0
 45
0.0
1001
ACAD
1000
AcDbSavedByObjectVersion
1070
     0
  0
VISUALSTYLE
  5
30
102
{ACAD_REACTORS
330
2A
102
}
330
2A
100
AcDbVisualStyle
  2
3dWireframe
 70
     5
 71
     0
 72
     2
 73
     0
 90
        0
 40
-0.6
 41
-30.0
 62
     5
 63
     7
 74
     1
 91
        4
 64
     7
 65
   257
 75
     1
175
     1
 42
1.0
 92
        0
 66
   257
 43
1.0
 76
     1
 77
     6
 78
     2
 67
     7
 79
     5
170
     0
171
     0
290
     0
174
     0
 93
        1
 44
0.0
173
     0
291
     0
 45
0.0
1001
ACAD
1000
AcDbSavedByObjectVersion
1070
     0
  0
VISUALSTYLE
  5
32
102
{ACAD_REACTORS
330
2A
102
}
330
2A
100
AcDbVisualStyle
  2
Basic
 70
     7
 71
     1
 72
     0
 73
     1
 90
        0
 40
-0.6
 41
-30.0
 62
     5
 63
     7
 74
     0
 91
        4
 64
     7
 65
   257
 75
     1
175
     1
 42
1.0
 92
        8
 66
     7
 43
1.0
 76
     1
 77
     6
 78
     2
 67
     7
 79
     5
170
     0
171
     0
290
     0
174
     0
 93
        1
 44
0.0
173
     0
291
     1
 45
0.0
1001
ACAD
1000
AcDbSavedByObjectVersion
1070
     0
  0
VISUALSTYLE
  5
36
102
{ACAD_REACTORS
330
2A
102
}
330
2A
100
AcDbVisualStyle
  2
Brighten
 70
    12
 71
     2
 72
     2
 73
     0
 90
        0
 40
-0.6
 41
-30.0
 62
     5
 63
     7
 74
     1
 91
        4
 64
     7
 65
   257
 75
     1
175
     1
 42
1.0
 92
        8
 66
     7
 43
1.0
 76
     1
 77
     6
 78
     2
 67
     7
 79
     5
170
     0
171
     0
290
     0
174
     0
 93
        1
 44
50.0
173
     0
291
     1
 45
0.0
1001
ACAD
1000
AcDbSavedByObjectVersion
1070
     0
  0
VISUALSTYLE
  5
3A
102
{ACAD_REACTORS
330
2A
102
}
330
2A
100
AcDbVisualStyle
  2
ColorChange
 70
    16
 71
     2
 72
     2
 73
     3
 90
        0
 40
-0.6
 41
-30.0
 62
     5
 63
     8
 74
     1
 91
        4
 64
     7
 65
   257
 75
     1
175
     1
 42
1.0
 92
        8
 66
     8
 43
1.0
 76
     1
 77
     6
 78
     2
 67
     7
 79
     5
170
     0
171
     0
290
     0
174
     0
 93
        1
 44
0.0
173
     0
291
     1
 45
0.0
1001
ACAD
1000
AcDbSavedByObjectVersion
1070
     0
  0
VISUALSTYLE
  5
34
102
{ACAD_REACTORS
330
2A
102
}
330
2A
100
AcDbVisualStyle
  2
Conceptual
 70
     9
 71
     3
 72
     2
 73
     0
 90
        0
 40
-0.6
 41
-30.0
 62
     5
 63
     7
 74
     2
 91
        2
 64
     7
 65
   257
 75
     1
175
     1
 42
40.0
 92
        8
 66
     7
 43
1.0
 76
     1
 77
     6
 78
     2
 67
     7
 79
     3
170
     0
171
     0
290
     0
174
     0
 93
        1
 44
0.0
173
     0
291
     0
 45
0.0
1001
ACAD
1000
AcDbSavedByObjectVersion
1070
     0
  0
VISUALSTYLE
  5
35
102
{ACAD_REACTORS
330
2A
102
}
330
2A
100
AcDbVisualStyle
  2
Dim
 70
    11
 71
     2
 72
     2
 73
     0
 90
        0
 40
-0.6
 41
-30.0
 62
     5
 63
     7
 74
     1
 91
        4
 64
     7
 65
   257
 75
     1
175
     1
 42
1.0
 92
        8
 66
     7
 43
1.0
 76
     1
 77
     6
 78
     2
 67
     7
 79
     5
170
     0
171
     0
290
     0
174
     0
 93
        1
 44
-50.0
173
     0
291
     1
 45
0.0
1001
ACAD
1000
AcDbSavedByObjectVersion
1070
     0
  0
VISUALSTYLE
  5
39
102
{ACAD_REACTORS
330
2A
102
}
330
2A
100
AcDbVisualStyle
  2
Facepattern
 70
    15
 71
     2
 72
     2
 73
     0
 90
        0
 40
-0.6
 41
-30.0
 62
     5
 63
     7
 74
     1
 91
        4
 64
     7
 65
   257
 75
     1
175
     1
 42
1.0
 92
        8
 66
     7
 43
1.0
 76
     1
 77
     6
 78
     2
 67
     7
 79
     5
170
     0
171
     0
290
     0
174
     0
 93
        1
 44
0.0
173
     0
291
     1
 45
0.0
1001
ACAD
1000
AcDbSavedByObjectVersion
1070
     0
  0
VISUALSTYLE
  5
2B
102
{ACAD_REACTORS
330
2A
102
}
330
2A
100
AcDbVisualStyle
  2
Flat
 70
     0
 71
     2
 72
     1
 73
     1
 90
        2
 40
-0.6
 41
30.0
 62
     5
 63
     7
 74
     0
 91
        4
 64
     7
 65
   257
 75
     1
175
     1
 42
1.0
 92
        8
 66
     7
 43
1.0
 76
     1
 77
     6
 78
     2
 67
     7
 79
     5
170
     0
171
     0
290
     0
174
     0
 93
       13
 44
0.0
173
     0
291
     1
 45
0.0
1001
ACAD
1000
AcDbSavedByObjectVersion
1070
     0
  0
VISUALSTYLE
  5
2C
102
{ACAD_REACTORS
330
2A
102
}
330
2A
100
AcDbVisualStyle
  2
FlatWithEdges
 70
     1
 71
     2
 72
     1
 73
     1
 90
        2
 40
-0.6
 41
30.0
 62
     5
 63
     7
 74
     1
 91
        4
 64
     7
 65
   257
 75
     1
175
     1
 42
1.0
 92
        0
 66
   257
 43
1.0
 76
     1
 77
     6
 78
     2
 67
     7
 79
     5
170
     0
171
     0
290
     0
174
     0
 93
       13
 44
0.0
173
     0
291
     1
 45
0.0
1001
ACAD
1000
AcDbSavedByObjectVersion
1070
     0
  0
VISUALSTYLE
  5
2D
102
{ACAD_REACTORS
330
2A
102
}
330
2A
100
AcDbVisualStyle
  2
Gouraud
 70
     2
 71
     2
 72
     2
 73
     1
 90
        2
 40
-0.6
 41
30.0
 62
     5
 63
     7
 74
     0
 91
        4
 64
     7
 65
   257
 75
     1
175
     1
 42
1.0
 92
        0
 66
     7
 43
1.0
 76
     1
 77
     6
 78
     2
 67
     7
 79
     5
170
     0
171
     0
290
     0
174
     0
 93
       13
 44
0.0
173
     0
291
     1
 45
0.0
1001
ACAD
1000
AcDbSavedByObjectVersion
1070
     0
  0
VISUALSTYLE
  5
2E
102
{ACAD_REACTORS
330
2A
102
}
330
2A
100
AcDbVisualStyle
  2
GouraudWithEdges
 70
     3
 71
     2
 72
     2
 73
     1
 90
        2
 40
-0.6
 41
30.0
 62
     5
 63
     7
 74
     1
 91
        4
 64
     7
 65
   257
 75
     1
175
     1
 42
1.0
 92
        0
 66
   257
 43
1.0
 76
     1
 77
     6
 78
     2
 67
     7
 79
     5
170
     0
171
     0
290
     0
174
     0
 93
       13
 44
0.0
173
     0
291
     1
 45
0.0
1001
ACAD
1000
AcDbSavedByObjectVersion
1070
     0
  0
VISUALSTYLE
  5
38
102
{ACAD_REACTORS
330
2A
102
}
330
2A
100
AcDbVisualStyle
  2
Linepattern
 70
    14
 71
     2
 72
     2
 73
     0
 90
        0
 40
-0.6
 41
-30.0
 62
     5
 63
     7
 74
     1
 91
        4
 64
     7
 65
   257
 75
     7
175
     7
 42
1.0
 92
        8
 66
     7
 43
1.0
 76
     1
 77
     6
 78
     2
 67
     7
 79
     5
170
     0
171
     0
290
     0
174
     0
 93
        1
 44
0.0
173
     0
291
     1
 45
0.0
1001
ACAD
1000
AcDbSavedByObjectVersion
1070
     0
  0
VISUALSTYLE
  5
33
102
{ACAD_REACTORS
330
2A
102
}
330
2A
100
AcDbVisualStyle
  2
Realistic
 70
     8
 71
     2
 72
     2
 73
     0
 90
        0
 40
-0.6
 41
-30.0
 62
     5
 63
     7
 74
     1
 91
        0
 64
     7
 65
   257
 75
     1
175
     1
 42
1.0
 92
        8
 66
     8
 43
1.0
 76
     1
 77
     6
 78
     2
 67
     7
 79
     5
170
     0
171
     0
290
     0
174
     0
 93
       13
 44
0.0
173
     0
291
     0
 45
0.0
1001
ACAD
1000
AcDbSavedByObjectVersion
1070
     0
  0
VISUALSTYLE
  5
37
102
{ACAD_REACTORS
330
2A
102
}
330
2A
100
AcDbVisualStyle
  2
Thicken
 70
    13
 71
     2
 72
     2
 73
     0
 90
        0
 40
-0.6
 41
-30.0
 62
     5
 63
     7
 74
     1
 91
        4
 64
     7
 65
   257
 75
     1
175
     1
 42
1.0
 92
       12
 66
     7
 43
1.0
 76
     1
 77
     6
 78
     2
 67
     7
 79
     5
170
     0
171
     0
290
     0
174
     0
 93
        1
 44
0.0
173
     0
291
     1
 45
0.0
1001
ACAD
1000
AcDbSavedByObjectVersion
1070
     0
  0
ENDSEC
  0
EOF
