  0
SECTION
  2
HEADER
  9
$ACADVER
  1
AC1015
  9
$ACADMAINTVER
 70
     6
  9
$DWGCODEPAGE
  3
ANSI_936
  9
$INSBASE
 10
0.0
 20
0.0
 30
0.0
  9
$EXTMIN
 10
1.000000000000000E+20
 20
1.000000000000000E+20
 30
1.000000000000000E+20
  9
$EXTMAX
 10
-1.000000000000000E+20
 20
-1.000000000000000E+20
 30
-1.000000000000000E+20
  9
$LIMMIN
 10
0.0
 20
0.0
  9
$LIMMAX
 10
12.0
 20
9.0
  9
$ORTHOMODE
 70
     0
  9
$REGENMODE
 70
     1
  9
$FILLMODE
 70
     1
  9
$QTEXTMODE
 70
     0
  9
$MIRRTEXT
 70
     1
  9
$LTSCALE
 40
1.0
  9
$ATTMODE
 70
     1
  9
$TEXTSIZE
 40
0.2
  9
$TRACEWID
 40
0.05
  9
$TEXTSTYLE
  7
Standard
  9
$CLAYER
  8
0
  9
$CELTYPE
  6
ByLayer
  9
$CECOLOR
 62
   256
  9
$CELTSCALE
 40
1.0
  9
$DISPSILH
 70
     0
  9
$DIMSCALE
 40
1.0
  9
$DIMASZ
 40
0.18
  9
$DIMEXO
 40
0.0625
  9
$DIMDLI
 40
0.38
  9
$DIMRND
 40
0.0
  9
$DIMDLE
 40
0.0
  9
$DIMEXE
 40
0.18
  9
$DIMTP
 40
0.0
  9
$DIMTM
 40
0.0
  9
$DIMTXT
 40
0.18
  9
$DIMCEN
 40
0.09
  9
$DIMTSZ
 40
0.0
  9
$DIMTOL
 70
     0
  9
$DIMLIM
 70
     0
  9
$DIMTIH
 70
     1
  9
$DIMTOH
 70
     1
  9
$DIMSE1
 70
     0
  9
$DIMSE2
 70
     0
  9
$DIMTAD
 70
     0
  9
$DIMZIN
 70
     0
  9
$DIMBLK
  1

  9
$DIMASO
 70
     1
  9
$DIMSHO
 70
     1
  9
$DIMPOST
  1

  9
$DIMAPOST
  1

  9
$DIMALT
 70
     0
  9
$DIMALTD
 70
     2
  9
$DIMALTF
 40
25.4
  9
$DIMLFAC
 40
1.0
  9
$DIMTOFL
 70
     0
  9
$DIMTVP
 40
0.0
  9
$DIMTIX
 70
     0
  9
$DIMSOXD
 70
     0
  9
$DIMSAH
 70
     0
  9
$DIMBLK1
  1

  9
$DIMBLK2
  1

  9
$DIMSTYLE
  2
Standard
  9
$DIMCLRD
 70
     0
  9
$DIMCLRE
 70
     0
  9
$DIMCLRT
 70
     0
  9
$DIMTFAC
 40
1.0
  9
$DIMGAP
 40
0.09
  9
$DIMJUST
 70
     0
  9
$DIMSD1
 70
     0
  9
$DIMSD2
 70
     0
  9
$DIMTOLJ
 70
     1
  9
$DIMTZIN
 70
     0
  9
$DIMALTZ
 70
     0
  9
$DIMALTTZ
 70
     0
  9
$DIMUPT
 70
     0
  9
$DIMDEC
 70
     4
  9
$DIMTDEC
 70
     4
  9
$DIMALTU
 70
     2
  9
$DIMALTTD
 70
     2
  9
$DIMTXSTY
  7
Standard
  9
$DIMAUNIT
 70
     0
  9
$DIMADEC
 70
     0
  9
$DIMALTRND
 40
0.0
  9
$DIMAZIN
 70
     0
  9
$DIMDSEP
 70
    46
  9
$DIMATFIT
 70
     3
  9
$DIMFRAC
 70
     0
  9
$DIMLDRBLK
  1

  9
$DIMLUNIT
 70
     2
  9
$DIMLWD
 70
    -2
  9
$DIMLWE
 70
    -2
  9
$DIMTMOVE
 70
     0
  9
$LUNITS
 70
     2
  9
$LUPREC
 70
     4
  9
$SKETCHINC
 40
0.1
  9
$FILLETRAD
 40
0.5
  9
$AUNITS
 70
     0
  9
$AUPREC
 70
     0
  9
$MENU
  1
.
  9
$ELEVATION
 40
0.0
  9
$PELEVATION
 40
0.0
  9
$THICKNESS
 40
0.0
  9
$LIMCHECK
 70
     0
  9
$CHAMFERA
 40
0.5
  9
$CHAMFERB
 40
0.5
  9
$CHAMFERC
 40
1.0
  9
$CHAMFERD
 40
0.0
  9
$SKPOLY
 70
     0
  9
$TDCREATE
 40
2457096.827187627
  9
$TDUCREATE
 40
2457096.493854294
  9
$TDUPDATE
 40
2457096.827187639
  9
$TDUUPDATE
 40
2457096.493854306
  9
$TDINDWG
 40
0.0000000116
  9
$TDUSRTIMER
 40
0.0000000116
  9
$USRTIMER
 70
     1
  9
$ANGBASE
 50
0.0
  9
$ANGDIR
 70
     0
  9
$PDMODE
 70
     0
  9
$PDSIZE
 40
0.0
  9
$PLINEWID
 40
0.0
  9
$SPLFRAME
 70
     0
  9
$SPLINETYPE
 70
     6
  9
$SPLINESEGS
 70
     8
  9
$HANDSEED
  5
425
  9
$SURFTAB1
 70
     6
  9
$SURFTAB2
 70
     6
  9
$SURFTYPE
 70
     6
  9
$SURFU
 70
     6
  9
$SURFV
 70
     6
  9
$UCSBASE
  2

  9
$UCSNAME
  2

  9
$UCSORG
 10
0.0
 20
0.0
 30
0.0
  9
$UCSXDIR
 10
1.0
 20
0.0
 30
0.0
  9
$UCSYDIR
 10
0.0
 20
1.0
 30
0.0
  9
$UCSORTHOREF
  2

  9
$UCSORTHOVIEW
 70
     0
  9
$UCSORGTOP
 10
0.0
 20
0.0
 30
0.0
  9
$UCSORGBOTTOM
 10
0.0
 20
0.0
 30
0.0
  9
$UCSORGLEFT
 10
0.0
 20
0.0
 30
0.0
  9
$UCSORGRIGHT
 10
0.0
 20
0.0
 30
0.0
  9
$UCSORGFRONT
 10
0.0
 20
0.0
 30
0.0
  9
$UCSORGBACK
 10
0.0
 20
0.0
 30
0.0
  9
$PUCSBASE
  2

  9
$PUCSNAME
  2

  9
$PUCSORG
 10
0.0
 20
0.0
 30
0.0
  9
$PUCSXDIR
 10
1.0
 20
0.0
 30
0.0
  9
$PUCSYDIR
 10
0.0
 20
1.0
 30
0.0
  9
$PUCSORTHOREF
  2

  9
$PUCSORTHOVIEW
 70
     0
  9
$PUCSORGTOP
 10
0.0
 20
0.0
 30
0.0
  9
$PUCSORGBOTTOM
 10
0.0
 20
0.0
 30
0.0
  9
$PUCSORGLEFT
 10
0.0
 20
0.0
 30
0.0
  9
$PUCSORGRIGHT
 10
0.0
 20
0.0
 30
0.0
  9
$PUCSORGFRONT
 10
0.0
 20
0.0
 30
0.0
  9
$PUCSORGBACK
 10
0.0
 20
0.0
 30
0.0
  9
$USERI1
 70
     0
  9
$USERI2
 70
     0
  9
$USERI3
 70
     0
  9
$USERI4
 70
     0
  9
$USERI5
 70
     0
  9
$USERR1
 40
0.0
  9
$USERR2
 40
0.0
  9
$USERR3
 40
0.0
  9
$USERR4
 40
0.0
  9
$USERR5
 40
0.0
  9
$WORLDVIEW
 70
     1
  9
$SHADEDGE
 70
     3
  9
$SHADEDIF
 70
    70
  9
$TILEMODE
 70
     1
  9
$MAXACTVP
 70
    64
  9
$PINSBASE
 10
0.0
 20
0.0
 30
0.0
  9
$PLIMCHECK
 70
     0
  9
$PEXTMIN
 10
1.000000000000000E+20
 20
1.000000000000000E+20
 30
1.000000000000000E+20
  9
$PEXTMAX
 10
-1.000000000000000E+20
 20
-1.000000000000000E+20
 30
-1.000000000000000E+20
  9
$PLIMMIN
 10
0.0
 20
0.0
  9
$PLIMMAX
 10
12.0
 20
9.0
  9
$UNITMODE
 70
     0
  9
$VISRETAIN
 70
     1
  9
$PLINEGEN
 70
     0
  9
$PSLTSCALE
 70
     1
  9
$TREEDEPTH
 70
  3020
  9
$CMLSTYLE
  2
Standard
  9
$CMLJUST
 70
     0
  9
$CMLSCALE
 40
1.0
  9
$PROXYGRAPHICS
 70
     1
  9
$MEASUREMENT
 70
     0
  9
$CELWEIGHT
370
    -1
  9
$ENDCAPS
280
     0
  9
$JOINSTYLE
280
     0
  9
$LWDISPLAY
290
     1
  9
$INSUNITS
 70
     1
  9
$HYPERLINKBASE
  1

  9
$STYLESHEET
  1

  9
$XEDIT
290
     1
  9
$CEPSNTYPE
380
     0
  9
$PSTYLEMODE
290
     1
  9
$FINGERPRINTGUID
  2
{1D9F5835-7C94-4319-A9FF-672BB100D749}
  9
$VERSIONGUID
  2
{FAEB1C32-E019-11D5-929B-00C0DF256EC4}
  9
$EXTNAMES
290
     1
  9
$PSVPSCALE
 40
0.0
  9
$OLESTARTUP
290
     0
  0
ENDSEC
  0
SECTION
  2
CLASSES
  0
CLASS
  1
ACDBDICTIONARYWDFLT
  2
AcDbDictionaryWithDefault
  3
ObjectDBX Classes
 90
        0
280
     0
281
     0
  0
CLASS
  1
VISUALSTYLE
  2
AcDbVisualStyle
  3
ObjectDBX Classes
 90
     4095
280
     0
281
     0
  0
CLASS
  1
ACDBPLACEHOLDER
  2
AcDbPlaceHolder
  3
ObjectDBX Classes
 90
        0
280
     0
281
     0
  0
CLASS
  1
LAYOUT
  2
AcDbLayout
  3
ObjectDBX Classes
 90
        0
280
     0
281
     0
  0
ENDSEC
  0
SECTION
  2
TABLES
  0
TABLE
  2
VPORT
  5
8
330
0
100
AcDbSymbolTable
 70
     1
  0
VPORT
  5
29
330
8
100
AcDbSymbolTableRecord
100
AcDbViewportTableRecord
  2
*Active
 70
     0
 10
0.0
 20
0.0
 11
1.0
 21
1.0
 12
0.0
 22
0.0
 13
0.0
 23
0.0
 14
0.5
 24
0.5
 15
0.5
 25
0.5
 16
0.0
 26
0.0
 36
1.0
 17
305.5
 27
396.5
 37
0.0
 40
140.0
 41
1.0
 42
50.0
 43
0.0
 44
0.0
 50
0.0
 51
0.0
 71
     0
 72
   100
 73
     1
 74
     3
 75
     0
 76
     0
 77
     0
 78
     0
281
     0
 65
     1
110
0.0
120
0.0
130
0.0
111
1.0
121
0.0
131
0.0
112
0.0
122
1.0
132
0.0
 79
     0
146
0.0
  0
ENDTAB
  0
TABLE
  2
LTYPE
  5
5
330
0
100
AcDbSymbolTable
 70
     1
  0
LTYPE
  5
14
330
5
100
AcDbSymbolTableRecord
100
AcDbLinetypeTableRecord
  2
ByBlock
 70
     0
  3

 72
    65
 73
     0
 40
0.0
  0
LTYPE
  5
15
330
5
100
AcDbSymbolTableRecord
100
AcDbLinetypeTableRecord
  2
ByLayer
 70
     0
  3

 72
    65
 73
     0
 40
0.0
  0
LTYPE
  5
16
330
5
100
AcDbSymbolTableRecord
100
AcDbLinetypeTableRecord
  2
Continuous
 70
     0
  3
Solid line
 72
    65
 73
     0
 40
0.0
  0
ENDTAB
  0
TABLE
  2
LAYER
  5
2
330
0
100
AcDbSymbolTable
 70
     2
  0
LAYER
  5
10
330
2
100
AcDbSymbolTableRecord
100
AcDbLayerTableRecord
  2
0
 70
     0
 62
     7
  6
Continuous
370
    -3
390
F
  0
LAYER
  5
3B
330
2
100
AcDbSymbolTableRecord
100
AcDbLayerTableRecord
  2
\U+56FE\U+5C42 1
 70
     0
 62
     7
  6
Continuous
370
    -3
390
F
  0
ENDTAB
  0
TABLE
  2
STYLE
  5
3
330
0
100
AcDbSymbolTable
 70
     1
  0
STYLE
  5
11
330
3
100
AcDbSymbolTableRecord
100
AcDbTextStyleTableRecord
  2
Standard
 70
     0
 40
0.0
 41
1.0
 50
0.0
 71
     0
 42
0.2
  3
txt
  4

  0
ENDTAB
  0
TABLE
  2
VIEW
  5
6
330
0
100
AcDbSymbolTable
 70
     0
  0
ENDTAB
  0
TABLE
  2
UCS
  5
7
330
0
100
AcDbSymbolTable
 70
     0
  0
ENDTAB
  0
TABLE
  2
APPID
  5
9
330
0
100
AcDbSymbolTable
 70
     1
  0
APPID
  5
12
330
9
100
AcDbSymbolTableRecord
100
AcDbRegAppTableRecord
  2
ACAD
 70
     0
  0
ENDTAB
  0
TABLE
  2
DIMSTYLE
  5
A
330
0
100
AcDbSymbolTable
 70
     1
100
AcDbDimStyleTable
  0
DIMSTYLE
105
27
330
A
100
AcDbSymbolTableRecord
100
AcDbDimStyleTableRecord
  2
Standard
 70
     0
340
11
  0
ENDTAB
  0
TABLE
  2
BLOCK_RECORD
  5
1
330
0
100
AcDbSymbolTable
 70
    41
  0
BLOCK_RECORD
  5
1F
330
1
100
AcDbSymbolTableRecord
100
AcDbBlockTableRecord
  2
*Model_Space
340
22
  0
BLOCK_RECORD
  5
1B
330
1
100
AcDbSymbolTableRecord
100
AcDbBlockTableRecord
  2
*Paper_Space
340
1E
  0
BLOCK_RECORD
  5
23
330
1
100
AcDbSymbolTableRecord
100
AcDbBlockTableRecord
  2
*Paper_Space0
340
26
  0
BLOCK_RECORD
  5
3C
330
1
100
AcDbSymbolTableRecord
100
AcDbBlockTableRecord
  2
block 2
340
0
102
{BLKREFS
331
3D
102
}
  0
BLOCK_RECORD
  5
55
330
1
100
AcDbSymbolTableRecord
100
AcDbBlockTableRecord
  2
block 3
340
0
102
{BLKREFS
331
56
102
}
  0
BLOCK_RECORD
  5
6E
330
1
100
AcDbSymbolTableRecord
100
AcDbBlockTableRecord
  2
block 4
340
0
102
{BLKREFS
331
6F
102
}
  0
BLOCK_RECORD
  5
87
330
1
100
AcDbSymbolTableRecord
100
AcDbBlockTableRecord
  2
block 5
340
0
102
{BLKREFS
331
88
102
}
  0
BLOCK_RECORD
  5
A0
330
1
100
AcDbSymbolTableRecord
100
AcDbBlockTableRecord
  2
block 6
340
0
102
{BLKREFS
331
A1
102
}
  0
BLOCK_RECORD
  5
B9
330
1
100
AcDbSymbolTableRecord
100
AcDbBlockTableRecord
  2
block 7
340
0
102
{BLKREFS
331
BA
102
}
  0
BLOCK_RECORD
  5
D2
330
1
100
AcDbSymbolTableRecord
100
AcDbBlockTableRecord
  2
block 8
340
0
102
{BLKREFS
331
D3
102
}
  0
BLOCK_RECORD
  5
EB
330
1
100
AcDbSymbolTableRecord
100
AcDbBlockTableRecord
  2
block 9
340
0
102
{BLKREFS
331
EC
102
}
  0
BLOCK_RECORD
  5
104
330
1
100
AcDbSymbolTableRecord
100
AcDbBlockTableRecord
  2
block 10
340
0
102
{BLKREFS
331
105
102
}
  0
BLOCK_RECORD
  5
11D
330
1
100
AcDbSymbolTableRecord
100
AcDbBlockTableRecord
  2
block 11
340
0
102
{BLKREFS
331
11E
102
}
  0
BLOCK_RECORD
  5
136
330
1
100
AcDbSymbolTableRecord
100
AcDbBlockTableRecord
  2
block 12
340
0
102
{BLKREFS
331
137
102
}
  0
BLOCK_RECORD
  5
14F
330
1
100
AcDbSymbolTableRecord
100
AcDbBlockTableRecord
  2
block 13
340
0
102
{BLKREFS
331
150
102
}
  0
BLOCK_RECORD
  5
168
330
1
100
AcDbSymbolTableRecord
100
AcDbBlockTableRecord
  2
block 14
340
0
102
{BLKREFS
331
169
102
}
  0
BLOCK_RECORD
  5
181
330
1
100
AcDbSymbolTableRecord
100
AcDbBlockTableRecord
  2
block 15
340
0
102
{BLKREFS
331
182
102
}
  0
BLOCK_RECORD
  5
19A
330
1
100
AcDbSymbolTableRecord
100
AcDbBlockTableRecord
  2
block 16
340
0
102
{BLKREFS
331
19B
102
}
  0
BLOCK_RECORD
  5
1B3
330
1
100
AcDbSymbolTableRecord
100
AcDbBlockTableRecord
  2
block 17
340
0
102
{BLKREFS
331
1B4
102
}
  0
BLOCK_RECORD
  5
1CC
330
1
100
AcDbSymbolTableRecord
100
AcDbBlockTableRecord
  2
block 18
340
0
102
{BLKREFS
331
1CD
102
}
  0
BLOCK_RECORD
  5
1E5
330
1
100
AcDbSymbolTableRecord
100
AcDbBlockTableRecord
  2
block 19
340
0
102
{BLKREFS
331
1E6
102
}
  0
BLOCK_RECORD
  5
1FE
330
1
100
AcDbSymbolTableRecord
100
AcDbBlockTableRecord
  2
block 20
340
0
102
{BLKREFS
331
1FF
102
}
  0
BLOCK_RECORD
  5
217
330
1
100
AcDbSymbolTableRecord
100
AcDbBlockTableRecord
  2
block 21
340
0
102
{BLKREFS
331
218
102
}
  0
BLOCK_RECORD
  5
230
330
1
100
AcDbSymbolTableRecord
100
AcDbBlockTableRecord
  2
block 22
340
0
102
{BLKREFS
331
231
102
}
  0
BLOCK_RECORD
  5
249
330
1
100
AcDbSymbolTableRecord
100
AcDbBlockTableRecord
  2
block 23
340
0
102
{BLKREFS
331
24A
102
}
  0
BLOCK_RECORD
  5
262
330
1
100
AcDbSymbolTableRecord
100
AcDbBlockTableRecord
  2
block 24
340
0
102
{BLKREFS
331
263
102
}
  0
BLOCK_RECORD
  5
27B
330
1
100
AcDbSymbolTableRecord
100
AcDbBlockTableRecord
  2
block 25
340
0
102
{BLKREFS
331
27C
102
}
  0
BLOCK_RECORD
  5
294
330
1
100
AcDbSymbolTableRecord
100
AcDbBlockTableRecord
  2
block 26
340
0
102
{BLKREFS
331
295
102
}
  0
BLOCK_RECORD
  5
2AD
330
1
100
AcDbSymbolTableRecord
100
AcDbBlockTableRecord
  2
block 27
340
0
102
{BLKREFS
331
2AE
102
}
  0
BLOCK_RECORD
  5
2C6
330
1
100
AcDbSymbolTableRecord
100
AcDbBlockTableRecord
  2
block 28
340
0
102
{BLKREFS
331
2C7
102
}
  0
BLOCK_RECORD
  5
2DF
330
1
100
AcDbSymbolTableRecord
100
AcDbBlockTableRecord
  2
block 29
340
0
102
{BLKREFS
331
2E0
102
}
  0
BLOCK_RECORD
  5
2F8
330
1
100
AcDbSymbolTableRecord
100
AcDbBlockTableRecord
  2
block 30
340
0
102
{BLKREFS
331
2F9
102
}
  0
BLOCK_RECORD
  5
311
330
1
100
AcDbSymbolTableRecord
100
AcDbBlockTableRecord
  2
block 31
340
0
102
{BLKREFS
331
312
102
}
  0
BLOCK_RECORD
  5
32A
330
1
100
AcDbSymbolTableRecord
100
AcDbBlockTableRecord
  2
block 32
340
0
102
{BLKREFS
331
32B
102
}
  0
BLOCK_RECORD
  5
343
330
1
100
AcDbSymbolTableRecord
100
AcDbBlockTableRecord
  2
block 33
340
0
102
{BLKREFS
331
344
102
}
  0
BLOCK_RECORD
  5
35C
330
1
100
AcDbSymbolTableRecord
100
AcDbBlockTableRecord
  2
block 34
340
0
102
{BLKREFS
331
35D
102
}
  0
BLOCK_RECORD
  5
375
330
1
100
AcDbSymbolTableRecord
100
AcDbBlockTableRecord
  2
block 35
340
0
102
{BLKREFS
331
376
102
}
  0
BLOCK_RECORD
  5
38E
330
1
100
AcDbSymbolTableRecord
100
AcDbBlockTableRecord
  2
block 36
340
0
102
{BLKREFS
331
38F
102
}
  0
BLOCK_RECORD
  5
3A7
330
1
100
AcDbSymbolTableRecord
100
AcDbBlockTableRecord
  2
block 37
340
0
102
{BLKREFS
331
3A8
102
}
  0
BLOCK_RECORD
  5
3C0
330
1
100
AcDbSymbolTableRecord
100
AcDbBlockTableRecord
  2
block 38
340
0
102
{BLKREFS
331
3C1
102
}
  0
BLOCK_RECORD
  5
3D9
330
1
100
AcDbSymbolTableRecord
100
AcDbBlockTableRecord
  2
block 39
340
0
102
{BLKREFS
331
3DA
102
}
  0
BLOCK_RECORD
  5
3F2
330
1
100
AcDbSymbolTableRecord
100
AcDbBlockTableRecord
  2
block 40
340
0
102
{BLKREFS
331
3F3
102
}
  0
BLOCK_RECORD
  5
40B
330
1
100
AcDbSymbolTableRecord
100
AcDbBlockTableRecord
  2
block 41
340
0
102
{BLKREFS
331
40C
102
}
  0
ENDTAB
  0
ENDSEC
  0
SECTION
  2
BLOCKS
  0
BLOCK
  5
20
330
1F
100
AcDbEntity
  8
0
100
AcDbBlockBegin
  2
*Model_Space
 70
     0
 71
     0
 10
0.0
 20
0.0
 30
0.0
  3
*Model_Space
  1

  0
ENDBLK
  5
21
330
1F
100
AcDbEntity
  8
0
100
AcDbBlockEnd
  0
BLOCK
  5
1C
330
1B
100
AcDbEntity
 67
     1
  8
0
100
AcDbBlockBegin
  2
*Paper_Space
 70
     0
 71
     0
 10
0.0
 20
0.0
 30
0.0
  3
*Paper_Space
  1

  0
ENDBLK
  5
1D
330
1B
100
AcDbEntity
 67
     1
  8
0
100
AcDbBlockEnd
  0
BLOCK
  5
24
330
23
100
AcDbEntity
  8
0
100
AcDbBlockBegin
  2
*Paper_Space0
 70
     0
 71
     0
 10
0.0
 20
0.0
 30
0.0
  3
*Paper_Space0
  1

  0
ENDBLK
  5
25
330
23
100
AcDbEntity
  8
0
100
AcDbBlockEnd
  0
BLOCK
  5
3E
330
3C
100
AcDbEntity
  8
0
100
AcDbBlockBegin
  2
block 2
 70
     0
 71
     0
 10
0.0
 20
0.0
 30
0.0
  3
block 2
  1

  0
POLYLINE
  5
40
330
3C
100
AcDbEntity
  8
\U+56FE\U+5C42 1
370
     0
100
AcDb2dPolyline
 66
     1
 10
0.0
 20
0.0
 30
0.0
  0
VERTEX
  5
41
330
40
100
AcDbEntity
  8
\U+56FE\U+5C42 1
370
     0
100
AcDbVertex
100
AcDb2dVertex
 10
375.5
 20
466.5
 30
0.0
  0
VERTEX
  5
42
330
40
100
AcDbEntity
  8
\U+56FE\U+5C42 1
370
     0
100
AcDbVertex
100
AcDb2dVertex
 10
375.5
 20
326.5
 30
0.0
  0
VERTEX
  5
43
330
40
100
AcDbEntity
  8
\U+56FE\U+5C42 1
370
     0
100
AcDbVertex
100
AcDb2dVertex
 10
235.5
 20
326.5
 30
0.0
  0
VERTEX
  5
44
330
40
100
AcDbEntity
  8
\U+56FE\U+5C42 1
370
     0
100
AcDbVertex
100
AcDb2dVertex
 10
235.5
 20
466.5
 30
0.0
  0
VERTEX
  5
45
330
40
100
AcDbEntity
  8
\U+56FE\U+5C42 1
370
     0
100
AcDbVertex
100
AcDb2dVertex
 10
375.5
 20
466.5
 30
0.0
  0
SEQEND
  5
46
330
40
100
AcDbEntity
  8
\U+56FE\U+5C42 1
370
     0
  0
POLYLINE
  5
47
330
3C
100
AcDbEntity
  8
\U+56FE\U+5C42 1
370
     0
100
AcDb2dPolyline
 66
     1
 10
0.0
 20
0.0
 30
0.0
  0
VERTEX
  5
48
330
47
100
AcDbEntity
  8
\U+56FE\U+5C42 1
370
     0
100
AcDbVertex
100
AcDb2dVertex
 10
305.5
 20
425.36767578125
 30
0.0
  0
VERTEX
  5
49
330
47
100
AcDbEntity
  8
\U+56FE\U+5C42 1
370
     0
100
AcDbVertex
100
AcDb2dVertex
 10
305.25
 20
425.22314453125
 30
0.0
  0
VERTEX
  5
4A
330
47
100
AcDbEntity
  8
\U+56FE\U+5C42 1
370
     0
100
AcDbVertex
100
AcDb2dVertex
 10
280.5
 20
410.93359375
 30
0.0
  0
VERTEX
  5
4B
330
47
100
AcDbEntity
  8
\U+56FE\U+5C42 1
370
     0
100
AcDbVertex
100
AcDb2dVertex
 10
280.5
 20
382.06640625
 30
0.0
  0
VERTEX
  5
4C
330
47
100
AcDbEntity
  8
\U+56FE\U+5C42 1
370
     0
100
AcDbVertex
100
AcDb2dVertex
 10
280.75
 20
381.921875
 30
0.0
  0
VERTEX
  5
4D
330
47
100
AcDbEntity
  8
\U+56FE\U+5C42 1
370
     0
100
AcDbVertex
100
AcDb2dVertex
 10
305.5
 20
367.6328125
 30
0.0
  0
VERTEX
  5
4E
330
47
100
AcDbEntity
  8
\U+56FE\U+5C42 1
370
     0
100
AcDbVertex
100
AcDb2dVertex
 10
305.75
 20
367.77734375
 30
0.0
  0
VERTEX
  5
4F
330
47
100
AcDbEntity
  8
\U+56FE\U+5C42 1
370
     0
100
AcDbVertex
100
AcDb2dVertex
 10
330.5
 20
382.06640625
 30
0.0
  0
VERTEX
  5
50
330
47
100
AcDbEntity
  8
\U+56FE\U+5C42 1
370
     0
100
AcDbVertex
100
AcDb2dVertex
 10
330.5
 20
410.93359375
 30
0.0
  0
VERTEX
  5
51
330
47
100
AcDbEntity
  8
\U+56FE\U+5C42 1
370
     0
100
AcDbVertex
100
AcDb2dVertex
 10
330.25
 20
411.078125
 30
0.0
  0
VERTEX
  5
52
330
47
100
AcDbEntity
  8
\U+56FE\U+5C42 1
370
     0
100
AcDbVertex
100
AcDb2dVertex
 10
305.5
 20
425.36767578125
 30
0.0
  0
SEQEND
  5
53
330
47
100
AcDbEntity
  8
\U+56FE\U+5C42 1
370
     0
  0
HATCH
  5
54
330
3C
100
AcDbEntity
  8
\U+56FE\U+5C42 1
 62
     7
100
AcDbHatch
 10
0.0
 20
0.0
 30
0.0
210
0.0
220
0.0
230
1.0
  2
SOLID
 70
     1
 71
     0
 91
        1
 92
        1
 93
       10
 72
     1
 10
305.5
 20
425.36767578125
 11
305.25
 21
425.22314453125
 72
     1
 10
305.25
 20
425.22314453125
 11
280.5
 21
410.93359375
 72
     1
 10
280.5
 20
410.93359375
 11
280.5
 21
382.06640625
 72
     1
 10
280.5
 20
382.06640625
 11
280.75
 21
381.921875
 72
     1
 10
280.75
 20
381.921875
 11
305.5
 21
367.6328125
 72
     1
 10
305.5
 20
367.6328125
 11
305.75
 21
367.77734375
 72
     1
 10
305.75
 20
367.77734375
 11
330.5
 21
382.06640625
 72
     1
 10
330.5
 20
382.06640625
 11
330.5
 21
410.93359375
 72
     1
 10
330.5
 20
410.93359375
 11
330.25
 21
411.078125
 72
     1
 10
330.25
 20
411.078125
 11
305.5
 21
425.36767578125
 97
        0
 75
     2
 76
     1
 98
        0
  0
ENDBLK
  5
3F
330
3C
100
AcDbEntity
  8
0
100
AcDbBlockEnd
  0
BLOCK
  5
57
330
55
100
AcDbEntity
  8
0
100
AcDbBlockBegin
  2
block 3
 70
     0
 71
     0
 10
0.0
 20
0.0
 30
0.0
  3
block 3
  1

  0
POLYLINE
  5
59
330
55
100
AcDbEntity
  8
\U+56FE\U+5C42 1
370
     0
100
AcDb2dPolyline
 66
     1
 10
0.0
 20
0.0
 30
0.0
  0
VERTEX
  5
5A
330
59
100
AcDbEntity
  8
\U+56FE\U+5C42 1
370
     0
100
AcDbVertex
100
AcDb2dVertex
 10
375.5
 20
466.5
 30
0.0
  0
VERTEX
  5
5B
330
59
100
AcDbEntity
  8
\U+56FE\U+5C42 1
370
     0
100
AcDbVertex
100
AcDb2dVertex
 10
375.5
 20
326.5
 30
0.0
  0
VERTEX
  5
5C
330
59
100
AcDbEntity
  8
\U+56FE\U+5C42 1
370
     0
100
AcDbVertex
100
AcDb2dVertex
 10
235.5
 20
326.5
 30
0.0
  0
VERTEX
  5
5D
330
59
100
AcDbEntity
  8
\U+56FE\U+5C42 1
370
     0
100
AcDbVertex
100
AcDb2dVertex
 10
235.5
 20
466.5
 30
0.0
  0
VERTEX
  5
5E
330
59
100
AcDbEntity
  8
\U+56FE\U+5C42 1
370
     0
100
AcDbVertex
100
AcDb2dVertex
 10
375.5
 20
466.5
 30
0.0
  0
SEQEND
  5
5F
330
59
100
AcDbEntity
  8
\U+56FE\U+5C42 1
370
     0
  0
POLYLINE
  5
60
330
55
100
AcDbEntity
  8
\U+56FE\U+5C42 1
370
     0
100
AcDb2dPolyline
 66
     1
 10
0.0
 20
0.0
 30
0.0
  0
VERTEX
  5
61
330
60
100
AcDbEntity
  8
\U+56FE\U+5C42 1
370
     0
100
AcDbVertex
100
AcDb2dVertex
 10
305.5
 20
425.36767578125
 30
0.0
  0
VERTEX
  5
62
330
60
100
AcDbEntity
  8
\U+56FE\U+5C42 1
370
     0
100
AcDbVertex
100
AcDb2dVertex
 10
304.6875
 20
424.8984375
 30
0.0
  0
VERTEX
  5
63
330
60
100
AcDbEntity
  8
\U+56FE\U+5C42 1
370
     0
100
AcDbVertex
100
AcDb2dVertex
 10
280.5
 20
410.93359375
 30
0.0
  0
VERTEX
  5
64
330
60
100
AcDbEntity
  8
\U+56FE\U+5C42 1
370
     0
100
AcDbVertex
100
AcDb2dVertex
 10
280.5
 20
382.06640625
 30
0.0
  0
VERTEX
  5
65
330
60
100
AcDbEntity
  8
\U+56FE\U+5C42 1
370
     0
100
AcDbVertex
100
AcDb2dVertex
 10
281.3125
 20
381.59765625
 30
0.0
  0
VERTEX
  5
66
330
60
100
AcDbEntity
  8
\U+56FE\U+5C42 1
370
     0
100
AcDbVertex
100
AcDb2dVertex
 10
305.5
 20
367.6328125
 30
0.0
  0
VERTEX
  5
67
330
60
100
AcDbEntity
  8
\U+56FE\U+5C42 1
370
     0
100
AcDbVertex
100
AcDb2dVertex
 10
306.3125
 20
368.1015625
 30
0.0
  0
VERTEX
  5
68
330
60
100
AcDbEntity
  8
\U+56FE\U+5C42 1
370
     0
100
AcDbVertex
100
AcDb2dVertex
 10
330.5
 20
382.06640625
 30
0.0
  0
VERTEX
  5
69
330
60
100
AcDbEntity
  8
\U+56FE\U+5C42 1
370
     0
100
AcDbVertex
100
AcDb2dVertex
 10
330.5
 20
410.93359375
 30
0.0
  0
VERTEX
  5
6A
330
60
100
AcDbEntity
  8
\U+56FE\U+5C42 1
370
     0
100
AcDbVertex
100
AcDb2dVertex
 10
329.6875
 20
411.40283203125
 30
0.0
  0
VERTEX
  5
6B
330
60
100
AcDbEntity
  8
\U+56FE\U+5C42 1
370
     0
100
AcDbVertex
100
AcDb2dVertex
 10
305.5
 20
425.36767578125
 30
0.0
  0
SEQEND
  5
6C
330
60
100
AcDbEntity
  8
\U+56FE\U+5C42 1
370
     0
  0
HATCH
  5
6D
330
55
100
AcDbEntity
  8
\U+56FE\U+5C42 1
 62
     7
100
AcDbHatch
 10
0.0
 20
0.0
 30
0.0
210
0.0
220
0.0
230
1.0
  2
SOLID
 70
     1
 71
     0
 91
        1
 92
        1
 93
       10
 72
     1
 10
305.5
 20
425.36767578125
 11
304.6875
 21
424.8984375
 72
     1
 10
304.6875
 20
424.8984375
 11
280.5
 21
410.93359375
 72
     1
 10
280.5
 20
410.93359375
 11
280.5
 21
382.06640625
 72
     1
 10
280.5
 20
382.06640625
 11
281.3125
 21
381.59765625
 72
     1
 10
281.3125
 20
381.59765625
 11
305.5
 21
367.6328125
 72
     1
 10
305.5
 20
367.6328125
 11
306.3125
 21
368.1015625
 72
     1
 10
306.3125
 20
368.1015625
 11
330.5
 21
382.06640625
 72
     1
 10
330.5
 20
382.06640625
 11
330.5
 21
410.93359375
 72
     1
 10
330.5
 20
410.93359375
 11
329.6875
 21
411.40283203125
 72
     1
 10
329.6875
 20
411.40283203125
 11
305.5
 21
425.36767578125
 97
        0
 75
     2
 76
     1
 98
        0
  0
ENDBLK
  5
58
330
55
100
AcDbEntity
  8
0
100
AcDbBlockEnd
  0
BLOCK
  5
70
330
6E
100
AcDbEntity
  8
0
100
AcDbBlockBegin
  2
block 4
 70
     0
 71
     0
 10
0.0
 20
0.0
 30
0.0
  3
block 4
  1

  0
POLYLINE
  5
72
330
6E
100
AcDbEntity
  8
\U+56FE\U+5C42 1
370
     0
100
AcDb2dPolyline
 66
     1
 10
0.0
 20
0.0
 30
0.0
  0
VERTEX
  5
73
330
72
100
AcDbEntity
  8
\U+56FE\U+5C42 1
370
     0
100
AcDbVertex
100
AcDb2dVertex
 10
375.5
 20
466.5
 30
0.0
  0
VERTEX
  5
74
330
72
100
AcDbEntity
  8
\U+56FE\U+5C42 1
370
     0
100
AcDbVertex
100
AcDb2dVertex
 10
375.5
 20
326.5
 30
0.0
  0
VERTEX
  5
75
330
72
100
AcDbEntity
  8
\U+56FE\U+5C42 1
370
     0
100
AcDbVertex
100
AcDb2dVertex
 10
235.5
 20
326.5
 30
0.0
  0
VERTEX
  5
76
330
72
100
AcDbEntity
  8
\U+56FE\U+5C42 1
370
     0
100
AcDbVertex
100
AcDb2dVertex
 10
235.5
 20
466.5
 30
0.0
  0
VERTEX
  5
77
330
72
100
AcDbEntity
  8
\U+56FE\U+5C42 1
370
     0
100
AcDbVertex
100
AcDb2dVertex
 10
375.5
 20
466.5
 30
0.0
  0
SEQEND
  5
78
330
72
100
AcDbEntity
  8
\U+56FE\U+5C42 1
370
     0
  0
POLYLINE
  5
79
330
6E
100
AcDbEntity
  8
\U+56FE\U+5C42 1
370
     0
100
AcDb2dPolyline
 66
     1
 10
0.0
 20
0.0
 30
0.0
  0
VERTEX
  5
7A
330
79
100
AcDbEntity
  8
\U+56FE\U+5C42 1
370
     0
100
AcDbVertex
100
AcDb2dVertex
 10
305.5
 20
425.36767578125
 30
0.0
  0
VERTEX
  5
7B
330
79
100
AcDbEntity
  8
\U+56FE\U+5C42 1
370
     0
100
AcDbVertex
100
AcDb2dVertex
 10
304.0625
 20
424.53759765625
 30
0.0
  0
VERTEX
  5
7C
330
79
100
AcDbEntity
  8
\U+56FE\U+5C42 1
370
     0
100
AcDbVertex
100
AcDb2dVertex
 10
280.5
 20
410.93359375
 30
0.0
  0
VERTEX
  5
7D
330
79
100
AcDbEntity
  8
\U+56FE\U+5C42 1
370
     0
100
AcDbVertex
100
AcDb2dVertex
 10
280.5
 20
382.06640625
 30
0.0
  0
VERTEX
  5
7E
330
79
100
AcDbEntity
  8
\U+56FE\U+5C42 1
370
     0
100
AcDbVertex
100
AcDb2dVertex
 10
281.9375
 20
381.236328125
 30
0.0
  0
VERTEX
  5
7F
330
79
100
AcDbEntity
  8
\U+56FE\U+5C42 1
370
     0
100
AcDbVertex
100
AcDb2dVertex
 10
305.5
 20
367.6328125
 30
0.0
  0
VERTEX
  5
80
330
79
100
AcDbEntity
  8
\U+56FE\U+5C42 1
370
     0
100
AcDbVertex
100
AcDb2dVertex
 10
306.9375
 20
368.462890625
 30
0.0
  0
VERTEX
  5
81
330
79
100
AcDbEntity
  8
\U+56FE\U+5C42 1
370
     0
100
AcDbVertex
100
AcDb2dVertex
 10
330.5
 20
382.06640625
 30
0.0
  0
VERTEX
  5
82
330
79
100
AcDbEntity
  8
\U+56FE\U+5C42 1
370
     0
100
AcDbVertex
100
AcDb2dVertex
 10
330.5
 20
410.93359375
 30
0.0
  0
VERTEX
  5
83
330
79
100
AcDbEntity
  8
\U+56FE\U+5C42 1
370
     0
100
AcDbVertex
100
AcDb2dVertex
 10
329.0625
 20
411.763671875
 30
0.0
  0
VERTEX
  5
84
330
79
100
AcDbEntity
  8
\U+56FE\U+5C42 1
370
     0
100
AcDbVertex
100
AcDb2dVertex
 10
305.5
 20
425.36767578125
 30
0.0
  0
SEQEND
  5
85
330
79
100
AcDbEntity
  8
\U+56FE\U+5C42 1
370
     0
  0
HATCH
  5
86
330
6E
100
AcDbEntity
  8
\U+56FE\U+5C42 1
 62
     7
100
AcDbHatch
 10
0.0
 20
0.0
 30
0.0
210
0.0
220
0.0
230
1.0
  2
SOLID
 70
     1
 71
     0
 91
        1
 92
        1
 93
       10
 72
     1
 10
305.5
 20
425.36767578125
 11
304.0625
 21
424.53759765625
 72
     1
 10
304.0625
 20
424.53759765625
 11
280.5
 21
410.93359375
 72
     1
 10
280.5
 20
410.93359375
 11
280.5
 21
382.06640625
 72
     1
 10
280.5
 20
382.06640625
 11
281.9375
 21
381.236328125
 72
     1
 10
281.9375
 20
381.236328125
 11
305.5
 21
367.6328125
 72
     1
 10
305.5
 20
367.6328125
 11
306.9375
 21
368.462890625
 72
     1
 10
306.9375
 20
368.462890625
 11
330.5
 21
382.06640625
 72
     1
 10
330.5
 20
382.06640625
 11
330.5
 21
410.93359375
 72
     1
 10
330.5
 20
410.93359375
 11
329.0625
 21
411.763671875
 72
     1
 10
329.0625
 20
411.763671875
 11
305.5
 21
425.36767578125
 97
        0
 75
     2
 76
     1
 98
        0
  0
ENDBLK
  5
71
330
6E
100
AcDbEntity
  8
0
100
AcDbBlockEnd
  0
BLOCK
  5
89
330
87
100
AcDbEntity
  8
0
100
AcDbBlockBegin
  2
block 5
 70
     0
 71
     0
 10
0.0
 20
0.0
 30
0.0
  3
block 5
  1

  0
POLYLINE
  5
8B
330
87
100
AcDbEntity
  8
\U+56FE\U+5C42 1
370
     0
100
AcDb2dPolyline
 66
     1
 10
0.0
 20
0.0
 30
0.0
  0
VERTEX
  5
8C
330
8B
100
AcDbEntity
  8
\U+56FE\U+5C42 1
370
     0
100
AcDbVertex
100
AcDb2dVertex
 10
375.5
 20
466.5
 30
0.0
  0
VERTEX
  5
8D
330
8B
100
AcDbEntity
  8
\U+56FE\U+5C42 1
370
     0
100
AcDbVertex
100
AcDb2dVertex
 10
375.5
 20
326.5
 30
0.0
  0
VERTEX
  5
8E
330
8B
100
AcDbEntity
  8
\U+56FE\U+5C42 1
370
     0
100
AcDbVertex
100
AcDb2dVertex
 10
235.5
 20
326.5
 30
0.0
  0
VERTEX
  5
8F
330
8B
100
AcDbEntity
  8
\U+56FE\U+5C42 1
370
     0
100
AcDbVertex
100
AcDb2dVertex
 10
235.5
 20
466.5
 30
0.0
  0
VERTEX
  5
90
330
8B
100
AcDbEntity
  8
\U+56FE\U+5C42 1
370
     0
100
AcDbVertex
100
AcDb2dVertex
 10
375.5
 20
466.5
 30
0.0
  0
SEQEND
  5
91
330
8B
100
AcDbEntity
  8
\U+56FE\U+5C42 1
370
     0
  0
POLYLINE
  5
92
330
87
100
AcDbEntity
  8
\U+56FE\U+5C42 1
370
     0
100
AcDb2dPolyline
 66
     1
 10
0.0
 20
0.0
 30
0.0
  0
VERTEX
  5
93
330
92
100
AcDbEntity
  8
\U+56FE\U+5C42 1
370
     0
100
AcDbVertex
100
AcDb2dVertex
 10
305.5
 20
425.36767578125
 30
0.0
  0
VERTEX
  5
94
330
92
100
AcDbEntity
  8
\U+56FE\U+5C42 1
370
     0
100
AcDbVertex
100
AcDb2dVertex
 10
303.4375
 20
424.1767578125
 30
0.0
  0
VERTEX
  5
95
330
92
100
AcDbEntity
  8
\U+56FE\U+5C42 1
370
     0
100
AcDbVertex
100
AcDb2dVertex
 10
280.5
 20
410.93359375
 30
0.0
  0
VERTEX
  5
96
330
92
100
AcDbEntity
  8
\U+56FE\U+5C42 1
370
     0
100
AcDbVertex
100
AcDb2dVertex
 10
280.5
 20
382.06640625
 30
0.0
  0
VERTEX
  5
97
330
92
100
AcDbEntity
  8
\U+56FE\U+5C42 1
370
     0
100
AcDbVertex
100
AcDb2dVertex
 10
282.5625
 20
380.875
 30
0.0
  0
VERTEX
  5
98
330
92
100
AcDbEntity
  8
\U+56FE\U+5C42 1
370
     0
100
AcDbVertex
100
AcDb2dVertex
 10
305.5
 20
367.6328125
 30
0.0
  0
VERTEX
  5
99
330
92
100
AcDbEntity
  8
\U+56FE\U+5C42 1
370
     0
100
AcDbVertex
100
AcDb2dVertex
 10
307.5625
 20
368.8232421875
 30
0.0
  0
VERTEX
  5
9A
330
92
100
AcDbEntity
  8
\U+56FE\U+5C42 1
370
     0
100
AcDbVertex
100
AcDb2dVertex
 10
330.5
 20
382.06640625
 30
0.0
  0
VERTEX
  5
9B
330
92
100
AcDbEntity
  8
\U+56FE\U+5C42 1
370
     0
100
AcDbVertex
100
AcDb2dVertex
 10
330.5
 20
410.93359375
 30
0.0
  0
VERTEX
  5
9C
330
92
100
AcDbEntity
  8
\U+56FE\U+5C42 1
370
     0
100
AcDbVertex
100
AcDb2dVertex
 10
328.4375
 20
412.12451171875
 30
0.0
  0
VERTEX
  5
9D
330
92
100
AcDbEntity
  8
\U+56FE\U+5C42 1
370
     0
100
AcDbVertex
100
AcDb2dVertex
 10
305.5
 20
425.36767578125
 30
0.0
  0
SEQEND
  5
9E
330
92
100
AcDbEntity
  8
\U+56FE\U+5C42 1
370
     0
  0
HATCH
  5
9F
330
87
100
AcDbEntity
  8
\U+56FE\U+5C42 1
 62
     7
100
AcDbHatch
 10
0.0
 20
0.0
 30
0.0
210
0.0
220
0.0
230
1.0
  2
SOLID
 70
     1
 71
     0
 91
        1
 92
        1
 93
       10
 72
     1
 10
305.5
 20
425.36767578125
 11
303.4375
 21
424.1767578125
 72
     1
 10
303.4375
 20
424.1767578125
 11
280.5
 21
410.93359375
 72
     1
 10
280.5
 20
410.93359375
 11
280.5
 21
382.06640625
 72
     1
 10
280.5
 20
382.06640625
 11
282.5625
 21
380.875
 72
     1
 10
282.5625
 20
380.875
 11
305.5
 21
367.6328125
 72
     1
 10
305.5
 20
367.6328125
 11
307.5625
 21
368.8232421875
 72
     1
 10
307.5625
 20
368.8232421875
 11
330.5
 21
382.06640625
 72
     1
 10
330.5
 20
382.06640625
 11
330.5
 21
410.93359375
 72
     1
 10
330.5
 20
410.93359375
 11
328.4375
 21
412.12451171875
 72
     1
 10
328.4375
 20
412.12451171875
 11
305.5
 21
425.36767578125
 97
        0
 75
     2
 76
     1
 98
        0
  0
ENDBLK
  5
8A
330
87
100
AcDbEntity
  8
0
100
AcDbBlockEnd
  0
BLOCK
  5
A2
330
A0
100
AcDbEntity
  8
0
100
AcDbBlockBegin
  2
block 6
 70
     0
 71
     0
 10
0.0
 20
0.0
 30
0.0
  3
block 6
  1

  0
POLYLINE
  5
A4
330
A0
100
AcDbEntity
  8
\U+56FE\U+5C42 1
370
     0
100
AcDb2dPolyline
 66
     1
 10
0.0
 20
0.0
 30
0.0
  0
VERTEX
  5
A5
330
A4
100
AcDbEntity
  8
\U+56FE\U+5C42 1
370
     0
100
AcDbVertex
100
AcDb2dVertex
 10
375.5
 20
466.5
 30
0.0
  0
VERTEX
  5
A6
330
A4
100
AcDbEntity
  8
\U+56FE\U+5C42 1
370
     0
100
AcDbVertex
100
AcDb2dVertex
 10
375.5
 20
326.5
 30
0.0
  0
VERTEX
  5
A7
330
A4
100
AcDbEntity
  8
\U+56FE\U+5C42 1
370
     0
100
AcDbVertex
100
AcDb2dVertex
 10
235.5
 20
326.5
 30
0.0
  0
VERTEX
  5
A8
330
A4
100
AcDbEntity
  8
\U+56FE\U+5C42 1
370
     0
100
AcDbVertex
100
AcDb2dVertex
 10
235.5
 20
466.5
 30
0.0
  0
VERTEX
  5
A9
330
A4
100
AcDbEntity
  8
\U+56FE\U+5C42 1
370
     0
100
AcDbVertex
100
AcDb2dVertex
 10
375.5
 20
466.5
 30
0.0
  0
SEQEND
  5
AA
330
A4
100
AcDbEntity
  8
\U+56FE\U+5C42 1
370
     0
  0
POLYLINE
  5
AB
330
A0
100
AcDbEntity
  8
\U+56FE\U+5C42 1
370
     0
100
AcDb2dPolyline
 66
     1
 10
0.0
 20
0.0
 30
0.0
  0
VERTEX
  5
AC
330
AB
100
AcDbEntity
  8
\U+56FE\U+5C42 1
370
     0
100
AcDbVertex
100
AcDb2dVertex
 10
305.5
 20
425.36767578125
 30
0.0
  0
VERTEX
  5
AD
330
AB
100
AcDbEntity
  8
\U+56FE\U+5C42 1
370
     0
100
AcDbVertex
100
AcDb2dVertex
 10
302.8125
 20
423.81591796875
 30
0.0
  0
VERTEX
  5
AE
330
AB
100
AcDbEntity
  8
\U+56FE\U+5C42 1
370
     0
100
AcDbVertex
100
AcDb2dVertex
 10
280.5
 20
410.93359375
 30
0.0
  0
VERTEX
  5
AF
330
AB
100
AcDbEntity
  8
\U+56FE\U+5C42 1
370
     0
100
AcDbVertex
100
AcDb2dVertex
 10
280.5
 20
382.06640625
 30
0.0
  0
VERTEX
  5
B0
330
AB
100
AcDbEntity
  8
\U+56FE\U+5C42 1
370
     0
100
AcDbVertex
100
AcDb2dVertex
 10
283.1875
 20
380.5146484375
 30
0.0
  0
VERTEX
  5
B1
330
AB
100
AcDbEntity
  8
\U+56FE\U+5C42 1
370
     0
100
AcDbVertex
100
AcDb2dVertex
 10
305.5
 20
367.6328125
 30
0.0
  0
VERTEX
  5
B2
330
AB
100
AcDbEntity
  8
\U+56FE\U+5C42 1
370
     0
100
AcDbVertex
100
AcDb2dVertex
 10
308.1875
 20
369.18359375
 30
0.0
  0
VERTEX
  5
B3
330
AB
100
AcDbEntity
  8
\U+56FE\U+5C42 1
370
     0
100
AcDbVertex
100
AcDb2dVertex
 10
330.5
 20
382.06640625
 30
0.0
  0
VERTEX
  5
B4
330
AB
100
AcDbEntity
  8
\U+56FE\U+5C42 1
370
     0
100
AcDbVertex
100
AcDb2dVertex
 10
330.5
 20
410.93359375
 30
0.0
  0
VERTEX
  5
B5
330
AB
100
AcDbEntity
  8
\U+56FE\U+5C42 1
370
     0
100
AcDbVertex
100
AcDb2dVertex
 10
327.8125
 20
412.4853515625
 30
0.0
  0
VERTEX
  5
B6
330
AB
100
AcDbEntity
  8
\U+56FE\U+5C42 1
370
     0
100
AcDbVertex
100
AcDb2dVertex
 10
305.5
 20
425.36767578125
 30
0.0
  0
SEQEND
  5
B7
330
AB
100
AcDbEntity
  8
\U+56FE\U+5C42 1
370
     0
  0
HATCH
  5
B8
330
A0
100
AcDbEntity
  8
\U+56FE\U+5C42 1
 62
     7
100
AcDbHatch
 10
0.0
 20
0.0
 30
0.0
210
0.0
220
0.0
230
1.0
  2
SOLID
 70
     1
 71
     0
 91
        1
 92
        1
 93
       10
 72
     1
 10
305.5
 20
425.36767578125
 11
302.8125
 21
423.81591796875
 72
     1
 10
302.8125
 20
423.81591796875
 11
280.5
 21
410.93359375
 72
     1
 10
280.5
 20
410.93359375
 11
280.5
 21
382.06640625
 72
     1
 10
280.5
 20
382.06640625
 11
283.1875
 21
380.5146484375
 72
     1
 10
283.1875
 20
380.5146484375
 11
305.5
 21
367.6328125
 72
     1
 10
305.5
 20
367.6328125
 11
308.1875
 21
369.18359375
 72
     1
 10
308.1875
 20
369.18359375
 11
330.5
 21
382.06640625
 72
     1
 10
330.5
 20
382.06640625
 11
330.5
 21
410.93359375
 72
     1
 10
330.5
 20
410.93359375
 11
327.8125
 21
412.4853515625
 72
     1
 10
327.8125
 20
412.4853515625
 11
305.5
 21
425.36767578125
 97
        0
 75
     2
 76
     1
 98
        0
  0
ENDBLK
  5
A3
330
A0
100
AcDbEntity
  8
0
100
AcDbBlockEnd
  0
BLOCK
  5
BB
330
B9
100
AcDbEntity
  8
0
100
AcDbBlockBegin
  2
block 7
 70
     0
 71
     0
 10
0.0
 20
0.0
 30
0.0
  3
block 7
  1

  0
POLYLINE
  5
BD
330
B9
100
AcDbEntity
  8
\U+56FE\U+5C42 1
370
     0
100
AcDb2dPolyline
 66
     1
 10
0.0
 20
0.0
 30
0.0
  0
VERTEX
  5
BE
330
BD
100
AcDbEntity
  8
\U+56FE\U+5C42 1
370
     0
100
AcDbVertex
100
AcDb2dVertex
 10
375.5
 20
466.5
 30
0.0
  0
VERTEX
  5
BF
330
BD
100
AcDbEntity
  8
\U+56FE\U+5C42 1
370
     0
100
AcDbVertex
100
AcDb2dVertex
 10
375.5
 20
326.5
 30
0.0
  0
VERTEX
  5
C0
330
BD
100
AcDbEntity
  8
\U+56FE\U+5C42 1
370
     0
100
AcDbVertex
100
AcDb2dVertex
 10
235.5
 20
326.5
 30
0.0
  0
VERTEX
  5
C1
330
BD
100
AcDbEntity
  8
\U+56FE\U+5C42 1
370
     0
100
AcDbVertex
100
AcDb2dVertex
 10
235.5
 20
466.5
 30
0.0
  0
VERTEX
  5
C2
330
BD
100
AcDbEntity
  8
\U+56FE\U+5C42 1
370
     0
100
AcDbVertex
100
AcDb2dVertex
 10
375.5
 20
466.5
 30
0.0
  0
SEQEND
  5
C3
330
BD
100
AcDbEntity
  8
\U+56FE\U+5C42 1
370
     0
  0
POLYLINE
  5
C4
330
B9
100
AcDbEntity
  8
\U+56FE\U+5C42 1
370
     0
100
AcDb2dPolyline
 66
     1
 10
0.0
 20
0.0
 30
0.0
  0
VERTEX
  5
C5
330
C4
100
AcDbEntity
  8
\U+56FE\U+5C42 1
370
     0
100
AcDbVertex
100
AcDb2dVertex
 10
305.5
 20
425.36767578125
 30
0.0
  0
VERTEX
  5
C6
330
C4
100
AcDbEntity
  8
\U+56FE\U+5C42 1
370
     0
100
AcDbVertex
100
AcDb2dVertex
 10
302.1875
 20
423.455078125
 30
0.0
  0
VERTEX
  5
C7
330
C4
100
AcDbEntity
  8
\U+56FE\U+5C42 1
370
     0
100
AcDbVertex
100
AcDb2dVertex
 10
280.5
 20
410.93359375
 30
0.0
  0
VERTEX
  5
C8
330
C4
100
AcDbEntity
  8
\U+56FE\U+5C42 1
370
     0
100
AcDbVertex
100
AcDb2dVertex
 10
280.5
 20
382.06640625
 30
0.0
  0
VERTEX
  5
C9
330
C4
100
AcDbEntity
  8
\U+56FE\U+5C42 1
370
     0
100
AcDbVertex
100
AcDb2dVertex
 10
283.8125
 20
380.154296875
 30
0.0
  0
VERTEX
  5
CA
330
C4
100
AcDbEntity
  8
\U+56FE\U+5C42 1
370
     0
100
AcDbVertex
100
AcDb2dVertex
 10
305.5
 20
367.6328125
 30
0.0
  0
VERTEX
  5
CB
330
C4
100
AcDbEntity
  8
\U+56FE\U+5C42 1
370
     0
100
AcDbVertex
100
AcDb2dVertex
 10
308.8125
 20
369.544921875
 30
0.0
  0
VERTEX
  5
CC
330
C4
100
AcDbEntity
  8
\U+56FE\U+5C42 1
370
     0
100
AcDbVertex
100
AcDb2dVertex
 10
330.5
 20
382.06640625
 30
0.0
  0
VERTEX
  5
CD
330
C4
100
AcDbEntity
  8
\U+56FE\U+5C42 1
370
     0
100
AcDbVertex
100
AcDb2dVertex
 10
330.5
 20
410.93359375
 30
0.0
  0
VERTEX
  5
CE
330
C4
100
AcDbEntity
  8
\U+56FE\U+5C42 1
370
     0
100
AcDbVertex
100
AcDb2dVertex
 10
327.1875
 20
412.84619140625
 30
0.0
  0
VERTEX
  5
CF
330
C4
100
AcDbEntity
  8
\U+56FE\U+5C42 1
370
     0
100
AcDbVertex
100
AcDb2dVertex
 10
305.5
 20
425.36767578125
 30
0.0
  0
SEQEND
  5
D0
330
C4
100
AcDbEntity
  8
\U+56FE\U+5C42 1
370
     0
  0
HATCH
  5
D1
330
B9
100
AcDbEntity
  8
\U+56FE\U+5C42 1
 62
     7
100
AcDbHatch
 10
0.0
 20
0.0
 30
0.0
210
0.0
220
0.0
230
1.0
  2
SOLID
 70
     1
 71
     0
 91
        1
 92
        1
 93
       10
 72
     1
 10
305.5
 20
425.36767578125
 11
302.1875
 21
423.455078125
 72
     1
 10
302.1875
 20
423.455078125
 11
280.5
 21
410.93359375
 72
     1
 10
280.5
 20
410.93359375
 11
280.5
 21
382.06640625
 72
     1
 10
280.5
 20
382.06640625
 11
283.8125
 21
380.154296875
 72
     1
 10
283.8125
 20
380.154296875
 11
305.5
 21
367.6328125
 72
     1
 10
305.5
 20
367.6328125
 11
308.8125
 21
369.544921875
 72
     1
 10
308.8125
 20
369.544921875
 11
330.5
 21
382.06640625
 72
     1
 10
330.5
 20
382.06640625
 11
330.5
 21
410.93359375
 72
     1
 10
330.5
 20
410.93359375
 11
327.1875
 21
412.84619140625
 72
     1
 10
327.1875
 20
412.84619140625
 11
305.5
 21
425.36767578125
 97
        0
 75
     2
 76
     1
 98
        0
  0
ENDBLK
  5
BC
330
B9
100
AcDbEntity
  8
0
100
AcDbBlockEnd
  0
BLOCK
  5
D4
330
D2
100
AcDbEntity
  8
0
100
AcDbBlockBegin
  2
block 8
 70
     0
 71
     0
 10
0.0
 20
0.0
 30
0.0
  3
block 8
  1

  0
POLYLINE
  5
D6
330
D2
100
AcDbEntity
  8
\U+56FE\U+5C42 1
370
     0
100
AcDb2dPolyline
 66
     1
 10
0.0
 20
0.0
 30
0.0
  0
VERTEX
  5
D7
330
D6
100
AcDbEntity
  8
\U+56FE\U+5C42 1
370
     0
100
AcDbVertex
100
AcDb2dVertex
 10
375.5
 20
466.5
 30
0.0
  0
VERTEX
  5
D8
330
D6
100
AcDbEntity
  8
\U+56FE\U+5C42 1
370
     0
100
AcDbVertex
100
AcDb2dVertex
 10
375.5
 20
326.5
 30
0.0
  0
VERTEX
  5
D9
330
D6
100
AcDbEntity
  8
\U+56FE\U+5C42 1
370
     0
100
AcDbVertex
100
AcDb2dVertex
 10
235.5
 20
326.5
 30
0.0
  0
VERTEX
  5
DA
330
D6
100
AcDbEntity
  8
\U+56FE\U+5C42 1
370
     0
100
AcDbVertex
100
AcDb2dVertex
 10
235.5
 20
466.5
 30
0.0
  0
VERTEX
  5
DB
330
D6
100
AcDbEntity
  8
\U+56FE\U+5C42 1
370
     0
100
AcDbVertex
100
AcDb2dVertex
 10
375.5
 20
466.5
 30
0.0
  0
SEQEND
  5
DC
330
D6
100
AcDbEntity
  8
\U+56FE\U+5C42 1
370
     0
  0
POLYLINE
  5
DD
330
D2
100
AcDbEntity
  8
\U+56FE\U+5C42 1
370
     0
100
AcDb2dPolyline
 66
     1
 10
0.0
 20
0.0
 30
0.0
  0
VERTEX
  5
DE
330
DD
100
AcDbEntity
  8
\U+56FE\U+5C42 1
370
     0
100
AcDbVertex
100
AcDb2dVertex
 10
305.5
 20
425.36767578125
 30
0.0
  0
VERTEX
  5
DF
330
DD
100
AcDbEntity
  8
\U+56FE\U+5C42 1
370
     0
100
AcDbVertex
100
AcDb2dVertex
 10
301.5625
 20
423.09423828125
 30
0.0
  0
VERTEX
  5
E0
330
DD
100
AcDbEntity
  8
\U+56FE\U+5C42 1
370
     0
100
AcDbVertex
100
AcDb2dVertex
 10
280.5
 20
410.93359375
 30
0.0
  0
VERTEX
  5
E1
330
DD
100
AcDbEntity
  8
\U+56FE\U+5C42 1
370
     0
100
AcDbVertex
100
AcDb2dVertex
 10
280.5
 20
382.06640625
 30
0.0
  0
VERTEX
  5
E2
330
DD
100
AcDbEntity
  8
\U+56FE\U+5C42 1
370
     0
100
AcDbVertex
100
AcDb2dVertex
 10
284.4375
 20
379.79296875
 30
0.0
  0
VERTEX
  5
E3
330
DD
100
AcDbEntity
  8
\U+56FE\U+5C42 1
370
     0
100
AcDbVertex
100
AcDb2dVertex
 10
305.5
 20
367.6328125
 30
0.0
  0
VERTEX
  5
E4
330
DD
100
AcDbEntity
  8
\U+56FE\U+5C42 1
370
     0
100
AcDbVertex
100
AcDb2dVertex
 10
309.4375
 20
369.90625
 30
0.0
  0
VERTEX
  5
E5
330
DD
100
AcDbEntity
  8
\U+56FE\U+5C42 1
370
     0
100
AcDbVertex
100
AcDb2dVertex
 10
330.5
 20
382.06640625
 30
0.0
  0
VERTEX
  5
E6
330
DD
100
AcDbEntity
  8
\U+56FE\U+5C42 1
370
     0
100
AcDbVertex
100
AcDb2dVertex
 10
330.5
 20
410.93359375
 30
0.0
  0
VERTEX
  5
E7
330
DD
100
AcDbEntity
  8
\U+56FE\U+5C42 1
370
     0
100
AcDbVertex
100
AcDb2dVertex
 10
326.5625
 20
413.20703125
 30
0.0
  0
VERTEX
  5
E8
330
DD
100
AcDbEntity
  8
\U+56FE\U+5C42 1
370
     0
100
AcDbVertex
100
AcDb2dVertex
 10
305.5
 20
425.36767578125
 30
0.0
  0
SEQEND
  5
E9
330
DD
100
AcDbEntity
  8
\U+56FE\U+5C42 1
370
     0
  0
HATCH
  5
EA
330
D2
100
AcDbEntity
  8
\U+56FE\U+5C42 1
 62
     7
100
AcDbHatch
 10
0.0
 20
0.0
 30
0.0
210
0.0
220
0.0
230
1.0
  2
SOLID
 70
     1
 71
     0
 91
        1
 92
        1
 93
       10
 72
     1
 10
305.5
 20
425.36767578125
 11
301.5625
 21
423.09423828125
 72
     1
 10
301.5625
 20
423.09423828125
 11
280.5
 21
410.93359375
 72
     1
 10
280.5
 20
410.93359375
 11
280.5
 21
382.06640625
 72
     1
 10
280.5
 20
382.06640625
 11
284.4375
 21
379.79296875
 72
     1
 10
284.4375
 20
379.79296875
 11
305.5
 21
367.6328125
 72
     1
 10
305.5
 20
367.6328125
 11
309.4375
 21
369.90625
 72
     1
 10
309.4375
 20
369.90625
 11
330.5
 21
382.06640625
 72
     1
 10
330.5
 20
382.06640625
 11
330.5
 21
410.93359375
 72
     1
 10
330.5
 20
410.93359375
 11
326.5625
 21
413.20703125
 72
     1
 10
326.5625
 20
413.20703125
 11
305.5
 21
425.36767578125
 97
        0
 75
     2
 76
     1
 98
        0
  0
ENDBLK
  5
D5
330
D2
100
AcDbEntity
  8
0
100
AcDbBlockEnd
  0
BLOCK
  5
ED
330
EB
100
AcDbEntity
  8
0
100
AcDbBlockBegin
  2
block 9
 70
     0
 71
     0
 10
0.0
 20
0.0
 30
0.0
  3
block 9
  1

  0
POLYLINE
  5
EF
330
EB
100
AcDbEntity
  8
\U+56FE\U+5C42 1
370
     0
100
AcDb2dPolyline
 66
     1
 10
0.0
 20
0.0
 30
0.0
  0
VERTEX
  5
F0
330
EF
100
AcDbEntity
  8
\U+56FE\U+5C42 1
370
     0
100
AcDbVertex
100
AcDb2dVertex
 10
375.5
 20
466.5
 30
0.0
  0
VERTEX
  5
F1
330
EF
100
AcDbEntity
  8
\U+56FE\U+5C42 1
370
     0
100
AcDbVertex
100
AcDb2dVertex
 10
375.5
 20
326.5
 30
0.0
  0
VERTEX
  5
F2
330
EF
100
AcDbEntity
  8
\U+56FE\U+5C42 1
370
     0
100
AcDbVertex
100
AcDb2dVertex
 10
235.5
 20
326.5
 30
0.0
  0
VERTEX
  5
F3
330
EF
100
AcDbEntity
  8
\U+56FE\U+5C42 1
370
     0
100
AcDbVertex
100
AcDb2dVertex
 10
235.5
 20
466.5
 30
0.0
  0
VERTEX
  5
F4
330
EF
100
AcDbEntity
  8
\U+56FE\U+5C42 1
370
     0
100
AcDbVertex
100
AcDb2dVertex
 10
375.5
 20
466.5
 30
0.0
  0
SEQEND
  5
F5
330
EF
100
AcDbEntity
  8
\U+56FE\U+5C42 1
370
     0
  0
POLYLINE
  5
F6
330
EB
100
AcDbEntity
  8
\U+56FE\U+5C42 1
370
     0
100
AcDb2dPolyline
 66
     1
 10
0.0
 20
0.0
 30
0.0
  0
VERTEX
  5
F7
330
F6
100
AcDbEntity
  8
\U+56FE\U+5C42 1
370
     0
100
AcDbVertex
100
AcDb2dVertex
 10
305.5
 20
425.36767578125
 30
0.0
  0
VERTEX
  5
F8
330
F6
100
AcDbEntity
  8
\U+56FE\U+5C42 1
370
     0
100
AcDbVertex
100
AcDb2dVertex
 10
300.9375
 20
422.7333984375
 30
0.0
  0
VERTEX
  5
F9
330
F6
100
AcDbEntity
  8
\U+56FE\U+5C42 1
370
     0
100
AcDbVertex
100
AcDb2dVertex
 10
280.5
 20
410.93359375
 30
0.0
  0
VERTEX
  5
FA
330
F6
100
AcDbEntity
  8
\U+56FE\U+5C42 1
370
     0
100
AcDbVertex
100
AcDb2dVertex
 10
280.5
 20
382.06640625
 30
0.0
  0
VERTEX
  5
FB
330
F6
100
AcDbEntity
  8
\U+56FE\U+5C42 1
370
     0
100
AcDbVertex
100
AcDb2dVertex
 10
285.0625
 20
379.431640625
 30
0.0
  0
VERTEX
  5
FC
330
F6
100
AcDbEntity
  8
\U+56FE\U+5C42 1
370
     0
100
AcDbVertex
100
AcDb2dVertex
 10
305.5
 20
367.6328125
 30
0.0
  0
VERTEX
  5
FD
330
F6
100
AcDbEntity
  8
\U+56FE\U+5C42 1
370
     0
100
AcDbVertex
100
AcDb2dVertex
 10
310.0625
 20
370.2666015625
 30
0.0
  0
VERTEX
  5
FE
330
F6
100
AcDbEntity
  8
\U+56FE\U+5C42 1
370
     0
100
AcDbVertex
100
AcDb2dVertex
 10
330.5
 20
382.06640625
 30
0.0
  0
VERTEX
  5
FF
330
F6
100
AcDbEntity
  8
\U+56FE\U+5C42 1
370
     0
100
AcDbVertex
100
AcDb2dVertex
 10
330.5
 20
410.93359375
 30
0.0
  0
VERTEX
  5
100
330
F6
100
AcDbEntity
  8
\U+56FE\U+5C42 1
370
     0
100
AcDbVertex
100
AcDb2dVertex
 10
325.9375
 20
413.56787109375
 30
0.0
  0
VERTEX
  5
101
330
F6
100
AcDbEntity
  8
\U+56FE\U+5C42 1
370
     0
100
AcDbVertex
100
AcDb2dVertex
 10
305.5
 20
425.36767578125
 30
0.0
  0
SEQEND
  5
102
330
F6
100
AcDbEntity
  8
\U+56FE\U+5C42 1
370
     0
  0
HATCH
  5
103
330
EB
100
AcDbEntity
  8
\U+56FE\U+5C42 1
 62
     7
100
AcDbHatch
 10
0.0
 20
0.0
 30
0.0
210
0.0
220
0.0
230
1.0
  2
SOLID
 70
     1
 71
     0
 91
        1
 92
        1
 93
       10
 72
     1
 10
305.5
 20
425.36767578125
 11
300.9375
 21
422.7333984375
 72
     1
 10
300.9375
 20
422.7333984375
 11
280.5
 21
410.93359375
 72
     1
 10
280.5
 20
410.93359375
 11
280.5
 21
382.06640625
 72
     1
 10
280.5
 20
382.06640625
 11
285.0625
 21
379.431640625
 72
     1
 10
285.0625
 20
379.431640625
 11
305.5
 21
367.6328125
 72
     1
 10
305.5
 20
367.6328125
 11
310.0625
 21
370.2666015625
 72
     1
 10
310.0625
 20
370.2666015625
 11
330.5
 21
382.06640625
 72
     1
 10
330.5
 20
382.06640625
 11
330.5
 21
410.93359375
 72
     1
 10
330.5
 20
410.93359375
 11
325.9375
 21
413.56787109375
 72
     1
 10
325.9375
 20
413.56787109375
 11
305.5
 21
425.36767578125
 97
        0
 75
     2
 76
     1
 98
        0
  0
ENDBLK
  5
EE
330
EB
100
AcDbEntity
  8
0
100
AcDbBlockEnd
  0
BLOCK
  5
106
330
104
100
AcDbEntity
  8
0
100
AcDbBlockBegin
  2
block 10
 70
     0
 71
     0
 10
0.0
 20
0.0
 30
0.0
  3
block 10
  1

  0
POLYLINE
  5
108
330
104
100
AcDbEntity
  8
\U+56FE\U+5C42 1
370
     0
100
AcDb2dPolyline
 66
     1
 10
0.0
 20
0.0
 30
0.0
  0
VERTEX
  5
109
330
108
100
AcDbEntity
  8
\U+56FE\U+5C42 1
370
     0
100
AcDbVertex
100
AcDb2dVertex
 10
375.5
 20
466.5
 30
0.0
  0
VERTEX
  5
10A
330
108
100
AcDbEntity
  8
\U+56FE\U+5C42 1
370
     0
100
AcDbVertex
100
AcDb2dVertex
 10
375.5
 20
326.5
 30
0.0
  0
VERTEX
  5
10B
330
108
100
AcDbEntity
  8
\U+56FE\U+5C42 1
370
     0
100
AcDbVertex
100
AcDb2dVertex
 10
235.5
 20
326.5
 30
0.0
  0
VERTEX
  5
10C
330
108
100
AcDbEntity
  8
\U+56FE\U+5C42 1
370
     0
100
AcDbVertex
100
AcDb2dVertex
 10
235.5
 20
466.5
 30
0.0
  0
VERTEX
  5
10D
330
108
100
AcDbEntity
  8
\U+56FE\U+5C42 1
370
     0
100
AcDbVertex
100
AcDb2dVertex
 10
375.5
 20
466.5
 30
0.0
  0
SEQEND
  5
10E
330
108
100
AcDbEntity
  8
\U+56FE\U+5C42 1
370
     0
  0
POLYLINE
  5
10F
330
104
100
AcDbEntity
  8
\U+56FE\U+5C42 1
370
     0
100
AcDb2dPolyline
 66
     1
 10
0.0
 20
0.0
 30
0.0
  0
VERTEX
  5
110
330
10F
100
AcDbEntity
  8
\U+56FE\U+5C42 1
370
     0
100
AcDbVertex
100
AcDb2dVertex
 10
305.5
 20
425.36767578125
 30
0.0
  0
VERTEX
  5
111
330
10F
100
AcDbEntity
  8
\U+56FE\U+5C42 1
370
     0
100
AcDbVertex
100
AcDb2dVertex
 10
300.3125
 20
422.37255859375
 30
0.0
  0
VERTEX
  5
112
330
10F
100
AcDbEntity
  8
\U+56FE\U+5C42 1
370
     0
100
AcDbVertex
100
AcDb2dVertex
 10
280.5
 20
410.93359375
 30
0.0
  0
VERTEX
  5
113
330
10F
100
AcDbEntity
  8
\U+56FE\U+5C42 1
370
     0
100
AcDbVertex
100
AcDb2dVertex
 10
280.5
 20
382.06640625
 30
0.0
  0
VERTEX
  5
114
330
10F
100
AcDbEntity
  8
\U+56FE\U+5C42 1
370
     0
100
AcDbVertex
100
AcDb2dVertex
 10
285.6875
 20
379.0712890625
 30
0.0
  0
VERTEX
  5
115
330
10F
100
AcDbEntity
  8
\U+56FE\U+5C42 1
370
     0
100
AcDbVertex
100
AcDb2dVertex
 10
305.5
 20
367.6328125
 30
0.0
  0
VERTEX
  5
116
330
10F
100
AcDbEntity
  8
\U+56FE\U+5C42 1
370
     0
100
AcDbVertex
100
AcDb2dVertex
 10
310.6875
 20
370.626953125
 30
0.0
  0
VERTEX
  5
117
330
10F
100
AcDbEntity
  8
\U+56FE\U+5C42 1
370
     0
100
AcDbVertex
100
AcDb2dVertex
 10
330.5
 20
382.06640625
 30
0.0
  0
VERTEX
  5
118
330
10F
100
AcDbEntity
  8
\U+56FE\U+5C42 1
370
     0
100
AcDbVertex
100
AcDb2dVertex
 10
330.5
 20
410.93359375
 30
0.0
  0
VERTEX
  5
119
330
10F
100
AcDbEntity
  8
\U+56FE\U+5C42 1
370
     0
100
AcDbVertex
100
AcDb2dVertex
 10
325.3125
 20
413.9287109375
 30
0.0
  0
VERTEX
  5
11A
330
10F
100
AcDbEntity
  8
\U+56FE\U+5C42 1
370
     0
100
AcDbVertex
100
AcDb2dVertex
 10
305.5
 20
425.36767578125
 30
0.0
  0
SEQEND
  5
11B
330
10F
100
AcDbEntity
  8
\U+56FE\U+5C42 1
370
     0
  0
HATCH
  5
11C
330
104
100
AcDbEntity
  8
\U+56FE\U+5C42 1
 62
     7
100
AcDbHatch
 10
0.0
 20
0.0
 30
0.0
210
0.0
220
0.0
230
1.0
  2
SOLID
 70
     1
 71
     0
 91
        1
 92
        1
 93
       10
 72
     1
 10
305.5
 20
425.36767578125
 11
300.3125
 21
422.37255859375
 72
     1
 10
300.3125
 20
422.37255859375
 11
280.5
 21
410.93359375
 72
     1
 10
280.5
 20
410.93359375
 11
280.5
 21
382.06640625
 72
     1
 10
280.5
 20
382.06640625
 11
285.6875
 21
379.0712890625
 72
     1
 10
285.6875
 20
379.0712890625
 11
305.5
 21
367.6328125
 72
     1
 10
305.5
 20
367.6328125
 11
310.6875
 21
370.626953125
 72
     1
 10
310.6875
 20
370.626953125
 11
330.5
 21
382.06640625
 72
     1
 10
330.5
 20
382.06640625
 11
330.5
 21
410.93359375
 72
     1
 10
330.5
 20
410.93359375
 11
325.3125
 21
413.9287109375
 72
     1
 10
325.3125
 20
413.9287109375
 11
305.5
 21
425.36767578125
 97
        0
 75
     2
 76
     1
 98
        0
  0
ENDBLK
  5
107
330
104
100
AcDbEntity
  8
0
100
AcDbBlockEnd
  0
BLOCK
  5
11F
330
11D
100
AcDbEntity
  8
0
100
AcDbBlockBegin
  2
block 11
 70
     0
 71
     0
 10
0.0
 20
0.0
 30
0.0
  3
block 11
  1

  0
POLYLINE
  5
121
330
11D
100
AcDbEntity
  8
\U+56FE\U+5C42 1
370
     0
100
AcDb2dPolyline
 66
     1
 10
0.0
 20
0.0
 30
0.0
  0
VERTEX
  5
122
330
121
100
AcDbEntity
  8
\U+56FE\U+5C42 1
370
     0
100
AcDbVertex
100
AcDb2dVertex
 10
375.5
 20
466.5
 30
0.0
  0
VERTEX
  5
123
330
121
100
AcDbEntity
  8
\U+56FE\U+5C42 1
370
     0
100
AcDbVertex
100
AcDb2dVertex
 10
375.5
 20
326.5
 30
0.0
  0
VERTEX
  5
124
330
121
100
AcDbEntity
  8
\U+56FE\U+5C42 1
370
     0
100
AcDbVertex
100
AcDb2dVertex
 10
235.5
 20
326.5
 30
0.0
  0
VERTEX
  5
125
330
121
100
AcDbEntity
  8
\U+56FE\U+5C42 1
370
     0
100
AcDbVertex
100
AcDb2dVertex
 10
235.5
 20
466.5
 30
0.0
  0
VERTEX
  5
126
330
121
100
AcDbEntity
  8
\U+56FE\U+5C42 1
370
     0
100
AcDbVertex
100
AcDb2dVertex
 10
375.5
 20
466.5
 30
0.0
  0
SEQEND
  5
127
330
121
100
AcDbEntity
  8
\U+56FE\U+5C42 1
370
     0
  0
POLYLINE
  5
128
330
11D
100
AcDbEntity
  8
\U+56FE\U+5C42 1
370
     0
100
AcDb2dPolyline
 66
     1
 10
0.0
 20
0.0
 30
0.0
  0
VERTEX
  5
129
330
128
100
AcDbEntity
  8
\U+56FE\U+5C42 1
370
     0
100
AcDbVertex
100
AcDb2dVertex
 10
305.5
 20
425.36767578125
 30
0.0
  0
VERTEX
  5
12A
330
128
100
AcDbEntity
  8
\U+56FE\U+5C42 1
370
     0
100
AcDbVertex
100
AcDb2dVertex
 10
299.6875
 20
422.01171875
 30
0.0
  0
VERTEX
  5
12B
330
128
100
AcDbEntity
  8
\U+56FE\U+5C42 1
370
     0
100
AcDbVertex
100
AcDb2dVertex
 10
280.5
 20
410.93359375
 30
0.0
  0
VERTEX
  5
12C
330
128
100
AcDbEntity
  8
\U+56FE\U+5C42 1
370
     0
100
AcDbVertex
100
AcDb2dVertex
 10
280.5
 20
382.06640625
 30
0.0
  0
VERTEX
  5
12D
330
128
100
AcDbEntity
  8
\U+56FE\U+5C42 1
370
     0
100
AcDbVertex
100
AcDb2dVertex
 10
286.3125
 20
378.7109375
 30
0.0
  0
VERTEX
  5
12E
330
128
100
AcDbEntity
  8
\U+56FE\U+5C42 1
370
     0
100
AcDbVertex
100
AcDb2dVertex
 10
305.5
 20
367.6328125
 30
0.0
  0
VERTEX
  5
12F
330
128
100
AcDbEntity
  8
\U+56FE\U+5C42 1
370
     0
100
AcDbVertex
100
AcDb2dVertex
 10
311.3125
 20
370.98828125
 30
0.0
  0
VERTEX
  5
130
330
128
100
AcDbEntity
  8
\U+56FE\U+5C42 1
370
     0
100
AcDbVertex
100
AcDb2dVertex
 10
330.5
 20
382.06640625
 30
0.0
  0
VERTEX
  5
131
330
128
100
AcDbEntity
  8
\U+56FE\U+5C42 1
370
     0
100
AcDbVertex
100
AcDb2dVertex
 10
330.5
 20
410.93359375
 30
0.0
  0
VERTEX
  5
132
330
128
100
AcDbEntity
  8
\U+56FE\U+5C42 1
370
     0
100
AcDbVertex
100
AcDb2dVertex
 10
324.6875
 20
414.28955078125
 30
0.0
  0
VERTEX
  5
133
330
128
100
AcDbEntity
  8
\U+56FE\U+5C42 1
370
     0
100
AcDbVertex
100
AcDb2dVertex
 10
305.5
 20
425.36767578125
 30
0.0
  0
SEQEND
  5
134
330
128
100
AcDbEntity
  8
\U+56FE\U+5C42 1
370
     0
  0
HATCH
  5
135
330
11D
100
AcDbEntity
  8
\U+56FE\U+5C42 1
 62
     7
100
AcDbHatch
 10
0.0
 20
0.0
 30
0.0
210
0.0
220
0.0
230
1.0
  2
SOLID
 70
     1
 71
     0
 91
        1
 92
        1
 93
       10
 72
     1
 10
305.5
 20
425.36767578125
 11
299.6875
 21
422.01171875
 72
     1
 10
299.6875
 20
422.01171875
 11
280.5
 21
410.93359375
 72
     1
 10
280.5
 20
410.93359375
 11
280.5
 21
382.06640625
 72
     1
 10
280.5
 20
382.06640625
 11
286.3125
 21
378.7109375
 72
     1
 10
286.3125
 20
378.7109375
 11
305.5
 21
367.6328125
 72
     1
 10
305.5
 20
367.6328125
 11
311.3125
 21
370.98828125
 72
     1
 10
311.3125
 20
370.98828125
 11
330.5
 21
382.06640625
 72
     1
 10
330.5
 20
382.06640625
 11
330.5
 21
410.93359375
 72
     1
 10
330.5
 20
410.93359375
 11
324.6875
 21
414.28955078125
 72
     1
 10
324.6875
 20
414.28955078125
 11
305.5
 21
425.36767578125
 97
        0
 75
     2
 76
     1
 98
        0
  0
ENDBLK
  5
120
330
11D
100
AcDbEntity
  8
0
100
AcDbBlockEnd
  0
BLOCK
  5
138
330
136
100
AcDbEntity
  8
0
100
AcDbBlockBegin
  2
block 12
 70
     0
 71
     0
 10
0.0
 20
0.0
 30
0.0
  3
block 12
  1

  0
POLYLINE
  5
13A
330
136
100
AcDbEntity
  8
\U+56FE\U+5C42 1
370
     0
100
AcDb2dPolyline
 66
     1
 10
0.0
 20
0.0
 30
0.0
  0
VERTEX
  5
13B
330
13A
100
AcDbEntity
  8
\U+56FE\U+5C42 1
370
     0
100
AcDbVertex
100
AcDb2dVertex
 10
375.5
 20
466.5
 30
0.0
  0
VERTEX
  5
13C
330
13A
100
AcDbEntity
  8
\U+56FE\U+5C42 1
370
     0
100
AcDbVertex
100
AcDb2dVertex
 10
375.5
 20
326.5
 30
0.0
  0
VERTEX
  5
13D
330
13A
100
AcDbEntity
  8
\U+56FE\U+5C42 1
370
     0
100
AcDbVertex
100
AcDb2dVertex
 10
235.5
 20
326.5
 30
0.0
  0
VERTEX
  5
13E
330
13A
100
AcDbEntity
  8
\U+56FE\U+5C42 1
370
     0
100
AcDbVertex
100
AcDb2dVertex
 10
235.5
 20
466.5
 30
0.0
  0
VERTEX
  5
13F
330
13A
100
AcDbEntity
  8
\U+56FE\U+5C42 1
370
     0
100
AcDbVertex
100
AcDb2dVertex
 10
375.5
 20
466.5
 30
0.0
  0
SEQEND
  5
140
330
13A
100
AcDbEntity
  8
\U+56FE\U+5C42 1
370
     0
  0
POLYLINE
  5
141
330
136
100
AcDbEntity
  8
\U+56FE\U+5C42 1
370
     0
100
AcDb2dPolyline
 66
     1
 10
0.0
 20
0.0
 30
0.0
  0
VERTEX
  5
142
330
141
100
AcDbEntity
  8
\U+56FE\U+5C42 1
370
     0
100
AcDbVertex
100
AcDb2dVertex
 10
305.5
 20
425.36767578125
 30
0.0
  0
VERTEX
  5
143
330
141
100
AcDbEntity
  8
\U+56FE\U+5C42 1
370
     0
100
AcDbVertex
100
AcDb2dVertex
 10
299.0625
 20
421.65087890625
 30
0.0
  0
VERTEX
  5
144
330
141
100
AcDbEntity
  8
\U+56FE\U+5C42 1
370
     0
100
AcDbVertex
100
AcDb2dVertex
 10
280.5
 20
410.93359375
 30
0.0
  0
VERTEX
  5
145
330
141
100
AcDbEntity
  8
\U+56FE\U+5C42 1
370
     0
100
AcDbVertex
100
AcDb2dVertex
 10
280.5
 20
382.06640625
 30
0.0
  0
VERTEX
  5
146
330
141
100
AcDbEntity
  8
\U+56FE\U+5C42 1
370
     0
100
AcDbVertex
100
AcDb2dVertex
 10
286.9375
 20
378.349609375
 30
0.0
  0
VERTEX
  5
147
330
141
100
AcDbEntity
  8
\U+56FE\U+5C42 1
370
     0
100
AcDbVertex
100
AcDb2dVertex
 10
305.5
 20
367.6328125
 30
0.0
  0
VERTEX
  5
148
330
141
100
AcDbEntity
  8
\U+56FE\U+5C42 1
370
     0
100
AcDbVertex
100
AcDb2dVertex
 10
311.9375
 20
371.349609375
 30
0.0
  0
VERTEX
  5
149
330
141
100
AcDbEntity
  8
\U+56FE\U+5C42 1
370
     0
100
AcDbVertex
100
AcDb2dVertex
 10
330.5
 20
382.06640625
 30
0.0
  0
VERTEX
  5
14A
330
141
100
AcDbEntity
  8
\U+56FE\U+5C42 1
370
     0
100
AcDbVertex
100
AcDb2dVertex
 10
330.5
 20
410.93359375
 30
0.0
  0
VERTEX
  5
14B
330
141
100
AcDbEntity
  8
\U+56FE\U+5C42 1
370
     0
100
AcDbVertex
100
AcDb2dVertex
 10
324.0625
 20
414.650390625
 30
0.0
  0
VERTEX
  5
14C
330
141
100
AcDbEntity
  8
\U+56FE\U+5C42 1
370
     0
100
AcDbVertex
100
AcDb2dVertex
 10
305.5
 20
425.36767578125
 30
0.0
  0
SEQEND
  5
14D
330
141
100
AcDbEntity
  8
\U+56FE\U+5C42 1
370
     0
  0
HATCH
  5
14E
330
136
100
AcDbEntity
  8
\U+56FE\U+5C42 1
 62
     7
100
AcDbHatch
 10
0.0
 20
0.0
 30
0.0
210
0.0
220
0.0
230
1.0
  2
SOLID
 70
     1
 71
     0
 91
        1
 92
        1
 93
       10
 72
     1
 10
305.5
 20
425.36767578125
 11
299.0625
 21
421.65087890625
 72
     1
 10
299.0625
 20
421.65087890625
 11
280.5
 21
410.93359375
 72
     1
 10
280.5
 20
410.93359375
 11
280.5
 21
382.06640625
 72
     1
 10
280.5
 20
382.06640625
 11
286.9375
 21
378.349609375
 72
     1
 10
286.9375
 20
378.349609375
 11
305.5
 21
367.6328125
 72
     1
 10
305.5
 20
367.6328125
 11
311.9375
 21
371.349609375
 72
     1
 10
311.9375
 20
371.349609375
 11
330.5
 21
382.06640625
 72
     1
 10
330.5
 20
382.06640625
 11
330.5
 21
410.93359375
 72
     1
 10
330.5
 20
410.93359375
 11
324.0625
 21
414.650390625
 72
     1
 10
324.0625
 20
414.650390625
 11
305.5
 21
425.36767578125
 97
        0
 75
     2
 76
     1
 98
        0
  0
ENDBLK
  5
139
330
136
100
AcDbEntity
  8
0
100
AcDbBlockEnd
  0
BLOCK
  5
151
330
14F
100
AcDbEntity
  8
0
100
AcDbBlockBegin
  2
block 13
 70
     0
 71
     0
 10
0.0
 20
0.0
 30
0.0
  3
block 13
  1

  0
POLYLINE
  5
153
330
14F
100
AcDbEntity
  8
\U+56FE\U+5C42 1
370
     0
100
AcDb2dPolyline
 66
     1
 10
0.0
 20
0.0
 30
0.0
  0
VERTEX
  5
154
330
153
100
AcDbEntity
  8
\U+56FE\U+5C42 1
370
     0
100
AcDbVertex
100
AcDb2dVertex
 10
375.5
 20
466.5
 30
0.0
  0
VERTEX
  5
155
330
153
100
AcDbEntity
  8
\U+56FE\U+5C42 1
370
     0
100
AcDbVertex
100
AcDb2dVertex
 10
375.5
 20
326.5
 30
0.0
  0
VERTEX
  5
156
330
153
100
AcDbEntity
  8
\U+56FE\U+5C42 1
370
     0
100
AcDbVertex
100
AcDb2dVertex
 10
235.5
 20
326.5
 30
0.0
  0
VERTEX
  5
157
330
153
100
AcDbEntity
  8
\U+56FE\U+5C42 1
370
     0
100
AcDbVertex
100
AcDb2dVertex
 10
235.5
 20
466.5
 30
0.0
  0
VERTEX
  5
158
330
153
100
AcDbEntity
  8
\U+56FE\U+5C42 1
370
     0
100
AcDbVertex
100
AcDb2dVertex
 10
375.5
 20
466.5
 30
0.0
  0
SEQEND
  5
159
330
153
100
AcDbEntity
  8
\U+56FE\U+5C42 1
370
     0
  0
POLYLINE
  5
15A
330
14F
100
AcDbEntity
  8
\U+56FE\U+5C42 1
370
     0
100
AcDb2dPolyline
 66
     1
 10
0.0
 20
0.0
 30
0.0
  0
VERTEX
  5
15B
330
15A
100
AcDbEntity
  8
\U+56FE\U+5C42 1
370
     0
100
AcDbVertex
100
AcDb2dVertex
 10
305.5
 20
425.36767578125
 30
0.0
  0
VERTEX
  5
15C
330
15A
100
AcDbEntity
  8
\U+56FE\U+5C42 1
370
     0
100
AcDbVertex
100
AcDb2dVertex
 10
298.4375
 20
421.2900390625
 30
0.0
  0
VERTEX
  5
15D
330
15A
100
AcDbEntity
  8
\U+56FE\U+5C42 1
370
     0
100
AcDbVertex
100
AcDb2dVertex
 10
280.5
 20
410.93359375
 30
0.0
  0
VERTEX
  5
15E
330
15A
100
AcDbEntity
  8
\U+56FE\U+5C42 1
370
     0
100
AcDbVertex
100
AcDb2dVertex
 10
280.5
 20
382.06640625
 30
0.0
  0
VERTEX
  5
15F
330
15A
100
AcDbEntity
  8
\U+56FE\U+5C42 1
370
     0
100
AcDbVertex
100
AcDb2dVertex
 10
287.5625
 20
377.98828125
 30
0.0
  0
VERTEX
  5
160
330
15A
100
AcDbEntity
  8
\U+56FE\U+5C42 1
370
     0
100
AcDbVertex
100
AcDb2dVertex
 10
305.5
 20
367.6328125
 30
0.0
  0
VERTEX
  5
161
330
15A
100
AcDbEntity
  8
\U+56FE\U+5C42 1
370
     0
100
AcDbVertex
100
AcDb2dVertex
 10
312.5625
 20
371.7099609375
 30
0.0
  0
VERTEX
  5
162
330
15A
100
AcDbEntity
  8
\U+56FE\U+5C42 1
370
     0
100
AcDbVertex
100
AcDb2dVertex
 10
330.5
 20
382.06640625
 30
0.0
  0
VERTEX
  5
163
330
15A
100
AcDbEntity
  8
\U+56FE\U+5C42 1
370
     0
100
AcDbVertex
100
AcDb2dVertex
 10
330.5
 20
410.93359375
 30
0.0
  0
VERTEX
  5
164
330
15A
100
AcDbEntity
  8
\U+56FE\U+5C42 1
370
     0
100
AcDbVertex
100
AcDb2dVertex
 10
323.4375
 20
415.01123046875
 30
0.0
  0
VERTEX
  5
165
330
15A
100
AcDbEntity
  8
\U+56FE\U+5C42 1
370
     0
100
AcDbVertex
100
AcDb2dVertex
 10
305.5
 20
425.36767578125
 30
0.0
  0
SEQEND
  5
166
330
15A
100
AcDbEntity
  8
\U+56FE\U+5C42 1
370
     0
  0
HATCH
  5
167
330
14F
100
AcDbEntity
  8
\U+56FE\U+5C42 1
 62
     7
100
AcDbHatch
 10
0.0
 20
0.0
 30
0.0
210
0.0
220
0.0
230
1.0
  2
SOLID
 70
     1
 71
     0
 91
        1
 92
        1
 93
       10
 72
     1
 10
305.5
 20
425.36767578125
 11
298.4375
 21
421.2900390625
 72
     1
 10
298.4375
 20
421.2900390625
 11
280.5
 21
410.93359375
 72
     1
 10
280.5
 20
410.93359375
 11
280.5
 21
382.06640625
 72
     1
 10
280.5
 20
382.06640625
 11
287.5625
 21
377.98828125
 72
     1
 10
287.5625
 20
377.98828125
 11
305.5
 21
367.6328125
 72
     1
 10
305.5
 20
367.6328125
 11
312.5625
 21
371.7099609375
 72
     1
 10
312.5625
 20
371.7099609375
 11
330.5
 21
382.06640625
 72
     1
 10
330.5
 20
382.06640625
 11
330.5
 21
410.93359375
 72
     1
 10
330.5
 20
410.93359375
 11
323.4375
 21
415.01123046875
 72
     1
 10
323.4375
 20
415.01123046875
 11
305.5
 21
425.36767578125
 97
        0
 75
     2
 76
     1
 98
        0
  0
ENDBLK
  5
152
330
14F
100
AcDbEntity
  8
0
100
AcDbBlockEnd
  0
BLOCK
  5
16A
330
168
100
AcDbEntity
  8
0
100
AcDbBlockBegin
  2
block 14
 70
     0
 71
     0
 10
0.0
 20
0.0
 30
0.0
  3
block 14
  1

  0
POLYLINE
  5
16C
330
168
100
AcDbEntity
  8
\U+56FE\U+5C42 1
370
     0
100
AcDb2dPolyline
 66
     1
 10
0.0
 20
0.0
 30
0.0
  0
VERTEX
  5
16D
330
16C
100
AcDbEntity
  8
\U+56FE\U+5C42 1
370
     0
100
AcDbVertex
100
AcDb2dVertex
 10
375.5
 20
466.5
 30
0.0
  0
VERTEX
  5
16E
330
16C
100
AcDbEntity
  8
\U+56FE\U+5C42 1
370
     0
100
AcDbVertex
100
AcDb2dVertex
 10
375.5
 20
326.5
 30
0.0
  0
VERTEX
  5
16F
330
16C
100
AcDbEntity
  8
\U+56FE\U+5C42 1
370
     0
100
AcDbVertex
100
AcDb2dVertex
 10
235.5
 20
326.5
 30
0.0
  0
VERTEX
  5
170
330
16C
100
AcDbEntity
  8
\U+56FE\U+5C42 1
370
     0
100
AcDbVertex
100
AcDb2dVertex
 10
235.5
 20
466.5
 30
0.0
  0
VERTEX
  5
171
330
16C
100
AcDbEntity
  8
\U+56FE\U+5C42 1
370
     0
100
AcDbVertex
100
AcDb2dVertex
 10
375.5
 20
466.5
 30
0.0
  0
SEQEND
  5
172
330
16C
100
AcDbEntity
  8
\U+56FE\U+5C42 1
370
     0
  0
POLYLINE
  5
173
330
168
100
AcDbEntity
  8
\U+56FE\U+5C42 1
370
     0
100
AcDb2dPolyline
 66
     1
 10
0.0
 20
0.0
 30
0.0
  0
VERTEX
  5
174
330
173
100
AcDbEntity
  8
\U+56FE\U+5C42 1
370
     0
100
AcDbVertex
100
AcDb2dVertex
 10
305.5
 20
425.36767578125
 30
0.0
  0
VERTEX
  5
175
330
173
100
AcDbEntity
  8
\U+56FE\U+5C42 1
370
     0
100
AcDbVertex
100
AcDb2dVertex
 10
297.8125
 20
420.92919921875
 30
0.0
  0
VERTEX
  5
176
330
173
100
AcDbEntity
  8
\U+56FE\U+5C42 1
370
     0
100
AcDbVertex
100
AcDb2dVertex
 10
280.5
 20
410.93359375
 30
0.0
  0
VERTEX
  5
177
330
173
100
AcDbEntity
  8
\U+56FE\U+5C42 1
370
     0
100
AcDbVertex
100
AcDb2dVertex
 10
280.5
 20
382.06640625
 30
0.0
  0
VERTEX
  5
178
330
173
100
AcDbEntity
  8
\U+56FE\U+5C42 1
370
     0
100
AcDbVertex
100
AcDb2dVertex
 10
288.1875
 20
377.6279296875
 30
0.0
  0
VERTEX
  5
179
330
173
100
AcDbEntity
  8
\U+56FE\U+5C42 1
370
     0
100
AcDbVertex
100
AcDb2dVertex
 10
305.5
 20
367.6328125
 30
0.0
  0
VERTEX
  5
17A
330
173
100
AcDbEntity
  8
\U+56FE\U+5C42 1
370
     0
100
AcDbVertex
100
AcDb2dVertex
 10
313.1875
 20
372.0703125
 30
0.0
  0
VERTEX
  5
17B
330
173
100
AcDbEntity
  8
\U+56FE\U+5C42 1
370
     0
100
AcDbVertex
100
AcDb2dVertex
 10
330.5
 20
382.06640625
 30
0.0
  0
VERTEX
  5
17C
330
173
100
AcDbEntity
  8
\U+56FE\U+5C42 1
370
     0
100
AcDbVertex
100
AcDb2dVertex
 10
330.5
 20
410.93359375
 30
0.0
  0
VERTEX
  5
17D
330
173
100
AcDbEntity
  8
\U+56FE\U+5C42 1
370
     0
100
AcDbVertex
100
AcDb2dVertex
 10
322.8125
 20
415.3720703125
 30
0.0
  0
VERTEX
  5
17E
330
173
100
AcDbEntity
  8
\U+56FE\U+5C42 1
370
     0
100
AcDbVertex
100
AcDb2dVertex
 10
305.5
 20
425.36767578125
 30
0.0
  0
SEQEND
  5
17F
330
173
100
AcDbEntity
  8
\U+56FE\U+5C42 1
370
     0
  0
HATCH
  5
180
330
168
100
AcDbEntity
  8
\U+56FE\U+5C42 1
 62
     7
100
AcDbHatch
 10
0.0
 20
0.0
 30
0.0
210
0.0
220
0.0
230
1.0
  2
SOLID
 70
     1
 71
     0
 91
        1
 92
        1
 93
       10
 72
     1
 10
305.5
 20
425.36767578125
 11
297.8125
 21
420.92919921875
 72
     1
 10
297.8125
 20
420.92919921875
 11
280.5
 21
410.93359375
 72
     1
 10
280.5
 20
410.93359375
 11
280.5
 21
382.06640625
 72
     1
 10
280.5
 20
382.06640625
 11
288.1875
 21
377.6279296875
 72
     1
 10
288.1875
 20
377.6279296875
 11
305.5
 21
367.6328125
 72
     1
 10
305.5
 20
367.6328125
 11
313.1875
 21
372.0703125
 72
     1
 10
313.1875
 20
372.0703125
 11
330.5
 21
382.06640625
 72
     1
 10
330.5
 20
382.06640625
 11
330.5
 21
410.93359375
 72
     1
 10
330.5
 20
410.93359375
 11
322.8125
 21
415.3720703125
 72
     1
 10
322.8125
 20
415.3720703125
 11
305.5
 21
425.36767578125
 97
        0
 75
     2
 76
     1
 98
        0
  0
ENDBLK
  5
16B
330
168
100
AcDbEntity
  8
0
100
AcDbBlockEnd
  0
BLOCK
  5
183
330
181
100
AcDbEntity
  8
0
100
AcDbBlockBegin
  2
block 15
 70
     0
 71
     0
 10
0.0
 20
0.0
 30
0.0
  3
block 15
  1

  0
POLYLINE
  5
185
330
181
100
AcDbEntity
  8
\U+56FE\U+5C42 1
370
     0
100
AcDb2dPolyline
 66
     1
 10
0.0
 20
0.0
 30
0.0
  0
VERTEX
  5
186
330
185
100
AcDbEntity
  8
\U+56FE\U+5C42 1
370
     0
100
AcDbVertex
100
AcDb2dVertex
 10
375.5
 20
466.5
 30
0.0
  0
VERTEX
  5
187
330
185
100
AcDbEntity
  8
\U+56FE\U+5C42 1
370
     0
100
AcDbVertex
100
AcDb2dVertex
 10
375.5
 20
326.5
 30
0.0
  0
VERTEX
  5
188
330
185
100
AcDbEntity
  8
\U+56FE\U+5C42 1
370
     0
100
AcDbVertex
100
AcDb2dVertex
 10
235.5
 20
326.5
 30
0.0
  0
VERTEX
  5
189
330
185
100
AcDbEntity
  8
\U+56FE\U+5C42 1
370
     0
100
AcDbVertex
100
AcDb2dVertex
 10
235.5
 20
466.5
 30
0.0
  0
VERTEX
  5
18A
330
185
100
AcDbEntity
  8
\U+56FE\U+5C42 1
370
     0
100
AcDbVertex
100
AcDb2dVertex
 10
375.5
 20
466.5
 30
0.0
  0
SEQEND
  5
18B
330
185
100
AcDbEntity
  8
\U+56FE\U+5C42 1
370
     0
  0
POLYLINE
  5
18C
330
181
100
AcDbEntity
  8
\U+56FE\U+5C42 1
370
     0
100
AcDb2dPolyline
 66
     1
 10
0.0
 20
0.0
 30
0.0
  0
VERTEX
  5
18D
330
18C
100
AcDbEntity
  8
\U+56FE\U+5C42 1
370
     0
100
AcDbVertex
100
AcDb2dVertex
 10
305.5
 20
425.36767578125
 30
0.0
  0
VERTEX
  5
18E
330
18C
100
AcDbEntity
  8
\U+56FE\U+5C42 1
370
     0
100
AcDbVertex
100
AcDb2dVertex
 10
297.1875
 20
420.568359375
 30
0.0
  0
VERTEX
  5
18F
330
18C
100
AcDbEntity
  8
\U+56FE\U+5C42 1
370
     0
100
AcDbVertex
100
AcDb2dVertex
 10
280.5
 20
410.93359375
 30
0.0
  0
VERTEX
  5
190
330
18C
100
AcDbEntity
  8
\U+56FE\U+5C42 1
370
     0
100
AcDbVertex
100
AcDb2dVertex
 10
280.5
 20
382.06640625
 30
0.0
  0
VERTEX
  5
191
330
18C
100
AcDbEntity
  8
\U+56FE\U+5C42 1
370
     0
100
AcDbVertex
100
AcDb2dVertex
 10
288.8125
 20
377.267578125
 30
0.0
  0
VERTEX
  5
192
330
18C
100
AcDbEntity
  8
\U+56FE\U+5C42 1
370
     0
100
AcDbVertex
100
AcDb2dVertex
 10
305.5
 20
367.6328125
 30
0.0
  0
VERTEX
  5
193
330
18C
100
AcDbEntity
  8
\U+56FE\U+5C42 1
370
     0
100
AcDbVertex
100
AcDb2dVertex
 10
313.8125
 20
372.431640625
 30
0.0
  0
VERTEX
  5
194
330
18C
100
AcDbEntity
  8
\U+56FE\U+5C42 1
370
     0
100
AcDbVertex
100
AcDb2dVertex
 10
330.5
 20
382.06640625
 30
0.0
  0
VERTEX
  5
195
330
18C
100
AcDbEntity
  8
\U+56FE\U+5C42 1
370
     0
100
AcDbVertex
100
AcDb2dVertex
 10
330.5
 20
410.93359375
 30
0.0
  0
VERTEX
  5
196
330
18C
100
AcDbEntity
  8
\U+56FE\U+5C42 1
370
     0
100
AcDbVertex
100
AcDb2dVertex
 10
322.1875
 20
415.73291015625
 30
0.0
  0
VERTEX
  5
197
330
18C
100
AcDbEntity
  8
\U+56FE\U+5C42 1
370
     0
100
AcDbVertex
100
AcDb2dVertex
 10
305.5
 20
425.36767578125
 30
0.0
  0
SEQEND
  5
198
330
18C
100
AcDbEntity
  8
\U+56FE\U+5C42 1
370
     0
  0
HATCH
  5
199
330
181
100
AcDbEntity
  8
\U+56FE\U+5C42 1
 62
     7
100
AcDbHatch
 10
0.0
 20
0.0
 30
0.0
210
0.0
220
0.0
230
1.0
  2
SOLID
 70
     1
 71
     0
 91
        1
 92
        1
 93
       10
 72
     1
 10
305.5
 20
425.36767578125
 11
297.1875
 21
420.568359375
 72
     1
 10
297.1875
 20
420.568359375
 11
280.5
 21
410.93359375
 72
     1
 10
280.5
 20
410.93359375
 11
280.5
 21
382.06640625
 72
     1
 10
280.5
 20
382.06640625
 11
288.8125
 21
377.267578125
 72
     1
 10
288.8125
 20
377.267578125
 11
305.5
 21
367.6328125
 72
     1
 10
305.5
 20
367.6328125
 11
313.8125
 21
372.431640625
 72
     1
 10
313.8125
 20
372.431640625
 11
330.5
 21
382.06640625
 72
     1
 10
330.5
 20
382.06640625
 11
330.5
 21
410.93359375
 72
     1
 10
330.5
 20
410.93359375
 11
322.1875
 21
415.73291015625
 72
     1
 10
322.1875
 20
415.73291015625
 11
305.5
 21
425.36767578125
 97
        0
 75
     2
 76
     1
 98
        0
  0
ENDBLK
  5
184
330
181
100
AcDbEntity
  8
0
100
AcDbBlockEnd
  0
BLOCK
  5
19C
330
19A
100
AcDbEntity
  8
0
100
AcDbBlockBegin
  2
block 16
 70
     0
 71
     0
 10
0.0
 20
0.0
 30
0.0
  3
block 16
  1

  0
POLYLINE
  5
19E
330
19A
100
AcDbEntity
  8
\U+56FE\U+5C42 1
370
     0
100
AcDb2dPolyline
 66
     1
 10
0.0
 20
0.0
 30
0.0
  0
VERTEX
  5
19F
330
19E
100
AcDbEntity
  8
\U+56FE\U+5C42 1
370
     0
100
AcDbVertex
100
AcDb2dVertex
 10
375.5
 20
466.5
 30
0.0
  0
VERTEX
  5
1A0
330
19E
100
AcDbEntity
  8
\U+56FE\U+5C42 1
370
     0
100
AcDbVertex
100
AcDb2dVertex
 10
375.5
 20
326.5
 30
0.0
  0
VERTEX
  5
1A1
330
19E
100
AcDbEntity
  8
\U+56FE\U+5C42 1
370
     0
100
AcDbVertex
100
AcDb2dVertex
 10
235.5
 20
326.5
 30
0.0
  0
VERTEX
  5
1A2
330
19E
100
AcDbEntity
  8
\U+56FE\U+5C42 1
370
     0
100
AcDbVertex
100
AcDb2dVertex
 10
235.5
 20
466.5
 30
0.0
  0
VERTEX
  5
1A3
330
19E
100
AcDbEntity
  8
\U+56FE\U+5C42 1
370
     0
100
AcDbVertex
100
AcDb2dVertex
 10
375.5
 20
466.5
 30
0.0
  0
SEQEND
  5
1A4
330
19E
100
AcDbEntity
  8
\U+56FE\U+5C42 1
370
     0
  0
POLYLINE
  5
1A5
330
19A
100
AcDbEntity
  8
\U+56FE\U+5C42 1
370
     0
100
AcDb2dPolyline
 66
     1
 10
0.0
 20
0.0
 30
0.0
  0
VERTEX
  5
1A6
330
1A5
100
AcDbEntity
  8
\U+56FE\U+5C42 1
370
     0
100
AcDbVertex
100
AcDb2dVertex
 10
305.5
 20
425.36767578125
 30
0.0
  0
VERTEX
  5
1A7
330
1A5
100
AcDbEntity
  8
\U+56FE\U+5C42 1
370
     0
100
AcDbVertex
100
AcDb2dVertex
 10
296.5625
 20
420.20751953125
 30
0.0
  0
VERTEX
  5
1A8
330
1A5
100
AcDbEntity
  8
\U+56FE\U+5C42 1
370
     0
100
AcDbVertex
100
AcDb2dVertex
 10
280.5
 20
410.93359375
 30
0.0
  0
VERTEX
  5
1A9
330
1A5
100
AcDbEntity
  8
\U+56FE\U+5C42 1
370
     0
100
AcDbVertex
100
AcDb2dVertex
 10
280.5
 20
382.06640625
 30
0.0
  0
VERTEX
  5
1AA
330
1A5
100
AcDbEntity
  8
\U+56FE\U+5C42 1
370
     0
100
AcDbVertex
100
AcDb2dVertex
 10
289.4375
 20
376.90625
 30
0.0
  0
VERTEX
  5
1AB
330
1A5
100
AcDbEntity
  8
\U+56FE\U+5C42 1
370
     0
100
AcDbVertex
100
AcDb2dVertex
 10
305.5
 20
367.6328125
 30
0.0
  0
VERTEX
  5
1AC
330
1A5
100
AcDbEntity
  8
\U+56FE\U+5C42 1
370
     0
100
AcDbVertex
100
AcDb2dVertex
 10
314.4375
 20
372.79296875
 30
0.0
  0
VERTEX
  5
1AD
330
1A5
100
AcDbEntity
  8
\U+56FE\U+5C42 1
370
     0
100
AcDbVertex
100
AcDb2dVertex
 10
330.5
 20
382.06640625
 30
0.0
  0
VERTEX
  5
1AE
330
1A5
100
AcDbEntity
  8
\U+56FE\U+5C42 1
370
     0
100
AcDbVertex
100
AcDb2dVertex
 10
330.5
 20
410.93359375
 30
0.0
  0
VERTEX
  5
1AF
330
1A5
100
AcDbEntity
  8
\U+56FE\U+5C42 1
370
     0
100
AcDbVertex
100
AcDb2dVertex
 10
321.5625
 20
416.09375
 30
0.0
  0
VERTEX
  5
1B0
330
1A5
100
AcDbEntity
  8
\U+56FE\U+5C42 1
370
     0
100
AcDbVertex
100
AcDb2dVertex
 10
305.5
 20
425.36767578125
 30
0.0
  0
SEQEND
  5
1B1
330
1A5
100
AcDbEntity
  8
\U+56FE\U+5C42 1
370
     0
  0
HATCH
  5
1B2
330
19A
100
AcDbEntity
  8
\U+56FE\U+5C42 1
 62
     7
100
AcDbHatch
 10
0.0
 20
0.0
 30
0.0
210
0.0
220
0.0
230
1.0
  2
SOLID
 70
     1
 71
     0
 91
        1
 92
        1
 93
       10
 72
     1
 10
305.5
 20
425.36767578125
 11
296.5625
 21
420.20751953125
 72
     1
 10
296.5625
 20
420.20751953125
 11
280.5
 21
410.93359375
 72
     1
 10
280.5
 20
410.93359375
 11
280.5
 21
382.06640625
 72
     1
 10
280.5
 20
382.06640625
 11
289.4375
 21
376.90625
 72
     1
 10
289.4375
 20
376.90625
 11
305.5
 21
367.6328125
 72
     1
 10
305.5
 20
367.6328125
 11
314.4375
 21
372.79296875
 72
     1
 10
314.4375
 20
372.79296875
 11
330.5
 21
382.06640625
 72
     1
 10
330.5
 20
382.06640625
 11
330.5
 21
410.93359375
 72
     1
 10
330.5
 20
410.93359375
 11
321.5625
 21
416.09375
 72
     1
 10
321.5625
 20
416.09375
 11
305.5
 21
425.36767578125
 97
        0
 75
     2
 76
     1
 98
        0
  0
ENDBLK
  5
19D
330
19A
100
AcDbEntity
  8
0
100
AcDbBlockEnd
  0
BLOCK
  5
1B5
330
1B3
100
AcDbEntity
  8
0
100
AcDbBlockBegin
  2
block 17
 70
     0
 71
     0
 10
0.0
 20
0.0
 30
0.0
  3
block 17
  1

  0
POLYLINE
  5
1B7
330
1B3
100
AcDbEntity
  8
\U+56FE\U+5C42 1
370
     0
100
AcDb2dPolyline
 66
     1
 10
0.0
 20
0.0
 30
0.0
  0
VERTEX
  5
1B8
330
1B7
100
AcDbEntity
  8
\U+56FE\U+5C42 1
370
     0
100
AcDbVertex
100
AcDb2dVertex
 10
375.5
 20
466.5
 30
0.0
  0
VERTEX
  5
1B9
330
1B7
100
AcDbEntity
  8
\U+56FE\U+5C42 1
370
     0
100
AcDbVertex
100
AcDb2dVertex
 10
375.5
 20
326.5
 30
0.0
  0
VERTEX
  5
1BA
330
1B7
100
AcDbEntity
  8
\U+56FE\U+5C42 1
370
     0
100
AcDbVertex
100
AcDb2dVertex
 10
235.5
 20
326.5
 30
0.0
  0
VERTEX
  5
1BB
330
1B7
100
AcDbEntity
  8
\U+56FE\U+5C42 1
370
     0
100
AcDbVertex
100
AcDb2dVertex
 10
235.5
 20
466.5
 30
0.0
  0
VERTEX
  5
1BC
330
1B7
100
AcDbEntity
  8
\U+56FE\U+5C42 1
370
     0
100
AcDbVertex
100
AcDb2dVertex
 10
375.5
 20
466.5
 30
0.0
  0
SEQEND
  5
1BD
330
1B7
100
AcDbEntity
  8
\U+56FE\U+5C42 1
370
     0
  0
POLYLINE
  5
1BE
330
1B3
100
AcDbEntity
  8
\U+56FE\U+5C42 1
370
     0
100
AcDb2dPolyline
 66
     1
 10
0.0
 20
0.0
 30
0.0
  0
VERTEX
  5
1BF
330
1BE
100
AcDbEntity
  8
\U+56FE\U+5C42 1
370
     0
100
AcDbVertex
100
AcDb2dVertex
 10
305.5
 20
425.36767578125
 30
0.0
  0
VERTEX
  5
1C0
330
1BE
100
AcDbEntity
  8
\U+56FE\U+5C42 1
370
     0
100
AcDbVertex
100
AcDb2dVertex
 10
295.9375
 20
419.8466796875
 30
0.0
  0
VERTEX
  5
1C1
330
1BE
100
AcDbEntity
  8
\U+56FE\U+5C42 1
370
     0
100
AcDbVertex
100
AcDb2dVertex
 10
280.5
 20
410.93359375
 30
0.0
  0
VERTEX
  5
1C2
330
1BE
100
AcDbEntity
  8
\U+56FE\U+5C42 1
370
     0
100
AcDbVertex
100
AcDb2dVertex
 10
280.5
 20
382.06640625
 30
0.0
  0
VERTEX
  5
1C3
330
1BE
100
AcDbEntity
  8
\U+56FE\U+5C42 1
370
     0
100
AcDbVertex
100
AcDb2dVertex
 10
290.0625
 20
376.544921875
 30
0.0
  0
VERTEX
  5
1C4
330
1BE
100
AcDbEntity
  8
\U+56FE\U+5C42 1
370
     0
100
AcDbVertex
100
AcDb2dVertex
 10
305.5
 20
367.6328125
 30
0.0
  0
VERTEX
  5
1C5
330
1BE
100
AcDbEntity
  8
\U+56FE\U+5C42 1
370
     0
100
AcDbVertex
100
AcDb2dVertex
 10
315.0625
 20
373.1533203125
 30
0.0
  0
VERTEX
  5
1C6
330
1BE
100
AcDbEntity
  8
\U+56FE\U+5C42 1
370
     0
100
AcDbVertex
100
AcDb2dVertex
 10
330.5
 20
382.06640625
 30
0.0
  0
VERTEX
  5
1C7
330
1BE
100
AcDbEntity
  8
\U+56FE\U+5C42 1
370
     0
100
AcDbVertex
100
AcDb2dVertex
 10
330.5
 20
410.93359375
 30
0.0
  0
VERTEX
  5
1C8
330
1BE
100
AcDbEntity
  8
\U+56FE\U+5C42 1
370
     0
100
AcDbVertex
100
AcDb2dVertex
 10
320.9375
 20
416.45458984375
 30
0.0
  0
VERTEX
  5
1C9
330
1BE
100
AcDbEntity
  8
\U+56FE\U+5C42 1
370
     0
100
AcDbVertex
100
AcDb2dVertex
 10
305.5
 20
425.36767578125
 30
0.0
  0
SEQEND
  5
1CA
330
1BE
100
AcDbEntity
  8
\U+56FE\U+5C42 1
370
     0
  0
HATCH
  5
1CB
330
1B3
100
AcDbEntity
  8
\U+56FE\U+5C42 1
 62
     7
100
AcDbHatch
 10
0.0
 20
0.0
 30
0.0
210
0.0
220
0.0
230
1.0
  2
SOLID
 70
     1
 71
     0
 91
        1
 92
        1
 93
       10
 72
     1
 10
305.5
 20
425.36767578125
 11
295.9375
 21
419.8466796875
 72
     1
 10
295.9375
 20
419.8466796875
 11
280.5
 21
410.93359375
 72
     1
 10
280.5
 20
410.93359375
 11
280.5
 21
382.06640625
 72
     1
 10
280.5
 20
382.06640625
 11
290.0625
 21
376.544921875
 72
     1
 10
290.0625
 20
376.544921875
 11
305.5
 21
367.6328125
 72
     1
 10
305.5
 20
367.6328125
 11
315.0625
 21
373.1533203125
 72
     1
 10
315.0625
 20
373.1533203125
 11
330.5
 21
382.06640625
 72
     1
 10
330.5
 20
382.06640625
 11
330.5
 21
410.93359375
 72
     1
 10
330.5
 20
410.93359375
 11
320.9375
 21
416.45458984375
 72
     1
 10
320.9375
 20
416.45458984375
 11
305.5
 21
425.36767578125
 97
        0
 75
     2
 76
     1
 98
        0
  0
ENDBLK
  5
1B6
330
1B3
100
AcDbEntity
  8
0
100
AcDbBlockEnd
  0
BLOCK
  5
1CE
330
1CC
100
AcDbEntity
  8
0
100
AcDbBlockBegin
  2
block 18
 70
     0
 71
     0
 10
0.0
 20
0.0
 30
0.0
  3
block 18
  1

  0
POLYLINE
  5
1D0
330
1CC
100
AcDbEntity
  8
\U+56FE\U+5C42 1
370
     0
100
AcDb2dPolyline
 66
     1
 10
0.0
 20
0.0
 30
0.0
  0
VERTEX
  5
1D1
330
1D0
100
AcDbEntity
  8
\U+56FE\U+5C42 1
370
     0
100
AcDbVertex
100
AcDb2dVertex
 10
375.5
 20
466.5
 30
0.0
  0
VERTEX
  5
1D2
330
1D0
100
AcDbEntity
  8
\U+56FE\U+5C42 1
370
     0
100
AcDbVertex
100
AcDb2dVertex
 10
375.5
 20
326.5
 30
0.0
  0
VERTEX
  5
1D3
330
1D0
100
AcDbEntity
  8
\U+56FE\U+5C42 1
370
     0
100
AcDbVertex
100
AcDb2dVertex
 10
235.5
 20
326.5
 30
0.0
  0
VERTEX
  5
1D4
330
1D0
100
AcDbEntity
  8
\U+56FE\U+5C42 1
370
     0
100
AcDbVertex
100
AcDb2dVertex
 10
235.5
 20
466.5
 30
0.0
  0
VERTEX
  5
1D5
330
1D0
100
AcDbEntity
  8
\U+56FE\U+5C42 1
370
     0
100
AcDbVertex
100
AcDb2dVertex
 10
375.5
 20
466.5
 30
0.0
  0
SEQEND
  5
1D6
330
1D0
100
AcDbEntity
  8
\U+56FE\U+5C42 1
370
     0
  0
POLYLINE
  5
1D7
330
1CC
100
AcDbEntity
  8
\U+56FE\U+5C42 1
370
     0
100
AcDb2dPolyline
 66
     1
 10
0.0
 20
0.0
 30
0.0
  0
VERTEX
  5
1D8
330
1D7
100
AcDbEntity
  8
\U+56FE\U+5C42 1
370
     0
100
AcDbVertex
100
AcDb2dVertex
 10
305.5
 20
425.36767578125
 30
0.0
  0
VERTEX
  5
1D9
330
1D7
100
AcDbEntity
  8
\U+56FE\U+5C42 1
370
     0
100
AcDbVertex
100
AcDb2dVertex
 10
295.3125
 20
419.48583984375
 30
0.0
  0
VERTEX
  5
1DA
330
1D7
100
AcDbEntity
  8
\U+56FE\U+5C42 1
370
     0
100
AcDbVertex
100
AcDb2dVertex
 10
280.5
 20
410.93359375
 30
0.0
  0
VERTEX
  5
1DB
330
1D7
100
AcDbEntity
  8
\U+56FE\U+5C42 1
370
     0
100
AcDbVertex
100
AcDb2dVertex
 10
280.5
 20
382.06640625
 30
0.0
  0
VERTEX
  5
1DC
330
1D7
100
AcDbEntity
  8
\U+56FE\U+5C42 1
370
     0
100
AcDbVertex
100
AcDb2dVertex
 10
290.6875
 20
376.1845703125
 30
0.0
  0
VERTEX
  5
1DD
330
1D7
100
AcDbEntity
  8
\U+56FE\U+5C42 1
370
     0
100
AcDbVertex
100
AcDb2dVertex
 10
305.5
 20
367.6328125
 30
0.0
  0
VERTEX
  5
1DE
330
1D7
100
AcDbEntity
  8
\U+56FE\U+5C42 1
370
     0
100
AcDbVertex
100
AcDb2dVertex
 10
315.6875
 20
373.513671875
 30
0.0
  0
VERTEX
  5
1DF
330
1D7
100
AcDbEntity
  8
\U+56FE\U+5C42 1
370
     0
100
AcDbVertex
100
AcDb2dVertex
 10
330.5
 20
382.06640625
 30
0.0
  0
VERTEX
  5
1E0
330
1D7
100
AcDbEntity
  8
\U+56FE\U+5C42 1
370
     0
100
AcDbVertex
100
AcDb2dVertex
 10
330.5
 20
410.93359375
 30
0.0
  0
VERTEX
  5
1E1
330
1D7
100
AcDbEntity
  8
\U+56FE\U+5C42 1
370
     0
100
AcDbVertex
100
AcDb2dVertex
 10
320.3125
 20
416.8154296875
 30
0.0
  0
VERTEX
  5
1E2
330
1D7
100
AcDbEntity
  8
\U+56FE\U+5C42 1
370
     0
100
AcDbVertex
100
AcDb2dVertex
 10
305.5
 20
425.36767578125
 30
0.0
  0
SEQEND
  5
1E3
330
1D7
100
AcDbEntity
  8
\U+56FE\U+5C42 1
370
     0
  0
HATCH
  5
1E4
330
1CC
100
AcDbEntity
  8
\U+56FE\U+5C42 1
 62
     7
100
AcDbHatch
 10
0.0
 20
0.0
 30
0.0
210
0.0
220
0.0
230
1.0
  2
SOLID
 70
     1
 71
     0
 91
        1
 92
        1
 93
       10
 72
     1
 10
305.5
 20
425.36767578125
 11
295.3125
 21
419.48583984375
 72
     1
 10
295.3125
 20
419.48583984375
 11
280.5
 21
410.93359375
 72
     1
 10
280.5
 20
410.93359375
 11
280.5
 21
382.06640625
 72
     1
 10
280.5
 20
382.06640625
 11
290.6875
 21
376.1845703125
 72
     1
 10
290.6875
 20
376.1845703125
 11
305.5
 21
367.6328125
 72
     1
 10
305.5
 20
367.6328125
 11
315.6875
 21
373.513671875
 72
     1
 10
315.6875
 20
373.513671875
 11
330.5
 21
382.06640625
 72
     1
 10
330.5
 20
382.06640625
 11
330.5
 21
410.93359375
 72
     1
 10
330.5
 20
410.93359375
 11
320.3125
 21
416.8154296875
 72
     1
 10
320.3125
 20
416.8154296875
 11
305.5
 21
425.36767578125
 97
        0
 75
     2
 76
     1
 98
        0
  0
ENDBLK
  5
1CF
330
1CC
100
AcDbEntity
  8
0
100
AcDbBlockEnd
  0
BLOCK
  5
1E7
330
1E5
100
AcDbEntity
  8
0
100
AcDbBlockBegin
  2
block 19
 70
     0
 71
     0
 10
0.0
 20
0.0
 30
0.0
  3
block 19
  1

  0
POLYLINE
  5
1E9
330
1E5
100
AcDbEntity
  8
\U+56FE\U+5C42 1
370
     0
100
AcDb2dPolyline
 66
     1
 10
0.0
 20
0.0
 30
0.0
  0
VERTEX
  5
1EA
330
1E9
100
AcDbEntity
  8
\U+56FE\U+5C42 1
370
     0
100
AcDbVertex
100
AcDb2dVertex
 10
375.5
 20
466.5
 30
0.0
  0
VERTEX
  5
1EB
330
1E9
100
AcDbEntity
  8
\U+56FE\U+5C42 1
370
     0
100
AcDbVertex
100
AcDb2dVertex
 10
375.5
 20
326.5
 30
0.0
  0
VERTEX
  5
1EC
330
1E9
100
AcDbEntity
  8
\U+56FE\U+5C42 1
370
     0
100
AcDbVertex
100
AcDb2dVertex
 10
235.5
 20
326.5
 30
0.0
  0
VERTEX
  5
1ED
330
1E9
100
AcDbEntity
  8
\U+56FE\U+5C42 1
370
     0
100
AcDbVertex
100
AcDb2dVertex
 10
235.5
 20
466.5
 30
0.0
  0
VERTEX
  5
1EE
330
1E9
100
AcDbEntity
  8
\U+56FE\U+5C42 1
370
     0
100
AcDbVertex
100
AcDb2dVertex
 10
375.5
 20
466.5
 30
0.0
  0
SEQEND
  5
1EF
330
1E9
100
AcDbEntity
  8
\U+56FE\U+5C42 1
370
     0
  0
POLYLINE
  5
1F0
330
1E5
100
AcDbEntity
  8
\U+56FE\U+5C42 1
370
     0
100
AcDb2dPolyline
 66
     1
 10
0.0
 20
0.0
 30
0.0
  0
VERTEX
  5
1F1
330
1F0
100
AcDbEntity
  8
\U+56FE\U+5C42 1
370
     0
100
AcDbVertex
100
AcDb2dVertex
 10
305.5
 20
425.36767578125
 30
0.0
  0
VERTEX
  5
1F2
330
1F0
100
AcDbEntity
  8
\U+56FE\U+5C42 1
370
     0
100
AcDbVertex
100
AcDb2dVertex
 10
294.6875
 20
419.125
 30
0.0
  0
VERTEX
  5
1F3
330
1F0
100
AcDbEntity
  8
\U+56FE\U+5C42 1
370
     0
100
AcDbVertex
100
AcDb2dVertex
 10
280.5
 20
410.93359375
 30
0.0
  0
VERTEX
  5
1F4
330
1F0
100
AcDbEntity
  8
\U+56FE\U+5C42 1
370
     0
100
AcDbVertex
100
AcDb2dVertex
 10
280.5
 20
382.06640625
 30
0.0
  0
VERTEX
  5
1F5
330
1F0
100
AcDbEntity
  8
\U+56FE\U+5C42 1
370
     0
100
AcDbVertex
100
AcDb2dVertex
 10
291.3125
 20
375.82421875
 30
0.0
  0
VERTEX
  5
1F6
330
1F0
100
AcDbEntity
  8
\U+56FE\U+5C42 1
370
     0
100
AcDbVertex
100
AcDb2dVertex
 10
305.5
 20
367.6328125
 30
0.0
  0
VERTEX
  5
1F7
330
1F0
100
AcDbEntity
  8
\U+56FE\U+5C42 1
370
     0
100
AcDbVertex
100
AcDb2dVertex
 10
316.3125
 20
373.875
 30
0.0
  0
VERTEX
  5
1F8
330
1F0
100
AcDbEntity
  8
\U+56FE\U+5C42 1
370
     0
100
AcDbVertex
100
AcDb2dVertex
 10
330.5
 20
382.06640625
 30
0.0
  0
VERTEX
  5
1F9
330
1F0
100
AcDbEntity
  8
\U+56FE\U+5C42 1
370
     0
100
AcDbVertex
100
AcDb2dVertex
 10
330.5
 20
410.93359375
 30
0.0
  0
VERTEX
  5
1FA
330
1F0
100
AcDbEntity
  8
\U+56FE\U+5C42 1
370
     0
100
AcDbVertex
100
AcDb2dVertex
 10
319.6875
 20
417.17626953125
 30
0.0
  0
VERTEX
  5
1FB
330
1F0
100
AcDbEntity
  8
\U+56FE\U+5C42 1
370
     0
100
AcDbVertex
100
AcDb2dVertex
 10
305.5
 20
425.36767578125
 30
0.0
  0
SEQEND
  5
1FC
330
1F0
100
AcDbEntity
  8
\U+56FE\U+5C42 1
370
     0
  0
HATCH
  5
1FD
330
1E5
100
AcDbEntity
  8
\U+56FE\U+5C42 1
 62
     7
100
AcDbHatch
 10
0.0
 20
0.0
 30
0.0
210
0.0
220
0.0
230
1.0
  2
SOLID
 70
     1
 71
     0
 91
        1
 92
        1
 93
       10
 72
     1
 10
305.5
 20
425.36767578125
 11
294.6875
 21
419.125
 72
     1
 10
294.6875
 20
419.125
 11
280.5
 21
410.93359375
 72
     1
 10
280.5
 20
410.93359375
 11
280.5
 21
382.06640625
 72
     1
 10
280.5
 20
382.06640625
 11
291.3125
 21
375.82421875
 72
     1
 10
291.3125
 20
375.82421875
 11
305.5
 21
367.6328125
 72
     1
 10
305.5
 20
367.6328125
 11
316.3125
 21
373.875
 72
     1
 10
316.3125
 20
373.875
 11
330.5
 21
382.06640625
 72
     1
 10
330.5
 20
382.06640625
 11
330.5
 21
410.93359375
 72
     1
 10
330.5
 20
410.93359375
 11
319.6875
 21
417.17626953125
 72
     1
 10
319.6875
 20
417.17626953125
 11
305.5
 21
425.36767578125
 97
        0
 75
     2
 76
     1
 98
        0
  0
ENDBLK
  5
1E8
330
1E5
100
AcDbEntity
  8
0
100
AcDbBlockEnd
  0
BLOCK
  5
200
330
1FE
100
AcDbEntity
  8
0
100
AcDbBlockBegin
  2
block 20
 70
     0
 71
     0
 10
0.0
 20
0.0
 30
0.0
  3
block 20
  1

  0
POLYLINE
  5
202
330
1FE
100
AcDbEntity
  8
\U+56FE\U+5C42 1
370
     0
100
AcDb2dPolyline
 66
     1
 10
0.0
 20
0.0
 30
0.0
  0
VERTEX
  5
203
330
202
100
AcDbEntity
  8
\U+56FE\U+5C42 1
370
     0
100
AcDbVertex
100
AcDb2dVertex
 10
375.5
 20
466.5
 30
0.0
  0
VERTEX
  5
204
330
202
100
AcDbEntity
  8
\U+56FE\U+5C42 1
370
     0
100
AcDbVertex
100
AcDb2dVertex
 10
375.5
 20
326.5
 30
0.0
  0
VERTEX
  5
205
330
202
100
AcDbEntity
  8
\U+56FE\U+5C42 1
370
     0
100
AcDbVertex
100
AcDb2dVertex
 10
235.5
 20
326.5
 30
0.0
  0
VERTEX
  5
206
330
202
100
AcDbEntity
  8
\U+56FE\U+5C42 1
370
     0
100
AcDbVertex
100
AcDb2dVertex
 10
235.5
 20
466.5
 30
0.0
  0
VERTEX
  5
207
330
202
100
AcDbEntity
  8
\U+56FE\U+5C42 1
370
     0
100
AcDbVertex
100
AcDb2dVertex
 10
375.5
 20
466.5
 30
0.0
  0
SEQEND
  5
208
330
202
100
AcDbEntity
  8
\U+56FE\U+5C42 1
370
     0
  0
POLYLINE
  5
209
330
1FE
100
AcDbEntity
  8
\U+56FE\U+5C42 1
370
     0
100
AcDb2dPolyline
 66
     1
 10
0.0
 20
0.0
 30
0.0
  0
VERTEX
  5
20A
330
209
100
AcDbEntity
  8
\U+56FE\U+5C42 1
370
     0
100
AcDbVertex
100
AcDb2dVertex
 10
305.5
 20
425.36767578125
 30
0.0
  0
VERTEX
  5
20B
330
209
100
AcDbEntity
  8
\U+56FE\U+5C42 1
370
     0
100
AcDbVertex
100
AcDb2dVertex
 10
294.0625
 20
418.76416015625
 30
0.0
  0
VERTEX
  5
20C
330
209
100
AcDbEntity
  8
\U+56FE\U+5C42 1
370
     0
100
AcDbVertex
100
AcDb2dVertex
 10
280.5
 20
410.93359375
 30
0.0
  0
VERTEX
  5
20D
330
209
100
AcDbEntity
  8
\U+56FE\U+5C42 1
370
     0
100
AcDbVertex
100
AcDb2dVertex
 10
280.5
 20
382.06640625
 30
0.0
  0
VERTEX
  5
20E
330
209
100
AcDbEntity
  8
\U+56FE\U+5C42 1
370
     0
100
AcDbVertex
100
AcDb2dVertex
 10
291.9375
 20
375.462890625
 30
0.0
  0
VERTEX
  5
20F
330
209
100
AcDbEntity
  8
\U+56FE\U+5C42 1
370
     0
100
AcDbVertex
100
AcDb2dVertex
 10
305.5
 20
367.6328125
 30
0.0
  0
VERTEX
  5
210
330
209
100
AcDbEntity
  8
\U+56FE\U+5C42 1
370
     0
100
AcDbVertex
100
AcDb2dVertex
 10
316.9375
 20
374.236328125
 30
0.0
  0
VERTEX
  5
211
330
209
100
AcDbEntity
  8
\U+56FE\U+5C42 1
370
     0
100
AcDbVertex
100
AcDb2dVertex
 10
330.5
 20
382.06640625
 30
0.0
  0
VERTEX
  5
212
330
209
100
AcDbEntity
  8
\U+56FE\U+5C42 1
370
     0
100
AcDbVertex
100
AcDb2dVertex
 10
330.5
 20
410.93359375
 30
0.0
  0
VERTEX
  5
213
330
209
100
AcDbEntity
  8
\U+56FE\U+5C42 1
370
     0
100
AcDbVertex
100
AcDb2dVertex
 10
319.0625
 20
417.537109375
 30
0.0
  0
VERTEX
  5
214
330
209
100
AcDbEntity
  8
\U+56FE\U+5C42 1
370
     0
100
AcDbVertex
100
AcDb2dVertex
 10
305.5
 20
425.36767578125
 30
0.0
  0
SEQEND
  5
215
330
209
100
AcDbEntity
  8
\U+56FE\U+5C42 1
370
     0
  0
HATCH
  5
216
330
1FE
100
AcDbEntity
  8
\U+56FE\U+5C42 1
 62
     7
100
AcDbHatch
 10
0.0
 20
0.0
 30
0.0
210
0.0
220
0.0
230
1.0
  2
SOLID
 70
     1
 71
     0
 91
        1
 92
        1
 93
       10
 72
     1
 10
305.5
 20
425.36767578125
 11
294.0625
 21
418.76416015625
 72
     1
 10
294.0625
 20
418.76416015625
 11
280.5
 21
410.93359375
 72
     1
 10
280.5
 20
410.93359375
 11
280.5
 21
382.06640625
 72
     1
 10
280.5
 20
382.06640625
 11
291.9375
 21
375.462890625
 72
     1
 10
291.9375
 20
375.462890625
 11
305.5
 21
367.6328125
 72
     1
 10
305.5
 20
367.6328125
 11
316.9375
 21
374.236328125
 72
     1
 10
316.9375
 20
374.236328125
 11
330.5
 21
382.06640625
 72
     1
 10
330.5
 20
382.06640625
 11
330.5
 21
410.93359375
 72
     1
 10
330.5
 20
410.93359375
 11
319.0625
 21
417.537109375
 72
     1
 10
319.0625
 20
417.537109375
 11
305.5
 21
425.36767578125
 97
        0
 75
     2
 76
     1
 98
        0
  0
ENDBLK
  5
201
330
1FE
100
AcDbEntity
  8
0
100
AcDbBlockEnd
  0
BLOCK
  5
219
330
217
100
AcDbEntity
  8
0
100
AcDbBlockBegin
  2
block 21
 70
     0
 71
     0
 10
0.0
 20
0.0
 30
0.0
  3
block 21
  1

  0
POLYLINE
  5
21B
330
217
100
AcDbEntity
  8
\U+56FE\U+5C42 1
370
     0
100
AcDb2dPolyline
 66
     1
 10
0.0
 20
0.0
 30
0.0
  0
VERTEX
  5
21C
330
21B
100
AcDbEntity
  8
\U+56FE\U+5C42 1
370
     0
100
AcDbVertex
100
AcDb2dVertex
 10
375.5
 20
466.5
 30
0.0
  0
VERTEX
  5
21D
330
21B
100
AcDbEntity
  8
\U+56FE\U+5C42 1
370
     0
100
AcDbVertex
100
AcDb2dVertex
 10
375.5
 20
326.5
 30
0.0
  0
VERTEX
  5
21E
330
21B
100
AcDbEntity
  8
\U+56FE\U+5C42 1
370
     0
100
AcDbVertex
100
AcDb2dVertex
 10
235.5
 20
326.5
 30
0.0
  0
VERTEX
  5
21F
330
21B
100
AcDbEntity
  8
\U+56FE\U+5C42 1
370
     0
100
AcDbVertex
100
AcDb2dVertex
 10
235.5
 20
466.5
 30
0.0
  0
VERTEX
  5
220
330
21B
100
AcDbEntity
  8
\U+56FE\U+5C42 1
370
     0
100
AcDbVertex
100
AcDb2dVertex
 10
375.5
 20
466.5
 30
0.0
  0
SEQEND
  5
221
330
21B
100
AcDbEntity
  8
\U+56FE\U+5C42 1
370
     0
  0
POLYLINE
  5
222
330
217
100
AcDbEntity
  8
\U+56FE\U+5C42 1
370
     0
100
AcDb2dPolyline
 66
     1
 10
0.0
 20
0.0
 30
0.0
  0
VERTEX
  5
223
330
222
100
AcDbEntity
  8
\U+56FE\U+5C42 1
370
     0
100
AcDbVertex
100
AcDb2dVertex
 10
305.5
 20
425.36767578125
 30
0.0
  0
VERTEX
  5
224
330
222
100
AcDbEntity
  8
\U+56FE\U+5C42 1
370
     0
100
AcDbVertex
100
AcDb2dVertex
 10
293.4375
 20
418.4033203125
 30
0.0
  0
VERTEX
  5
225
330
222
100
AcDbEntity
  8
\U+56FE\U+5C42 1
370
     0
100
AcDbVertex
100
AcDb2dVertex
 10
280.5
 20
410.93359375
 30
0.0
  0
VERTEX
  5
226
330
222
100
AcDbEntity
  8
\U+56FE\U+5C42 1
370
     0
100
AcDbVertex
100
AcDb2dVertex
 10
280.5
 20
382.06640625
 30
0.0
  0
VERTEX
  5
227
330
222
100
AcDbEntity
  8
\U+56FE\U+5C42 1
370
     0
100
AcDbVertex
100
AcDb2dVertex
 10
292.5625
 20
375.1015625
 30
0.0
  0
VERTEX
  5
228
330
222
100
AcDbEntity
  8
\U+56FE\U+5C42 1
370
     0
100
AcDbVertex
100
AcDb2dVertex
 10
305.5
 20
367.6328125
 30
0.0
  0
VERTEX
  5
229
330
222
100
AcDbEntity
  8
\U+56FE\U+5C42 1
370
     0
100
AcDbVertex
100
AcDb2dVertex
 10
317.5625
 20
374.5966796875
 30
0.0
  0
VERTEX
  5
22A
330
222
100
AcDbEntity
  8
\U+56FE\U+5C42 1
370
     0
100
AcDbVertex
100
AcDb2dVertex
 10
330.5
 20
382.06640625
 30
0.0
  0
VERTEX
  5
22B
330
222
100
AcDbEntity
  8
\U+56FE\U+5C42 1
370
     0
100
AcDbVertex
100
AcDb2dVertex
 10
330.5
 20
410.93359375
 30
0.0
  0
VERTEX
  5
22C
330
222
100
AcDbEntity
  8
\U+56FE\U+5C42 1
370
     0
100
AcDbVertex
100
AcDb2dVertex
 10
318.4375
 20
417.89794921875
 30
0.0
  0
VERTEX
  5
22D
330
222
100
AcDbEntity
  8
\U+56FE\U+5C42 1
370
     0
100
AcDbVertex
100
AcDb2dVertex
 10
305.5
 20
425.36767578125
 30
0.0
  0
SEQEND
  5
22E
330
222
100
AcDbEntity
  8
\U+56FE\U+5C42 1
370
     0
  0
HATCH
  5
22F
330
217
100
AcDbEntity
  8
\U+56FE\U+5C42 1
 62
     7
100
AcDbHatch
 10
0.0
 20
0.0
 30
0.0
210
0.0
220
0.0
230
1.0
  2
SOLID
 70
     1
 71
     0
 91
        1
 92
        1
 93
       10
 72
     1
 10
305.5
 20
425.36767578125
 11
293.4375
 21
418.4033203125
 72
     1
 10
293.4375
 20
418.4033203125
 11
280.5
 21
410.93359375
 72
     1
 10
280.5
 20
410.93359375
 11
280.5
 21
382.06640625
 72
     1
 10
280.5
 20
382.06640625
 11
292.5625
 21
375.1015625
 72
     1
 10
292.5625
 20
375.1015625
 11
305.5
 21
367.6328125
 72
     1
 10
305.5
 20
367.6328125
 11
317.5625
 21
374.5966796875
 72
     1
 10
317.5625
 20
374.5966796875
 11
330.5
 21
382.06640625
 72
     1
 10
330.5
 20
382.06640625
 11
330.5
 21
410.93359375
 72
     1
 10
330.5
 20
410.93359375
 11
318.4375
 21
417.89794921875
 72
     1
 10
318.4375
 20
417.89794921875
 11
305.5
 21
425.36767578125
 97
        0
 75
     2
 76
     1
 98
        0
  0
ENDBLK
  5
21A
330
217
100
AcDbEntity
  8
0
100
AcDbBlockEnd
  0
BLOCK
  5
232
330
230
100
AcDbEntity
  8
0
100
AcDbBlockBegin
  2
block 22
 70
     0
 71
     0
 10
0.0
 20
0.0
 30
0.0
  3
block 22
  1

  0
POLYLINE
  5
234
330
230
100
AcDbEntity
  8
\U+56FE\U+5C42 1
370
     0
100
AcDb2dPolyline
 66
     1
 10
0.0
 20
0.0
 30
0.0
  0
VERTEX
  5
235
330
234
100
AcDbEntity
  8
\U+56FE\U+5C42 1
370
     0
100
AcDbVertex
100
AcDb2dVertex
 10
375.5
 20
466.5
 30
0.0
  0
VERTEX
  5
236
330
234
100
AcDbEntity
  8
\U+56FE\U+5C42 1
370
     0
100
AcDbVertex
100
AcDb2dVertex
 10
375.5
 20
326.5
 30
0.0
  0
VERTEX
  5
237
330
234
100
AcDbEntity
  8
\U+56FE\U+5C42 1
370
     0
100
AcDbVertex
100
AcDb2dVertex
 10
235.5
 20
326.5
 30
0.0
  0
VERTEX
  5
238
330
234
100
AcDbEntity
  8
\U+56FE\U+5C42 1
370
     0
100
AcDbVertex
100
AcDb2dVertex
 10
235.5
 20
466.5
 30
0.0
  0
VERTEX
  5
239
330
234
100
AcDbEntity
  8
\U+56FE\U+5C42 1
370
     0
100
AcDbVertex
100
AcDb2dVertex
 10
375.5
 20
466.5
 30
0.0
  0
SEQEND
  5
23A
330
234
100
AcDbEntity
  8
\U+56FE\U+5C42 1
370
     0
  0
POLYLINE
  5
23B
330
230
100
AcDbEntity
  8
\U+56FE\U+5C42 1
370
     0
100
AcDb2dPolyline
 66
     1
 10
0.0
 20
0.0
 30
0.0
  0
VERTEX
  5
23C
330
23B
100
AcDbEntity
  8
\U+56FE\U+5C42 1
370
     0
100
AcDbVertex
100
AcDb2dVertex
 10
305.5
 20
425.36767578125
 30
0.0
  0
VERTEX
  5
23D
330
23B
100
AcDbEntity
  8
\U+56FE\U+5C42 1
370
     0
100
AcDbVertex
100
AcDb2dVertex
 10
292.8125
 20
418.04248046875
 30
0.0
  0
VERTEX
  5
23E
330
23B
100
AcDbEntity
  8
\U+56FE\U+5C42 1
370
     0
100
AcDbVertex
100
AcDb2dVertex
 10
280.5
 20
410.93359375
 30
0.0
  0
VERTEX
  5
23F
330
23B
100
AcDbEntity
  8
\U+56FE\U+5C42 1
370
     0
100
AcDbVertex
100
AcDb2dVertex
 10
280.5
 20
382.06640625
 30
0.0
  0
VERTEX
  5
240
330
23B
100
AcDbEntity
  8
\U+56FE\U+5C42 1
370
     0
100
AcDbVertex
100
AcDb2dVertex
 10
293.1875
 20
374.7412109375
 30
0.0
  0
VERTEX
  5
241
330
23B
100
AcDbEntity
  8
\U+56FE\U+5C42 1
370
     0
100
AcDbVertex
100
AcDb2dVertex
 10
305.5
 20
367.6328125
 30
0.0
  0
VERTEX
  5
242
330
23B
100
AcDbEntity
  8
\U+56FE\U+5C42 1
370
     0
100
AcDbVertex
100
AcDb2dVertex
 10
318.1875
 20
374.95703125
 30
0.0
  0
VERTEX
  5
243
330
23B
100
AcDbEntity
  8
\U+56FE\U+5C42 1
370
     0
100
AcDbVertex
100
AcDb2dVertex
 10
330.5
 20
382.06640625
 30
0.0
  0
VERTEX
  5
244
330
23B
100
AcDbEntity
  8
\U+56FE\U+5C42 1
370
     0
100
AcDbVertex
100
AcDb2dVertex
 10
330.5
 20
410.93359375
 30
0.0
  0
VERTEX
  5
245
330
23B
100
AcDbEntity
  8
\U+56FE\U+5C42 1
370
     0
100
AcDbVertex
100
AcDb2dVertex
 10
317.8125
 20
418.2587890625
 30
0.0
  0
VERTEX
  5
246
330
23B
100
AcDbEntity
  8
\U+56FE\U+5C42 1
370
     0
100
AcDbVertex
100
AcDb2dVertex
 10
305.5
 20
425.36767578125
 30
0.0
  0
SEQEND
  5
247
330
23B
100
AcDbEntity
  8
\U+56FE\U+5C42 1
370
     0
  0
HATCH
  5
248
330
230
100
AcDbEntity
  8
\U+56FE\U+5C42 1
 62
     7
100
AcDbHatch
 10
0.0
 20
0.0
 30
0.0
210
0.0
220
0.0
230
1.0
  2
SOLID
 70
     1
 71
     0
 91
        1
 92
        1
 93
       10
 72
     1
 10
305.5
 20
425.36767578125
 11
292.8125
 21
418.04248046875
 72
     1
 10
292.8125
 20
418.04248046875
 11
280.5
 21
410.93359375
 72
     1
 10
280.5
 20
410.93359375
 11
280.5
 21
382.06640625
 72
     1
 10
280.5
 20
382.06640625
 11
293.1875
 21
374.7412109375
 72
     1
 10
293.1875
 20
374.7412109375
 11
305.5
 21
367.6328125
 72
     1
 10
305.5
 20
367.6328125
 11
318.1875
 21
374.95703125
 72
     1
 10
318.1875
 20
374.95703125
 11
330.5
 21
382.06640625
 72
     1
 10
330.5
 20
382.06640625
 11
330.5
 21
410.93359375
 72
     1
 10
330.5
 20
410.93359375
 11
317.8125
 21
418.2587890625
 72
     1
 10
317.8125
 20
418.2587890625
 11
305.5
 21
425.36767578125
 97
        0
 75
     2
 76
     1
 98
        0
  0
ENDBLK
  5
233
330
230
100
AcDbEntity
  8
0
100
AcDbBlockEnd
  0
BLOCK
  5
24B
330
249
100
AcDbEntity
  8
0
100
AcDbBlockBegin
  2
block 23
 70
     0
 71
     0
 10
0.0
 20
0.0
 30
0.0
  3
block 23
  1

  0
POLYLINE
  5
24D
330
249
100
AcDbEntity
  8
\U+56FE\U+5C42 1
370
     0
100
AcDb2dPolyline
 66
     1
 10
0.0
 20
0.0
 30
0.0
  0
VERTEX
  5
24E
330
24D
100
AcDbEntity
  8
\U+56FE\U+5C42 1
370
     0
100
AcDbVertex
100
AcDb2dVertex
 10
375.5
 20
466.5
 30
0.0
  0
VERTEX
  5
24F
330
24D
100
AcDbEntity
  8
\U+56FE\U+5C42 1
370
     0
100
AcDbVertex
100
AcDb2dVertex
 10
375.5
 20
326.5
 30
0.0
  0
VERTEX
  5
250
330
24D
100
AcDbEntity
  8
\U+56FE\U+5C42 1
370
     0
100
AcDbVertex
100
AcDb2dVertex
 10
235.5
 20
326.5
 30
0.0
  0
VERTEX
  5
251
330
24D
100
AcDbEntity
  8
\U+56FE\U+5C42 1
370
     0
100
AcDbVertex
100
AcDb2dVertex
 10
235.5
 20
466.5
 30
0.0
  0
VERTEX
  5
252
330
24D
100
AcDbEntity
  8
\U+56FE\U+5C42 1
370
     0
100
AcDbVertex
100
AcDb2dVertex
 10
375.5
 20
466.5
 30
0.0
  0
SEQEND
  5
253
330
24D
100
AcDbEntity
  8
\U+56FE\U+5C42 1
370
     0
  0
POLYLINE
  5
254
330
249
100
AcDbEntity
  8
\U+56FE\U+5C42 1
370
     0
100
AcDb2dPolyline
 66
     1
 10
0.0
 20
0.0
 30
0.0
  0
VERTEX
  5
255
330
254
100
AcDbEntity
  8
\U+56FE\U+5C42 1
370
     0
100
AcDbVertex
100
AcDb2dVertex
 10
305.5
 20
425.36767578125
 30
0.0
  0
VERTEX
  5
256
330
254
100
AcDbEntity
  8
\U+56FE\U+5C42 1
370
     0
100
AcDbVertex
100
AcDb2dVertex
 10
292.1875
 20
417.681640625
 30
0.0
  0
VERTEX
  5
257
330
254
100
AcDbEntity
  8
\U+56FE\U+5C42 1
370
     0
100
AcDbVertex
100
AcDb2dVertex
 10
280.5
 20
410.93359375
 30
0.0
  0
VERTEX
  5
258
330
254
100
AcDbEntity
  8
\U+56FE\U+5C42 1
370
     0
100
AcDbVertex
100
AcDb2dVertex
 10
280.5
 20
382.06640625
 30
0.0
  0
VERTEX
  5
259
330
254
100
AcDbEntity
  8
\U+56FE\U+5C42 1
370
     0
100
AcDbVertex
100
AcDb2dVertex
 10
293.8125
 20
374.380859375
 30
0.0
  0
VERTEX
  5
25A
330
254
100
AcDbEntity
  8
\U+56FE\U+5C42 1
370
     0
100
AcDbVertex
100
AcDb2dVertex
 10
305.5
 20
367.6328125
 30
0.0
  0
VERTEX
  5
25B
330
254
100
AcDbEntity
  8
\U+56FE\U+5C42 1
370
     0
100
AcDbVertex
100
AcDb2dVertex
 10
318.8125
 20
375.318359375
 30
0.0
  0
VERTEX
  5
25C
330
254
100
AcDbEntity
  8
\U+56FE\U+5C42 1
370
     0
100
AcDbVertex
100
AcDb2dVertex
 10
330.5
 20
382.06640625
 30
0.0
  0
VERTEX
  5
25D
330
254
100
AcDbEntity
  8
\U+56FE\U+5C42 1
370
     0
100
AcDbVertex
100
AcDb2dVertex
 10
330.5
 20
410.93359375
 30
0.0
  0
VERTEX
  5
25E
330
254
100
AcDbEntity
  8
\U+56FE\U+5C42 1
370
     0
100
AcDbVertex
100
AcDb2dVertex
 10
317.1875
 20
418.61962890625
 30
0.0
  0
VERTEX
  5
25F
330
254
100
AcDbEntity
  8
\U+56FE\U+5C42 1
370
     0
100
AcDbVertex
100
AcDb2dVertex
 10
305.5
 20
425.36767578125
 30
0.0
  0
SEQEND
  5
260
330
254
100
AcDbEntity
  8
\U+56FE\U+5C42 1
370
     0
  0
HATCH
  5
261
330
249
100
AcDbEntity
  8
\U+56FE\U+5C42 1
 62
     7
100
AcDbHatch
 10
0.0
 20
0.0
 30
0.0
210
0.0
220
0.0
230
1.0
  2
SOLID
 70
     1
 71
     0
 91
        1
 92
        1
 93
       10
 72
     1
 10
305.5
 20
425.36767578125
 11
292.1875
 21
417.681640625
 72
     1
 10
292.1875
 20
417.681640625
 11
280.5
 21
410.93359375
 72
     1
 10
280.5
 20
410.93359375
 11
280.5
 21
382.06640625
 72
     1
 10
280.5
 20
382.06640625
 11
293.8125
 21
374.380859375
 72
     1
 10
293.8125
 20
374.380859375
 11
305.5
 21
367.6328125
 72
     1
 10
305.5
 20
367.6328125
 11
318.8125
 21
375.318359375
 72
     1
 10
318.8125
 20
375.318359375
 11
330.5
 21
382.06640625
 72
     1
 10
330.5
 20
382.06640625
 11
330.5
 21
410.93359375
 72
     1
 10
330.5
 20
410.93359375
 11
317.1875
 21
418.61962890625
 72
     1
 10
317.1875
 20
418.61962890625
 11
305.5
 21
425.36767578125
 97
        0
 75
     2
 76
     1
 98
        0
  0
ENDBLK
  5
24C
330
249
100
AcDbEntity
  8
0
100
AcDbBlockEnd
  0
BLOCK
  5
264
330
262
100
AcDbEntity
  8
0
100
AcDbBlockBegin
  2
block 24
 70
     0
 71
     0
 10
0.0
 20
0.0
 30
0.0
  3
block 24
  1

  0
POLYLINE
  5
266
330
262
100
AcDbEntity
  8
\U+56FE\U+5C42 1
370
     0
100
AcDb2dPolyline
 66
     1
 10
0.0
 20
0.0
 30
0.0
  0
VERTEX
  5
267
330
266
100
AcDbEntity
  8
\U+56FE\U+5C42 1
370
     0
100
AcDbVertex
100
AcDb2dVertex
 10
375.5
 20
466.5
 30
0.0
  0
VERTEX
  5
268
330
266
100
AcDbEntity
  8
\U+56FE\U+5C42 1
370
     0
100
AcDbVertex
100
AcDb2dVertex
 10
375.5
 20
326.5
 30
0.0
  0
VERTEX
  5
269
330
266
100
AcDbEntity
  8
\U+56FE\U+5C42 1
370
     0
100
AcDbVertex
100
AcDb2dVertex
 10
235.5
 20
326.5
 30
0.0
  0
VERTEX
  5
26A
330
266
100
AcDbEntity
  8
\U+56FE\U+5C42 1
370
     0
100
AcDbVertex
100
AcDb2dVertex
 10
235.5
 20
466.5
 30
0.0
  0
VERTEX
  5
26B
330
266
100
AcDbEntity
  8
\U+56FE\U+5C42 1
370
     0
100
AcDbVertex
100
AcDb2dVertex
 10
375.5
 20
466.5
 30
0.0
  0
SEQEND
  5
26C
330
266
100
AcDbEntity
  8
\U+56FE\U+5C42 1
370
     0
  0
POLYLINE
  5
26D
330
262
100
AcDbEntity
  8
\U+56FE\U+5C42 1
370
     0
100
AcDb2dPolyline
 66
     1
 10
0.0
 20
0.0
 30
0.0
  0
VERTEX
  5
26E
330
26D
100
AcDbEntity
  8
\U+56FE\U+5C42 1
370
     0
100
AcDbVertex
100
AcDb2dVertex
 10
305.5
 20
425.36767578125
 30
0.0
  0
VERTEX
  5
26F
330
26D
100
AcDbEntity
  8
\U+56FE\U+5C42 1
370
     0
100
AcDbVertex
100
AcDb2dVertex
 10
291.5625
 20
417.32080078125
 30
0.0
  0
VERTEX
  5
270
330
26D
100
AcDbEntity
  8
\U+56FE\U+5C42 1
370
     0
100
AcDbVertex
100
AcDb2dVertex
 10
280.5
 20
410.93359375
 30
0.0
  0
VERTEX
  5
271
330
26D
100
AcDbEntity
  8
\U+56FE\U+5C42 1
370
     0
100
AcDbVertex
100
AcDb2dVertex
 10
280.5
 20
382.06640625
 30
0.0
  0
VERTEX
  5
272
330
26D
100
AcDbEntity
  8
\U+56FE\U+5C42 1
370
     0
100
AcDbVertex
100
AcDb2dVertex
 10
294.4375
 20
374.01953125
 30
0.0
  0
VERTEX
  5
273
330
26D
100
AcDbEntity
  8
\U+56FE\U+5C42 1
370
     0
100
AcDbVertex
100
AcDb2dVertex
 10
305.5
 20
367.6328125
 30
0.0
  0
VERTEX
  5
274
330
26D
100
AcDbEntity
  8
\U+56FE\U+5C42 1
370
     0
100
AcDbVertex
100
AcDb2dVertex
 10
319.4375
 20
375.6796875
 30
0.0
  0
VERTEX
  5
275
330
26D
100
AcDbEntity
  8
\U+56FE\U+5C42 1
370
     0
100
AcDbVertex
100
AcDb2dVertex
 10
330.5
 20
382.06640625
 30
0.0
  0
VERTEX
  5
276
330
26D
100
AcDbEntity
  8
\U+56FE\U+5C42 1
370
     0
100
AcDbVertex
100
AcDb2dVertex
 10
330.5
 20
410.93359375
 30
0.0
  0
VERTEX
  5
277
330
26D
100
AcDbEntity
  8
\U+56FE\U+5C42 1
370
     0
100
AcDbVertex
100
AcDb2dVertex
 10
316.5625
 20
418.98046875
 30
0.0
  0
VERTEX
  5
278
330
26D
100
AcDbEntity
  8
\U+56FE\U+5C42 1
370
     0
100
AcDbVertex
100
AcDb2dVertex
 10
305.5
 20
425.36767578125
 30
0.0
  0
SEQEND
  5
279
330
26D
100
AcDbEntity
  8
\U+56FE\U+5C42 1
370
     0
  0
HATCH
  5
27A
330
262
100
AcDbEntity
  8
\U+56FE\U+5C42 1
 62
     7
100
AcDbHatch
 10
0.0
 20
0.0
 30
0.0
210
0.0
220
0.0
230
1.0
  2
SOLID
 70
     1
 71
     0
 91
        1
 92
        1
 93
       10
 72
     1
 10
305.5
 20
425.36767578125
 11
291.5625
 21
417.32080078125
 72
     1
 10
291.5625
 20
417.32080078125
 11
280.5
 21
410.93359375
 72
     1
 10
280.5
 20
410.93359375
 11
280.5
 21
382.06640625
 72
     1
 10
280.5
 20
382.06640625
 11
294.4375
 21
374.01953125
 72
     1
 10
294.4375
 20
374.01953125
 11
305.5
 21
367.6328125
 72
     1
 10
305.5
 20
367.6328125
 11
319.4375
 21
375.6796875
 72
     1
 10
319.4375
 20
375.6796875
 11
330.5
 21
382.06640625
 72
     1
 10
330.5
 20
382.06640625
 11
330.5
 21
410.93359375
 72
     1
 10
330.5
 20
410.93359375
 11
316.5625
 21
418.98046875
 72
     1
 10
316.5625
 20
418.98046875
 11
305.5
 21
425.36767578125
 97
        0
 75
     2
 76
     1
 98
        0
  0
ENDBLK
  5
265
330
262
100
AcDbEntity
  8
0
100
AcDbBlockEnd
  0
BLOCK
  5
27D
330
27B
100
AcDbEntity
  8
0
100
AcDbBlockBegin
  2
block 25
 70
     0
 71
     0
 10
0.0
 20
0.0
 30
0.0
  3
block 25
  1

  0
POLYLINE
  5
27F
330
27B
100
AcDbEntity
  8
\U+56FE\U+5C42 1
370
     0
100
AcDb2dPolyline
 66
     1
 10
0.0
 20
0.0
 30
0.0
  0
VERTEX
  5
280
330
27F
100
AcDbEntity
  8
\U+56FE\U+5C42 1
370
     0
100
AcDbVertex
100
AcDb2dVertex
 10
375.5
 20
466.5
 30
0.0
  0
VERTEX
  5
281
330
27F
100
AcDbEntity
  8
\U+56FE\U+5C42 1
370
     0
100
AcDbVertex
100
AcDb2dVertex
 10
375.5
 20
326.5
 30
0.0
  0
VERTEX
  5
282
330
27F
100
AcDbEntity
  8
\U+56FE\U+5C42 1
370
     0
100
AcDbVertex
100
AcDb2dVertex
 10
235.5
 20
326.5
 30
0.0
  0
VERTEX
  5
283
330
27F
100
AcDbEntity
  8
\U+56FE\U+5C42 1
370
     0
100
AcDbVertex
100
AcDb2dVertex
 10
235.5
 20
466.5
 30
0.0
  0
VERTEX
  5
284
330
27F
100
AcDbEntity
  8
\U+56FE\U+5C42 1
370
     0
100
AcDbVertex
100
AcDb2dVertex
 10
375.5
 20
466.5
 30
0.0
  0
SEQEND
  5
285
330
27F
100
AcDbEntity
  8
\U+56FE\U+5C42 1
370
     0
  0
POLYLINE
  5
286
330
27B
100
AcDbEntity
  8
\U+56FE\U+5C42 1
370
     0
100
AcDb2dPolyline
 66
     1
 10
0.0
 20
0.0
 30
0.0
  0
VERTEX
  5
287
330
286
100
AcDbEntity
  8
\U+56FE\U+5C42 1
370
     0
100
AcDbVertex
100
AcDb2dVertex
 10
305.5
 20
425.36767578125
 30
0.0
  0
VERTEX
  5
288
330
286
100
AcDbEntity
  8
\U+56FE\U+5C42 1
370
     0
100
AcDbVertex
100
AcDb2dVertex
 10
290.9375
 20
416.9599609375
 30
0.0
  0
VERTEX
  5
289
330
286
100
AcDbEntity
  8
\U+56FE\U+5C42 1
370
     0
100
AcDbVertex
100
AcDb2dVertex
 10
280.5
 20
410.93359375
 30
0.0
  0
VERTEX
  5
28A
330
286
100
AcDbEntity
  8
\U+56FE\U+5C42 1
370
     0
100
AcDbVertex
100
AcDb2dVertex
 10
280.5
 20
382.06640625
 30
0.0
  0
VERTEX
  5
28B
330
286
100
AcDbEntity
  8
\U+56FE\U+5C42 1
370
     0
100
AcDbVertex
100
AcDb2dVertex
 10
295.0625
 20
373.658203125
 30
0.0
  0
VERTEX
  5
28C
330
286
100
AcDbEntity
  8
\U+56FE\U+5C42 1
370
     0
100
AcDbVertex
100
AcDb2dVertex
 10
305.5
 20
367.6328125
 30
0.0
  0
VERTEX
  5
28D
330
286
100
AcDbEntity
  8
\U+56FE\U+5C42 1
370
     0
100
AcDbVertex
100
AcDb2dVertex
 10
320.0625
 20
376.0400390625
 30
0.0
  0
VERTEX
  5
28E
330
286
100
AcDbEntity
  8
\U+56FE\U+5C42 1
370
     0
100
AcDbVertex
100
AcDb2dVertex
 10
330.5
 20
382.06640625
 30
0.0
  0
VERTEX
  5
28F
330
286
100
AcDbEntity
  8
\U+56FE\U+5C42 1
370
     0
100
AcDbVertex
100
AcDb2dVertex
 10
330.5
 20
410.93359375
 30
0.0
  0
VERTEX
  5
290
330
286
100
AcDbEntity
  8
\U+56FE\U+5C42 1
370
     0
100
AcDbVertex
100
AcDb2dVertex
 10
315.9375
 20
419.34130859375
 30
0.0
  0
VERTEX
  5
291
330
286
100
AcDbEntity
  8
\U+56FE\U+5C42 1
370
     0
100
AcDbVertex
100
AcDb2dVertex
 10
305.5
 20
425.36767578125
 30
0.0
  0
SEQEND
  5
292
330
286
100
AcDbEntity
  8
\U+56FE\U+5C42 1
370
     0
  0
HATCH
  5
293
330
27B
100
AcDbEntity
  8
\U+56FE\U+5C42 1
 62
     7
100
AcDbHatch
 10
0.0
 20
0.0
 30
0.0
210
0.0
220
0.0
230
1.0
  2
SOLID
 70
     1
 71
     0
 91
        1
 92
        1
 93
       10
 72
     1
 10
305.5
 20
425.36767578125
 11
290.9375
 21
416.9599609375
 72
     1
 10
290.9375
 20
416.9599609375
 11
280.5
 21
410.93359375
 72
     1
 10
280.5
 20
410.93359375
 11
280.5
 21
382.06640625
 72
     1
 10
280.5
 20
382.06640625
 11
295.0625
 21
373.658203125
 72
     1
 10
295.0625
 20
373.658203125
 11
305.5
 21
367.6328125
 72
     1
 10
305.5
 20
367.6328125
 11
320.0625
 21
376.0400390625
 72
     1
 10
320.0625
 20
376.0400390625
 11
330.5
 21
382.06640625
 72
     1
 10
330.5
 20
382.06640625
 11
330.5
 21
410.93359375
 72
     1
 10
330.5
 20
410.93359375
 11
315.9375
 21
419.34130859375
 72
     1
 10
315.9375
 20
419.34130859375
 11
305.5
 21
425.36767578125
 97
        0
 75
     2
 76
     1
 98
        0
  0
ENDBLK
  5
27E
330
27B
100
AcDbEntity
  8
0
100
AcDbBlockEnd
  0
BLOCK
  5
296
330
294
100
AcDbEntity
  8
0
100
AcDbBlockBegin
  2
block 26
 70
     0
 71
     0
 10
0.0
 20
0.0
 30
0.0
  3
block 26
  1

  0
POLYLINE
  5
298
330
294
100
AcDbEntity
  8
\U+56FE\U+5C42 1
370
     0
100
AcDb2dPolyline
 66
     1
 10
0.0
 20
0.0
 30
0.0
  0
VERTEX
  5
299
330
298
100
AcDbEntity
  8
\U+56FE\U+5C42 1
370
     0
100
AcDbVertex
100
AcDb2dVertex
 10
375.5
 20
466.5
 30
0.0
  0
VERTEX
  5
29A
330
298
100
AcDbEntity
  8
\U+56FE\U+5C42 1
370
     0
100
AcDbVertex
100
AcDb2dVertex
 10
375.5
 20
326.5
 30
0.0
  0
VERTEX
  5
29B
330
298
100
AcDbEntity
  8
\U+56FE\U+5C42 1
370
     0
100
AcDbVertex
100
AcDb2dVertex
 10
235.5
 20
326.5
 30
0.0
  0
VERTEX
  5
29C
330
298
100
AcDbEntity
  8
\U+56FE\U+5C42 1
370
     0
100
AcDbVertex
100
AcDb2dVertex
 10
235.5
 20
466.5
 30
0.0
  0
VERTEX
  5
29D
330
298
100
AcDbEntity
  8
\U+56FE\U+5C42 1
370
     0
100
AcDbVertex
100
AcDb2dVertex
 10
375.5
 20
466.5
 30
0.0
  0
SEQEND
  5
29E
330
298
100
AcDbEntity
  8
\U+56FE\U+5C42 1
370
     0
  0
POLYLINE
  5
29F
330
294
100
AcDbEntity
  8
\U+56FE\U+5C42 1
370
     0
100
AcDb2dPolyline
 66
     1
 10
0.0
 20
0.0
 30
0.0
  0
VERTEX
  5
2A0
330
29F
100
AcDbEntity
  8
\U+56FE\U+5C42 1
370
     0
100
AcDbVertex
100
AcDb2dVertex
 10
305.5
 20
425.36767578125
 30
0.0
  0
VERTEX
  5
2A1
330
29F
100
AcDbEntity
  8
\U+56FE\U+5C42 1
370
     0
100
AcDbVertex
100
AcDb2dVertex
 10
290.3125
 20
416.59912109375
 30
0.0
  0
VERTEX
  5
2A2
330
29F
100
AcDbEntity
  8
\U+56FE\U+5C42 1
370
     0
100
AcDbVertex
100
AcDb2dVertex
 10
280.5
 20
410.93359375
 30
0.0
  0
VERTEX
  5
2A3
330
29F
100
AcDbEntity
  8
\U+56FE\U+5C42 1
370
     0
100
AcDbVertex
100
AcDb2dVertex
 10
280.5
 20
382.06640625
 30
0.0
  0
VERTEX
  5
2A4
330
29F
100
AcDbEntity
  8
\U+56FE\U+5C42 1
370
     0
100
AcDbVertex
100
AcDb2dVertex
 10
295.6875
 20
373.2978515625
 30
0.0
  0
VERTEX
  5
2A5
330
29F
100
AcDbEntity
  8
\U+56FE\U+5C42 1
370
     0
100
AcDbVertex
100
AcDb2dVertex
 10
305.5
 20
367.6328125
 30
0.0
  0
VERTEX
  5
2A6
330
29F
100
AcDbEntity
  8
\U+56FE\U+5C42 1
370
     0
100
AcDbVertex
100
AcDb2dVertex
 10
320.6875
 20
376.400390625
 30
0.0
  0
VERTEX
  5
2A7
330
29F
100
AcDbEntity
  8
\U+56FE\U+5C42 1
370
     0
100
AcDbVertex
100
AcDb2dVertex
 10
330.5
 20
382.06640625
 30
0.0
  0
VERTEX
  5
2A8
330
29F
100
AcDbEntity
  8
\U+56FE\U+5C42 1
370
     0
100
AcDbVertex
100
AcDb2dVertex
 10
330.5
 20
410.93359375
 30
0.0
  0
VERTEX
  5
2A9
330
29F
100
AcDbEntity
  8
\U+56FE\U+5C42 1
370
     0
100
AcDbVertex
100
AcDb2dVertex
 10
315.3125
 20
419.7021484375
 30
0.0
  0
VERTEX
  5
2AA
330
29F
100
AcDbEntity
  8
\U+56FE\U+5C42 1
370
     0
100
AcDbVertex
100
AcDb2dVertex
 10
305.5
 20
425.36767578125
 30
0.0
  0
SEQEND
  5
2AB
330
29F
100
AcDbEntity
  8
\U+56FE\U+5C42 1
370
     0
  0
HATCH
  5
2AC
330
294
100
AcDbEntity
  8
\U+56FE\U+5C42 1
 62
     7
100
AcDbHatch
 10
0.0
 20
0.0
 30
0.0
210
0.0
220
0.0
230
1.0
  2
SOLID
 70
     1
 71
     0
 91
        1
 92
        1
 93
       10
 72
     1
 10
305.5
 20
425.36767578125
 11
290.3125
 21
416.59912109375
 72
     1
 10
290.3125
 20
416.59912109375
 11
280.5
 21
410.93359375
 72
     1
 10
280.5
 20
410.93359375
 11
280.5
 21
382.06640625
 72
     1
 10
280.5
 20
382.06640625
 11
295.6875
 21
373.2978515625
 72
     1
 10
295.6875
 20
373.2978515625
 11
305.5
 21
367.6328125
 72
     1
 10
305.5
 20
367.6328125
 11
320.6875
 21
376.400390625
 72
     1
 10
320.6875
 20
376.400390625
 11
330.5
 21
382.06640625
 72
     1
 10
330.5
 20
382.06640625
 11
330.5
 21
410.93359375
 72
     1
 10
330.5
 20
410.93359375
 11
315.3125
 21
419.7021484375
 72
     1
 10
315.3125
 20
419.7021484375
 11
305.5
 21
425.36767578125
 97
        0
 75
     2
 76
     1
 98
        0
  0
ENDBLK
  5
297
330
294
100
AcDbEntity
  8
0
100
AcDbBlockEnd
  0
BLOCK
  5
2AF
330
2AD
100
AcDbEntity
  8
0
100
AcDbBlockBegin
  2
block 27
 70
     0
 71
     0
 10
0.0
 20
0.0
 30
0.0
  3
block 27
  1

  0
POLYLINE
  5
2B1
330
2AD
100
AcDbEntity
  8
\U+56FE\U+5C42 1
370
     0
100
AcDb2dPolyline
 66
     1
 10
0.0
 20
0.0
 30
0.0
  0
VERTEX
  5
2B2
330
2B1
100
AcDbEntity
  8
\U+56FE\U+5C42 1
370
     0
100
AcDbVertex
100
AcDb2dVertex
 10
375.5
 20
466.5
 30
0.0
  0
VERTEX
  5
2B3
330
2B1
100
AcDbEntity
  8
\U+56FE\U+5C42 1
370
     0
100
AcDbVertex
100
AcDb2dVertex
 10
375.5
 20
326.5
 30
0.0
  0
VERTEX
  5
2B4
330
2B1
100
AcDbEntity
  8
\U+56FE\U+5C42 1
370
     0
100
AcDbVertex
100
AcDb2dVertex
 10
235.5
 20
326.5
 30
0.0
  0
VERTEX
  5
2B5
330
2B1
100
AcDbEntity
  8
\U+56FE\U+5C42 1
370
     0
100
AcDbVertex
100
AcDb2dVertex
 10
235.5
 20
466.5
 30
0.0
  0
VERTEX
  5
2B6
330
2B1
100
AcDbEntity
  8
\U+56FE\U+5C42 1
370
     0
100
AcDbVertex
100
AcDb2dVertex
 10
375.5
 20
466.5
 30
0.0
  0
SEQEND
  5
2B7
330
2B1
100
AcDbEntity
  8
\U+56FE\U+5C42 1
370
     0
  0
POLYLINE
  5
2B8
330
2AD
100
AcDbEntity
  8
\U+56FE\U+5C42 1
370
     0
100
AcDb2dPolyline
 66
     1
 10
0.0
 20
0.0
 30
0.0
  0
VERTEX
  5
2B9
330
2B8
100
AcDbEntity
  8
\U+56FE\U+5C42 1
370
     0
100
AcDbVertex
100
AcDb2dVertex
 10
305.5
 20
425.36767578125
 30
0.0
  0
VERTEX
  5
2BA
330
2B8
100
AcDbEntity
  8
\U+56FE\U+5C42 1
370
     0
100
AcDbVertex
100
AcDb2dVertex
 10
289.6875
 20
416.23828125
 30
0.0
  0
VERTEX
  5
2BB
330
2B8
100
AcDbEntity
  8
\U+56FE\U+5C42 1
370
     0
100
AcDbVertex
100
AcDb2dVertex
 10
280.5
 20
410.93359375
 30
0.0
  0
VERTEX
  5
2BC
330
2B8
100
AcDbEntity
  8
\U+56FE\U+5C42 1
370
     0
100
AcDbVertex
100
AcDb2dVertex
 10
280.5
 20
382.06640625
 30
0.0
  0
VERTEX
  5
2BD
330
2B8
100
AcDbEntity
  8
\U+56FE\U+5C42 1
370
     0
100
AcDbVertex
100
AcDb2dVertex
 10
296.3125
 20
372.9375
 30
0.0
  0
VERTEX
  5
2BE
330
2B8
100
AcDbEntity
  8
\U+56FE\U+5C42 1
370
     0
100
AcDbVertex
100
AcDb2dVertex
 10
305.5
 20
367.6328125
 30
0.0
  0
VERTEX
  5
2BF
330
2B8
100
AcDbEntity
  8
\U+56FE\U+5C42 1
370
     0
100
AcDbVertex
100
AcDb2dVertex
 10
321.3125
 20
376.76171875
 30
0.0
  0
VERTEX
  5
2C0
330
2B8
100
AcDbEntity
  8
\U+56FE\U+5C42 1
370
     0
100
AcDbVertex
100
AcDb2dVertex
 10
330.5
 20
382.06640625
 30
0.0
  0
VERTEX
  5
2C1
330
2B8
100
AcDbEntity
  8
\U+56FE\U+5C42 1
370
     0
100
AcDbVertex
100
AcDb2dVertex
 10
330.5
 20
410.93359375
 30
0.0
  0
VERTEX
  5
2C2
330
2B8
100
AcDbEntity
  8
\U+56FE\U+5C42 1
370
     0
100
AcDbVertex
100
AcDb2dVertex
 10
314.6875
 20
420.06298828125
 30
0.0
  0
VERTEX
  5
2C3
330
2B8
100
AcDbEntity
  8
\U+56FE\U+5C42 1
370
     0
100
AcDbVertex
100
AcDb2dVertex
 10
305.5
 20
425.36767578125
 30
0.0
  0
SEQEND
  5
2C4
330
2B8
100
AcDbEntity
  8
\U+56FE\U+5C42 1
370
     0
  0
HATCH
  5
2C5
330
2AD
100
AcDbEntity
  8
\U+56FE\U+5C42 1
 62
     7
100
AcDbHatch
 10
0.0
 20
0.0
 30
0.0
210
0.0
220
0.0
230
1.0
  2
SOLID
 70
     1
 71
     0
 91
        1
 92
        1
 93
       10
 72
     1
 10
305.5
 20
425.36767578125
 11
289.6875
 21
416.23828125
 72
     1
 10
289.6875
 20
416.23828125
 11
280.5
 21
410.93359375
 72
     1
 10
280.5
 20
410.93359375
 11
280.5
 21
382.06640625
 72
     1
 10
280.5
 20
382.06640625
 11
296.3125
 21
372.9375
 72
     1
 10
296.3125
 20
372.9375
 11
305.5
 21
367.6328125
 72
     1
 10
305.5
 20
367.6328125
 11
321.3125
 21
376.76171875
 72
     1
 10
321.3125
 20
376.76171875
 11
330.5
 21
382.06640625
 72
     1
 10
330.5
 20
382.06640625
 11
330.5
 21
410.93359375
 72
     1
 10
330.5
 20
410.93359375
 11
314.6875
 21
420.06298828125
 72
     1
 10
314.6875
 20
420.06298828125
 11
305.5
 21
425.36767578125
 97
        0
 75
     2
 76
     1
 98
        0
  0
ENDBLK
  5
2B0
330
2AD
100
AcDbEntity
  8
0
100
AcDbBlockEnd
  0
BLOCK
  5
2C8
330
2C6
100
AcDbEntity
  8
0
100
AcDbBlockBegin
  2
block 28
 70
     0
 71
     0
 10
0.0
 20
0.0
 30
0.0
  3
block 28
  1

  0
POLYLINE
  5
2CA
330
2C6
100
AcDbEntity
  8
\U+56FE\U+5C42 1
370
     0
100
AcDb2dPolyline
 66
     1
 10
0.0
 20
0.0
 30
0.0
  0
VERTEX
  5
2CB
330
2CA
100
AcDbEntity
  8
\U+56FE\U+5C42 1
370
     0
100
AcDbVertex
100
AcDb2dVertex
 10
375.5
 20
466.5
 30
0.0
  0
VERTEX
  5
2CC
330
2CA
100
AcDbEntity
  8
\U+56FE\U+5C42 1
370
     0
100
AcDbVertex
100
AcDb2dVertex
 10
375.5
 20
326.5
 30
0.0
  0
VERTEX
  5
2CD
330
2CA
100
AcDbEntity
  8
\U+56FE\U+5C42 1
370
     0
100
AcDbVertex
100
AcDb2dVertex
 10
235.5
 20
326.5
 30
0.0
  0
VERTEX
  5
2CE
330
2CA
100
AcDbEntity
  8
\U+56FE\U+5C42 1
370
     0
100
AcDbVertex
100
AcDb2dVertex
 10
235.5
 20
466.5
 30
0.0
  0
VERTEX
  5
2CF
330
2CA
100
AcDbEntity
  8
\U+56FE\U+5C42 1
370
     0
100
AcDbVertex
100
AcDb2dVertex
 10
375.5
 20
466.5
 30
0.0
  0
SEQEND
  5
2D0
330
2CA
100
AcDbEntity
  8
\U+56FE\U+5C42 1
370
     0
  0
POLYLINE
  5
2D1
330
2C6
100
AcDbEntity
  8
\U+56FE\U+5C42 1
370
     0
100
AcDb2dPolyline
 66
     1
 10
0.0
 20
0.0
 30
0.0
  0
VERTEX
  5
2D2
330
2D1
100
AcDbEntity
  8
\U+56FE\U+5C42 1
370
     0
100
AcDbVertex
100
AcDb2dVertex
 10
305.5
 20
425.36767578125
 30
0.0
  0
VERTEX
  5
2D3
330
2D1
100
AcDbEntity
  8
\U+56FE\U+5C42 1
370
     0
100
AcDbVertex
100
AcDb2dVertex
 10
289.0625
 20
415.87744140625
 30
0.0
  0
VERTEX
  5
2D4
330
2D1
100
AcDbEntity
  8
\U+56FE\U+5C42 1
370
     0
100
AcDbVertex
100
AcDb2dVertex
 10
280.5
 20
410.93359375
 30
0.0
  0
VERTEX
  5
2D5
330
2D1
100
AcDbEntity
  8
\U+56FE\U+5C42 1
370
     0
100
AcDbVertex
100
AcDb2dVertex
 10
280.5
 20
382.06640625
 30
0.0
  0
VERTEX
  5
2D6
330
2D1
100
AcDbEntity
  8
\U+56FE\U+5C42 1
370
     0
100
AcDbVertex
100
AcDb2dVertex
 10
296.9375
 20
372.576171875
 30
0.0
  0
VERTEX
  5
2D7
330
2D1
100
AcDbEntity
  8
\U+56FE\U+5C42 1
370
     0
100
AcDbVertex
100
AcDb2dVertex
 10
305.5
 20
367.6328125
 30
0.0
  0
VERTEX
  5
2D8
330
2D1
100
AcDbEntity
  8
\U+56FE\U+5C42 1
370
     0
100
AcDbVertex
100
AcDb2dVertex
 10
321.9375
 20
377.123046875
 30
0.0
  0
VERTEX
  5
2D9
330
2D1
100
AcDbEntity
  8
\U+56FE\U+5C42 1
370
     0
100
AcDbVertex
100
AcDb2dVertex
 10
330.5
 20
382.06640625
 30
0.0
  0
VERTEX
  5
2DA
330
2D1
100
AcDbEntity
  8
\U+56FE\U+5C42 1
370
     0
100
AcDbVertex
100
AcDb2dVertex
 10
330.5
 20
410.93359375
 30
0.0
  0
VERTEX
  5
2DB
330
2D1
100
AcDbEntity
  8
\U+56FE\U+5C42 1
370
     0
100
AcDbVertex
100
AcDb2dVertex
 10
314.0625
 20
420.423828125
 30
0.0
  0
VERTEX
  5
2DC
330
2D1
100
AcDbEntity
  8
\U+56FE\U+5C42 1
370
     0
100
AcDbVertex
100
AcDb2dVertex
 10
305.5
 20
425.36767578125
 30
0.0
  0
SEQEND
  5
2DD
330
2D1
100
AcDbEntity
  8
\U+56FE\U+5C42 1
370
     0
  0
HATCH
  5
2DE
330
2C6
100
AcDbEntity
  8
\U+56FE\U+5C42 1
 62
     7
100
AcDbHatch
 10
0.0
 20
0.0
 30
0.0
210
0.0
220
0.0
230
1.0
  2
SOLID
 70
     1
 71
     0
 91
        1
 92
        1
 93
       10
 72
     1
 10
305.5
 20
425.36767578125
 11
289.0625
 21
415.87744140625
 72
     1
 10
289.0625
 20
415.87744140625
 11
280.5
 21
410.93359375
 72
     1
 10
280.5
 20
410.93359375
 11
280.5
 21
382.06640625
 72
     1
 10
280.5
 20
382.06640625
 11
296.9375
 21
372.576171875
 72
     1
 10
296.9375
 20
372.576171875
 11
305.5
 21
367.6328125
 72
     1
 10
305.5
 20
367.6328125
 11
321.9375
 21
377.123046875
 72
     1
 10
321.9375
 20
377.123046875
 11
330.5
 21
382.06640625
 72
     1
 10
330.5
 20
382.06640625
 11
330.5
 21
410.93359375
 72
     1
 10
330.5
 20
410.93359375
 11
314.0625
 21
420.423828125
 72
     1
 10
314.0625
 20
420.423828125
 11
305.5
 21
425.36767578125
 97
        0
 75
     2
 76
     1
 98
        0
  0
ENDBLK
  5
2C9
330
2C6
100
AcDbEntity
  8
0
100
AcDbBlockEnd
  0
BLOCK
  5
2E1
330
2DF
100
AcDbEntity
  8
0
100
AcDbBlockBegin
  2
block 29
 70
     0
 71
     0
 10
0.0
 20
0.0
 30
0.0
  3
block 29
  1

  0
POLYLINE
  5
2E3
330
2DF
100
AcDbEntity
  8
\U+56FE\U+5C42 1
370
     0
100
AcDb2dPolyline
 66
     1
 10
0.0
 20
0.0
 30
0.0
  0
VERTEX
  5
2E4
330
2E3
100
AcDbEntity
  8
\U+56FE\U+5C42 1
370
     0
100
AcDbVertex
100
AcDb2dVertex
 10
375.5
 20
466.5
 30
0.0
  0
VERTEX
  5
2E5
330
2E3
100
AcDbEntity
  8
\U+56FE\U+5C42 1
370
     0
100
AcDbVertex
100
AcDb2dVertex
 10
375.5
 20
326.5
 30
0.0
  0
VERTEX
  5
2E6
330
2E3
100
AcDbEntity
  8
\U+56FE\U+5C42 1
370
     0
100
AcDbVertex
100
AcDb2dVertex
 10
235.5
 20
326.5
 30
0.0
  0
VERTEX
  5
2E7
330
2E3
100
AcDbEntity
  8
\U+56FE\U+5C42 1
370
     0
100
AcDbVertex
100
AcDb2dVertex
 10
235.5
 20
466.5
 30
0.0
  0
VERTEX
  5
2E8
330
2E3
100
AcDbEntity
  8
\U+56FE\U+5C42 1
370
     0
100
AcDbVertex
100
AcDb2dVertex
 10
375.5
 20
466.5
 30
0.0
  0
SEQEND
  5
2E9
330
2E3
100
AcDbEntity
  8
\U+56FE\U+5C42 1
370
     0
  0
POLYLINE
  5
2EA
330
2DF
100
AcDbEntity
  8
\U+56FE\U+5C42 1
370
     0
100
AcDb2dPolyline
 66
     1
 10
0.0
 20
0.0
 30
0.0
  0
VERTEX
  5
2EB
330
2EA
100
AcDbEntity
  8
\U+56FE\U+5C42 1
370
     0
100
AcDbVertex
100
AcDb2dVertex
 10
305.5
 20
425.36767578125
 30
0.0
  0
VERTEX
  5
2EC
330
2EA
100
AcDbEntity
  8
\U+56FE\U+5C42 1
370
     0
100
AcDbVertex
100
AcDb2dVertex
 10
288.4375
 20
415.5166015625
 30
0.0
  0
VERTEX
  5
2ED
330
2EA
100
AcDbEntity
  8
\U+56FE\U+5C42 1
370
     0
100
AcDbVertex
100
AcDb2dVertex
 10
280.5
 20
410.93359375
 30
0.0
  0
VERTEX
  5
2EE
330
2EA
100
AcDbEntity
  8
\U+56FE\U+5C42 1
370
     0
100
AcDbVertex
100
AcDb2dVertex
 10
280.5
 20
382.06640625
 30
0.0
  0
VERTEX
  5
2EF
330
2EA
100
AcDbEntity
  8
\U+56FE\U+5C42 1
370
     0
100
AcDbVertex
100
AcDb2dVertex
 10
297.5625
 20
372.21484375
 30
0.0
  0
VERTEX
  5
2F0
330
2EA
100
AcDbEntity
  8
\U+56FE\U+5C42 1
370
     0
100
AcDbVertex
100
AcDb2dVertex
 10
305.5
 20
367.6328125
 30
0.0
  0
VERTEX
  5
2F1
330
2EA
100
AcDbEntity
  8
\U+56FE\U+5C42 1
370
     0
100
AcDbVertex
100
AcDb2dVertex
 10
322.5625
 20
377.4833984375
 30
0.0
  0
VERTEX
  5
2F2
330
2EA
100
AcDbEntity
  8
\U+56FE\U+5C42 1
370
     0
100
AcDbVertex
100
AcDb2dVertex
 10
330.5
 20
382.06640625
 30
0.0
  0
VERTEX
  5
2F3
330
2EA
100
AcDbEntity
  8
\U+56FE\U+5C42 1
370
     0
100
AcDbVertex
100
AcDb2dVertex
 10
330.5
 20
410.93359375
 30
0.0
  0
VERTEX
  5
2F4
330
2EA
100
AcDbEntity
  8
\U+56FE\U+5C42 1
370
     0
100
AcDbVertex
100
AcDb2dVertex
 10
313.4375
 20
420.78466796875
 30
0.0
  0
VERTEX
  5
2F5
330
2EA
100
AcDbEntity
  8
\U+56FE\U+5C42 1
370
     0
100
AcDbVertex
100
AcDb2dVertex
 10
305.5
 20
425.36767578125
 30
0.0
  0
SEQEND
  5
2F6
330
2EA
100
AcDbEntity
  8
\U+56FE\U+5C42 1
370
     0
  0
HATCH
  5
2F7
330
2DF
100
AcDbEntity
  8
\U+56FE\U+5C42 1
 62
     7
100
AcDbHatch
 10
0.0
 20
0.0
 30
0.0
210
0.0
220
0.0
230
1.0
  2
SOLID
 70
     1
 71
     0
 91
        1
 92
        1
 93
       10
 72
     1
 10
305.5
 20
425.36767578125
 11
288.4375
 21
415.5166015625
 72
     1
 10
288.4375
 20
415.5166015625
 11
280.5
 21
410.93359375
 72
     1
 10
280.5
 20
410.93359375
 11
280.5
 21
382.06640625
 72
     1
 10
280.5
 20
382.06640625
 11
297.5625
 21
372.21484375
 72
     1
 10
297.5625
 20
372.21484375
 11
305.5
 21
367.6328125
 72
     1
 10
305.5
 20
367.6328125
 11
322.5625
 21
377.4833984375
 72
     1
 10
322.5625
 20
377.4833984375
 11
330.5
 21
382.06640625
 72
     1
 10
330.5
 20
382.06640625
 11
330.5
 21
410.93359375
 72
     1
 10
330.5
 20
410.93359375
 11
313.4375
 21
420.78466796875
 72
     1
 10
313.4375
 20
420.78466796875
 11
305.5
 21
425.36767578125
 97
        0
 75
     2
 76
     1
 98
        0
  0
ENDBLK
  5
2E2
330
2DF
100
AcDbEntity
  8
0
100
AcDbBlockEnd
  0
BLOCK
  5
2FA
330
2F8
100
AcDbEntity
  8
0
100
AcDbBlockBegin
  2
block 30
 70
     0
 71
     0
 10
0.0
 20
0.0
 30
0.0
  3
block 30
  1

  0
POLYLINE
  5
2FC
330
2F8
100
AcDbEntity
  8
\U+56FE\U+5C42 1
370
     0
100
AcDb2dPolyline
 66
     1
 10
0.0
 20
0.0
 30
0.0
  0
VERTEX
  5
2FD
330
2FC
100
AcDbEntity
  8
\U+56FE\U+5C42 1
370
     0
100
AcDbVertex
100
AcDb2dVertex
 10
375.5
 20
466.5
 30
0.0
  0
VERTEX
  5
2FE
330
2FC
100
AcDbEntity
  8
\U+56FE\U+5C42 1
370
     0
100
AcDbVertex
100
AcDb2dVertex
 10
375.5
 20
326.5
 30
0.0
  0
VERTEX
  5
2FF
330
2FC
100
AcDbEntity
  8
\U+56FE\U+5C42 1
370
     0
100
AcDbVertex
100
AcDb2dVertex
 10
235.5
 20
326.5
 30
0.0
  0
VERTEX
  5
300
330
2FC
100
AcDbEntity
  8
\U+56FE\U+5C42 1
370
     0
100
AcDbVertex
100
AcDb2dVertex
 10
235.5
 20
466.5
 30
0.0
  0
VERTEX
  5
301
330
2FC
100
AcDbEntity
  8
\U+56FE\U+5C42 1
370
     0
100
AcDbVertex
100
AcDb2dVertex
 10
375.5
 20
466.5
 30
0.0
  0
SEQEND
  5
302
330
2FC
100
AcDbEntity
  8
\U+56FE\U+5C42 1
370
     0
  0
POLYLINE
  5
303
330
2F8
100
AcDbEntity
  8
\U+56FE\U+5C42 1
370
     0
100
AcDb2dPolyline
 66
     1
 10
0.0
 20
0.0
 30
0.0
  0
VERTEX
  5
304
330
303
100
AcDbEntity
  8
\U+56FE\U+5C42 1
370
     0
100
AcDbVertex
100
AcDb2dVertex
 10
305.5
 20
425.36767578125
 30
0.0
  0
VERTEX
  5
305
330
303
100
AcDbEntity
  8
\U+56FE\U+5C42 1
370
     0
100
AcDbVertex
100
AcDb2dVertex
 10
287.8125
 20
415.15576171875
 30
0.0
  0
VERTEX
  5
306
330
303
100
AcDbEntity
  8
\U+56FE\U+5C42 1
370
     0
100
AcDbVertex
100
AcDb2dVertex
 10
280.5
 20
410.93359375
 30
0.0
  0
VERTEX
  5
307
330
303
100
AcDbEntity
  8
\U+56FE\U+5C42 1
370
     0
100
AcDbVertex
100
AcDb2dVertex
 10
280.5
 20
382.06640625
 30
0.0
  0
VERTEX
  5
308
330
303
100
AcDbEntity
  8
\U+56FE\U+5C42 1
370
     0
100
AcDbVertex
100
AcDb2dVertex
 10
298.1875
 20
371.8544921875
 30
0.0
  0
VERTEX
  5
309
330
303
100
AcDbEntity
  8
\U+56FE\U+5C42 1
370
     0
100
AcDbVertex
100
AcDb2dVertex
 10
305.5
 20
367.6328125
 30
0.0
  0
VERTEX
  5
30A
330
303
100
AcDbEntity
  8
\U+56FE\U+5C42 1
370
     0
100
AcDbVertex
100
AcDb2dVertex
 10
323.1875
 20
377.84375
 30
0.0
  0
VERTEX
  5
30B
330
303
100
AcDbEntity
  8
\U+56FE\U+5C42 1
370
     0
100
AcDbVertex
100
AcDb2dVertex
 10
330.5
 20
382.06640625
 30
0.0
  0
VERTEX
  5
30C
330
303
100
AcDbEntity
  8
\U+56FE\U+5C42 1
370
     0
100
AcDbVertex
100
AcDb2dVertex
 10
330.5
 20
410.93359375
 30
0.0
  0
VERTEX
  5
30D
330
303
100
AcDbEntity
  8
\U+56FE\U+5C42 1
370
     0
100
AcDbVertex
100
AcDb2dVertex
 10
312.8125
 20
421.1455078125
 30
0.0
  0
VERTEX
  5
30E
330
303
100
AcDbEntity
  8
\U+56FE\U+5C42 1
370
     0
100
AcDbVertex
100
AcDb2dVertex
 10
305.5
 20
425.36767578125
 30
0.0
  0
SEQEND
  5
30F
330
303
100
AcDbEntity
  8
\U+56FE\U+5C42 1
370
     0
  0
HATCH
  5
310
330
2F8
100
AcDbEntity
  8
\U+56FE\U+5C42 1
 62
     7
100
AcDbHatch
 10
0.0
 20
0.0
 30
0.0
210
0.0
220
0.0
230
1.0
  2
SOLID
 70
     1
 71
     0
 91
        1
 92
        1
 93
       10
 72
     1
 10
305.5
 20
425.36767578125
 11
287.8125
 21
415.15576171875
 72
     1
 10
287.8125
 20
415.15576171875
 11
280.5
 21
410.93359375
 72
     1
 10
280.5
 20
410.93359375
 11
280.5
 21
382.06640625
 72
     1
 10
280.5
 20
382.06640625
 11
298.1875
 21
371.8544921875
 72
     1
 10
298.1875
 20
371.8544921875
 11
305.5
 21
367.6328125
 72
     1
 10
305.5
 20
367.6328125
 11
323.1875
 21
377.84375
 72
     1
 10
323.1875
 20
377.84375
 11
330.5
 21
382.06640625
 72
     1
 10
330.5
 20
382.06640625
 11
330.5
 21
410.93359375
 72
     1
 10
330.5
 20
410.93359375
 11
312.8125
 21
421.1455078125
 72
     1
 10
312.8125
 20
421.1455078125
 11
305.5
 21
425.36767578125
 97
        0
 75
     2
 76
     1
 98
        0
  0
ENDBLK
  5
2FB
330
2F8
100
AcDbEntity
  8
0
100
AcDbBlockEnd
  0
BLOCK
  5
313
330
311
100
AcDbEntity
  8
0
100
AcDbBlockBegin
  2
block 31
 70
     0
 71
     0
 10
0.0
 20
0.0
 30
0.0
  3
block 31
  1

  0
POLYLINE
  5
315
330
311
100
AcDbEntity
  8
\U+56FE\U+5C42 1
370
     0
100
AcDb2dPolyline
 66
     1
 10
0.0
 20
0.0
 30
0.0
  0
VERTEX
  5
316
330
315
100
AcDbEntity
  8
\U+56FE\U+5C42 1
370
     0
100
AcDbVertex
100
AcDb2dVertex
 10
375.5
 20
466.5
 30
0.0
  0
VERTEX
  5
317
330
315
100
AcDbEntity
  8
\U+56FE\U+5C42 1
370
     0
100
AcDbVertex
100
AcDb2dVertex
 10
375.5
 20
326.5
 30
0.0
  0
VERTEX
  5
318
330
315
100
AcDbEntity
  8
\U+56FE\U+5C42 1
370
     0
100
AcDbVertex
100
AcDb2dVertex
 10
235.5
 20
326.5
 30
0.0
  0
VERTEX
  5
319
330
315
100
AcDbEntity
  8
\U+56FE\U+5C42 1
370
     0
100
AcDbVertex
100
AcDb2dVertex
 10
235.5
 20
466.5
 30
0.0
  0
VERTEX
  5
31A
330
315
100
AcDbEntity
  8
\U+56FE\U+5C42 1
370
     0
100
AcDbVertex
100
AcDb2dVertex
 10
375.5
 20
466.5
 30
0.0
  0
SEQEND
  5
31B
330
315
100
AcDbEntity
  8
\U+56FE\U+5C42 1
370
     0
  0
POLYLINE
  5
31C
330
311
100
AcDbEntity
  8
\U+56FE\U+5C42 1
370
     0
100
AcDb2dPolyline
 66
     1
 10
0.0
 20
0.0
 30
0.0
  0
VERTEX
  5
31D
330
31C
100
AcDbEntity
  8
\U+56FE\U+5C42 1
370
     0
100
AcDbVertex
100
AcDb2dVertex
 10
305.5
 20
425.36767578125
 30
0.0
  0
VERTEX
  5
31E
330
31C
100
AcDbEntity
  8
\U+56FE\U+5C42 1
370
     0
100
AcDbVertex
100
AcDb2dVertex
 10
287.1875
 20
414.794921875
 30
0.0
  0
VERTEX
  5
31F
330
31C
100
AcDbEntity
  8
\U+56FE\U+5C42 1
370
     0
100
AcDbVertex
100
AcDb2dVertex
 10
280.5
 20
410.93359375
 30
0.0
  0
VERTEX
  5
320
330
31C
100
AcDbEntity
  8
\U+56FE\U+5C42 1
370
     0
100
AcDbVertex
100
AcDb2dVertex
 10
280.5
 20
382.06640625
 30
0.0
  0
VERTEX
  5
321
330
31C
100
AcDbEntity
  8
\U+56FE\U+5C42 1
370
     0
100
AcDbVertex
100
AcDb2dVertex
 10
298.8125
 20
371.494140625
 30
0.0
  0
VERTEX
  5
322
330
31C
100
AcDbEntity
  8
\U+56FE\U+5C42 1
370
     0
100
AcDbVertex
100
AcDb2dVertex
 10
305.5
 20
367.6328125
 30
0.0
  0
VERTEX
  5
323
330
31C
100
AcDbEntity
  8
\U+56FE\U+5C42 1
370
     0
100
AcDbVertex
100
AcDb2dVertex
 10
323.8125
 20
378.205078125
 30
0.0
  0
VERTEX
  5
324
330
31C
100
AcDbEntity
  8
\U+56FE\U+5C42 1
370
     0
100
AcDbVertex
100
AcDb2dVertex
 10
330.5
 20
382.06640625
 30
0.0
  0
VERTEX
  5
325
330
31C
100
AcDbEntity
  8
\U+56FE\U+5C42 1
370
     0
100
AcDbVertex
100
AcDb2dVertex
 10
330.5
 20
410.93359375
 30
0.0
  0
VERTEX
  5
326
330
31C
100
AcDbEntity
  8
\U+56FE\U+5C42 1
370
     0
100
AcDbVertex
100
AcDb2dVertex
 10
312.1875
 20
421.50634765625
 30
0.0
  0
VERTEX
  5
327
330
31C
100
AcDbEntity
  8
\U+56FE\U+5C42 1
370
     0
100
AcDbVertex
100
AcDb2dVertex
 10
305.5
 20
425.36767578125
 30
0.0
  0
SEQEND
  5
328
330
31C
100
AcDbEntity
  8
\U+56FE\U+5C42 1
370
     0
  0
HATCH
  5
329
330
311
100
AcDbEntity
  8
\U+56FE\U+5C42 1
 62
     7
100
AcDbHatch
 10
0.0
 20
0.0
 30
0.0
210
0.0
220
0.0
230
1.0
  2
SOLID
 70
     1
 71
     0
 91
        1
 92
        1
 93
       10
 72
     1
 10
305.5
 20
425.36767578125
 11
287.1875
 21
414.794921875
 72
     1
 10
287.1875
 20
414.794921875
 11
280.5
 21
410.93359375
 72
     1
 10
280.5
 20
410.93359375
 11
280.5
 21
382.06640625
 72
     1
 10
280.5
 20
382.06640625
 11
298.8125
 21
371.494140625
 72
     1
 10
298.8125
 20
371.494140625
 11
305.5
 21
367.6328125
 72
     1
 10
305.5
 20
367.6328125
 11
323.8125
 21
378.205078125
 72
     1
 10
323.8125
 20
378.205078125
 11
330.5
 21
382.06640625
 72
     1
 10
330.5
 20
382.06640625
 11
330.5
 21
410.93359375
 72
     1
 10
330.5
 20
410.93359375
 11
312.1875
 21
421.50634765625
 72
     1
 10
312.1875
 20
421.50634765625
 11
305.5
 21
425.36767578125
 97
        0
 75
     2
 76
     1
 98
        0
  0
ENDBLK
  5
314
330
311
100
AcDbEntity
  8
0
100
AcDbBlockEnd
  0
BLOCK
  5
32C
330
32A
100
AcDbEntity
  8
0
100
AcDbBlockBegin
  2
block 32
 70
     0
 71
     0
 10
0.0
 20
0.0
 30
0.0
  3
block 32
  1

  0
POLYLINE
  5
32E
330
32A
100
AcDbEntity
  8
\U+56FE\U+5C42 1
370
     0
100
AcDb2dPolyline
 66
     1
 10
0.0
 20
0.0
 30
0.0
  0
VERTEX
  5
32F
330
32E
100
AcDbEntity
  8
\U+56FE\U+5C42 1
370
     0
100
AcDbVertex
100
AcDb2dVertex
 10
375.5
 20
466.5
 30
0.0
  0
VERTEX
  5
330
330
32E
100
AcDbEntity
  8
\U+56FE\U+5C42 1
370
     0
100
AcDbVertex
100
AcDb2dVertex
 10
375.5
 20
326.5
 30
0.0
  0
VERTEX
  5
331
330
32E
100
AcDbEntity
  8
\U+56FE\U+5C42 1
370
     0
100
AcDbVertex
100
AcDb2dVertex
 10
235.5
 20
326.5
 30
0.0
  0
VERTEX
  5
332
330
32E
100
AcDbEntity
  8
\U+56FE\U+5C42 1
370
     0
100
AcDbVertex
100
AcDb2dVertex
 10
235.5
 20
466.5
 30
0.0
  0
VERTEX
  5
333
330
32E
100
AcDbEntity
  8
\U+56FE\U+5C42 1
370
     0
100
AcDbVertex
100
AcDb2dVertex
 10
375.5
 20
466.5
 30
0.0
  0
SEQEND
  5
334
330
32E
100
AcDbEntity
  8
\U+56FE\U+5C42 1
370
     0
  0
POLYLINE
  5
335
330
32A
100
AcDbEntity
  8
\U+56FE\U+5C42 1
370
     0
100
AcDb2dPolyline
 66
     1
 10
0.0
 20
0.0
 30
0.0
  0
VERTEX
  5
336
330
335
100
AcDbEntity
  8
\U+56FE\U+5C42 1
370
     0
100
AcDbVertex
100
AcDb2dVertex
 10
305.5
 20
425.36767578125
 30
0.0
  0
VERTEX
  5
337
330
335
100
AcDbEntity
  8
\U+56FE\U+5C42 1
370
     0
100
AcDbVertex
100
AcDb2dVertex
 10
286.5625
 20
414.43408203125
 30
0.0
  0
VERTEX
  5
338
330
335
100
AcDbEntity
  8
\U+56FE\U+5C42 1
370
     0
100
AcDbVertex
100
AcDb2dVertex
 10
280.5
 20
410.93359375
 30
0.0
  0
VERTEX
  5
339
330
335
100
AcDbEntity
  8
\U+56FE\U+5C42 1
370
     0
100
AcDbVertex
100
AcDb2dVertex
 10
280.5
 20
382.06640625
 30
0.0
  0
VERTEX
  5
33A
330
335
100
AcDbEntity
  8
\U+56FE\U+5C42 1
370
     0
100
AcDbVertex
100
AcDb2dVertex
 10
299.4375
 20
371.1328125
 30
0.0
  0
VERTEX
  5
33B
330
335
100
AcDbEntity
  8
\U+56FE\U+5C42 1
370
     0
100
AcDbVertex
100
AcDb2dVertex
 10
305.5
 20
367.6328125
 30
0.0
  0
VERTEX
  5
33C
330
335
100
AcDbEntity
  8
\U+56FE\U+5C42 1
370
     0
100
AcDbVertex
100
AcDb2dVertex
 10
324.4375
 20
378.56640625
 30
0.0
  0
VERTEX
  5
33D
330
335
100
AcDbEntity
  8
\U+56FE\U+5C42 1
370
     0
100
AcDbVertex
100
AcDb2dVertex
 10
330.5
 20
382.06640625
 30
0.0
  0
VERTEX
  5
33E
330
335
100
AcDbEntity
  8
\U+56FE\U+5C42 1
370
     0
100
AcDbVertex
100
AcDb2dVertex
 10
330.5
 20
410.93359375
 30
0.0
  0
VERTEX
  5
33F
330
335
100
AcDbEntity
  8
\U+56FE\U+5C42 1
370
     0
100
AcDbVertex
100
AcDb2dVertex
 10
311.5625
 20
421.8671875
 30
0.0
  0
VERTEX
  5
340
330
335
100
AcDbEntity
  8
\U+56FE\U+5C42 1
370
     0
100
AcDbVertex
100
AcDb2dVertex
 10
305.5
 20
425.36767578125
 30
0.0
  0
SEQEND
  5
341
330
335
100
AcDbEntity
  8
\U+56FE\U+5C42 1
370
     0
  0
HATCH
  5
342
330
32A
100
AcDbEntity
  8
\U+56FE\U+5C42 1
 62
     7
100
AcDbHatch
 10
0.0
 20
0.0
 30
0.0
210
0.0
220
0.0
230
1.0
  2
SOLID
 70
     1
 71
     0
 91
        1
 92
        1
 93
       10
 72
     1
 10
305.5
 20
425.36767578125
 11
286.5625
 21
414.43408203125
 72
     1
 10
286.5625
 20
414.43408203125
 11
280.5
 21
410.93359375
 72
     1
 10
280.5
 20
410.93359375
 11
280.5
 21
382.06640625
 72
     1
 10
280.5
 20
382.06640625
 11
299.4375
 21
371.1328125
 72
     1
 10
299.4375
 20
371.1328125
 11
305.5
 21
367.6328125
 72
     1
 10
305.5
 20
367.6328125
 11
324.4375
 21
378.56640625
 72
     1
 10
324.4375
 20
378.56640625
 11
330.5
 21
382.06640625
 72
     1
 10
330.5
 20
382.06640625
 11
330.5
 21
410.93359375
 72
     1
 10
330.5
 20
410.93359375
 11
311.5625
 21
421.8671875
 72
     1
 10
311.5625
 20
421.8671875
 11
305.5
 21
425.36767578125
 97
        0
 75
     2
 76
     1
 98
        0
  0
ENDBLK
  5
32D
330
32A
100
AcDbEntity
  8
0
100
AcDbBlockEnd
  0
BLOCK
  5
345
330
343
100
AcDbEntity
  8
0
100
AcDbBlockBegin
  2
block 33
 70
     0
 71
     0
 10
0.0
 20
0.0
 30
0.0
  3
block 33
  1

  0
POLYLINE
  5
347
330
343
100
AcDbEntity
  8
\U+56FE\U+5C42 1
370
     0
100
AcDb2dPolyline
 66
     1
 10
0.0
 20
0.0
 30
0.0
  0
VERTEX
  5
348
330
347
100
AcDbEntity
  8
\U+56FE\U+5C42 1
370
     0
100
AcDbVertex
100
AcDb2dVertex
 10
375.5
 20
466.5
 30
0.0
  0
VERTEX
  5
349
330
347
100
AcDbEntity
  8
\U+56FE\U+5C42 1
370
     0
100
AcDbVertex
100
AcDb2dVertex
 10
375.5
 20
326.5
 30
0.0
  0
VERTEX
  5
34A
330
347
100
AcDbEntity
  8
\U+56FE\U+5C42 1
370
     0
100
AcDbVertex
100
AcDb2dVertex
 10
235.5
 20
326.5
 30
0.0
  0
VERTEX
  5
34B
330
347
100
AcDbEntity
  8
\U+56FE\U+5C42 1
370
     0
100
AcDbVertex
100
AcDb2dVertex
 10
235.5
 20
466.5
 30
0.0
  0
VERTEX
  5
34C
330
347
100
AcDbEntity
  8
\U+56FE\U+5C42 1
370
     0
100
AcDbVertex
100
AcDb2dVertex
 10
375.5
 20
466.5
 30
0.0
  0
SEQEND
  5
34D
330
347
100
AcDbEntity
  8
\U+56FE\U+5C42 1
370
     0
  0
POLYLINE
  5
34E
330
343
100
AcDbEntity
  8
\U+56FE\U+5C42 1
370
     0
100
AcDb2dPolyline
 66
     1
 10
0.0
 20
0.0
 30
0.0
  0
VERTEX
  5
34F
330
34E
100
AcDbEntity
  8
\U+56FE\U+5C42 1
370
     0
100
AcDbVertex
100
AcDb2dVertex
 10
305.5
 20
425.36767578125
 30
0.0
  0
VERTEX
  5
350
330
34E
100
AcDbEntity
  8
\U+56FE\U+5C42 1
370
     0
100
AcDbVertex
100
AcDb2dVertex
 10
285.9375
 20
414.0732421875
 30
0.0
  0
VERTEX
  5
351
330
34E
100
AcDbEntity
  8
\U+56FE\U+5C42 1
370
     0
100
AcDbVertex
100
AcDb2dVertex
 10
280.5
 20
410.93359375
 30
0.0
  0
VERTEX
  5
352
330
34E
100
AcDbEntity
  8
\U+56FE\U+5C42 1
370
     0
100
AcDbVertex
100
AcDb2dVertex
 10
280.5
 20
382.06640625
 30
0.0
  0
VERTEX
  5
353
330
34E
100
AcDbEntity
  8
\U+56FE\U+5C42 1
370
     0
100
AcDbVertex
100
AcDb2dVertex
 10
300.0625
 20
370.771484375
 30
0.0
  0
VERTEX
  5
354
330
34E
100
AcDbEntity
  8
\U+56FE\U+5C42 1
370
     0
100
AcDbVertex
100
AcDb2dVertex
 10
305.5
 20
367.6328125
 30
0.0
  0
VERTEX
  5
355
330
34E
100
AcDbEntity
  8
\U+56FE\U+5C42 1
370
     0
100
AcDbVertex
100
AcDb2dVertex
 10
325.0625
 20
378.9267578125
 30
0.0
  0
VERTEX
  5
356
330
34E
100
AcDbEntity
  8
\U+56FE\U+5C42 1
370
     0
100
AcDbVertex
100
AcDb2dVertex
 10
330.5
 20
382.06640625
 30
0.0
  0
VERTEX
  5
357
330
34E
100
AcDbEntity
  8
\U+56FE\U+5C42 1
370
     0
100
AcDbVertex
100
AcDb2dVertex
 10
330.5
 20
410.93359375
 30
0.0
  0
VERTEX
  5
358
330
34E
100
AcDbEntity
  8
\U+56FE\U+5C42 1
370
     0
100
AcDbVertex
100
AcDb2dVertex
 10
310.9375
 20
422.22802734375
 30
0.0
  0
VERTEX
  5
359
330
34E
100
AcDbEntity
  8
\U+56FE\U+5C42 1
370
     0
100
AcDbVertex
100
AcDb2dVertex
 10
305.5
 20
425.36767578125
 30
0.0
  0
SEQEND
  5
35A
330
34E
100
AcDbEntity
  8
\U+56FE\U+5C42 1
370
     0
  0
HATCH
  5
35B
330
343
100
AcDbEntity
  8
\U+56FE\U+5C42 1
 62
     7
100
AcDbHatch
 10
0.0
 20
0.0
 30
0.0
210
0.0
220
0.0
230
1.0
  2
SOLID
 70
     1
 71
     0
 91
        1
 92
        1
 93
       10
 72
     1
 10
305.5
 20
425.36767578125
 11
285.9375
 21
414.0732421875
 72
     1
 10
285.9375
 20
414.0732421875
 11
280.5
 21
410.93359375
 72
     1
 10
280.5
 20
410.93359375
 11
280.5
 21
382.06640625
 72
     1
 10
280.5
 20
382.06640625
 11
300.0625
 21
370.771484375
 72
     1
 10
300.0625
 20
370.771484375
 11
305.5
 21
367.6328125
 72
     1
 10
305.5
 20
367.6328125
 11
325.0625
 21
378.9267578125
 72
     1
 10
325.0625
 20
378.9267578125
 11
330.5
 21
382.06640625
 72
     1
 10
330.5
 20
382.06640625
 11
330.5
 21
410.93359375
 72
     1
 10
330.5
 20
410.93359375
 11
310.9375
 21
422.22802734375
 72
     1
 10
310.9375
 20
422.22802734375
 11
305.5
 21
425.36767578125
 97
        0
 75
     2
 76
     1
 98
        0
  0
ENDBLK
  5
346
330
343
100
AcDbEntity
  8
0
100
AcDbBlockEnd
  0
BLOCK
  5
35E
330
35C
100
AcDbEntity
  8
0
100
AcDbBlockBegin
  2
block 34
 70
     0
 71
     0
 10
0.0
 20
0.0
 30
0.0
  3
block 34
  1

  0
POLYLINE
  5
360
330
35C
100
AcDbEntity
  8
\U+56FE\U+5C42 1
370
     0
100
AcDb2dPolyline
 66
     1
 10
0.0
 20
0.0
 30
0.0
  0
VERTEX
  5
361
330
360
100
AcDbEntity
  8
\U+56FE\U+5C42 1
370
     0
100
AcDbVertex
100
AcDb2dVertex
 10
375.5
 20
466.5
 30
0.0
  0
VERTEX
  5
362
330
360
100
AcDbEntity
  8
\U+56FE\U+5C42 1
370
     0
100
AcDbVertex
100
AcDb2dVertex
 10
375.5
 20
326.5
 30
0.0
  0
VERTEX
  5
363
330
360
100
AcDbEntity
  8
\U+56FE\U+5C42 1
370
     0
100
AcDbVertex
100
AcDb2dVertex
 10
235.5
 20
326.5
 30
0.0
  0
VERTEX
  5
364
330
360
100
AcDbEntity
  8
\U+56FE\U+5C42 1
370
     0
100
AcDbVertex
100
AcDb2dVertex
 10
235.5
 20
466.5
 30
0.0
  0
VERTEX
  5
365
330
360
100
AcDbEntity
  8
\U+56FE\U+5C42 1
370
     0
100
AcDbVertex
100
AcDb2dVertex
 10
375.5
 20
466.5
 30
0.0
  0
SEQEND
  5
366
330
360
100
AcDbEntity
  8
\U+56FE\U+5C42 1
370
     0
  0
POLYLINE
  5
367
330
35C
100
AcDbEntity
  8
\U+56FE\U+5C42 1
370
     0
100
AcDb2dPolyline
 66
     1
 10
0.0
 20
0.0
 30
0.0
  0
VERTEX
  5
368
330
367
100
AcDbEntity
  8
\U+56FE\U+5C42 1
370
     0
100
AcDbVertex
100
AcDb2dVertex
 10
305.5
 20
425.36767578125
 30
0.0
  0
VERTEX
  5
369
330
367
100
AcDbEntity
  8
\U+56FE\U+5C42 1
370
     0
100
AcDbVertex
100
AcDb2dVertex
 10
285.3125
 20
413.71240234375
 30
0.0
  0
VERTEX
  5
36A
330
367
100
AcDbEntity
  8
\U+56FE\U+5C42 1
370
     0
100
AcDbVertex
100
AcDb2dVertex
 10
280.5
 20
410.93359375
 30
0.0
  0
VERTEX
  5
36B
330
367
100
AcDbEntity
  8
\U+56FE\U+5C42 1
370
     0
100
AcDbVertex
100
AcDb2dVertex
 10
280.5
 20
382.06640625
 30
0.0
  0
VERTEX
  5
36C
330
367
100
AcDbEntity
  8
\U+56FE\U+5C42 1
370
     0
100
AcDbVertex
100
AcDb2dVertex
 10
300.6875
 20
370.4111328125
 30
0.0
  0
VERTEX
  5
36D
330
367
100
AcDbEntity
  8
\U+56FE\U+5C42 1
370
     0
100
AcDbVertex
100
AcDb2dVertex
 10
305.5
 20
367.6328125
 30
0.0
  0
VERTEX
  5
36E
330
367
100
AcDbEntity
  8
\U+56FE\U+5C42 1
370
     0
100
AcDbVertex
100
AcDb2dVertex
 10
325.6875
 20
379.287109375
 30
0.0
  0
VERTEX
  5
36F
330
367
100
AcDbEntity
  8
\U+56FE\U+5C42 1
370
     0
100
AcDbVertex
100
AcDb2dVertex
 10
330.5
 20
382.06640625
 30
0.0
  0
VERTEX
  5
370
330
367
100
AcDbEntity
  8
\U+56FE\U+5C42 1
370
     0
100
AcDbVertex
100
AcDb2dVertex
 10
330.5
 20
410.93359375
 30
0.0
  0
VERTEX
  5
371
330
367
100
AcDbEntity
  8
\U+56FE\U+5C42 1
370
     0
100
AcDbVertex
100
AcDb2dVertex
 10
310.3125
 20
422.5888671875
 30
0.0
  0
VERTEX
  5
372
330
367
100
AcDbEntity
  8
\U+56FE\U+5C42 1
370
     0
100
AcDbVertex
100
AcDb2dVertex
 10
305.5
 20
425.36767578125
 30
0.0
  0
SEQEND
  5
373
330
367
100
AcDbEntity
  8
\U+56FE\U+5C42 1
370
     0
  0
HATCH
  5
374
330
35C
100
AcDbEntity
  8
\U+56FE\U+5C42 1
 62
     7
100
AcDbHatch
 10
0.0
 20
0.0
 30
0.0
210
0.0
220
0.0
230
1.0
  2
SOLID
 70
     1
 71
     0
 91
        1
 92
        1
 93
       10
 72
     1
 10
305.5
 20
425.36767578125
 11
285.3125
 21
413.71240234375
 72
     1
 10
285.3125
 20
413.71240234375
 11
280.5
 21
410.93359375
 72
     1
 10
280.5
 20
410.93359375
 11
280.5
 21
382.06640625
 72
     1
 10
280.5
 20
382.06640625
 11
300.6875
 21
370.4111328125
 72
     1
 10
300.6875
 20
370.4111328125
 11
305.5
 21
367.6328125
 72
     1
 10
305.5
 20
367.6328125
 11
325.6875
 21
379.287109375
 72
     1
 10
325.6875
 20
379.287109375
 11
330.5
 21
382.06640625
 72
     1
 10
330.5
 20
382.06640625
 11
330.5
 21
410.93359375
 72
     1
 10
330.5
 20
410.93359375
 11
310.3125
 21
422.5888671875
 72
     1
 10
310.3125
 20
422.5888671875
 11
305.5
 21
425.36767578125
 97
        0
 75
     2
 76
     1
 98
        0
  0
ENDBLK
  5
35F
330
35C
100
AcDbEntity
  8
0
100
AcDbBlockEnd
  0
BLOCK
  5
377
330
375
100
AcDbEntity
  8
0
100
AcDbBlockBegin
  2
block 35
 70
     0
 71
     0
 10
0.0
 20
0.0
 30
0.0
  3
block 35
  1

  0
POLYLINE
  5
379
330
375
100
AcDbEntity
  8
\U+56FE\U+5C42 1
370
     0
100
AcDb2dPolyline
 66
     1
 10
0.0
 20
0.0
 30
0.0
  0
VERTEX
  5
37A
330
379
100
AcDbEntity
  8
\U+56FE\U+5C42 1
370
     0
100
AcDbVertex
100
AcDb2dVertex
 10
375.5
 20
466.5
 30
0.0
  0
VERTEX
  5
37B
330
379
100
AcDbEntity
  8
\U+56FE\U+5C42 1
370
     0
100
AcDbVertex
100
AcDb2dVertex
 10
375.5
 20
326.5
 30
0.0
  0
VERTEX
  5
37C
330
379
100
AcDbEntity
  8
\U+56FE\U+5C42 1
370
     0
100
AcDbVertex
100
AcDb2dVertex
 10
235.5
 20
326.5
 30
0.0
  0
VERTEX
  5
37D
330
379
100
AcDbEntity
  8
\U+56FE\U+5C42 1
370
     0
100
AcDbVertex
100
AcDb2dVertex
 10
235.5
 20
466.5
 30
0.0
  0
VERTEX
  5
37E
330
379
100
AcDbEntity
  8
\U+56FE\U+5C42 1
370
     0
100
AcDbVertex
100
AcDb2dVertex
 10
375.5
 20
466.5
 30
0.0
  0
SEQEND
  5
37F
330
379
100
AcDbEntity
  8
\U+56FE\U+5C42 1
370
     0
  0
POLYLINE
  5
380
330
375
100
AcDbEntity
  8
\U+56FE\U+5C42 1
370
     0
100
AcDb2dPolyline
 66
     1
 10
0.0
 20
0.0
 30
0.0
  0
VERTEX
  5
381
330
380
100
AcDbEntity
  8
\U+56FE\U+5C42 1
370
     0
100
AcDbVertex
100
AcDb2dVertex
 10
305.5
 20
425.36767578125
 30
0.0
  0
VERTEX
  5
382
330
380
100
AcDbEntity
  8
\U+56FE\U+5C42 1
370
     0
100
AcDbVertex
100
AcDb2dVertex
 10
284.6875
 20
413.3515625
 30
0.0
  0
VERTEX
  5
383
330
380
100
AcDbEntity
  8
\U+56FE\U+5C42 1
370
     0
100
AcDbVertex
100
AcDb2dVertex
 10
280.5
 20
410.93359375
 30
0.0
  0
VERTEX
  5
384
330
380
100
AcDbEntity
  8
\U+56FE\U+5C42 1
370
     0
100
AcDbVertex
100
AcDb2dVertex
 10
280.5
 20
382.06640625
 30
0.0
  0
VERTEX
  5
385
330
380
100
AcDbEntity
  8
\U+56FE\U+5C42 1
370
     0
100
AcDbVertex
100
AcDb2dVertex
 10
301.3125
 20
370.05078125
 30
0.0
  0
VERTEX
  5
386
330
380
100
AcDbEntity
  8
\U+56FE\U+5C42 1
370
     0
100
AcDbVertex
100
AcDb2dVertex
 10
305.5
 20
367.6328125
 30
0.0
  0
VERTEX
  5
387
330
380
100
AcDbEntity
  8
\U+56FE\U+5C42 1
370
     0
100
AcDbVertex
100
AcDb2dVertex
 10
326.3125
 20
379.6484375
 30
0.0
  0
VERTEX
  5
388
330
380
100
AcDbEntity
  8
\U+56FE\U+5C42 1
370
     0
100
AcDbVertex
100
AcDb2dVertex
 10
330.5
 20
382.06640625
 30
0.0
  0
VERTEX
  5
389
330
380
100
AcDbEntity
  8
\U+56FE\U+5C42 1
370
     0
100
AcDbVertex
100
AcDb2dVertex
 10
330.5
 20
410.93359375
 30
0.0
  0
VERTEX
  5
38A
330
380
100
AcDbEntity
  8
\U+56FE\U+5C42 1
370
     0
100
AcDbVertex
100
AcDb2dVertex
 10
309.6875
 20
422.94970703125
 30
0.0
  0
VERTEX
  5
38B
330
380
100
AcDbEntity
  8
\U+56FE\U+5C42 1
370
     0
100
AcDbVertex
100
AcDb2dVertex
 10
305.5
 20
425.36767578125
 30
0.0
  0
SEQEND
  5
38C
330
380
100
AcDbEntity
  8
\U+56FE\U+5C42 1
370
     0
  0
HATCH
  5
38D
330
375
100
AcDbEntity
  8
\U+56FE\U+5C42 1
 62
     7
100
AcDbHatch
 10
0.0
 20
0.0
 30
0.0
210
0.0
220
0.0
230
1.0
  2
SOLID
 70
     1
 71
     0
 91
        1
 92
        1
 93
       10
 72
     1
 10
305.5
 20
425.36767578125
 11
284.6875
 21
413.3515625
 72
     1
 10
284.6875
 20
413.3515625
 11
280.5
 21
410.93359375
 72
     1
 10
280.5
 20
410.93359375
 11
280.5
 21
382.06640625
 72
     1
 10
280.5
 20
382.06640625
 11
301.3125
 21
370.05078125
 72
     1
 10
301.3125
 20
370.05078125
 11
305.5
 21
367.6328125
 72
     1
 10
305.5
 20
367.6328125
 11
326.3125
 21
379.6484375
 72
     1
 10
326.3125
 20
379.6484375
 11
330.5
 21
382.06640625
 72
     1
 10
330.5
 20
382.06640625
 11
330.5
 21
410.93359375
 72
     1
 10
330.5
 20
410.93359375
 11
309.6875
 21
422.94970703125
 72
     1
 10
309.6875
 20
422.94970703125
 11
305.5
 21
425.36767578125
 97
        0
 75
     2
 76
     1
 98
        0
  0
ENDBLK
  5
378
330
375
100
AcDbEntity
  8
0
100
AcDbBlockEnd
  0
BLOCK
  5
390
330
38E
100
AcDbEntity
  8
0
100
AcDbBlockBegin
  2
block 36
 70
     0
 71
     0
 10
0.0
 20
0.0
 30
0.0
  3
block 36
  1

  0
POLYLINE
  5
392
330
38E
100
AcDbEntity
  8
\U+56FE\U+5C42 1
370
     0
100
AcDb2dPolyline
 66
     1
 10
0.0
 20
0.0
 30
0.0
  0
VERTEX
  5
393
330
392
100
AcDbEntity
  8
\U+56FE\U+5C42 1
370
     0
100
AcDbVertex
100
AcDb2dVertex
 10
375.5
 20
466.5
 30
0.0
  0
VERTEX
  5
394
330
392
100
AcDbEntity
  8
\U+56FE\U+5C42 1
370
     0
100
AcDbVertex
100
AcDb2dVertex
 10
375.5
 20
326.5
 30
0.0
  0
VERTEX
  5
395
330
392
100
AcDbEntity
  8
\U+56FE\U+5C42 1
370
     0
100
AcDbVertex
100
AcDb2dVertex
 10
235.5
 20
326.5
 30
0.0
  0
VERTEX
  5
396
330
392
100
AcDbEntity
  8
\U+56FE\U+5C42 1
370
     0
100
AcDbVertex
100
AcDb2dVertex
 10
235.5
 20
466.5
 30
0.0
  0
VERTEX
  5
397
330
392
100
AcDbEntity
  8
\U+56FE\U+5C42 1
370
     0
100
AcDbVertex
100
AcDb2dVertex
 10
375.5
 20
466.5
 30
0.0
  0
SEQEND
  5
398
330
392
100
AcDbEntity
  8
\U+56FE\U+5C42 1
370
     0
  0
POLYLINE
  5
399
330
38E
100
AcDbEntity
  8
\U+56FE\U+5C42 1
370
     0
100
AcDb2dPolyline
 66
     1
 10
0.0
 20
0.0
 30
0.0
  0
VERTEX
  5
39A
330
399
100
AcDbEntity
  8
\U+56FE\U+5C42 1
370
     0
100
AcDbVertex
100
AcDb2dVertex
 10
305.5
 20
425.36767578125
 30
0.0
  0
VERTEX
  5
39B
330
399
100
AcDbEntity
  8
\U+56FE\U+5C42 1
370
     0
100
AcDbVertex
100
AcDb2dVertex
 10
284.0625
 20
412.99072265625
 30
0.0
  0
VERTEX
  5
39C
330
399
100
AcDbEntity
  8
\U+56FE\U+5C42 1
370
     0
100
AcDbVertex
100
AcDb2dVertex
 10
280.5
 20
410.93359375
 30
0.0
  0
VERTEX
  5
39D
330
399
100
AcDbEntity
  8
\U+56FE\U+5C42 1
370
     0
100
AcDbVertex
100
AcDb2dVertex
 10
280.5
 20
382.06640625
 30
0.0
  0
VERTEX
  5
39E
330
399
100
AcDbEntity
  8
\U+56FE\U+5C42 1
370
     0
100
AcDbVertex
100
AcDb2dVertex
 10
301.9375
 20
369.689453125
 30
0.0
  0
VERTEX
  5
39F
330
399
100
AcDbEntity
  8
\U+56FE\U+5C42 1
370
     0
100
AcDbVertex
100
AcDb2dVertex
 10
305.5
 20
367.6328125
 30
0.0
  0
VERTEX
  5
3A0
330
399
100
AcDbEntity
  8
\U+56FE\U+5C42 1
370
     0
100
AcDbVertex
100
AcDb2dVertex
 10
326.9375
 20
380.009765625
 30
0.0
  0
VERTEX
  5
3A1
330
399
100
AcDbEntity
  8
\U+56FE\U+5C42 1
370
     0
100
AcDbVertex
100
AcDb2dVertex
 10
330.5
 20
382.06640625
 30
0.0
  0
VERTEX
  5
3A2
330
399
100
AcDbEntity
  8
\U+56FE\U+5C42 1
370
     0
100
AcDbVertex
100
AcDb2dVertex
 10
330.5
 20
410.93359375
 30
0.0
  0
VERTEX
  5
3A3
330
399
100
AcDbEntity
  8
\U+56FE\U+5C42 1
370
     0
100
AcDbVertex
100
AcDb2dVertex
 10
309.0625
 20
423.310546875
 30
0.0
  0
VERTEX
  5
3A4
330
399
100
AcDbEntity
  8
\U+56FE\U+5C42 1
370
     0
100
AcDbVertex
100
AcDb2dVertex
 10
305.5
 20
425.36767578125
 30
0.0
  0
SEQEND
  5
3A5
330
399
100
AcDbEntity
  8
\U+56FE\U+5C42 1
370
     0
  0
HATCH
  5
3A6
330
38E
100
AcDbEntity
  8
\U+56FE\U+5C42 1
 62
     7
100
AcDbHatch
 10
0.0
 20
0.0
 30
0.0
210
0.0
220
0.0
230
1.0
  2
SOLID
 70
     1
 71
     0
 91
        1
 92
        1
 93
       10
 72
     1
 10
305.5
 20
425.36767578125
 11
284.0625
 21
412.99072265625
 72
     1
 10
284.0625
 20
412.99072265625
 11
280.5
 21
410.93359375
 72
     1
 10
280.5
 20
410.93359375
 11
280.5
 21
382.06640625
 72
     1
 10
280.5
 20
382.06640625
 11
301.9375
 21
369.689453125
 72
     1
 10
301.9375
 20
369.689453125
 11
305.5
 21
367.6328125
 72
     1
 10
305.5
 20
367.6328125
 11
326.9375
 21
380.009765625
 72
     1
 10
326.9375
 20
380.009765625
 11
330.5
 21
382.06640625
 72
     1
 10
330.5
 20
382.06640625
 11
330.5
 21
410.93359375
 72
     1
 10
330.5
 20
410.93359375
 11
309.0625
 21
423.310546875
 72
     1
 10
309.0625
 20
423.310546875
 11
305.5
 21
425.36767578125
 97
        0
 75
     2
 76
     1
 98
        0
  0
ENDBLK
  5
391
330
38E
100
AcDbEntity
  8
0
100
AcDbBlockEnd
  0
BLOCK
  5
3A9
330
3A7
100
AcDbEntity
  8
0
100
AcDbBlockBegin
  2
block 37
 70
     0
 71
     0
 10
0.0
 20
0.0
 30
0.0
  3
block 37
  1

  0
POLYLINE
  5
3AB
330
3A7
100
AcDbEntity
  8
\U+56FE\U+5C42 1
370
     0
100
AcDb2dPolyline
 66
     1
 10
0.0
 20
0.0
 30
0.0
  0
VERTEX
  5
3AC
330
3AB
100
AcDbEntity
  8
\U+56FE\U+5C42 1
370
     0
100
AcDbVertex
100
AcDb2dVertex
 10
375.5
 20
466.5
 30
0.0
  0
VERTEX
  5
3AD
330
3AB
100
AcDbEntity
  8
\U+56FE\U+5C42 1
370
     0
100
AcDbVertex
100
AcDb2dVertex
 10
375.5
 20
326.5
 30
0.0
  0
VERTEX
  5
3AE
330
3AB
100
AcDbEntity
  8
\U+56FE\U+5C42 1
370
     0
100
AcDbVertex
100
AcDb2dVertex
 10
235.5
 20
326.5
 30
0.0
  0
VERTEX
  5
3AF
330
3AB
100
AcDbEntity
  8
\U+56FE\U+5C42 1
370
     0
100
AcDbVertex
100
AcDb2dVertex
 10
235.5
 20
466.5
 30
0.0
  0
VERTEX
  5
3B0
330
3AB
100
AcDbEntity
  8
\U+56FE\U+5C42 1
370
     0
100
AcDbVertex
100
AcDb2dVertex
 10
375.5
 20
466.5
 30
0.0
  0
SEQEND
  5
3B1
330
3AB
100
AcDbEntity
  8
\U+56FE\U+5C42 1
370
     0
  0
POLYLINE
  5
3B2
330
3A7
100
AcDbEntity
  8
\U+56FE\U+5C42 1
370
     0
100
AcDb2dPolyline
 66
     1
 10
0.0
 20
0.0
 30
0.0
  0
VERTEX
  5
3B3
330
3B2
100
AcDbEntity
  8
\U+56FE\U+5C42 1
370
     0
100
AcDbVertex
100
AcDb2dVertex
 10
305.5
 20
425.36767578125
 30
0.0
  0
VERTEX
  5
3B4
330
3B2
100
AcDbEntity
  8
\U+56FE\U+5C42 1
370
     0
100
AcDbVertex
100
AcDb2dVertex
 10
283.4375
 20
412.6298828125
 30
0.0
  0
VERTEX
  5
3B5
330
3B2
100
AcDbEntity
  8
\U+56FE\U+5C42 1
370
     0
100
AcDbVertex
100
AcDb2dVertex
 10
280.5
 20
410.93359375
 30
0.0
  0
VERTEX
  5
3B6
330
3B2
100
AcDbEntity
  8
\U+56FE\U+5C42 1
370
     0
100
AcDbVertex
100
AcDb2dVertex
 10
280.5
 20
382.06640625
 30
0.0
  0
VERTEX
  5
3B7
330
3B2
100
AcDbEntity
  8
\U+56FE\U+5C42 1
370
     0
100
AcDbVertex
100
AcDb2dVertex
 10
302.5625
 20
369.328125
 30
0.0
  0
VERTEX
  5
3B8
330
3B2
100
AcDbEntity
  8
\U+56FE\U+5C42 1
370
     0
100
AcDbVertex
100
AcDb2dVertex
 10
305.5
 20
367.6328125
 30
0.0
  0
VERTEX
  5
3B9
330
3B2
100
AcDbEntity
  8
\U+56FE\U+5C42 1
370
     0
100
AcDbVertex
100
AcDb2dVertex
 10
327.5625
 20
380.3701171875
 30
0.0
  0
VERTEX
  5
3BA
330
3B2
100
AcDbEntity
  8
\U+56FE\U+5C42 1
370
     0
100
AcDbVertex
100
AcDb2dVertex
 10
330.5
 20
382.06640625
 30
0.0
  0
VERTEX
  5
3BB
330
3B2
100
AcDbEntity
  8
\U+56FE\U+5C42 1
370
     0
100
AcDbVertex
100
AcDb2dVertex
 10
330.5
 20
410.93359375
 30
0.0
  0
VERTEX
  5
3BC
330
3B2
100
AcDbEntity
  8
\U+56FE\U+5C42 1
370
     0
100
AcDbVertex
100
AcDb2dVertex
 10
308.4375
 20
423.67138671875
 30
0.0
  0
VERTEX
  5
3BD
330
3B2
100
AcDbEntity
  8
\U+56FE\U+5C42 1
370
     0
100
AcDbVertex
100
AcDb2dVertex
 10
305.5
 20
425.36767578125
 30
0.0
  0
SEQEND
  5
3BE
330
3B2
100
AcDbEntity
  8
\U+56FE\U+5C42 1
370
     0
  0
HATCH
  5
3BF
330
3A7
100
AcDbEntity
  8
\U+56FE\U+5C42 1
 62
     7
100
AcDbHatch
 10
0.0
 20
0.0
 30
0.0
210
0.0
220
0.0
230
1.0
  2
SOLID
 70
     1
 71
     0
 91
        1
 92
        1
 93
       10
 72
     1
 10
305.5
 20
425.36767578125
 11
283.4375
 21
412.6298828125
 72
     1
 10
283.4375
 20
412.6298828125
 11
280.5
 21
410.93359375
 72
     1
 10
280.5
 20
410.93359375
 11
280.5
 21
382.06640625
 72
     1
 10
280.5
 20
382.06640625
 11
302.5625
 21
369.328125
 72
     1
 10
302.5625
 20
369.328125
 11
305.5
 21
367.6328125
 72
     1
 10
305.5
 20
367.6328125
 11
327.5625
 21
380.3701171875
 72
     1
 10
327.5625
 20
380.3701171875
 11
330.5
 21
382.06640625
 72
     1
 10
330.5
 20
382.06640625
 11
330.5
 21
410.93359375
 72
     1
 10
330.5
 20
410.93359375
 11
308.4375
 21
423.67138671875
 72
     1
 10
308.4375
 20
423.67138671875
 11
305.5
 21
425.36767578125
 97
        0
 75
     2
 76
     1
 98
        0
  0
ENDBLK
  5
3AA
330
3A7
100
AcDbEntity
  8
0
100
AcDbBlockEnd
  0
BLOCK
  5
3C2
330
3C0
100
AcDbEntity
  8
0
100
AcDbBlockBegin
  2
block 38
 70
     0
 71
     0
 10
0.0
 20
0.0
 30
0.0
  3
block 38
  1

  0
POLYLINE
  5
3C4
330
3C0
100
AcDbEntity
  8
\U+56FE\U+5C42 1
370
     0
100
AcDb2dPolyline
 66
     1
 10
0.0
 20
0.0
 30
0.0
  0
VERTEX
  5
3C5
330
3C4
100
AcDbEntity
  8
\U+56FE\U+5C42 1
370
     0
100
AcDbVertex
100
AcDb2dVertex
 10
375.5
 20
466.5
 30
0.0
  0
VERTEX
  5
3C6
330
3C4
100
AcDbEntity
  8
\U+56FE\U+5C42 1
370
     0
100
AcDbVertex
100
AcDb2dVertex
 10
375.5
 20
326.5
 30
0.0
  0
VERTEX
  5
3C7
330
3C4
100
AcDbEntity
  8
\U+56FE\U+5C42 1
370
     0
100
AcDbVertex
100
AcDb2dVertex
 10
235.5
 20
326.5
 30
0.0
  0
VERTEX
  5
3C8
330
3C4
100
AcDbEntity
  8
\U+56FE\U+5C42 1
370
     0
100
AcDbVertex
100
AcDb2dVertex
 10
235.5
 20
466.5
 30
0.0
  0
VERTEX
  5
3C9
330
3C4
100
AcDbEntity
  8
\U+56FE\U+5C42 1
370
     0
100
AcDbVertex
100
AcDb2dVertex
 10
375.5
 20
466.5
 30
0.0
  0
SEQEND
  5
3CA
330
3C4
100
AcDbEntity
  8
\U+56FE\U+5C42 1
370
     0
  0
POLYLINE
  5
3CB
330
3C0
100
AcDbEntity
  8
\U+56FE\U+5C42 1
370
     0
100
AcDb2dPolyline
 66
     1
 10
0.0
 20
0.0
 30
0.0
  0
VERTEX
  5
3CC
330
3CB
100
AcDbEntity
  8
\U+56FE\U+5C42 1
370
     0
100
AcDbVertex
100
AcDb2dVertex
 10
305.5
 20
425.36767578125
 30
0.0
  0
VERTEX
  5
3CD
330
3CB
100
AcDbEntity
  8
\U+56FE\U+5C42 1
370
     0
100
AcDbVertex
100
AcDb2dVertex
 10
282.8125
 20
412.26904296875
 30
0.0
  0
VERTEX
  5
3CE
330
3CB
100
AcDbEntity
  8
\U+56FE\U+5C42 1
370
     0
100
AcDbVertex
100
AcDb2dVertex
 10
280.5
 20
410.93359375
 30
0.0
  0
VERTEX
  5
3CF
330
3CB
100
AcDbEntity
  8
\U+56FE\U+5C42 1
370
     0
100
AcDbVertex
100
AcDb2dVertex
 10
280.5
 20
382.06640625
 30
0.0
  0
VERTEX
  5
3D0
330
3CB
100
AcDbEntity
  8
\U+56FE\U+5C42 1
370
     0
100
AcDbVertex
100
AcDb2dVertex
 10
303.1875
 20
368.9677734375
 30
0.0
  0
VERTEX
  5
3D1
330
3CB
100
AcDbEntity
  8
\U+56FE\U+5C42 1
370
     0
100
AcDbVertex
100
AcDb2dVertex
 10
305.5
 20
367.6328125
 30
0.0
  0
VERTEX
  5
3D2
330
3CB
100
AcDbEntity
  8
\U+56FE\U+5C42 1
370
     0
100
AcDbVertex
100
AcDb2dVertex
 10
328.1875
 20
380.73046875
 30
0.0
  0
VERTEX
  5
3D3
330
3CB
100
AcDbEntity
  8
\U+56FE\U+5C42 1
370
     0
100
AcDbVertex
100
AcDb2dVertex
 10
330.5
 20
382.06640625
 30
0.0
  0
VERTEX
  5
3D4
330
3CB
100
AcDbEntity
  8
\U+56FE\U+5C42 1
370
     0
100
AcDbVertex
100
AcDb2dVertex
 10
330.5
 20
410.93359375
 30
0.0
  0
VERTEX
  5
3D5
330
3CB
100
AcDbEntity
  8
\U+56FE\U+5C42 1
370
     0
100
AcDbVertex
100
AcDb2dVertex
 10
307.8125
 20
424.0322265625
 30
0.0
  0
VERTEX
  5
3D6
330
3CB
100
AcDbEntity
  8
\U+56FE\U+5C42 1
370
     0
100
AcDbVertex
100
AcDb2dVertex
 10
305.5
 20
425.36767578125
 30
0.0
  0
SEQEND
  5
3D7
330
3CB
100
AcDbEntity
  8
\U+56FE\U+5C42 1
370
     0
  0
HATCH
  5
3D8
330
3C0
100
AcDbEntity
  8
\U+56FE\U+5C42 1
 62
     7
100
AcDbHatch
 10
0.0
 20
0.0
 30
0.0
210
0.0
220
0.0
230
1.0
  2
SOLID
 70
     1
 71
     0
 91
        1
 92
        1
 93
       10
 72
     1
 10
305.5
 20
425.36767578125
 11
282.8125
 21
412.26904296875
 72
     1
 10
282.8125
 20
412.26904296875
 11
280.5
 21
410.93359375
 72
     1
 10
280.5
 20
410.93359375
 11
280.5
 21
382.06640625
 72
     1
 10
280.5
 20
382.06640625
 11
303.1875
 21
368.9677734375
 72
     1
 10
303.1875
 20
368.9677734375
 11
305.5
 21
367.6328125
 72
     1
 10
305.5
 20
367.6328125
 11
328.1875
 21
380.73046875
 72
     1
 10
328.1875
 20
380.73046875
 11
330.5
 21
382.06640625
 72
     1
 10
330.5
 20
382.06640625
 11
330.5
 21
410.93359375
 72
     1
 10
330.5
 20
410.93359375
 11
307.8125
 21
424.0322265625
 72
     1
 10
307.8125
 20
424.0322265625
 11
305.5
 21
425.36767578125
 97
        0
 75
     2
 76
     1
 98
        0
  0
ENDBLK
  5
3C3
330
3C0
100
AcDbEntity
  8
0
100
AcDbBlockEnd
  0
BLOCK
  5
3DB
330
3D9
100
AcDbEntity
  8
0
100
AcDbBlockBegin
  2
block 39
 70
     0
 71
     0
 10
0.0
 20
0.0
 30
0.0
  3
block 39
  1

  0
POLYLINE
  5
3DD
330
3D9
100
AcDbEntity
  8
\U+56FE\U+5C42 1
370
     0
100
AcDb2dPolyline
 66
     1
 10
0.0
 20
0.0
 30
0.0
  0
VERTEX
  5
3DE
330
3DD
100
AcDbEntity
  8
\U+56FE\U+5C42 1
370
     0
100
AcDbVertex
100
AcDb2dVertex
 10
375.5
 20
466.5
 30
0.0
  0
VERTEX
  5
3DF
330
3DD
100
AcDbEntity
  8
\U+56FE\U+5C42 1
370
     0
100
AcDbVertex
100
AcDb2dVertex
 10
375.5
 20
326.5
 30
0.0
  0
VERTEX
  5
3E0
330
3DD
100
AcDbEntity
  8
\U+56FE\U+5C42 1
370
     0
100
AcDbVertex
100
AcDb2dVertex
 10
235.5
 20
326.5
 30
0.0
  0
VERTEX
  5
3E1
330
3DD
100
AcDbEntity
  8
\U+56FE\U+5C42 1
370
     0
100
AcDbVertex
100
AcDb2dVertex
 10
235.5
 20
466.5
 30
0.0
  0
VERTEX
  5
3E2
330
3DD
100
AcDbEntity
  8
\U+56FE\U+5C42 1
370
     0
100
AcDbVertex
100
AcDb2dVertex
 10
375.5
 20
466.5
 30
0.0
  0
SEQEND
  5
3E3
330
3DD
100
AcDbEntity
  8
\U+56FE\U+5C42 1
370
     0
  0
POLYLINE
  5
3E4
330
3D9
100
AcDbEntity
  8
\U+56FE\U+5C42 1
370
     0
100
AcDb2dPolyline
 66
     1
 10
0.0
 20
0.0
 30
0.0
  0
VERTEX
  5
3E5
330
3E4
100
AcDbEntity
  8
\U+56FE\U+5C42 1
370
     0
100
AcDbVertex
100
AcDb2dVertex
 10
305.5
 20
425.36767578125
 30
0.0
  0
VERTEX
  5
3E6
330
3E4
100
AcDbEntity
  8
\U+56FE\U+5C42 1
370
     0
100
AcDbVertex
100
AcDb2dVertex
 10
282.1875
 20
411.908203125
 30
0.0
  0
VERTEX
  5
3E7
330
3E4
100
AcDbEntity
  8
\U+56FE\U+5C42 1
370
     0
100
AcDbVertex
100
AcDb2dVertex
 10
280.5
 20
410.93359375
 30
0.0
  0
VERTEX
  5
3E8
330
3E4
100
AcDbEntity
  8
\U+56FE\U+5C42 1
370
     0
100
AcDbVertex
100
AcDb2dVertex
 10
280.5
 20
382.06640625
 30
0.0
  0
VERTEX
  5
3E9
330
3E4
100
AcDbEntity
  8
\U+56FE\U+5C42 1
370
     0
100
AcDbVertex
100
AcDb2dVertex
 10
303.8125
 20
368.607421875
 30
0.0
  0
VERTEX
  5
3EA
330
3E4
100
AcDbEntity
  8
\U+56FE\U+5C42 1
370
     0
100
AcDbVertex
100
AcDb2dVertex
 10
305.5
 20
367.6328125
 30
0.0
  0
VERTEX
  5
3EB
330
3E4
100
AcDbEntity
  8
\U+56FE\U+5C42 1
370
     0
100
AcDbVertex
100
AcDb2dVertex
 10
328.8125
 20
381.091796875
 30
0.0
  0
VERTEX
  5
3EC
330
3E4
100
AcDbEntity
  8
\U+56FE\U+5C42 1
370
     0
100
AcDbVertex
100
AcDb2dVertex
 10
330.5
 20
382.06640625
 30
0.0
  0
VERTEX
  5
3ED
330
3E4
100
AcDbEntity
  8
\U+56FE\U+5C42 1
370
     0
100
AcDbVertex
100
AcDb2dVertex
 10
330.5
 20
410.93359375
 30
0.0
  0
VERTEX
  5
3EE
330
3E4
100
AcDbEntity
  8
\U+56FE\U+5C42 1
370
     0
100
AcDbVertex
100
AcDb2dVertex
 10
307.1875
 20
424.39306640625
 30
0.0
  0
VERTEX
  5
3EF
330
3E4
100
AcDbEntity
  8
\U+56FE\U+5C42 1
370
     0
100
AcDbVertex
100
AcDb2dVertex
 10
305.5
 20
425.36767578125
 30
0.0
  0
SEQEND
  5
3F0
330
3E4
100
AcDbEntity
  8
\U+56FE\U+5C42 1
370
     0
  0
HATCH
  5
3F1
330
3D9
100
AcDbEntity
  8
\U+56FE\U+5C42 1
 62
     7
100
AcDbHatch
 10
0.0
 20
0.0
 30
0.0
210
0.0
220
0.0
230
1.0
  2
SOLID
 70
     1
 71
     0
 91
        1
 92
        1
 93
       10
 72
     1
 10
305.5
 20
425.36767578125
 11
282.1875
 21
411.908203125
 72
     1
 10
282.1875
 20
411.908203125
 11
280.5
 21
410.93359375
 72
     1
 10
280.5
 20
410.93359375
 11
280.5
 21
382.06640625
 72
     1
 10
280.5
 20
382.06640625
 11
303.8125
 21
368.607421875
 72
     1
 10
303.8125
 20
368.607421875
 11
305.5
 21
367.6328125
 72
     1
 10
305.5
 20
367.6328125
 11
328.8125
 21
381.091796875
 72
     1
 10
328.8125
 20
381.091796875
 11
330.5
 21
382.06640625
 72
     1
 10
330.5
 20
382.06640625
 11
330.5
 21
410.93359375
 72
     1
 10
330.5
 20
410.93359375
 11
307.1875
 21
424.39306640625
 72
     1
 10
307.1875
 20
424.39306640625
 11
305.5
 21
425.36767578125
 97
        0
 75
     2
 76
     1
 98
        0
  0
ENDBLK
  5
3DC
330
3D9
100
AcDbEntity
  8
0
100
AcDbBlockEnd
  0
BLOCK
  5
3F4
330
3F2
100
AcDbEntity
  8
0
100
AcDbBlockBegin
  2
block 40
 70
     0
 71
     0
 10
0.0
 20
0.0
 30
0.0
  3
block 40
  1

  0
POLYLINE
  5
3F6
330
3F2
100
AcDbEntity
  8
\U+56FE\U+5C42 1
370
     0
100
AcDb2dPolyline
 66
     1
 10
0.0
 20
0.0
 30
0.0
  0
VERTEX
  5
3F7
330
3F6
100
AcDbEntity
  8
\U+56FE\U+5C42 1
370
     0
100
AcDbVertex
100
AcDb2dVertex
 10
375.5
 20
466.5
 30
0.0
  0
VERTEX
  5
3F8
330
3F6
100
AcDbEntity
  8
\U+56FE\U+5C42 1
370
     0
100
AcDbVertex
100
AcDb2dVertex
 10
375.5
 20
326.5
 30
0.0
  0
VERTEX
  5
3F9
330
3F6
100
AcDbEntity
  8
\U+56FE\U+5C42 1
370
     0
100
AcDbVertex
100
AcDb2dVertex
 10
235.5
 20
326.5
 30
0.0
  0
VERTEX
  5
3FA
330
3F6
100
AcDbEntity
  8
\U+56FE\U+5C42 1
370
     0
100
AcDbVertex
100
AcDb2dVertex
 10
235.5
 20
466.5
 30
0.0
  0
VERTEX
  5
3FB
330
3F6
100
AcDbEntity
  8
\U+56FE\U+5C42 1
370
     0
100
AcDbVertex
100
AcDb2dVertex
 10
375.5
 20
466.5
 30
0.0
  0
SEQEND
  5
3FC
330
3F6
100
AcDbEntity
  8
\U+56FE\U+5C42 1
370
     0
  0
POLYLINE
  5
3FD
330
3F2
100
AcDbEntity
  8
\U+56FE\U+5C42 1
370
     0
100
AcDb2dPolyline
 66
     1
 10
0.0
 20
0.0
 30
0.0
  0
VERTEX
  5
3FE
330
3FD
100
AcDbEntity
  8
\U+56FE\U+5C42 1
370
     0
100
AcDbVertex
100
AcDb2dVertex
 10
305.5
 20
425.36767578125
 30
0.0
  0
VERTEX
  5
3FF
330
3FD
100
AcDbEntity
  8
\U+56FE\U+5C42 1
370
     0
100
AcDbVertex
100
AcDb2dVertex
 10
281.5625
 20
411.54736328125
 30
0.0
  0
VERTEX
  5
400
330
3FD
100
AcDbEntity
  8
\U+56FE\U+5C42 1
370
     0
100
AcDbVertex
100
AcDb2dVertex
 10
280.5
 20
410.93359375
 30
0.0
  0
VERTEX
  5
401
330
3FD
100
AcDbEntity
  8
\U+56FE\U+5C42 1
370
     0
100
AcDbVertex
100
AcDb2dVertex
 10
280.5
 20
382.06640625
 30
0.0
  0
VERTEX
  5
402
330
3FD
100
AcDbEntity
  8
\U+56FE\U+5C42 1
370
     0
100
AcDbVertex
100
AcDb2dVertex
 10
304.4375
 20
368.24609375
 30
0.0
  0
VERTEX
  5
403
330
3FD
100
AcDbEntity
  8
\U+56FE\U+5C42 1
370
     0
100
AcDbVertex
100
AcDb2dVertex
 10
305.5
 20
367.6328125
 30
0.0
  0
VERTEX
  5
404
330
3FD
100
AcDbEntity
  8
\U+56FE\U+5C42 1
370
     0
100
AcDbVertex
100
AcDb2dVertex
 10
329.4375
 20
381.453125
 30
0.0
  0
VERTEX
  5
405
330
3FD
100
AcDbEntity
  8
\U+56FE\U+5C42 1
370
     0
100
AcDbVertex
100
AcDb2dVertex
 10
330.5
 20
382.06640625
 30
0.0
  0
VERTEX
  5
406
330
3FD
100
AcDbEntity
  8
\U+56FE\U+5C42 1
370
     0
100
AcDbVertex
100
AcDb2dVertex
 10
330.5
 20
410.93359375
 30
0.0
  0
VERTEX
  5
407
330
3FD
100
AcDbEntity
  8
\U+56FE\U+5C42 1
370
     0
100
AcDbVertex
100
AcDb2dVertex
 10
306.5625
 20
424.75390625
 30
0.0
  0
VERTEX
  5
408
330
3FD
100
AcDbEntity
  8
\U+56FE\U+5C42 1
370
     0
100
AcDbVertex
100
AcDb2dVertex
 10
305.5
 20
425.36767578125
 30
0.0
  0
SEQEND
  5
409
330
3FD
100
AcDbEntity
  8
\U+56FE\U+5C42 1
370
     0
  0
HATCH
  5
40A
330
3F2
100
AcDbEntity
  8
\U+56FE\U+5C42 1
 62
     7
100
AcDbHatch
 10
0.0
 20
0.0
 30
0.0
210
0.0
220
0.0
230
1.0
  2
SOLID
 70
     1
 71
     0
 91
        1
 92
        1
 93
       10
 72
     1
 10
305.5
 20
425.36767578125
 11
281.5625
 21
411.54736328125
 72
     1
 10
281.5625
 20
411.54736328125
 11
280.5
 21
410.93359375
 72
     1
 10
280.5
 20
410.93359375
 11
280.5
 21
382.06640625
 72
     1
 10
280.5
 20
382.06640625
 11
304.4375
 21
368.24609375
 72
     1
 10
304.4375
 20
368.24609375
 11
305.5
 21
367.6328125
 72
     1
 10
305.5
 20
367.6328125
 11
329.4375
 21
381.453125
 72
     1
 10
329.4375
 20
381.453125
 11
330.5
 21
382.06640625
 72
     1
 10
330.5
 20
382.06640625
 11
330.5
 21
410.93359375
 72
     1
 10
330.5
 20
410.93359375
 11
306.5625
 21
424.75390625
 72
     1
 10
306.5625
 20
424.75390625
 11
305.5
 21
425.36767578125
 97
        0
 75
     2
 76
     1
 98
        0
  0
ENDBLK
  5
3F5
330
3F2
100
AcDbEntity
  8
0
100
AcDbBlockEnd
  0
BLOCK
  5
40D
330
40B
100
AcDbEntity
  8
0
100
AcDbBlockBegin
  2
block 41
 70
     0
 71
     0
 10
0.0
 20
0.0
 30
0.0
  3
block 41
  1

  0
POLYLINE
  5
40F
330
40B
100
AcDbEntity
  8
\U+56FE\U+5C42 1
370
     0
100
AcDb2dPolyline
 66
     1
 10
0.0
 20
0.0
 30
0.0
  0
VERTEX
  5
410
330
40F
100
AcDbEntity
  8
\U+56FE\U+5C42 1
370
     0
100
AcDbVertex
100
AcDb2dVertex
 10
375.5
 20
466.5
 30
0.0
  0
VERTEX
  5
411
330
40F
100
AcDbEntity
  8
\U+56FE\U+5C42 1
370
     0
100
AcDbVertex
100
AcDb2dVertex
 10
375.5
 20
326.5
 30
0.0
  0
VERTEX
  5
412
330
40F
100
AcDbEntity
  8
\U+56FE\U+5C42 1
370
     0
100
AcDbVertex
100
AcDb2dVertex
 10
235.5
 20
326.5
 30
0.0
  0
VERTEX
  5
413
330
40F
100
AcDbEntity
  8
\U+56FE\U+5C42 1
370
     0
100
AcDbVertex
100
AcDb2dVertex
 10
235.5
 20
466.5
 30
0.0
  0
VERTEX
  5
414
330
40F
100
AcDbEntity
  8
\U+56FE\U+5C42 1
370
     0
100
AcDbVertex
100
AcDb2dVertex
 10
375.5
 20
466.5
 30
0.0
  0
SEQEND
  5
415
330
40F
100
AcDbEntity
  8
\U+56FE\U+5C42 1
370
     0
  0
POLYLINE
  5
416
330
40B
100
AcDbEntity
  8
\U+56FE\U+5C42 1
370
     0
100
AcDb2dPolyline
 66
     1
 10
0.0
 20
0.0
 30
0.0
  0
VERTEX
  5
417
330
416
100
AcDbEntity
  8
\U+56FE\U+5C42 1
370
     0
100
AcDbVertex
100
AcDb2dVertex
 10
305.5
 20
425.36767578125
 30
0.0
  0
VERTEX
  5
418
330
416
100
AcDbEntity
  8
\U+56FE\U+5C42 1
370
     0
100
AcDbVertex
100
AcDb2dVertex
 10
280.9375
 20
411.1865234375
 30
0.0
  0
VERTEX
  5
419
330
416
100
AcDbEntity
  8
\U+56FE\U+5C42 1
370
     0
100
AcDbVertex
100
AcDb2dVertex
 10
280.5
 20
410.93359375
 30
0.0
  0
VERTEX
  5
41A
330
416
100
AcDbEntity
  8
\U+56FE\U+5C42 1
370
     0
100
AcDbVertex
100
AcDb2dVertex
 10
280.5
 20
382.06640625
 30
0.0
  0
VERTEX
  5
41B
330
416
100
AcDbEntity
  8
\U+56FE\U+5C42 1
370
     0
100
AcDbVertex
100
AcDb2dVertex
 10
305.0625
 20
367.884765625
 30
0.0
  0
VERTEX
  5
41C
330
416
100
AcDbEntity
  8
\U+56FE\U+5C42 1
370
     0
100
AcDbVertex
100
AcDb2dVertex
 10
305.5
 20
367.6328125
 30
0.0
  0
VERTEX
  5
41D
330
416
100
AcDbEntity
  8
\U+56FE\U+5C42 1
370
     0
100
AcDbVertex
100
AcDb2dVertex
 10
330.0625
 20
381.8134765625
 30
0.0
  0
VERTEX
  5
41E
330
416
100
AcDbEntity
  8
\U+56FE\U+5C42 1
370
     0
100
AcDbVertex
100
AcDb2dVertex
 10
330.5
 20
382.06640625
 30
0.0
  0
VERTEX
  5
41F
330
416
100
AcDbEntity
  8
\U+56FE\U+5C42 1
370
     0
100
AcDbVertex
100
AcDb2dVertex
 10
330.5
 20
410.93359375
 30
0.0
  0
VERTEX
  5
420
330
416
100
AcDbEntity
  8
\U+56FE\U+5C42 1
370
     0
100
AcDbVertex
100
AcDb2dVertex
 10
305.9375
 20
425.11474609375
 30
0.0
  0
VERTEX
  5
421
330
416
100
AcDbEntity
  8
\U+56FE\U+5C42 1
370
     0
100
AcDbVertex
100
AcDb2dVertex
 10
305.5
 20
425.36767578125
 30
0.0
  0
SEQEND
  5
422
330
416
100
AcDbEntity
  8
\U+56FE\U+5C42 1
370
     0
  0
HATCH
  5
423
330
40B
100
AcDbEntity
  8
\U+56FE\U+5C42 1
 62
     7
100
AcDbHatch
 10
0.0
 20
0.0
 30
0.0
210
0.0
220
0.0
230
1.0
  2
SOLID
 70
     1
 71
     0
 91
        1
 92
        1
 93
       10
 72
     1
 10
305.5
 20
425.36767578125
 11
280.9375
 21
411.1865234375
 72
     1
 10
280.9375
 20
411.1865234375
 11
280.5
 21
410.93359375
 72
     1
 10
280.5
 20
410.93359375
 11
280.5
 21
382.06640625
 72
     1
 10
280.5
 20
382.06640625
 11
305.0625
 21
367.884765625
 72
     1
 10
305.0625
 20
367.884765625
 11
305.5
 21
367.6328125
 72
     1
 10
305.5
 20
367.6328125
 11
330.0625
 21
381.8134765625
 72
     1
 10
330.0625
 20
381.8134765625
 11
330.5
 21
382.06640625
 72
     1
 10
330.5
 20
382.06640625
 11
330.5
 21
410.93359375
 72
     1
 10
330.5
 20
410.93359375
 11
305.9375
 21
425.11474609375
 72
     1
 10
305.9375
 20
425.11474609375
 11
305.5
 21
425.36767578125
 97
        0
 75
     2
 76
     1
 98
        0
  0
ENDBLK
  5
40E
330
40B
100
AcDbEntity
  8
0
100
AcDbBlockEnd
  0
ENDSEC
  0
SECTION
  2
ENTITIES
  0
INSERT
  5
3D
330
1F
100
AcDbEntity
  8
\U+56FE\U+5C42 1
100
AcDbBlockReference
  2
block 2
 10
0.0
 20
0.0
 30
0.0
  0
INSERT
  5
56
330
1F
100
AcDbEntity
  8
\U+56FE\U+5C42 1
100
AcDbBlockReference
  2
block 3
 10
0.0
 20
0.0
 30
0.0
  0
INSERT
  5
6F
330
1F
100
AcDbEntity
  8
\U+56FE\U+5C42 1
100
AcDbBlockReference
  2
block 4
 10
0.0
 20
0.0
 30
0.0
  0
INSERT
  5
88
330
1F
100
AcDbEntity
  8
\U+56FE\U+5C42 1
100
AcDbBlockReference
  2
block 5
 10
0.0
 20
0.0
 30
0.0
  0
INSERT
  5
A1
330
1F
100
AcDbEntity
  8
\U+56FE\U+5C42 1
100
AcDbBlockReference
  2
block 6
 10
0.0
 20
0.0
 30
0.0
  0
INSERT
  5
BA
330
1F
100
AcDbEntity
  8
\U+56FE\U+5C42 1
100
AcDbBlockReference
  2
block 7
 10
0.0
 20
0.0
 30
0.0
  0
INSERT
  5
D3
330
1F
100
AcDbEntity
  8
\U+56FE\U+5C42 1
100
AcDbBlockReference
  2
block 8
 10
0.0
 20
0.0
 30
0.0
  0
INSERT
  5
EC
330
1F
100
AcDbEntity
  8
\U+56FE\U+5C42 1
100
AcDbBlockReference
  2
block 9
 10
0.0
 20
0.0
 30
0.0
  0
INSERT
  5
105
330
1F
100
AcDbEntity
  8
\U+56FE\U+5C42 1
100
AcDbBlockReference
  2
block 10
 10
0.0
 20
0.0
 30
0.0
  0
INSERT
  5
11E
330
1F
100
AcDbEntity
  8
\U+56FE\U+5C42 1
100
AcDbBlockReference
  2
block 11
 10
0.0
 20
0.0
 30
0.0
  0
INSERT
  5
137
330
1F
100
AcDbEntity
  8
\U+56FE\U+5C42 1
100
AcDbBlockReference
  2
block 12
 10
0.0
 20
0.0
 30
0.0
  0
INSERT
  5
150
330
1F
100
AcDbEntity
  8
\U+56FE\U+5C42 1
100
AcDbBlockReference
  2
block 13
 10
0.0
 20
0.0
 30
0.0
  0
INSERT
  5
169
330
1F
100
AcDbEntity
  8
\U+56FE\U+5C42 1
100
AcDbBlockReference
  2
block 14
 10
0.0
 20
0.0
 30
0.0
  0
INSERT
  5
182
330
1F
100
AcDbEntity
  8
\U+56FE\U+5C42 1
100
AcDbBlockReference
  2
block 15
 10
0.0
 20
0.0
 30
0.0
  0
INSERT
  5
19B
330
1F
100
AcDbEntity
  8
\U+56FE\U+5C42 1
100
AcDbBlockReference
  2
block 16
 10
0.0
 20
0.0
 30
0.0
  0
INSERT
  5
1B4
330
1F
100
AcDbEntity
  8
\U+56FE\U+5C42 1
100
AcDbBlockReference
  2
block 17
 10
0.0
 20
0.0
 30
0.0
  0
INSERT
  5
1CD
330
1F
100
AcDbEntity
  8
\U+56FE\U+5C42 1
100
AcDbBlockReference
  2
block 18
 10
0.0
 20
0.0
 30
0.0
  0
INSERT
  5
1E6
330
1F
100
AcDbEntity
  8
\U+56FE\U+5C42 1
100
AcDbBlockReference
  2
block 19
 10
0.0
 20
0.0
 30
0.0
  0
INSERT
  5
1FF
330
1F
100
AcDbEntity
  8
\U+56FE\U+5C42 1
100
AcDbBlockReference
  2
block 20
 10
0.0
 20
0.0
 30
0.0
  0
INSERT
  5
218
330
1F
100
AcDbEntity
  8
\U+56FE\U+5C42 1
100
AcDbBlockReference
  2
block 21
 10
0.0
 20
0.0
 30
0.0
  0
INSERT
  5
231
330
1F
100
AcDbEntity
  8
\U+56FE\U+5C42 1
100
AcDbBlockReference
  2
block 22
 10
0.0
 20
0.0
 30
0.0
  0
INSERT
  5
24A
330
1F
100
AcDbEntity
  8
\U+56FE\U+5C42 1
100
AcDbBlockReference
  2
block 23
 10
0.0
 20
0.0
 30
0.0
  0
INSERT
  5
263
330
1F
100
AcDbEntity
  8
\U+56FE\U+5C42 1
100
AcDbBlockReference
  2
block 24
 10
0.0
 20
0.0
 30
0.0
  0
INSERT
  5
27C
330
1F
100
AcDbEntity
  8
\U+56FE\U+5C42 1
100
AcDbBlockReference
  2
block 25
 10
0.0
 20
0.0
 30
0.0
  0
INSERT
  5
295
330
1F
100
AcDbEntity
  8
\U+56FE\U+5C42 1
100
AcDbBlockReference
  2
block 26
 10
0.0
 20
0.0
 30
0.0
  0
INSERT
  5
2AE
330
1F
100
AcDbEntity
  8
\U+56FE\U+5C42 1
100
AcDbBlockReference
  2
block 27
 10
0.0
 20
0.0
 30
0.0
  0
INSERT
  5
2C7
330
1F
100
AcDbEntity
  8
\U+56FE\U+5C42 1
100
AcDbBlockReference
  2
block 28
 10
0.0
 20
0.0
 30
0.0
  0
INSERT
  5
2E0
330
1F
100
AcDbEntity
  8
\U+56FE\U+5C42 1
100
AcDbBlockReference
  2
block 29
 10
0.0
 20
0.0
 30
0.0
  0
INSERT
  5
2F9
330
1F
100
AcDbEntity
  8
\U+56FE\U+5C42 1
100
AcDbBlockReference
  2
block 30
 10
0.0
 20
0.0
 30
0.0
  0
INSERT
  5
312
330
1F
100
AcDbEntity
  8
\U+56FE\U+5C42 1
100
AcDbBlockReference
  2
block 31
 10
0.0
 20
0.0
 30
0.0
  0
INSERT
  5
32B
330
1F
100
AcDbEntity
  8
\U+56FE\U+5C42 1
100
AcDbBlockReference
  2
block 32
 10
0.0
 20
0.0
 30
0.0
  0
INSERT
  5
344
330
1F
100
AcDbEntity
  8
\U+56FE\U+5C42 1
100
AcDbBlockReference
  2
block 33
 10
0.0
 20
0.0
 30
0.0
  0
INSERT
  5
35D
330
1F
100
AcDbEntity
  8
\U+56FE\U+5C42 1
100
AcDbBlockReference
  2
block 34
 10
0.0
 20
0.0
 30
0.0
  0
INSERT
  5
376
330
1F
100
AcDbEntity
  8
\U+56FE\U+5C42 1
100
AcDbBlockReference
  2
block 35
 10
0.0
 20
0.0
 30
0.0
  0
INSERT
  5
38F
330
1F
100
AcDbEntity
  8
\U+56FE\U+5C42 1
100
AcDbBlockReference
  2
block 36
 10
0.0
 20
0.0
 30
0.0
  0
INSERT
  5
3A8
330
1F
100
AcDbEntity
  8
\U+56FE\U+5C42 1
100
AcDbBlockReference
  2
block 37
 10
0.0
 20
0.0
 30
0.0
  0
INSERT
  5
3C1
330
1F
100
AcDbEntity
  8
\U+56FE\U+5C42 1
100
AcDbBlockReference
  2
block 38
 10
0.0
 20
0.0
 30
0.0
  0
INSERT
  5
3DA
330
1F
100
AcDbEntity
  8
\U+56FE\U+5C42 1
100
AcDbBlockReference
  2
block 39
 10
0.0
 20
0.0
 30
0.0
  0
INSERT
  5
3F3
330
1F
100
AcDbEntity
  8
\U+56FE\U+5C42 1
100
AcDbBlockReference
  2
block 40
 10
0.0
 20
0.0
 30
0.0
  0
INSERT
  5
40C
330
1F
100
AcDbEntity
  8
\U+56FE\U+5C42 1
100
AcDbBlockReference
  2
block 41
 10
0.0
 20
0.0
 30
0.0
  0
ENDSEC
  0
SECTION
  2
OBJECTS
  0
DICTIONARY
  5
C
330
0
100
AcDbDictionary
281
     1
  3
ACAD_GROUP
350
D
  3
ACAD_LAYOUT
350
1A
  3
ACAD_MLINESTYLE
350
17
  3
ACAD_PLOTSETTINGS
350
19
  3
ACAD_PLOTSTYLENAME
350
E
  3
ACAD_TABLESTYLE
350
424
  3
ACAD_VISUALSTYLE
350
2A
  0
DICTIONARY
  5
D
102
{ACAD_REACTORS
330
C
102
}
330
C
100
AcDbDictionary
281
     1
  0
DICTIONARY
  5
1A
102
{ACAD_REACTORS
330
C
102
}
330
C
100
AcDbDictionary
281
     1
  3
Layout1
350
1E
  3
Layout2
350
26
  3
Model
350
22
  0
DICTIONARY
  5
17
102
{ACAD_REACTORS
330
C
102
}
330
C
100
AcDbDictionary
281
     1
  3
Standard
350
18
  0
DICTIONARY
  5
19
102
{ACAD_REACTORS
330
C
102
}
330
C
100
AcDbDictionary
281
     1
  0
ACDBDICTIONARYWDFLT
  5
E
102
{ACAD_REACTORS
330
C
102
}
330
C
100
AcDbDictionary
281
     1
  3
Normal
350
F
100
AcDbDictionaryWithDefault
340
F
  0
DICTIONARY
  5
424
102
{ACAD_REACTORS
330
C
102
}
330
C
100
AcDbDictionary
281
     1
  0
DICTIONARY
  5
2A
102
{ACAD_REACTORS
330
C
102
}
330
C
100
AcDbDictionary
281
     1
  3
2dWireframe
350
2F
  3
3D Hidden
350
31
  3
3dWireframe
350
30
  3
Basic
350
32
  3
Brighten
350
36
  3
ColorChange
350
3A
  3
Conceptual
350
34
  3
Dim
350
35
  3
Facepattern
350
39
  3
Flat
350
2B
  3
FlatWithEdges
350
2C
  3
Gouraud
350
2D
  3
GouraudWithEdges
350
2E
  3
Linepattern
350
38
  3
Realistic
350
33
  3
Thicken
350
37
  0
LAYOUT
  5
1E
102
{ACAD_REACTORS
330
1A
102
}
330
1A
100
AcDbPlotSettings
  1

  2
none_device
  4

  6

 40
0.0
 41
0.0
 42
0.0
 43
0.0
 44
0.0
 45
0.0
 46
0.0
 47
0.0
 48
0.0
 49
0.0
140
0.0
141
0.0
142
1.0
143
1.0
 70
   688
 72
     0
 73
     0
 74
     5
  7

 75
    16
147
1.0
148
0.0
149
0.0
100
AcDbLayout
  1
Layout1
 70
     1
 71
     1
 10
0.0
 20
0.0
 11
12.0
 21
9.0
 12
0.0
 22
0.0
 32
0.0
 14
1.000000000000000E+20
 24
1.000000000000000E+20
 34
1.000000000000000E+20
 15
-1.000000000000000E+20
 25
-1.000000000000000E+20
 35
-1.000000000000000E+20
146
0.0
 13
0.0
 23
0.0
 33
0.0
 16
1.0
 26
0.0
 36
0.0
 17
0.0
 27
1.0
 37
0.0
 76
     0
330
1B
  0
LAYOUT
  5
26
102
{ACAD_REACTORS
330
1A
102
}
330
1A
100
AcDbPlotSettings
  1

  2
none_device
  4

  6

 40
0.0
 41
0.0
 42
0.0
 43
0.0
 44
0.0
 45
0.0
 46
0.0
 47
0.0
 48
0.0
 49
0.0
140
0.0
141
0.0
142
1.0
143
1.0
 70
   688
 72
     0
 73
     0
 74
     5
  7

 75
    16
147
1.0
148
0.0
149
0.0
100
AcDbLayout
  1
Layout2
 70
     1
 71
     2
 10
0.0
 20
0.0
 11
0.0
 21
0.0
 12
0.0
 22
0.0
 32
0.0
 14
0.0
 24
0.0
 34
0.0
 15
0.0
 25
0.0
 35
0.0
146
0.0
 13
0.0
 23
0.0
 33
0.0
 16
1.0
 26
0.0
 36
0.0
 17
0.0
 27
1.0
 37
0.0
 76
     0
330
23
  0
LAYOUT
  5
22
102
{ACAD_REACTORS
330
1A
102
}
330
1A
100
AcDbPlotSettings
  1

  2
none_device
  4

  6

 40
0.0
 41
0.0
 42
0.0
 43
0.0
 44
0.0
 45
0.0
 46
0.0
 47
0.0
 48
0.0
 49
0.0
140
0.0
141
0.0
142
1.0
143
1.0
 70
  1712
 72
     0
 73
     0
 74
     0
  7

 75
     0
147
1.0
148
0.0
149
0.0
100
AcDbLayout
  1
Model
 70
     1
 71
     0
 10
0.0
 20
0.0
 11
12.0
 21
9.0
 12
0.0
 22
0.0
 32
0.0
 14
1.000000000000000E+20
 24
1.000000000000000E+20
 34
1.000000000000000E+20
 15
-1.000000000000000E+20
 25
-1.000000000000000E+20
 35
-1.000000000000000E+20
146
0.0
 13
0.0
 23
0.0
 33
0.0
 16
1.0
 26
0.0
 36
0.0
 17
0.0
 27
1.0
 37
0.0
 76
     0
330
1F
331
29
  0
MLINESTYLE
  5
18
102
{ACAD_REACTORS
330
17
102
}
330
17
100
AcDbMlineStyle
  2
Standard
 70
     0
  3

 62
   256
 51
90.0
 52
90.0
 71
     2
 49
0.5
 62
   256
  6
BYLAYER
 49
-0.5
 62
   256
  6
BYLAYER
  0
ACDBPLACEHOLDER
  5
F
102
{ACAD_REACTORS
330
E
102
}
330
E
  0
VISUALSTYLE
  5
2F
102
{ACAD_REACTORS
330
2A
102
}
330
2A
100
AcDbVisualStyle
  2
2dWireframe
 70
     4
 71
     0
 72
     2
 73
     0
 90
        0
 40
-0.6
 41
-30.0
 62
     5
 63
     7
 74
     1
 91
        4
 64
     7
 65
   257
 75
     1
175
     1
 42
1.0
 92
        0
 66
   257
 43
1.0
 76
     1
 77
     6
 78
     2
 67
     7
 79
     5
170
     0
171
     0
290
     0
174
     0
 93
        1
 44
0.0
173
     0
291
     0
 45
0.0
1001
ACAD
1000
AcDbSavedByObjectVersion
1070
     0
  0
VISUALSTYLE
  5
31
102
{ACAD_REACTORS
330
2A
102
}
330
2A
100
AcDbVisualStyle
  2
3D Hidden
 70
     6
 71
     1
 72
     2
 73
     2
 90
        0
 40
-0.6
 41
-30.0
 62
     5
 63
     7
 74
     2
 91
        2
 64
     7
 65
   257
 75
     2
175
     1
 42
40.0
 92
        0
 66
   257
 43
1.0
 76
     1
 77
     6
 78
     2
 67
     7
 79
     3
170
     0
171
     0
290
     0
174
     0
 93
        1
 44
0.0
173
     0
291
     0
 45
0.0
1001
ACAD
1000
AcDbSavedByObjectVersion
1070
     0
  0
VISUALSTYLE
  5
30
102
{ACAD_REACTORS
330
2A
102
}
330
2A
100
AcDbVisualStyle
  2
3dWireframe
 70
     5
 71
     0
 72
     2
 73
     0
 90
        0
 40
-0.6
 41
-30.0
 62
     5
 63
     7
 74
     1
 91
        4
 64
     7
 65
   257
 75
     1
175
     1
 42
1.0
 92
        0
 66
   257
 43
1.0
 76
     1
 77
     6
 78
     2
 67
     7
 79
     5
170
     0
171
     0
290
     0
174
     0
 93
        1
 44
0.0
173
     0
291
     0
 45
0.0
1001
ACAD
1000
AcDbSavedByObjectVersion
1070
     0
  0
VISUALSTYLE
  5
32
102
{ACAD_REACTORS
330
2A
102
}
330
2A
100
AcDbVisualStyle
  2
Basic
 70
     7
 71
     1
 72
     0
 73
     1
 90
        0
 40
-0.6
 41
-30.0
 62
     5
 63
     7
 74
     0
 91
        4
 64
     7
 65
   257
 75
     1
175
     1
 42
1.0
 92
        8
 66
     7
 43
1.0
 76
     1
 77
     6
 78
     2
 67
     7
 79
     5
170
     0
171
     0
290
     0
174
     0
 93
        1
 44
0.0
173
     0
291
     1
 45
0.0
1001
ACAD
1000
AcDbSavedByObjectVersion
1070
     0
  0
VISUALSTYLE
  5
36
102
{ACAD_REACTORS
330
2A
102
}
330
2A
100
AcDbVisualStyle
  2
Brighten
 70
    12
 71
     2
 72
     2
 73
     0
 90
        0
 40
-0.6
 41
-30.0
 62
     5
 63
     7
 74
     1
 91
        4
 64
     7
 65
   257
 75
     1
175
     1
 42
1.0
 92
        8
 66
     7
 43
1.0
 76
     1
 77
     6
 78
     2
 67
     7
 79
     5
170
     0
171
     0
290
     0
174
     0
 93
        1
 44
50.0
173
     0
291
     1
 45
0.0
1001
ACAD
1000
AcDbSavedByObjectVersion
1070
     0
  0
VISUALSTYLE
  5
3A
102
{ACAD_REACTORS
330
2A
102
}
330
2A
100
AcDbVisualStyle
  2
ColorChange
 70
    16
 71
     2
 72
     2
 73
     3
 90
        0
 40
-0.6
 41
-30.0
 62
     5
 63
     8
 74
     1
 91
        4
 64
     7
 65
   257
 75
     1
175
     1
 42
1.0
 92
        8
 66
     8
 43
1.0
 76
     1
 77
     6
 78
     2
 67
     7
 79
     5
170
     0
171
     0
290
     0
174
     0
 93
        1
 44
0.0
173
     0
291
     1
 45
0.0
1001
ACAD
1000
AcDbSavedByObjectVersion
1070
     0
  0
VISUALSTYLE
  5
34
102
{ACAD_REACTORS
330
2A
102
}
330
2A
100
AcDbVisualStyle
  2
Conceptual
 70
     9
 71
     3
 72
     2
 73
     0
 90
        0
 40
-0.6
 41
-30.0
 62
     5
 63
     7
 74
     2
 91
        2
 64
     7
 65
   257
 75
     1
175
     1
 42
40.0
 92
        8
 66
     7
 43
1.0
 76
     1
 77
     6
 78
     2
 67
     7
 79
     3
170
     0
171
     0
290
     0
174
     0
 93
        1
 44
0.0
173
     0
291
     0
 45
0.0
1001
ACAD
1000
AcDbSavedByObjectVersion
1070
     0
  0
VISUALSTYLE
  5
35
102
{ACAD_REACTORS
330
2A
102
}
330
2A
100
AcDbVisualStyle
  2
Dim
 70
    11
 71
     2
 72
     2
 73
     0
 90
        0
 40
-0.6
 41
-30.0
 62
     5
 63
     7
 74
     1
 91
        4
 64
     7
 65
   257
 75
     1
175
     1
 42
1.0
 92
        8
 66
     7
 43
1.0
 76
     1
 77
     6
 78
     2
 67
     7
 79
     5
170
     0
171
     0
290
     0
174
     0
 93
        1
 44
-50.0
173
     0
291
     1
 45
0.0
1001
ACAD
1000
AcDbSavedByObjectVersion
1070
     0
  0
VISUALSTYLE
  5
39
102
{ACAD_REACTORS
330
2A
102
}
330
2A
100
AcDbVisualStyle
  2
Facepattern
 70
    15
 71
     2
 72
     2
 73
     0
 90
        0
 40
-0.6
 41
-30.0
 62
     5
 63
     7
 74
     1
 91
        4
 64
     7
 65
   257
 75
     1
175
     1
 42
1.0
 92
        8
 66
     7
 43
1.0
 76
     1
 77
     6
 78
     2
 67
     7
 79
     5
170
     0
171
     0
290
     0
174
     0
 93
        1
 44
0.0
173
     0
291
     1
 45
0.0
1001
ACAD
1000
AcDbSavedByObjectVersion
1070
     0
  0
VISUALSTYLE
  5
2B
102
{ACAD_REACTORS
330
2A
102
}
330
2A
100
AcDbVisualStyle
  2
Flat
 70
     0
 71
     2
 72
     1
 73
     1
 90
        2
 40
-0.6
 41
30.0
 62
     5
 63
     7
 74
     0
 91
        4
 64
     7
 65
   257
 75
     1
175
     1
 42
1.0
 92
        8
 66
     7
 43
1.0
 76
     1
 77
     6
 78
     2
 67
     7
 79
     5
170
     0
171
     0
290
     0
174
     0
 93
       13
 44
0.0
173
     0
291
     1
 45
0.0
1001
ACAD
1000
AcDbSavedByObjectVersion
1070
     0
  0
VISUALSTYLE
  5
2C
102
{ACAD_REACTORS
330
2A
102
}
330
2A
100
AcDbVisualStyle
  2
FlatWithEdges
 70
     1
 71
     2
 72
     1
 73
     1
 90
        2
 40
-0.6
 41
30.0
 62
     5
 63
     7
 74
     1
 91
        4
 64
     7
 65
   257
 75
     1
175
     1
 42
1.0
 92
        0
 66
   257
 43
1.0
 76
     1
 77
     6
 78
     2
 67
     7
 79
     5
170
     0
171
     0
290
     0
174
     0
 93
       13
 44
0.0
173
     0
291
     1
 45
0.0
1001
ACAD
1000
AcDbSavedByObjectVersion
1070
     0
  0
VISUALSTYLE
  5
2D
102
{ACAD_REACTORS
330
2A
102
}
330
2A
100
AcDbVisualStyle
  2
Gouraud
 70
     2
 71
     2
 72
     2
 73
     1
 90
        2
 40
-0.6
 41
30.0
 62
     5
 63
     7
 74
     0
 91
        4
 64
     7
 65
   257
 75
     1
175
     1
 42
1.0
 92
        0
 66
     7
 43
1.0
 76
     1
 77
     6
 78
     2
 67
     7
 79
     5
170
     0
171
     0
290
     0
174
     0
 93
       13
 44
0.0
173
     0
291
     1
 45
0.0
1001
ACAD
1000
AcDbSavedByObjectVersion
1070
     0
  0
VISUALSTYLE
  5
2E
102
{ACAD_REACTORS
330
2A
102
}
330
2A
100
AcDbVisualStyle
  2
GouraudWithEdges
 70
     3
 71
     2
 72
     2
 73
     1
 90
        2
 40
-0.6
 41
30.0
 62
     5
 63
     7
 74
     1
 91
        4
 64
     7
 65
   257
 75
     1
175
     1
 42
1.0
 92
        0
 66
   257
 43
1.0
 76
     1
 77
     6
 78
     2
 67
     7
 79
     5
170
     0
171
     0
290
     0
174
     0
 93
       13
 44
0.0
173
     0
291
     1
 45
0.0
1001
ACAD
1000
AcDbSavedByObjectVersion
1070
     0
  0
VISUALSTYLE
  5
38
102
{ACAD_REACTORS
330
2A
102
}
330
2A
100
AcDbVisualStyle
  2
Linepattern
 70
    14
 71
     2
 72
     2
 73
     0
 90
        0
 40
-0.6
 41
-30.0
 62
     5
 63
     7
 74
     1
 91
        4
 64
     7
 65
   257
 75
     7
175
     7
 42
1.0
 92
        8
 66
     7
 43
1.0
 76
     1
 77
     6
 78
     2
 67
     7
 79
     5
170
     0
171
     0
290
     0
174
     0
 93
        1
 44
0.0
173
     0
291
     1
 45
0.0
1001
ACAD
1000
AcDbSavedByObjectVersion
1070
     0
  0
VISUALSTYLE
  5
33
102
{ACAD_REACTORS
330
2A
102
}
330
2A
100
AcDbVisualStyle
  2
Realistic
 70
     8
 71
     2
 72
     2
 73
     0
 90
        0
 40
-0.6
 41
-30.0
 62
     5
 63
     7
 74
     1
 91
        0
 64
     7
 65
   257
 75
     1
175
     1
 42
1.0
 92
        8
 66
     8
 43
1.0
 76
     1
 77
     6
 78
     2
 67
     7
 79
     5
170
     0
171
     0
290
     0
174
     0
 93
       13
 44
0.0
173
     0
291
     0
 45
0.0
1001
ACAD
1000
AcDbSavedByObjectVersion
1070
     0
  0
VISUALSTYLE
  5
37
102
{ACAD_REACTORS
330
2A
102
}
330
2A
100
AcDbVisualStyle
  2
Thicken
 70
    13
 71
     2
 72
     2
 73
     0
 90
        0
 40
-0.6
 41
-30.0
 62
     5
 63
     7
 74
     1
 91
        4
 64
     7
 65
   257
 75
     1
175
     1
 42
1.0
 92
       12
 66
     7
 43
1.0
 76
     1
 77
     6
 78
     2
 67
     7
 79
     5
170
     0
171
     0
290
     0
174
     0
 93
        1
 44
0.0
173
     0
291
     1
 45
0.0
1001
ACAD
1000
AcDbSavedByObjectVersion
1070
     0
  0
ENDSEC
  0
EOF
